# Wavefront OBJ file
# Exported by Misfit Model 3D 1.3.8
# Sat Oct 29 00:18:23 2016

mtllib hat_elephant_model.mtl

# 168 Vertices
v -16.4018 51.1418 -36.958
v -13.9522 61.338902 -36.052399
v 0.0 50.004398 -41.203098
v 0.0 60.3713 -39.663502
v -28.408701 54.2495 -25.360201
v -24.165899 63.982399 -26.186701
v -32.8036 58.494499 -9.51725
v -27.9044 69.061996 -12.3488
v -28.408701 62.739601 6.32567
v -24.165899 72.582199 1.15234
v 28.408701 54.2495 -25.360201
v 24.165899 63.982399 -26.186701
v 32.8036 58.494499 -9.51725
v 27.9044 69.061996 -12.3488
v -18.7855 72.265099 -24.7579
v -34.491699 48.1992 -6.75863
v -29.870701 43.7356 -23.4168
v -29.870701 52.6628 9.8996
v -17.245899 40.468102 -35.6115
v -16.4018 30.551201 -31.440701
v -28.408701 33.658798 -19.842899
v 29.870701 43.7356 -23.4168
v 34.491699 48.1992 -6.75863
v -32.8036 37.9039 -4.0
v -28.408701 42.148998 11.8429
v 16.4018 51.1418 -36.958
v 17.245899 40.468102 -35.6115
v 0.0 39.272099 -40.0751
v 28.408701 33.658798 -19.842899
v 16.4018 30.551201 -31.440701
v 0.0 29.4137 -35.685799
v 29.870701 52.6628 9.8996
v 28.408701 42.148998 11.8429
v 32.8036 37.9039 -4.0
v 28.408701 62.739601 6.32567
v 24.165899 72.582199 1.15234
v -13.9522 74.941399 12.3462
v 0.0 78.953598 14.311
v 0.0 82.536598 5.76941
v 13.9522 74.941399 12.3462
v 17.6434 66.058701 18.7124
v -17.6434 66.058701 18.7124
v -18.487499 55.930302 22.094299
v 18.487499 55.930302 22.094299
v 13.9522 61.338902 -36.052399
v 0.0 76.937798 -26.248199
v -11.9893 78.162498 -21.677401
v 0.0 81.515701 -15.6858
v -10.173 81.853996 -10.2591
v 0.0 83.403801 -5.15715
v -19.4219 79.196999 -4.57002
v 11.9893 78.162498 -21.677401
v 10.173 81.853996 -10.2591
v 19.4219 79.196999 -4.57002
v 0.0 69.641502 -34.5494
v 18.7855 72.265099 -24.7579
v 0.0 73.561996 22.671499
v -12.5526 64.427902 25.0508
v 12.5526 64.427902 25.0508
v -9.78524 65.4105 34.210499
v 0.0 68.928101 28.6868
v 9.78523 65.4105 34.210499
v 0.0 71.5494 35.582699
v 0.0 68.5961 32.610298
v 16.4018 45.256599 23.440701
v -12.6356 58.999298 36.680901
v -16.5471 54.643501 27.352501
v -16.250299 54.017799 33.518501
v 12.6356 58.999298 36.680901
v 16.5471 54.643501 27.352501
v 16.250299 54.017799 33.518501
v 14.7066 57.485401 44.6693
v -10.2285 68.193398 40.874599
v 0.0 77.8881 37.910702
v -7.91162 76.063499 43.278702
v 10.2285 68.193398 40.874599
v 7.91162 76.063499 43.278702
v 3.31085 81.704903 50.498402
v 0.0 72.322899 50.736401
v 5.18495 73.1744 49.4939
v -7.71408 64.327904 47.475201
v -5.18495 73.1744 49.4939
v -14.7066 57.485401 44.6693
v -17.1168 51.514801 42.817501
v -14.7115 54.831501 52.818298
v 17.1168 51.514801 42.817501
v 7.71408 64.327904 47.475201
v 14.7115 54.831501 52.818298
v 9.23194 48.439201 35.2799
v 9.63283 58.063 43.039299
v 8.75925 52.690201 41.496399
v -3.13035 62.3578 50.491001
v 3.13035 62.3578 50.491001
v -9.23194 48.439201 35.2799
v -9.63283 58.063 43.039299
v -8.75925 52.690201 41.496399
v -4.12979 55.434799 49.3438
v -4.3565 50.7743 45.731998
v -3.59821 47.7141 40.791901
v 4.12979 55.434799 49.3438
v 4.3565 50.7743 45.731998
v -6.02296 47.325699 35.0145
v -16.4018 45.256599 23.440701
v -7.25911 48.764702 29.3605
v 0.0 46.6675 34.749001
v 3.59821 47.7141 40.791901
v 6.02296 47.325699 35.0145
v 0.0 37.9039 -4.0
v 7.25226 46.380798 27.6362
v -7.25226 46.380798 27.6362
v 7.25911 48.764702 29.3605
v 0.0 47.817501 30.4098
v -20.2386 41.428398 -9.81879
v -33.555302 75.645798 -29.545799
v -4.53015 79.442596 -2.65381
v -36.439899 76.498596 -26.2103
v -52.374599 57.554901 -34.3283
v -48.708302 56.4711 -38.5676
v -43.416698 36.8736 -21.374901
v -39.750401 35.789799 -25.614201
v -50.273201 66.348801 -34.7593
v -44.6092 72.973801 -31.554701
v -46.606998 65.264999 -38.9986
v -40.942902 71.889999 -35.793999
v -40.014599 34.429501 -17.807899
v -36.3484 33.3456 -22.047199
v -31.5394 32.849499 -17.761499
v -25.8183 35.7206 -13.5478
v -23.903999 42.512501 -5.57886
v -29.484501 36.804501 -9.30845
v -35.2057 33.9333 -13.5221
v 20.2386 41.428398 -9.81879
v 4.53015 79.442596 -2.65381
v 33.555302 75.645798 -29.545799
v 36.439899 76.498596 -26.2103
v 52.374599 57.554901 -34.3283
v 43.416698 36.8736 -21.374901
v 48.708302 56.4711 -38.5676
v 39.750401 35.789799 -25.614201
v 50.273201 66.348801 -34.7593
v 46.606998 65.264999 -38.9986
v 44.6092 72.973801 -31.554701
v 40.942902 71.889999 -35.793999
v 40.014599 34.429501 -17.807899
v 36.3484 33.3456 -22.047199
v 31.5394 32.849499 -17.761499
v 25.8183 35.7206 -13.5478
v 29.484501 36.804501 -9.30845
v 23.903999 42.512501 -5.57886
v 35.2057 33.9333 -13.5221
v -5.86804 84.501099 44.7673
v 5.86804 84.501099 44.7673
v -3.31085 81.704903 50.498402
v 0.0 85.907303 39.967499
v 5.86163 89.804703 46.919701
v 3.12991 86.574402 51.490299
v 0.0 91.177399 42.753502
v 2.6654 98.445297 48.946899
v -2.6654 98.445297 48.946899
v -3.12991 86.574402 51.490299
v 0.0 91.550903 55.126598
v 5.78629 92.2174 51.1847
v -5.86163 89.804703 46.919701
v -5.78629 92.2174 51.1847
v 5.96163 95.169098 49.6427
v -5.96163 95.169098 49.6427
v 3.51128 91.4011 54.072601
v -3.51128 91.4011 54.072601

# 966 Texture Coordinates
vt 0.517997 0.061242
vt 0.508653 0.085395
vt 0.529683 0.061242
vt 0.529683 0.061242
vt 0.508653 0.085395
vt 0.518594 0.085395
vt 0.486069 0.061242
vt 0.481494 0.085395
vt 0.517997 0.061242
vt 0.517997 0.061242
vt 0.481494 0.085395
vt 0.508653 0.085395
vt 0.486069 0.061242
vt 0.442456 0.061242
vt 0.481494 0.085395
vt 0.481494 0.085395
vt 0.442456 0.061242
vt 0.442456 0.088723
vt 0.398842 0.061242
vt 0.405356 0.088487
vt 0.442456 0.061242
vt 0.442456 0.061242
vt 0.405356 0.088487
vt 0.442456 0.088723
vt 0.486069 0.061242
vt 0.481494 0.085395
vt 0.442456 0.061242
vt 0.442456 0.061242
vt 0.481494 0.085395
vt 0.442456 0.088723
vt 0.508653 0.085395
vt 0.481494 0.085395
vt 0.472124 0.104563
vt 0.481494 0.085395
vt 0.442456 0.088723
vt 0.472124 0.104563
vt 0.442456 0.061242
vt 0.486069 0.061242
vt 0.442456 0.034469
vt 0.442456 0.034469
vt 0.486069 0.061242
vt 0.488314 0.034468
vt 0.398842 0.061242
vt 0.442456 0.061242
vt 0.396597 0.034468
vt 0.396597 0.034468
vt 0.442456 0.061242
vt 0.442456 0.034469
vt 0.488314 0.034468
vt 0.486069 0.061242
vt 0.521884 0.034468
vt 0.521884 0.034468
vt 0.486069 0.061242
vt 0.517997 0.061242
vt 0.517997 0.007695
vt 0.486069 0.007695
vt 0.521884 0.034468
vt 0.521884 0.034468
vt 0.486069 0.007695
vt 0.488314 0.034468
vt 0.486069 0.061242
vt 0.442456 0.061242
vt 0.488314 0.034468
vt 0.488314 0.034468
vt 0.442456 0.061242
vt 0.442456 0.034469
vt 0.488314 0.034468
vt 0.486069 0.007695
vt 0.442456 0.034469
vt 0.442456 0.034469
vt 0.486069 0.007695
vt 0.442456 0.007695
vt 0.442456 0.034469
vt 0.442456 0.007695
vt 0.396597 0.034468
vt 0.396597 0.034468
vt 0.442456 0.007695
vt 0.398842 0.007695
vt 0.486069 0.061242
vt 0.488314 0.034468
vt 0.517997 0.061242
vt 0.517997 0.061242
vt 0.488314 0.034468
vt 0.521884 0.034468
vt 0.529683 0.061242
vt 0.517997 0.061242
vt 0.534172 0.034469
vt 0.534172 0.034469
vt 0.517997 0.061242
vt 0.521884 0.034468
vt 0.521884 0.034468
vt 0.517997 0.061242
vt 0.534172 0.034469
vt 0.534172 0.034469
vt 0.517997 0.061242
vt 0.529683 0.061242
vt 0.486069 0.007695
vt 0.517997 0.007695
vt 0.488314 0.034468
vt 0.488314 0.034468
vt 0.517997 0.007695
vt 0.521884 0.034468
vt 0.517997 0.007695
vt 0.529683 0.007695
vt 0.521884 0.034468
vt 0.521884 0.034468
vt 0.529683 0.007695
vt 0.534172 0.034469
vt 0.534172 0.034469
vt 0.529683 0.007695
vt 0.521884 0.034468
vt 0.521884 0.034468
vt 0.529683 0.007695
vt 0.517997 0.007695
vt 0.396597 0.034468
vt 0.398842 0.007695
vt 0.442456 0.034469
vt 0.442456 0.034469
vt 0.398842 0.007695
vt 0.442456 0.007695
vt 0.442456 0.034469
vt 0.442456 0.007695
vt 0.488314 0.034468
vt 0.488314 0.034468
vt 0.442456 0.007695
vt 0.486069 0.007695
vt 0.398842 0.061242
vt 0.442456 0.061242
vt 0.405356 0.088487
vt 0.405356 0.088487
vt 0.442456 0.061242
vt 0.442456 0.088723
vt 0.442456 0.034469
vt 0.442456 0.061242
vt 0.396597 0.034468
vt 0.396597 0.034468
vt 0.442456 0.061242
vt 0.398842 0.061242
vt 0.374981 0.086934
vt 0.362289 0.093025
vt 0.386646 0.109638
vt 0.362289 0.093025
vt 0.374981 0.086934
vt 0.386646 0.109638
vt 0.398842 0.061242
vt 0.405356 0.088487
vt 0.364743 0.061242
vt 0.364743 0.061242
vt 0.405356 0.088487
vt 0.374981 0.086934
vt 0.374981 0.086934
vt 0.405356 0.088487
vt 0.364743 0.061242
vt 0.364743 0.061242
vt 0.405356 0.088487
vt 0.398842 0.061242
vt 0.013873 0.990468
vt 0.449247 0.990468
vt 0.013873 0.721046
vt 0.013873 0.721046
vt 0.449247 0.990468
vt 0.449247 0.721046
vt 0.013873 0.990468
vt 0.013873 0.721046
vt 0.449247 0.990468
vt 0.449247 0.990468
vt 0.013873 0.721046
vt 0.449247 0.721046
vt 0.486069 0.061242
vt 0.517997 0.061242
vt 0.481494 0.085395
vt 0.481494 0.085395
vt 0.517997 0.061242
vt 0.508653 0.085395
vt 0.517997 0.061242
vt 0.529683 0.061242
vt 0.508653 0.085395
vt 0.508653 0.085395
vt 0.529683 0.061242
vt 0.518594 0.085395
vt 0.472736 0.11687
vt 0.460153 0.11687
vt 0.442456 0.12111
vt 0.460153 0.11687
vt 0.428285 0.118403
vt 0.442456 0.12111
vt 0.428285 0.118403
vt 0.414114 0.118846
vt 0.442456 0.12111
vt 0.472124 0.104563
vt 0.442456 0.088723
vt 0.415501 0.108257
vt 0.442456 0.088723
vt 0.405356 0.088487
vt 0.415501 0.108257
vt 0.405356 0.088487
vt 0.374981 0.086934
vt 0.415501 0.108257
vt 0.472124 0.104563
vt 0.415501 0.108257
vt 0.460153 0.11687
vt 0.415501 0.108257
vt 0.428285 0.118403
vt 0.460153 0.11687
vt 0.415501 0.108257
vt 0.374981 0.086934
vt 0.386646 0.109638
vt 0.415501 0.108257
vt 0.386646 0.109638
vt 0.428285 0.118403
vt 0.386646 0.109638
vt 0.414114 0.118846
vt 0.428285 0.118403
vt 0.460153 0.11687
vt 0.472736 0.11687
vt 0.442456 0.12111
vt 0.414114 0.118846
vt 0.428285 0.118403
vt 0.442456 0.12111
vt 0.428285 0.118403
vt 0.460153 0.11687
vt 0.442456 0.12111
vt 0.386646 0.109638
vt 0.374981 0.086934
vt 0.415501 0.108257
vt 0.374981 0.086934
vt 0.405356 0.088487
vt 0.415501 0.108257
vt 0.405356 0.088487
vt 0.442456 0.088723
vt 0.415501 0.108257
vt 0.386646 0.109638
vt 0.428285 0.118403
vt 0.414114 0.118846
vt 0.428285 0.118403
vt 0.386646 0.109638
vt 0.415501 0.108257
vt 0.508653 0.085395
vt 0.518594 0.085395
vt 0.499078 0.104563
vt 0.518594 0.085395
vt 0.508653 0.085395
vt 0.499078 0.104563
vt 0.499078 0.104563
vt 0.508653 0.085395
vt 0.472124 0.104563
vt 0.499078 0.104563
vt 0.472736 0.11687
vt 0.460153 0.11687
vt 0.499078 0.104563
vt 0.460153 0.11687
vt 0.472736 0.11687
vt 0.481494 0.085395
vt 0.508653 0.085395
vt 0.472124 0.104563
vt 0.472124 0.104563
vt 0.508653 0.085395
vt 0.499078 0.104563
vt 0.415501 0.108257
vt 0.442456 0.088723
vt 0.472124 0.104563
vt 0.442456 0.088723
vt 0.481494 0.085395
vt 0.472124 0.104563
vt 0.472124 0.104563
vt 0.499078 0.104563
vt 0.460153 0.11687
vt 0.415501 0.108257
vt 0.460153 0.11687
vt 0.428285 0.118403
vt 0.460153 0.11687
vt 0.499078 0.104563
vt 0.472124 0.104563
vt 0.460153 0.11687
vt 0.415501 0.108257
vt 0.472124 0.104563
vt 0.347375 0.080144
vt 0.374981 0.086934
vt 0.362289 0.093025
vt 0.374981 0.086934
vt 0.347375 0.080144
vt 0.362289 0.093025
vt 0.374981 0.086934
vt 0.347375 0.080144
vt 0.364743 0.061242
vt 0.347375 0.080144
vt 0.374981 0.086934
vt 0.364743 0.061242
vt 0.347375 0.080144
vt 0.364743 0.061242
vt 0.339996 0.053165
vt 0.339996 0.053165
vt 0.364743 0.061242
vt 0.363027 0.034469
vt 0.364743 0.061242
vt 0.339996 0.053165
vt 0.363027 0.034469
vt 0.347375 0.080144
vt 0.339996 0.053165
vt 0.364743 0.061242
vt 0.212903 0.603635
vt 0.170215 0.659926
vt 0.228781 0.700439
vt 0.170215 0.659926
vt 0.127526 0.603635
vt 0.111648 0.700439
vt 0.170215 0.659926
vt 0.111648 0.700439
vt 0.170215 0.707442
vt 0.228781 0.700439
vt 0.170215 0.659926
vt 0.170215 0.707442
vt 0.170215 0.557028
vt 0.127526 0.603635
vt 0.170215 0.606165
vt 0.212903 0.603635
vt 0.170215 0.557028
vt 0.170215 0.606165
vt 0.170215 0.659926
vt 0.212903 0.603635
vt 0.170215 0.606165
vt 0.127526 0.603635
vt 0.170215 0.659926
vt 0.170215 0.606165
vt 0.366914 0.007695
vt 0.398842 0.007695
vt 0.363027 0.034469
vt 0.363027 0.034469
vt 0.398842 0.007695
vt 0.396597 0.034468
vt 0.246758 0.601106
vt 0.285716 0.692697
vt 0.26441 0.590275
vt 0.212903 0.603635
vt 0.228781 0.700439
vt 0.246758 0.601106
vt 0.363027 0.034469
vt 0.34342 0.033395
vt 0.339996 0.053165
vt 0.285716 0.692697
vt 0.246758 0.601106
vt 0.228781 0.700439
vt 0.111648 0.700439
vt 0.127526 0.603635
vt 0.093671 0.601106
vt 0.34342 0.033395
vt 0.366914 0.007695
vt 0.363027 0.034469
vt 0.34342 0.033395
vt 0.363027 0.034469
vt 0.339996 0.053165
vt 0.065692 0.691089
vt 0.093671 0.601106
vt 0.076019 0.590275
vt 0.030938 0.425198
vt 0.049878 0.397195
vt 0.058961 0.425263
vt 0.093671 0.601106
vt 0.065692 0.691089
vt 0.111648 0.700439
vt 0.170215 0.557028
vt 0.212903 0.603635
vt 0.219207 0.547675
vt 0.219207 0.547675
vt 0.212903 0.603635
vt 0.246758 0.601106
vt 0.170215 0.510046
vt 0.170215 0.557028
vt 0.21548 0.504293
vt 0.21548 0.504293
vt 0.170215 0.557028
vt 0.219207 0.547675
vt 0.127526 0.603635
vt 0.170215 0.557028
vt 0.121223 0.547675
vt 0.127526 0.603635
vt 0.121223 0.547675
vt 0.093671 0.601106
vt 0.121223 0.547675
vt 0.170215 0.557028
vt 0.124949 0.504293
vt 0.124949 0.504293
vt 0.170215 0.557028
vt 0.170215 0.510046
vt 0.879864 0.935174
vt 0.811582 0.884188
vt 0.810098 0.951322
vt 0.21548 0.504293
vt 0.256367 0.535623
vt 0.254979 0.491694
vt 0.256367 0.535623
vt 0.21548 0.504293
vt 0.219207 0.547675
vt 0.030938 0.425198
vt 0.013841 0.398427
vt 0.002381 0.425133
vt 0.013841 0.398427
vt 0.030938 0.425198
vt 0.049878 0.397195
vt 0.049878 0.397195
vt 0.030938 0.425198
vt 0.058961 0.425263
vt 0.030938 0.425198
vt 0.013841 0.398427
vt 0.049878 0.397195
vt 0.124949 0.504293
vt 0.084062 0.535622
vt 0.121223 0.547675
vt 0.084062 0.535622
vt 0.124949 0.504293
vt 0.08545 0.491693
vt 0.013841 0.398427
vt 0.030938 0.425198
vt 0.002381 0.425133
vt 0.013841 0.398427
vt 0.033203 0.381892
vt 0.049878 0.397195
vt 0.587651 0.967324
vt 0.543197 0.996927
vt 0.592937 0.996927
vt 0.030938 0.425198
vt 0.049878 0.39755
vt 0.002381 0.425133
vt 0.033203 0.381892
vt 0.002381 0.425133
vt 0.049878 0.39755
vt 0.049878 0.39755
vt 0.030938 0.425198
vt 0.058961 0.425263
vt 0.002381 0.425133
vt 0.033203 0.381892
vt 0.013841 0.398427
vt 0.076019 0.590275
vt 0.121223 0.547675
vt 0.084062 0.535622
vt 0.121223 0.547675
vt 0.076019 0.590275
vt 0.093671 0.601106
vt 0.002381 0.425133
vt 0.033203 0.381892
vt 0.033203 0.381892
vt 0.736562 0.857611
vt 0.811582 0.884188
vt 0.810098 0.817054
vt 0.736562 0.910765
vt 0.811582 0.884188
vt 0.736562 0.857611
vt 0.811582 0.884188
vt 0.736562 0.910765
vt 0.810098 0.951322
vt 0.810098 0.817054
vt 0.739259 0.801211
vt 0.736562 0.857611
vt 0.543197 0.767257
vt 0.587651 0.801052
vt 0.60346 0.748677
vt 0.013841 0.398427
vt 0.049878 0.397195
vt 0.033203 0.381892
vt 0.049878 0.39755
vt 0.030938 0.425198
vt 0.002381 0.425133
vt 0.030938 0.425198
vt 0.049878 0.39755
vt 0.058961 0.425263
vt 0.033203 0.381892
vt 0.002381 0.425133
vt 0.013841 0.398427
vt 0.002381 0.425133
vt 0.033203 0.381892
vt 0.049878 0.39755
vt 0.219207 0.547675
vt 0.26441 0.590275
vt 0.256367 0.535623
vt 0.26441 0.590275
vt 0.219207 0.547675
vt 0.246758 0.601106
vt 0.739259 0.801211
vt 0.69476 0.848706
vt 0.736562 0.857611
vt 0.661496 0.786082
vt 0.69476 0.848706
vt 0.739259 0.801211
vt 0.69476 0.848706
vt 0.624574 0.793567
vt 0.673859 0.844253
vt 0.033203 0.381892
vt 0.002381 0.425133
vt 0.033203 0.381892
vt 0.673859 0.844253
vt 0.587651 0.801052
vt 0.652958 0.839801
vt 0.739259 0.967165
vt 0.810098 0.951322
vt 0.736562 0.910765
vt 0.69476 0.91967
vt 0.739259 0.967165
vt 0.736562 0.910765
vt 0.69476 0.91967
vt 0.661496 0.982294
vt 0.739259 0.967165
vt 0.69476 0.91967
vt 0.69476 0.848706
vt 0.673859 0.924123
vt 0.673859 0.924123
vt 0.69476 0.848706
vt 0.673859 0.844253
vt 0.69476 0.848706
vt 0.69476 0.91967
vt 0.736562 0.857611
vt 0.736562 0.857611
vt 0.69476 0.91967
vt 0.736562 0.910765
vt 0.69476 0.91967
vt 0.624574 0.974809
vt 0.661496 0.982294
vt 0.624574 0.974809
vt 0.69476 0.91967
vt 0.673859 0.924123
vt 0.587651 0.801052
vt 0.673859 0.844253
vt 0.624574 0.793567
vt 0.624574 0.793567
vt 0.69476 0.848706
vt 0.661496 0.786082
vt 0.575412 0.84262
vt 0.652958 0.839801
vt 0.587651 0.801052
vt 0.366914 0.007695
vt 0.363027 0.034469
vt 0.398842 0.007695
vt 0.398842 0.007695
vt 0.363027 0.034469
vt 0.396597 0.034468
vt 0.366914 0.007695
vt 0.34342 0.033395
vt 0.363027 0.034469
vt 0.453441 0.767257
vt 0.516286 0.826188
vt 0.543197 0.767257
vt 0.587651 0.801052
vt 0.543197 0.767257
vt 0.516286 0.826188
vt 0.563173 0.884188
vt 0.652957 0.928575
vt 0.652958 0.839801
vt 0.575412 0.84262
vt 0.516286 0.826188
vt 0.563173 0.884188
vt 0.652958 0.839801
vt 0.575412 0.84262
vt 0.563173 0.884188
vt 0.652957 0.928575
vt 0.575412 0.925756
vt 0.587651 0.967324
vt 0.673859 0.844253
vt 0.652958 0.839801
vt 0.673859 0.924123
vt 0.673859 0.924123
vt 0.652958 0.839801
vt 0.652957 0.928575
vt 0.673859 0.924123
vt 0.587651 0.967324
vt 0.624574 0.974809
vt 0.587651 0.967324
vt 0.673859 0.924123
vt 0.652957 0.928575
vt 0.575412 0.925756
vt 0.652957 0.928575
vt 0.563173 0.884188
vt 0.516286 0.826188
vt 0.575412 0.84262
vt 0.587651 0.801052
vt 0.03125 0.585206
vt 0.03125 0.453125
vt 0.03125 0.585206
vt 0.03125 0.585206
vt 0.03125 0.453125
vt 0.03125 0.585206
vt 0.03125 0.453125
vt 0.03125 0.585206
vt 0.03125 0.585206
vt 0.03125 0.453125
vt 0.03125 0.585206
vt 0.03125 0.585206
vt 0.03125 0.585206
vt 0.03125 0.453125
vt 0.03125 0.585206
vt 0.03125 0.453125
vt 0.03125 0.585206
vt 0.03125 0.585206
vt 0.03125 0.453125
vt 0.03125 0.585206
vt 0.03125 0.585206
vt 0.03125 0.585206
vt 0.03125 0.453125
vt 0.03125 0.585206
vt 0.03125 0.585206
vt 0.03125 0.453125
vt 0.03125 0.585206
vt 0.03125 0.585206
vt 0.03125 0.585206
vt 0.03125 0.453125
vt 0.03125 0.585206
vt 0.03125 0.453125
vt 0.03125 0.585206
vt 0.03125 0.585206
vt 0.03125 0.453125
vt 0.03125 0.585206
vt 0.03125 0.453125
vt 0.03125 0.585206
vt 0.03125 0.585206
vt 0.516286 0.942188
vt 0.453441 0.996927
vt 0.543197 0.996927
vt 0.453441 0.996927
vt 0.516286 0.942188
vt 0.48726 0.940346
vt 0.543197 0.996927
vt 0.587651 0.967324
vt 0.516286 0.942188
vt 0.575412 0.925756
vt 0.516286 0.942188
vt 0.587651 0.967324
vt 0.516286 0.826188
vt 0.453441 0.767257
vt 0.48726 0.82803
vt 0.48726 0.940346
vt 0.516286 0.884188
vt 0.48726 0.82803
vt 0.563173 0.884188
vt 0.516286 0.884188
vt 0.516286 0.942188
vt 0.516286 0.942188
vt 0.575412 0.925756
vt 0.563173 0.884188
vt 0.516286 0.884188
vt 0.563173 0.884188
vt 0.516286 0.826188
vt 0.48726 0.82803
vt 0.516286 0.884188
vt 0.516286 0.826188
vt 0.516286 0.884188
vt 0.48726 0.940346
vt 0.516286 0.942188
vt 0.898438 0.912061
vt 0.898438 0.912061
vt 0.898438 0.912061
vt 0.623755 0.79514
vt 0.270704 0.739055
vt 0.623755 0.79514
vt 0.989954 0.564126
vt 0.989954 0.564126
vt 0.845146 0.162065
vt 0.845146 0.162065
vt 0.989954 0.564126
vt 0.845146 0.162065
vt 0.898438 0.912061
vt 0.898438 0.912061
vt 0.898438 0.912061
vt 0.929717 0.71508
vt 0.791915 0.786864
vt 0.929717 0.71508
vt 0.929717 0.71508
vt 0.791915 0.786864
vt 0.791915 0.786864
vt 0.791915 0.786864
vt 0.791915 0.786864
vt 0.623755 0.79514
vt 0.623755 0.79514
vt 0.791915 0.786864
vt 0.623755 0.79514
vt 0.898438 0.912061
vt 0.898438 0.912061
vt 0.898438 0.912061
vt 0.898438 0.912061
vt 0.898438 0.912061
vt 0.898438 0.912061
vt 0.898438 0.912061
vt 0.898438 0.912061
vt 0.898438 0.912061
vt 0.929717 0.71508
vt 0.989954 0.564126
vt 0.929717 0.71508
vt 0.929717 0.71508
vt 0.989954 0.564126
vt 0.989954 0.564126
vt 0.845146 0.162065
vt 0.845146 0.162065
vt 0.790738 0.099453
vt 0.790738 0.099453
vt 0.845146 0.162065
vt 0.790738 0.099453
vt 0.898438 0.912061
vt 0.898438 0.912061
vt 0.898438 0.912061
vt 0.898438 0.912061
vt 0.898438 0.912061
vt 0.898438 0.912061
vt 0.898438 0.912061
vt 0.898438 0.912061
vt 0.898438 0.912061
vt 0.460775 0.096414
vt 0.593439 0.037126
vt 0.460775 0.096414
vt 0.460775 0.096414
vt 0.593439 0.037126
vt 0.593439 0.037126
vt 0.791915 0.786864
vt 0.929717 0.71508
vt 0.460775 0.096414
vt 0.929717 0.71508
vt 0.989954 0.564126
vt 0.460775 0.096414
vt 0.791915 0.786864
vt 0.460775 0.096414
vt 0.623755 0.79514
vt 0.460775 0.096414
vt 0.270704 0.739055
vt 0.623755 0.79514
vt 0.593439 0.037126
vt 0.460775 0.096414
vt 0.698057 0.052797
vt 0.460775 0.096414
vt 0.790738 0.099453
vt 0.698057 0.052797
vt 0.790738 0.099453
vt 0.460775 0.096414
vt 0.845146 0.162065
vt 0.845146 0.162065
vt 0.460775 0.096414
vt 0.989954 0.564126
vt 0.698057 0.052797
vt 0.790738 0.099453
vt 0.698057 0.052797
vt 0.698057 0.052797
vt 0.790738 0.099453
vt 0.790738 0.099453
vt 0.698057 0.052797
vt 0.593439 0.037126
vt 0.698057 0.052797
vt 0.698057 0.052797
vt 0.593439 0.037126
vt 0.593439 0.037126
vt 0.898438 0.912061
vt 0.898438 0.912061
vt 0.898438 0.912061
vt 0.623755 0.79514
vt 0.623755 0.79514
vt 0.270704 0.739055
vt 0.989954 0.564126
vt 0.845146 0.162065
vt 0.989954 0.564126
vt 0.989954 0.564126
vt 0.845146 0.162065
vt 0.845146 0.162065
vt 0.898438 0.912061
vt 0.898438 0.912061
vt 0.898438 0.912061
vt 0.929717 0.71508
vt 0.929717 0.71508
vt 0.791915 0.786864
vt 0.791915 0.786864
vt 0.929717 0.71508
vt 0.791915 0.786864
vt 0.791915 0.786864
vt 0.623755 0.79514
vt 0.791915 0.786864
vt 0.791915 0.786864
vt 0.623755 0.79514
vt 0.623755 0.79514
vt 0.898438 0.912061
vt 0.898438 0.912061
vt 0.898438 0.912061
vt 0.898438 0.912061
vt 0.898438 0.912061
vt 0.898438 0.912061
vt 0.898438 0.912061
vt 0.898438 0.912061
vt 0.898438 0.912061
vt 0.929717 0.71508
vt 0.929717 0.71508
vt 0.989954 0.564126
vt 0.989954 0.564126
vt 0.929717 0.71508
vt 0.989954 0.564126
vt 0.845146 0.162065
vt 0.790738 0.099453
vt 0.845146 0.162065
vt 0.845146 0.162065
vt 0.790738 0.099453
vt 0.790738 0.099453
vt 0.898438 0.912061
vt 0.898438 0.912061
vt 0.898438 0.912061
vt 0.898438 0.912061
vt 0.898438 0.912061
vt 0.898438 0.912061
vt 0.898438 0.912061
vt 0.898438 0.912061
vt 0.898438 0.912061
vt 0.593439 0.037126
vt 0.593439 0.037126
vt 0.460775 0.096414
vt 0.460775 0.096414
vt 0.593439 0.037126
vt 0.460775 0.096414
vt 0.791915 0.786864
vt 0.460775 0.096414
vt 0.929717 0.71508
vt 0.929717 0.71508
vt 0.460775 0.096414
vt 0.989954 0.564126
vt 0.791915 0.786864
vt 0.623755 0.79514
vt 0.460775 0.096414
vt 0.460775 0.096414
vt 0.623755 0.79514
vt 0.270704 0.739055
vt 0.593439 0.037126
vt 0.698057 0.052797
vt 0.460775 0.096414
vt 0.460775 0.096414
vt 0.698057 0.052797
vt 0.790738 0.099453
vt 0.790738 0.099453
vt 0.845146 0.162065
vt 0.460775 0.096414
vt 0.845146 0.162065
vt 0.989954 0.564126
vt 0.460775 0.096414
vt 0.698057 0.052797
vt 0.698057 0.052797
vt 0.790738 0.099453
vt 0.790738 0.099453
vt 0.698057 0.052797
vt 0.790738 0.099453
vt 0.698057 0.052797
vt 0.698057 0.052797
vt 0.593439 0.037126
vt 0.593439 0.037126
vt 0.698057 0.052797
vt 0.593439 0.037126
vt 0.254979 0.491694
vt 0.212369 0.455721
vt 0.21548 0.504293
vt 0.212369 0.455721
vt 0.170215 0.510046
vt 0.21548 0.504293
vt 0.12806 0.455721
vt 0.08545 0.491693
vt 0.124949 0.504293
vt 0.170215 0.510046
vt 0.12806 0.455721
vt 0.124949 0.504293
vt 0.08545 0.491693
vt 0.12806 0.455721
vt 0.083454 0.448333
vt 0.811582 0.884188
vt 0.879864 0.935174
vt 0.879864 0.833202
vt 0.811582 0.884188
vt 0.879864 0.833202
vt 0.810098 0.817054
vt 0.212369 0.455721
vt 0.254979 0.491694
vt 0.256976 0.448333
vt 0.212369 0.455721
vt 0.170215 0.452614
vt 0.170215 0.510046
vt 0.170215 0.452614
vt 0.12806 0.455721
vt 0.170215 0.510046
vt 0.879864 0.935174
vt 0.932599 0.990192
vt 0.932686 0.927827
vt 0.932599 0.990192
vt 0.879864 0.935174
vt 0.879864 0.987726
vt 0.919227 0.167094
vt 0.87393 0.092089
vt 0.909144 0.092089
vt 0.868058 0.171753
vt 0.87393 0.092089
vt 0.919227 0.167094
vt 0.989261 0.103429
vt 0.909144 0.092089
vt 0.989261 0.080749
vt 0.879864 0.935174
vt 0.932686 0.927827
vt 0.879864 0.833202
vt 0.879864 0.833202
vt 0.932686 0.927827
vt 0.932687 0.84055
vt 0.932686 0.927827
vt 0.994262 0.884188
vt 0.932687 0.84055
vt 0.994262 0.993878
vt 0.932686 0.927827
vt 0.932599 0.990192
vt 0.9326 0.770793
vt 0.879864 0.833202
vt 0.932687 0.84055
vt 0.879864 0.833202
vt 0.9326 0.770793
vt 0.879223 0.773258
vt 0.919227 0.017083
vt 0.87393 0.092089
vt 0.868058 0.012424
vt 0.87393 0.092089
vt 0.919227 0.017083
vt 0.909144 0.092089
vt 0.9326 0.770793
vt 0.932687 0.84055
vt 0.994262 0.767106
vt 0.909144 0.092089
vt 0.989261 0.103429
vt 0.989275 0.126108
vt 0.989261 0.080749
vt 0.909144 0.092089
vt 0.989275 0.05807
vt 0.141595 0.333036
vt 0.054074 0.266242
vt 0.265958 0.333036
vt 0.265958 0.333036
vt 0.054074 0.266242
vt 0.354422 0.266242
vt 0.989275 0.126108
vt 0.919227 0.167094
vt 0.909144 0.092089
vt 0.994262 0.884188
vt 0.932686 0.927827
vt 0.994262 0.924243
vt 0.932686 0.927827
vt 0.994262 0.993878
vt 0.994262 0.924243
vt 0.932687 0.84055
vt 0.994262 0.844133
vt 0.994262 0.767106
vt 0.932687 0.84055
vt 0.994262 0.884188
vt 0.994262 0.844133
vt 0.989275 0.05807
vt 0.919227 0.017083
vt 0.989297 0.02405
vt 0.919227 0.017083
vt 0.989275 0.05807
vt 0.909144 0.092089
vt 0.919227 0.167094
vt 0.989275 0.126108
vt 0.989297 0.160127
vt 0.354422 0.266242
vt 0.054074 0.266242
vt 0.350096 0.2
vt 0.350096 0.2
vt 0.054074 0.266242
vt 0.058432 0.2
vt 0.286784 0.115496
vt 0.122722 0.115496
vt 0.204753 0.08915
vt 0.350096 0.2
vt 0.058432 0.2
vt 0.286784 0.115496
vt 0.286784 0.115496
vt 0.058432 0.2
vt 0.122722 0.115496

# 966 Vertex Normals
vn -0.476163 0.060101 -0.877301
vn -0.37331 0.360059 -0.854983
vn -0.0 0.063792 -0.997963
vn -0.0 0.063792 -0.997963
vn -0.37331 0.360059 -0.854983
vn -0.0 0.320989 -0.947083
vn -0.83849 0.115048 -0.532633
vn -0.745176 0.365999 -0.557457
vn -0.476163 0.060101 -0.877301
vn -0.476163 0.060101 -0.877301
vn -0.745176 0.365999 -0.557457
vn -0.37331 0.360059 -0.854983
vn -0.83849 0.115048 -0.532633
vn -0.950635 0.306968 -0.045428
vn -0.745176 0.365999 -0.557457
vn -0.745176 0.365999 -0.557457
vn -0.950635 0.306968 -0.045428
vn -0.815301 0.5522 -0.17424
vn -0.833859 0.368796 0.410693
vn -0.766963 0.579568 0.275443
vn -0.950635 0.306968 -0.045428
vn -0.950635 0.306968 -0.045428
vn -0.766963 0.579568 0.275443
vn -0.815301 0.5522 -0.17424
vn 0.827154 0.160884 -0.538453
vn 0.745176 0.365999 -0.557457
vn 0.957107 0.279288 -0.077093
vn 0.957107 0.279288 -0.077093
vn 0.745176 0.365999 -0.557457
vn 0.815301 0.5522 -0.17424
vn -0.37331 0.360059 -0.854983
vn -0.745176 0.365999 -0.557457
vn -0.523813 0.66472 -0.532698
vn -0.745176 0.365999 -0.557457
vn -0.815301 0.5522 -0.17424
vn -0.523813 0.66472 -0.532698
vn -0.950635 0.306968 -0.045428
vn -0.83849 0.115048 -0.532633
vn -0.996035 -0.023026 -0.085932
vn -0.996035 -0.023026 -0.085932
vn -0.83849 0.115048 -0.532633
vn -0.866026 -0.129411 -0.482961
vn -0.833859 0.368796 0.410693
vn -0.950635 0.306968 -0.045428
vn -0.914002 0.105006 0.391886
vn -0.914002 0.105006 0.391886
vn -0.950635 0.306968 -0.045428
vn -0.996035 -0.023026 -0.085932
vn -0.866026 -0.129411 -0.482961
vn -0.83849 0.115048 -0.532633
vn -0.532625 -0.24081 -0.81137
vn -0.532625 -0.24081 -0.81137
vn -0.83849 0.115048 -0.532633
vn -0.476163 0.060101 -0.877301
vn -0.319195 -0.886577 -0.334807
vn -0.715458 -0.651176 -0.253159
vn -0.532625 -0.24081 -0.81137
vn -0.532625 -0.24081 -0.81137
vn -0.715458 -0.651176 -0.253159
vn -0.866026 -0.129411 -0.482961
vn 0.827154 0.160884 -0.538453
vn 0.957107 0.279288 -0.077093
vn 0.866026 -0.129411 -0.482962
vn 0.866026 -0.129411 -0.482962
vn 0.957107 0.279288 -0.077093
vn 0.998068 -0.016696 0.059847
vn -0.866026 -0.129411 -0.482961
vn -0.715458 -0.651176 -0.253159
vn -0.996035 -0.023026 -0.085932
vn -0.996035 -0.023026 -0.085932
vn -0.715458 -0.651176 -0.253159
vn -0.75772 -0.609429 0.23336
vn -0.996035 -0.023026 -0.085932
vn -0.75772 -0.609429 0.23336
vn -0.914002 0.105006 0.391886
vn -0.914002 0.105006 0.391886
vn -0.75772 -0.609429 0.23336
vn -0.621094 -0.530794 0.576628
vn 0.827154 0.160884 -0.538453
vn 0.866026 -0.129411 -0.482962
vn 0.511861 0.046314 -0.857819
vn 0.511861 0.046314 -0.857819
vn 0.866026 -0.129411 -0.482962
vn 0.452715 -0.261174 -0.852548
vn -0.0 0.063792 -0.997963
vn 0.511861 0.046314 -0.857819
vn 0.0 -0.207536 -0.978227
vn 0.0 -0.207536 -0.978227
vn 0.511861 0.046314 -0.857819
vn 0.452715 -0.261174 -0.852548
vn -0.532625 -0.24081 -0.81137
vn -0.476163 0.060101 -0.877301
vn 0.0 -0.207536 -0.978227
vn 0.0 -0.207536 -0.978227
vn -0.476163 0.060101 -0.877301
vn -0.0 0.063792 -0.997963
vn 0.552862 -0.8261 -0.109103
vn 0.43747 -0.788027 -0.433168
vn 0.866026 -0.129411 -0.482962
vn 0.866026 -0.129411 -0.482962
vn 0.43747 -0.788027 -0.433168
vn 0.452715 -0.261174 -0.852548
vn 0.43747 -0.788027 -0.433168
vn 0.0 -0.758088 -0.652152
vn 0.452715 -0.261174 -0.852548
vn 0.452715 -0.261174 -0.852548
vn 0.0 -0.758088 -0.652152
vn 0.0 -0.207536 -0.978227
vn 0.0 -0.207536 -0.978227
vn 0.0 -0.758088 -0.652152
vn -0.532625 -0.24081 -0.81137
vn -0.532625 -0.24081 -0.81137
vn 0.0 -0.758088 -0.652152
vn -0.319195 -0.886577 -0.334807
vn 0.900142 0.142797 0.411525
vn 0.714022 -0.452456 0.534281
vn 0.998068 -0.016696 0.059847
vn 0.998068 -0.016696 0.059847
vn 0.714022 -0.452456 0.534281
vn 0.75772 -0.644461 0.102619
vn 0.998068 -0.016696 0.059847
vn 0.75772 -0.644461 0.102619
vn 0.866026 -0.129411 -0.482962
vn 0.866026 -0.129411 -0.482962
vn 0.75772 -0.644461 0.102619
vn 0.552862 -0.8261 -0.109103
vn 0.833859 0.368796 0.410693
vn 0.957107 0.279288 -0.077093
vn 0.766963 0.579568 0.275443
vn 0.766963 0.579568 0.275443
vn 0.957107 0.279288 -0.077093
vn 0.815301 0.5522 -0.17424
vn 0.998068 -0.016696 0.059847
vn 0.957107 0.279288 -0.077093
vn 0.900142 0.142797 0.411525
vn 0.900142 0.142797 0.411525
vn 0.957107 0.279288 -0.077093
vn 0.833859 0.368796 0.410693
vn -0.438366 0.772653 0.459176
vn -0.0 0.884675 0.466208
vn -0.0 0.973504 0.228669
vn -0.0 0.884675 0.466208
vn 0.438366 0.772653 0.459176
vn -0.0 0.973504 0.228669
vn 0.833859 0.368796 0.410693
vn 0.766963 0.579568 0.275443
vn 0.629894 0.523361 0.57387
vn 0.629894 0.523361 0.57387
vn 0.766963 0.579568 0.275443
vn 0.438366 0.772653 0.459176
vn -0.438366 0.772653 0.459176
vn -0.766963 0.579568 0.275443
vn -0.629894 0.523361 0.57387
vn -0.629894 0.523361 0.57387
vn -0.766963 0.579568 0.275443
vn -0.833859 0.368796 0.410693
vn -0.629894 0.523361 0.57387
vn -0.833859 0.368796 0.410693
vn -0.794883 0.164918 0.58392
vn -0.794883 0.164918 0.58392
vn -0.833859 0.368796 0.410693
vn -0.914002 0.105006 0.391886
vn 0.629894 0.523361 0.57387
vn 0.794883 0.164918 0.58392
vn 0.833859 0.368796 0.410693
vn 0.833859 0.368796 0.410693
vn 0.794883 0.164918 0.58392
vn 0.900142 0.142797 0.411525
vn 0.827154 0.160884 -0.538453
vn 0.511861 0.046314 -0.857819
vn 0.745176 0.365999 -0.557457
vn 0.745176 0.365999 -0.557457
vn 0.511861 0.046314 -0.857819
vn 0.37331 0.360059 -0.854983
vn 0.511861 0.046314 -0.857819
vn -0.0 0.063792 -0.997963
vn 0.37331 0.360059 -0.854983
vn 0.37331 0.360059 -0.854983
vn -0.0 0.063792 -0.997963
vn -0.0 0.320989 -0.947083
vn 0.0 0.845143 -0.53454
vn -0.270674 0.856557 -0.43937
vn 0.0 0.957233 -0.289319
vn -0.270674 0.856557 -0.43937
vn -0.200931 0.973977 -0.104859
vn 0.0 0.957233 -0.289319
vn -0.200931 0.973977 -0.104859
vn 0.0 0.998742 -0.050141
vn 0.0 0.957233 -0.289319
vn -0.523813 0.66472 -0.532698
vn -0.815301 0.5522 -0.17424
vn -0.526924 0.849845 0.010704
vn -0.815301 0.5522 -0.17424
vn -0.766963 0.579568 0.275443
vn -0.526924 0.849845 0.010704
vn -0.766963 0.579568 0.275443
vn -0.438366 0.772653 0.459176
vn -0.526924 0.849845 0.010704
vn -0.523813 0.66472 -0.532698
vn -0.526924 0.849845 0.010704
vn -0.270674 0.856557 -0.43937
vn -0.526924 0.849845 0.010704
vn -0.200931 0.973977 -0.104859
vn -0.270674 0.856557 -0.43937
vn -0.526924 0.849845 0.010704
vn -0.438366 0.772653 0.459176
vn -0.0 0.973504 0.228669
vn -0.526924 0.849845 0.010704
vn -0.0 0.973504 0.228669
vn -0.200931 0.973977 -0.104859
vn -0.0 0.973504 0.228669
vn 0.0 0.998742 -0.050141
vn -0.200931 0.973977 -0.104859
vn 0.270674 0.856557 -0.43937
vn 0.0 0.845143 -0.53454
vn 0.0 0.957233 -0.289319
vn 0.0 0.998742 -0.050141
vn 0.200931 0.973977 -0.104859
vn 0.0 0.957233 -0.289319
vn 0.200931 0.973977 -0.104859
vn 0.270674 0.856557 -0.43937
vn 0.0 0.957233 -0.289319
vn -0.0 0.973504 0.228669
vn 0.438366 0.772653 0.459176
vn 0.526924 0.849845 0.010704
vn 0.438366 0.772653 0.459176
vn 0.766963 0.579568 0.275443
vn 0.526924 0.849845 0.010704
vn 0.766963 0.579568 0.275443
vn 0.815301 0.5522 -0.17424
vn 0.526924 0.849845 0.010704
vn -0.0 0.973504 0.228669
vn 0.200931 0.973977 -0.104859
vn 0.0 0.998742 -0.050141
vn 0.200931 0.973977 -0.104859
vn -0.0 0.973504 0.228669
vn 0.526924 0.849845 0.010704
vn 0.37331 0.360059 -0.854983
vn -0.0 0.320989 -0.947083
vn -0.0 0.650095 -0.759853
vn -0.0 0.320989 -0.947083
vn -0.37331 0.360059 -0.854983
vn -0.0 0.650095 -0.759853
vn -0.0 0.650095 -0.759853
vn -0.37331 0.360059 -0.854983
vn -0.523813 0.66472 -0.532698
vn -0.0 0.650095 -0.759853
vn 0.0 0.845143 -0.53454
vn 0.270674 0.856557 -0.43937
vn -0.0 0.650095 -0.759853
vn -0.270674 0.856557 -0.43937
vn 0.0 0.845143 -0.53454
vn 0.745176 0.365999 -0.557457
vn 0.37331 0.360059 -0.854983
vn 0.523813 0.66472 -0.532698
vn 0.523813 0.66472 -0.532698
vn 0.37331 0.360059 -0.854983
vn -0.0 0.650095 -0.759853
vn 0.526924 0.849845 0.010704
vn 0.815301 0.5522 -0.17424
vn 0.523813 0.66472 -0.532698
vn 0.815301 0.5522 -0.17424
vn 0.745176 0.365999 -0.557457
vn 0.523813 0.66472 -0.532698
vn 0.523813 0.66472 -0.532698
vn -0.0 0.650095 -0.759853
vn 0.270674 0.856557 -0.43937
vn 0.526924 0.849845 0.010704
vn 0.270674 0.856557 -0.43937
vn 0.200931 0.973977 -0.104859
vn -0.270674 0.856557 -0.43937
vn -0.0 0.650095 -0.759853
vn -0.523813 0.66472 -0.532698
vn 0.270674 0.856557 -0.43937
vn 0.526924 0.849845 0.010704
vn 0.523813 0.66472 -0.532698
vn -0.0 0.788565 0.614951
vn 0.438366 0.772653 0.459176
vn -0.0 0.884675 0.466208
vn -0.438366 0.772653 0.459176
vn -0.0 0.788565 0.614951
vn -0.0 0.884675 0.466208
vn 0.438366 0.772653 0.459176
vn -0.0 0.788565 0.614951
vn 0.629894 0.523361 0.57387
vn -0.0 0.788565 0.614951
vn -0.438366 0.772653 0.459176
vn -0.629894 0.523361 0.57387
vn -0.0 0.788565 0.614951
vn -0.629894 0.523361 0.57387
vn -0.688669 0.611131 0.390198
vn -0.688669 0.611131 0.390198
vn -0.629894 0.523361 0.57387
vn -0.794883 0.164918 0.58392
vn 0.629894 0.523361 0.57387
vn 0.688668 0.611131 0.390199
vn 0.794883 0.164918 0.58392
vn -0.0 0.788565 0.614951
vn 0.688668 0.611131 0.390199
vn 0.629894 0.523361 0.57387
vn -0.599309 0.7808 -0.176578
vn 0.0 0.971631 0.236501
vn -0.688669 0.611131 0.390198
vn 0.0 0.971631 0.236501
vn 0.599309 0.7808 -0.176578
vn 0.688668 0.611131 0.390199
vn 0.0 0.971631 0.236501
vn 0.688668 0.611131 0.390199
vn -0.0 0.788565 0.614951
vn -0.688669 0.611131 0.390198
vn 0.0 0.971631 0.236501
vn -0.0 0.788565 0.614951
vn -0.0 0.642596 -0.766205
vn 0.599309 0.7808 -0.176578
vn 0.0 0.940588 -0.33955
vn -0.599309 0.7808 -0.176578
vn -0.0 0.642596 -0.766205
vn 0.0 0.940588 -0.33955
vn 0.0 0.971631 0.236501
vn -0.599309 0.7808 -0.176578
vn 0.0 0.940588 -0.33955
vn 0.599309 0.7808 -0.176578
vn 0.0 0.971631 0.236501
vn 0.0 0.940588 -0.33955
vn 0.467489 -0.611682 0.6382
vn 0.714022 -0.452456 0.534281
vn 0.794883 0.164918 0.58392
vn 0.794883 0.164918 0.58392
vn 0.714022 -0.452456 0.534281
vn 0.900142 0.142797 0.411525
vn -0.832951 0.538282 0.12824
vn -0.943804 -0.143175 0.297885
vn -0.996905 -0.010555 -0.077903
vn -0.599309 0.7808 -0.176578
vn -0.688669 0.611131 0.390198
vn -0.832951 0.538282 0.12824
vn -0.794883 0.164918 0.58392
vn -0.943804 -0.143175 0.297885
vn -0.688669 0.611131 0.390198
vn -0.943804 -0.143175 0.297885
vn -0.832951 0.538282 0.12824
vn -0.688669 0.611131 0.390198
vn 0.688668 0.611131 0.390199
vn 0.599309 0.7808 -0.176578
vn 0.832951 0.538282 0.128239
vn 0.943804 -0.143175 0.297885
vn 0.467489 -0.611682 0.6382
vn 0.794883 0.164918 0.58392
vn 0.943804 -0.143175 0.297885
vn 0.794883 0.164918 0.58392
vn 0.688668 0.611131 0.390199
vn 0.943804 -0.143175 0.297885
vn 0.832951 0.538282 0.128239
vn 0.996905 -0.010554 -0.077903
vn 0.633301 0.764261 0.121801
vn 0.996905 -0.010554 -0.077903
vn 0.832951 0.538282 0.128239
vn 0.832951 0.538282 0.128239
vn 0.943804 -0.143175 0.297885
vn 0.688668 0.611131 0.390199
vn -0.0 0.642596 -0.766205
vn -0.599309 0.7808 -0.176578
vn -0.936619 0.349643 -0.022229
vn -0.936619 0.349643 -0.022229
vn -0.599309 0.7808 -0.176578
vn -0.832951 0.538282 0.12824
vn -0.0 0.312571 -0.949894
vn -0.0 0.642596 -0.766205
vn -0.933621 0.292219 -0.207265
vn -0.933621 0.292219 -0.207265
vn -0.0 0.642596 -0.766205
vn -0.936619 0.349643 -0.022229
vn 0.599309 0.7808 -0.176578
vn -0.0 0.642596 -0.766205
vn 0.936619 0.349643 -0.022229
vn 0.599309 0.7808 -0.176578
vn 0.936619 0.349643 -0.022229
vn 0.832951 0.538282 0.128239
vn 0.936619 0.349643 -0.022229
vn -0.0 0.642596 -0.766205
vn 0.933621 0.292219 -0.207265
vn 0.933621 0.292219 -0.207265
vn -0.0 0.642596 -0.766205
vn -0.0 0.312571 -0.949894
vn 0.567489 -0.058329 0.821312
vn -0.0 -0.004627 0.999989
vn 0.66185 0.068116 0.746535
vn -0.933621 0.292219 -0.207265
vn -0.796511 0.006135 0.604593
vn -0.66185 0.068116 0.746535
vn -0.796511 0.006135 0.604593
vn -0.933621 0.292219 -0.207265
vn -0.936619 0.349643 -0.022229
vn -0.633301 0.764261 0.121801
vn -0.922814 -0.378901 0.06963
vn 0.264802 -0.193189 0.944753
vn -0.922814 -0.378901 0.06963
vn -0.633301 0.764261 0.121801
vn -0.996905 -0.010555 -0.077903
vn -0.996905 -0.010555 -0.077903
vn -0.633301 0.764261 0.121801
vn -0.832951 0.538282 0.12824
vn 0.633301 0.764261 0.121801
vn 0.922814 -0.378901 0.06963
vn 0.996905 -0.010554 -0.077903
vn 0.933621 0.292219 -0.207265
vn 0.796511 0.006135 0.604593
vn 0.936619 0.349643 -0.022229
vn 0.796511 0.006135 0.604593
vn 0.933621 0.292219 -0.207265
vn 0.66185 0.068116 0.746535
vn 0.922814 -0.378901 0.06963
vn 0.633301 0.764261 0.121801
vn -0.264802 -0.193189 0.944753
vn 0.922814 -0.378901 0.06963
vn 0.373792 -0.916817 0.140446
vn 0.996905 -0.010554 -0.077903
vn 0.373792 -0.916817 0.140446
vn 0.943804 -0.143175 0.297885
vn 0.996905 -0.010554 -0.077903
vn 0.633301 0.764261 0.121801
vn 0.615558 0.368113 0.696837
vn -0.264802 -0.193189 0.944753
vn 0.223197 -0.605046 0.764266
vn -0.264802 -0.193189 0.944753
vn 0.615558 0.368113 0.696837
vn 0.615558 0.368113 0.696837
vn 0.633301 0.764261 0.121801
vn 0.832951 0.538282 0.128239
vn -0.264802 -0.193189 0.944753
vn 0.373792 -0.916817 0.140446
vn 0.922814 -0.378901 0.06963
vn 0.615558 0.368113 0.696837
vn 0.936619 0.349643 -0.022229
vn 0.796511 0.006135 0.604593
vn 0.936619 0.349643 -0.022229
vn 0.615558 0.368113 0.696837
vn 0.832951 0.538282 0.128239
vn -0.264802 -0.193189 0.944753
vn 0.223197 -0.605046 0.764266
vn 0.373792 -0.916817 0.140446
vn -0.233714 -0.067422 0.969965
vn -0.0 -0.004627 0.999989
vn -0.66185 0.068116 0.746535
vn 0.280425 -0.046911 0.958729
vn -0.0 -0.004627 0.999989
vn -0.233714 -0.067422 0.969965
vn -0.0 -0.004627 0.999989
vn 0.280425 -0.046911 0.958729
vn 0.66185 0.068116 0.746535
vn -0.66185 0.068116 0.746535
vn -0.796511 0.006135 0.604593
vn -0.233714 -0.067422 0.969965
vn -0.943804 -0.143175 0.297885
vn -0.373792 -0.916817 0.140446
vn -0.996905 -0.010555 -0.077903
vn -0.922814 -0.378901 0.06963
vn -0.996905 -0.010555 -0.077903
vn -0.373792 -0.916817 0.140446
vn -0.615558 0.368113 0.696837
vn -0.633301 0.764261 0.121801
vn 0.264802 -0.193189 0.944753
vn -0.633301 0.764261 0.121801
vn -0.615558 0.368113 0.696837
vn -0.832951 0.538282 0.12824
vn -0.373792 -0.916817 0.140446
vn 0.264802 -0.193189 0.944753
vn -0.922814 -0.378901 0.06963
vn 0.264802 -0.193189 0.944753
vn -0.223197 -0.605047 0.764266
vn -0.615558 0.368113 0.696837
vn -0.936619 0.349643 -0.022229
vn -0.615558 0.368113 0.696837
vn -0.796511 0.006135 0.604593
vn -0.615558 0.368113 0.696837
vn -0.936619 0.349643 -0.022229
vn -0.832951 0.538282 0.12824
vn -0.796511 0.006135 0.604593
vn -0.451143 -0.368703 0.812729
vn -0.233714 -0.067422 0.969965
vn -0.615558 0.368113 0.696837
vn -0.451143 -0.368703 0.812729
vn -0.796511 0.006135 0.604593
vn -0.451143 -0.368703 0.812729
vn -0.223197 -0.605047 0.764266
vn -0.409569 -0.695238 0.590675
vn -0.223197 -0.605047 0.764266
vn 0.264802 -0.193189 0.944753
vn -0.373792 -0.916817 0.140446
vn -0.409569 -0.695238 0.590675
vn -0.373792 -0.916817 0.140446
vn -0.156235 -0.92979 0.333287
vn 0.796511 0.006135 0.604593
vn 0.66185 0.068116 0.746535
vn 0.280425 -0.046911 0.958729
vn 0.450221 -0.296751 0.842163
vn 0.796511 0.006135 0.604593
vn 0.280425 -0.046911 0.958729
vn 0.450221 -0.296751 0.842163
vn 0.615558 0.368113 0.696837
vn 0.796511 0.006135 0.604593
vn 0.450221 -0.296751 0.842163
vn -0.451143 -0.368703 0.812729
vn 0.292764 -0.722999 0.625749
vn 0.292764 -0.722999 0.625749
vn -0.451143 -0.368703 0.812729
vn -0.409569 -0.695238 0.590675
vn -0.451143 -0.368703 0.812729
vn 0.450221 -0.296751 0.842163
vn -0.233714 -0.067422 0.969965
vn -0.233714 -0.067422 0.969965
vn 0.450221 -0.296751 0.842163
vn 0.280425 -0.046911 0.958729
vn 0.450221 -0.296751 0.842163
vn 0.223197 -0.605046 0.764266
vn 0.615558 0.368113 0.696837
vn 0.223197 -0.605046 0.764266
vn 0.450221 -0.296751 0.842163
vn 0.292764 -0.722999 0.625749
vn -0.373792 -0.916817 0.140446
vn -0.409569 -0.695238 0.590675
vn -0.223197 -0.605047 0.764266
vn -0.223197 -0.605047 0.764266
vn -0.451143 -0.368703 0.812729
vn -0.615558 0.368113 0.696837
vn -0.220184 -0.975231 -0.02108
vn -0.156235 -0.92979 0.333287
vn -0.373792 -0.916817 0.140446
vn -0.467489 -0.611682 0.6382
vn -0.794883 0.164918 0.58392
vn -0.621094 -0.530794 0.576628
vn -0.621094 -0.530794 0.576628
vn -0.794883 0.164918 0.58392
vn -0.914002 0.105006 0.391886
vn -0.467489 -0.611682 0.6382
vn -0.943804 -0.143175 0.297885
vn -0.794883 0.164918 0.58392
vn -0.467489 -0.611682 0.6382
vn -0.332503 -0.90319 0.271458
vn -0.943804 -0.143175 0.297885
vn -0.373792 -0.916817 0.140446
vn -0.943804 -0.143175 0.297885
vn -0.332503 -0.90319 0.271458
vn 0.0 -0.99662 -0.082144
vn 0.187289 -0.938402 0.290386
vn -0.156235 -0.92979 0.333287
vn -0.220184 -0.975231 -0.02108
vn -0.332503 -0.90319 0.271458
vn 0.0 -0.99662 -0.082144
vn -0.156235 -0.92979 0.333287
vn -0.220184 -0.975231 -0.02108
vn 0.0 -0.99662 -0.082144
vn 0.187289 -0.938402 0.290386
vn 0.220184 -0.97523 -0.02108
vn 0.373792 -0.916817 0.140446
vn -0.409569 -0.695238 0.590675
vn -0.156235 -0.92979 0.333287
vn 0.292764 -0.722999 0.625749
vn 0.292764 -0.722999 0.625749
vn -0.156235 -0.92979 0.333287
vn 0.187289 -0.938402 0.290386
vn 0.292764 -0.722999 0.625749
vn 0.373792 -0.916817 0.140446
vn 0.223197 -0.605046 0.764266
vn 0.373792 -0.916817 0.140446
vn 0.292764 -0.722999 0.625749
vn 0.187289 -0.938402 0.290386
vn 0.220184 -0.97523 -0.02108
vn 0.187289 -0.938402 0.290386
vn 0.0 -0.99662 -0.082144
vn -0.332503 -0.90319 0.271458
vn -0.220184 -0.975231 -0.02108
vn -0.373792 -0.916817 0.140446
vn 0.714022 -0.452456 0.534281
vn -0.0 -0.965926 0.258819
vn 0.75772 -0.644461 0.102619
vn 0.43747 -0.788027 -0.433168
vn -0.0 -0.965926 0.258819
vn 0.0 -0.758088 -0.652152
vn -0.0 -0.965926 0.258819
vn -0.715458 -0.651176 -0.253159
vn -0.319195 -0.886577 -0.334807
vn -0.0 -0.965926 0.258819
vn -0.319195 -0.886577 -0.334807
vn 0.0 -0.758088 -0.652152
vn -0.715458 -0.651176 -0.253159
vn -0.0 -0.965926 0.258819
vn -0.75772 -0.609429 0.23336
vn -0.0 -0.965926 0.258819
vn -0.621094 -0.530794 0.576628
vn -0.75772 -0.609429 0.23336
vn -0.0 -0.965926 0.258819
vn 0.552862 -0.8261 -0.109103
vn 0.75772 -0.644461 0.102619
vn 0.552862 -0.8261 -0.109103
vn -0.0 -0.965926 0.258819
vn 0.43747 -0.788027 -0.433168
vn 0.467489 -0.611682 0.6382
vn -0.0 -0.965926 0.258819
vn 0.714022 -0.452456 0.534281
vn 0.467489 -0.611682 0.6382
vn 0.100773 -0.83646 0.538683
vn -0.0 -0.965926 0.258819
vn -0.621094 -0.530794 0.576628
vn -0.0 -0.965926 0.258819
vn -0.467489 -0.611682 0.6382
vn -0.467489 -0.611682 0.6382
vn -0.0 -0.965926 0.258819
vn -0.100773 -0.83646 0.538683
vn -0.0 -0.965926 0.258819
vn 0.100773 -0.83646 0.538683
vn -0.100773 -0.83646 0.538683
vn 0.332503 -0.90319 0.271458
vn 0.467489 -0.611682 0.6382
vn 0.943804 -0.143175 0.297885
vn 0.467489 -0.611682 0.6382
vn 0.332503 -0.90319 0.271458
vn 0.100773 -0.83646 0.538683
vn 0.943804 -0.143175 0.297885
vn 0.373792 -0.916817 0.140446
vn 0.332503 -0.90319 0.271458
vn 0.220184 -0.97523 -0.02108
vn 0.332503 -0.90319 0.271458
vn 0.373792 -0.916817 0.140446
vn -0.332503 -0.90319 0.271458
vn -0.467489 -0.611682 0.6382
vn -0.100773 -0.83646 0.538683
vn 0.100773 -0.83646 0.538683
vn -0.0 -0.932156 0.362058
vn -0.100773 -0.83646 0.538683
vn 0.0 -0.99662 -0.082144
vn -0.0 -0.932156 0.362058
vn 0.332503 -0.90319 0.271458
vn 0.332503 -0.90319 0.271458
vn 0.220184 -0.97523 -0.02108
vn 0.0 -0.99662 -0.082144
vn -0.0 -0.932156 0.362058
vn 0.0 -0.99662 -0.082144
vn -0.332503 -0.90319 0.271458
vn -0.100773 -0.83646 0.538683
vn -0.0 -0.932156 0.362058
vn -0.332503 -0.90319 0.271458
vn -0.0 -0.932156 0.362058
vn 0.100773 -0.83646 0.538683
vn 0.332503 -0.90319 0.271458
vn 0.733585 -0.339006 -0.589006
vn 0.306311 0.693091 -0.652532
vn 0.136469 0.981465 -0.134549
vn -0.448281 0.829027 0.334303
vn 0.136469 0.981465 -0.134549
vn 0.306311 0.693091 -0.652532
vn -0.990853 -0.022899 0.13299
vn -0.365946 -0.295323 -0.882535
vn -0.87562 -0.468499 0.117471
vn -0.87562 -0.468499 0.117471
vn -0.365946 -0.295323 -0.882535
vn -0.08294 -0.762332 -0.64185
vn -0.365946 -0.295323 -0.882535
vn 0.733585 -0.339006 -0.589006
vn -0.08294 -0.762332 -0.64185
vn -0.915906 0.382182 -0.122694
vn -0.56411 0.821112 -0.08692
vn -0.1055 0.316774 -0.942616
vn -0.1055 0.316774 -0.942616
vn -0.56411 0.821112 -0.08692
vn 0.252816 0.447197 -0.857962
vn 0.252816 0.447197 -0.857962
vn -0.56411 0.821112 -0.08692
vn 0.306311 0.693091 -0.652532
vn 0.306311 0.693091 -0.652532
vn -0.56411 0.821112 -0.08692
vn -0.448281 0.829027 0.334303
vn 0.252816 0.447197 -0.857962
vn 0.733585 -0.339006 -0.589006
vn -0.1055 0.316774 -0.942616
vn -0.1055 0.316774 -0.942616
vn 0.733585 -0.339006 -0.589006
vn -0.365946 -0.295323 -0.882535
vn 0.252816 0.447197 -0.857962
vn 0.306311 0.693091 -0.652532
vn 0.733585 -0.339006 -0.589006
vn -0.1055 0.316774 -0.942616
vn -0.365946 -0.295323 -0.882535
vn -0.915906 0.382182 -0.122694
vn -0.915906 0.382182 -0.122694
vn -0.365946 -0.295323 -0.882535
vn -0.990853 -0.022899 0.13299
vn -0.87562 -0.468499 0.117471
vn -0.08294 -0.762332 -0.64185
vn -0.5782 -0.758727 0.300032
vn -0.5782 -0.758727 0.300032
vn -0.08294 -0.762332 -0.64185
vn 0.238406 -0.791216 -0.563152
vn -0.08294 -0.762332 -0.64185
vn 0.733585 -0.339006 -0.589006
vn 0.238406 -0.791216 -0.563152
vn 0.238406 -0.791216 -0.563152
vn 0.733585 -0.339006 -0.589006
vn 0.312791 -0.908498 -0.277115
vn 0.312791 -0.908498 -0.277115
vn 0.733585 -0.339006 -0.589006
vn 0.451389 -0.87541 0.172931
vn -0.576713 0.093089 0.811626
vn 0.109789 -0.712031 0.693512
vn 0.733585 -0.339006 -0.589006
vn 0.733585 -0.339006 -0.589006
vn 0.109789 -0.712031 0.693512
vn 0.451389 -0.87541 0.172931
vn -0.56411 0.821112 -0.08692
vn -0.915906 0.382182 -0.122694
vn -0.576713 0.093089 0.811626
vn -0.915906 0.382182 -0.122694
vn -0.990853 -0.022899 0.13299
vn -0.576713 0.093089 0.811626
vn -0.56411 0.821112 -0.08692
vn -0.576713 0.093089 0.811626
vn -0.448281 0.829027 0.334303
vn -0.576713 0.093089 0.811626
vn 0.136469 0.981465 -0.134549
vn -0.448281 0.829027 0.334303
vn 0.109789 -0.712031 0.693512
vn -0.576713 0.093089 0.811626
vn -0.303273 -0.694341 0.652622
vn -0.576713 0.093089 0.811626
vn -0.5782 -0.758727 0.300032
vn -0.303273 -0.694341 0.652622
vn -0.5782 -0.758727 0.300032
vn -0.576713 0.093089 0.811626
vn -0.87562 -0.468499 0.117471
vn -0.87562 -0.468499 0.117471
vn -0.576713 0.093089 0.811626
vn -0.990853 -0.022899 0.13299
vn -0.303273 -0.694341 0.652622
vn -0.5782 -0.758727 0.300032
vn 0.312791 -0.908498 -0.277115
vn 0.312791 -0.908498 -0.277115
vn -0.5782 -0.758727 0.300032
vn 0.238406 -0.791216 -0.563152
vn 0.312791 -0.908498 -0.277115
vn 0.451389 -0.87541 0.172931
vn -0.303273 -0.694341 0.652622
vn -0.303273 -0.694341 0.652622
vn 0.451389 -0.87541 0.172931
vn 0.109789 -0.712031 0.693512
vn -0.733585 -0.339006 -0.589006
vn -0.136469 0.981465 -0.134549
vn -0.306311 0.693091 -0.652532
vn 0.448281 0.829027 0.334303
vn -0.306311 0.693091 -0.652532
vn -0.136469 0.981465 -0.134549
vn 0.990853 -0.022899 0.13299
vn 0.87562 -0.468499 0.117471
vn 0.365946 -0.295323 -0.882535
vn 0.365946 -0.295323 -0.882535
vn 0.87562 -0.468499 0.117471
vn 0.08294 -0.762332 -0.64185
vn 0.365946 -0.295323 -0.882535
vn 0.08294 -0.762332 -0.64185
vn -0.733585 -0.339006 -0.589006
vn 0.915905 0.382182 -0.122694
vn 0.1055 0.316774 -0.942616
vn 0.56411 0.821112 -0.08692
vn 0.56411 0.821112 -0.08692
vn 0.1055 0.316774 -0.942616
vn -0.252816 0.447197 -0.857962
vn -0.252816 0.447197 -0.857962
vn -0.306311 0.693091 -0.652532
vn 0.56411 0.821112 -0.08692
vn 0.56411 0.821112 -0.08692
vn -0.306311 0.693091 -0.652532
vn 0.448281 0.829027 0.334303
vn -0.252816 0.447197 -0.857962
vn 0.1055 0.316774 -0.942616
vn -0.733585 -0.339006 -0.589006
vn 0.1055 0.316774 -0.942616
vn 0.365946 -0.295323 -0.882535
vn -0.733585 -0.339006 -0.589006
vn -0.252816 0.447197 -0.857962
vn -0.733585 -0.339006 -0.589006
vn -0.306311 0.693091 -0.652532
vn 0.1055 0.316774 -0.942616
vn 0.915905 0.382182 -0.122694
vn 0.365946 -0.295323 -0.882535
vn 0.365946 -0.295323 -0.882535
vn 0.915905 0.382182 -0.122694
vn 0.990853 -0.022899 0.13299
vn 0.87562 -0.468499 0.117471
vn 0.5782 -0.758726 0.300032
vn 0.08294 -0.762332 -0.64185
vn 0.08294 -0.762332 -0.64185
vn 0.5782 -0.758726 0.300032
vn -0.238406 -0.791216 -0.563152
vn 0.08294 -0.762332 -0.64185
vn -0.238406 -0.791216 -0.563152
vn -0.733585 -0.339006 -0.589006
vn -0.238406 -0.791216 -0.563152
vn -0.312791 -0.908498 -0.277115
vn -0.733585 -0.339006 -0.589006
vn -0.312791 -0.908498 -0.277115
vn -0.451389 -0.87541 0.172931
vn -0.733585 -0.339006 -0.589006
vn -0.451389 -0.87541 0.172931
vn -0.109789 -0.712031 0.693512
vn -0.733585 -0.339006 -0.589006
vn -0.733585 -0.339006 -0.589006
vn -0.109789 -0.712031 0.693512
vn 0.576713 0.093089 0.811626
vn 0.56411 0.821112 -0.08692
vn 0.576713 0.093089 0.811626
vn 0.915905 0.382182 -0.122694
vn 0.915905 0.382182 -0.122694
vn 0.576713 0.093089 0.811626
vn 0.990853 -0.022899 0.13299
vn 0.56411 0.821112 -0.08692
vn 0.448281 0.829027 0.334303
vn 0.576713 0.093089 0.811626
vn 0.576713 0.093089 0.811626
vn 0.448281 0.829027 0.334303
vn -0.136469 0.981465 -0.134549
vn -0.109789 -0.712031 0.693512
vn 0.303274 -0.694341 0.652622
vn 0.576713 0.093089 0.811626
vn 0.576713 0.093089 0.811626
vn 0.303274 -0.694341 0.652622
vn 0.5782 -0.758726 0.300032
vn 0.5782 -0.758726 0.300032
vn 0.87562 -0.468499 0.117471
vn 0.576713 0.093089 0.811626
vn 0.87562 -0.468499 0.117471
vn 0.990853 -0.022899 0.13299
vn 0.576713 0.093089 0.811626
vn 0.303274 -0.694341 0.652622
vn -0.312791 -0.908498 -0.277115
vn 0.5782 -0.758726 0.300032
vn 0.5782 -0.758726 0.300032
vn -0.312791 -0.908498 -0.277115
vn -0.238406 -0.791216 -0.563152
vn -0.312791 -0.908498 -0.277115
vn 0.303274 -0.694341 0.652622
vn -0.451389 -0.87541 0.172931
vn -0.451389 -0.87541 0.172931
vn 0.303274 -0.694341 0.652622
vn -0.109789 -0.712031 0.693512
vn -0.66185 0.068116 0.746535
vn -0.961675 0.186706 -0.200805
vn -0.933621 0.292219 -0.207265
vn -0.961675 0.186706 -0.200805
vn -0.0 0.312571 -0.949894
vn -0.933621 0.292219 -0.207265
vn 0.961675 0.186706 -0.200805
vn 0.66185 0.068116 0.746535
vn 0.933621 0.292219 -0.207265
vn -0.0 0.312571 -0.949894
vn 0.961675 0.186706 -0.200805
vn 0.933621 0.292219 -0.207265
vn 0.66185 0.068116 0.746535
vn 0.961675 0.186706 -0.200805
vn 0.567489 -0.058329 0.821312
vn -0.0 -0.004627 0.999989
vn 0.567489 -0.058329 0.821312
vn -0.487577 -0.083405 0.869087
vn -0.0 -0.004627 0.999989
vn -0.487577 -0.083405 0.869087
vn -0.66185 0.068116 0.746535
vn -0.961675 0.186706 -0.200805
vn -0.66185 0.068116 0.746535
vn -0.487577 -0.083405 0.869087
vn -0.961675 0.186706 -0.200805
vn 0.0 0.367891 -0.929869
vn -0.0 0.312571 -0.949894
vn 0.0 0.367891 -0.929869
vn 0.961675 0.186706 -0.200805
vn -0.0 0.312571 -0.949894
vn 0.567489 -0.058329 0.821312
vn 0.980805 0.066317 -0.183366
vn 0.45981 -0.375866 0.804549
vn 0.980805 0.066317 -0.183366
vn 0.567489 -0.058329 0.821312
vn 0.961675 0.186706 -0.200805
vn 0.980805 0.066317 -0.183366
vn 0.0 0.367891 -0.929869
vn 0.0 0.500426 -0.86578
vn 0.961675 0.186706 -0.200805
vn 0.0 0.367891 -0.929869
vn 0.980805 0.066317 -0.183366
vn 0.339706 0.895303 0.288153
vn 0.0 0.500426 -0.86578
vn -0.379653 0.859508 -0.342213
vn 0.567489 -0.058329 0.821312
vn 0.45981 -0.375866 0.804549
vn -0.487577 -0.083405 0.869087
vn -0.487577 -0.083405 0.869087
vn 0.45981 -0.375866 0.804549
vn -0.533993 -0.398118 0.745891
vn 0.45981 -0.375866 0.804549
vn 0.0 -0.224828 0.974398
vn -0.533993 -0.398118 0.745891
vn 0.657172 0.273069 0.702537
vn 0.45981 -0.375866 0.804549
vn 0.980805 0.066317 -0.183366
vn -0.980805 0.066317 -0.183366
vn -0.487577 -0.083405 0.869087
vn -0.533993 -0.398118 0.745891
vn -0.487577 -0.083405 0.869087
vn -0.980805 0.066317 -0.183366
vn -0.961675 0.186706 -0.200805
vn -0.980805 0.066317 -0.183366
vn 0.0 0.367891 -0.929869
vn -0.961675 0.186706 -0.200805
vn 0.0 0.367891 -0.929869
vn -0.980805 0.066317 -0.183366
vn 0.0 0.500426 -0.86578
vn -0.980805 0.066317 -0.183366
vn -0.533993 -0.398118 0.745891
vn -0.695639 0.419419 0.583245
vn 0.0 0.500426 -0.86578
vn 0.339706 0.895303 0.288153
vn 0.825717 0.535507 0.177268
vn -0.379653 0.859508 -0.342213
vn 0.0 0.500426 -0.86578
vn -0.568907 0.546205 0.614821
vn -0.379653 0.859508 -0.342213
vn -0.568907 0.546205 0.614821
vn 0.339706 0.895303 0.288153
vn 0.339706 0.895303 0.288153
vn -0.568907 0.546205 0.614821
vn 0.825717 0.535507 0.177268
vn 0.825717 0.535507 0.177268
vn 0.980805 0.066317 -0.183366
vn 0.0 0.500426 -0.86578
vn 0.0 -0.224828 0.974398
vn 0.45981 -0.375866 0.804549
vn 0.347141 0.716735 0.604802
vn 0.45981 -0.375866 0.804549
vn 0.657172 0.273069 0.702537
vn 0.347141 0.716735 0.604802
vn -0.533993 -0.398118 0.745891
vn -0.475216 0.531848 0.700933
vn -0.695639 0.419419 0.583245
vn -0.533993 -0.398118 0.745891
vn 0.0 -0.224828 0.974398
vn -0.475216 0.531848 0.700933
vn -0.568907 0.546205 0.614821
vn -0.980805 0.066317 -0.183366
vn -0.695639 0.419419 0.583245
vn -0.980805 0.066317 -0.183366
vn -0.568907 0.546205 0.614821
vn 0.0 0.500426 -0.86578
vn 0.980805 0.066317 -0.183366
vn 0.825717 0.535507 0.177268
vn 0.657172 0.273069 0.702537
vn 0.825717 0.535507 0.177268
vn -0.568907 0.546205 0.614821
vn 0.657172 0.273069 0.702537
vn 0.657172 0.273069 0.702537
vn -0.568907 0.546205 0.614821
vn -0.695639 0.419419 0.583245
vn 0.347141 0.716735 0.604802
vn -0.475216 0.531848 0.700933
vn 0.0 -0.224828 0.974398
vn 0.657172 0.273069 0.702537
vn -0.695639 0.419419 0.583245
vn 0.347141 0.716735 0.604802
vn 0.347141 0.716735 0.604802
vn -0.695639 0.419419 0.583245
vn -0.475216 0.531848 0.700933

# default, 322 grouped triangles

usemtl elephant
o default
g default

f 1/1/1 2/2/2 3/3/3
f 3/4/4 2/5/5 4/6/6
f 5/7/7 6/8/8 1/9/9
f 1/10/10 6/11/11 2/12/12
f 5/13/13 7/14/14 6/15/15
f 6/16/16 7/17/17 8/18/18
f 9/19/19 10/20/20 7/21/21
f 7/22/22 10/23/23 8/24/24
f 11/25/25 12/26/26 13/27/27
f 13/28/28 12/29/29 14/30/30
f 2/31/31 6/32/32 15/33/33
f 6/34/34 8/35/35 15/36/36
f 7/37/37 5/38/38 16/39/39
f 16/40/40 5/41/41 17/42/42
f 9/43/43 7/44/44 18/45/45
f 18/46/46 7/47/47 16/48/48
f 17/49/49 5/50/50 19/51/51
f 19/52/52 5/53/53 1/54/54
f 20/55/55 21/56/56 19/57/57
f 19/58/58 21/59/59 17/60/60
f 11/61/61 13/62/62 22/63/63
f 22/64/64 13/65/65 23/66/66
f 17/67/67 21/68/68 16/69/69
f 16/70/70 21/71/71 24/72/72
f 16/73/73 24/74/74 18/75/75
f 18/76/76 24/77/77 25/78/78
f 11/79/79 22/80/80 26/81/81
f 26/82/82 22/83/83 27/84/84
f 3/85/85 26/86/86 28/87/87
f 28/88/88 26/89/89 27/90/90
f 19/91/91 1/92/92 28/93/93
f 28/94/94 1/95/95 3/96/96
f 29/97/97 30/98/98 22/99/99
f 22/100/100 30/101/101 27/102/102
f 30/103/103 31/104/104 27/105/105
f 27/106/106 31/107/107 28/108/108
f 28/109/109 31/110/110 19/111/111
f 19/112/112 31/113/113 20/114/114
f 32/115/115 33/116/116 23/117/117
f 23/118/118 33/119/119 34/120/120
f 23/121/121 34/122/122 22/123/123
f 22/124/124 34/125/125 29/126/126
f 35/127/127 13/128/128 36/129/129
f 36/130/130 13/131/131 14/132/132
f 23/133/133 13/134/134 32/135/135
f 32/136/136 13/137/137 35/138/138
f 37/139/139 38/140/140 39/141/141
f 38/142/142 40/143/143 39/144/144
f 35/145/145 36/146/146 41/147/147
f 41/148/148 36/149/149 40/150/150
f 37/151/151 10/152/152 42/153/153
f 42/154/154 10/155/155 9/156/156
f 42/157/157 9/158/158 43/159/159
f 43/160/160 9/161/161 18/162/162
f 41/163/163 44/164/164 35/165/165
f 35/166/166 44/167/167 32/168/168
f 11/169/169 26/170/170 12/171/171
f 12/172/172 26/173/173 45/174/174
f 26/175/175 3/176/176 45/177/177
f 45/178/178 3/179/179 4/180/180
f 46/181/181 47/182/182 48/183/183
f 47/184/184 49/185/185 48/186/186
f 49/187/187 50/188/188 48/189/189
f 15/190/190 8/191/191 51/192/192
f 8/193/193 10/194/194 51/195/195
f 10/196/196 37/197/197 51/198/198
f 15/199/199 51/200/200 47/201/201
f 51/202/202 49/203/203 47/204/204
f 51/205/205 37/206/206 39/207/207
f 51/208/208 39/209/209 49/210/210
f 39/211/211 50/212/212 49/213/213
f 52/214/214 46/215/215 48/216/216
f 50/217/217 53/218/218 48/219/219
f 53/220/220 52/221/221 48/222/222
f 39/223/223 40/224/224 54/225/225
f 40/226/226 36/227/227 54/228/228
f 36/229/229 14/230/230 54/231/231
f 39/232/232 53/233/233 50/234/234
f 53/235/235 39/236/236 54/237/237
f 45/238/238 4/239/239 55/240/240
f 4/241/241 2/242/242 55/243/243
f 55/244/244 2/245/245 15/246/246
f 55/247/247 46/248/248 52/249/249
f 55/250/250 47/251/251 46/252/252
f 12/253/253 45/254/254 56/255/255
f 56/256/256 45/257/257 55/258/258
f 54/259/259 14/260/260 56/261/261
f 14/262/262 12/263/263 56/264/264
f 56/265/265 55/266/266 52/267/267
f 54/268/268 52/269/269 53/270/270
f 47/271/271 55/272/272 15/273/273
f 52/274/274 54/275/275 56/276/276
f 57/277/277 40/278/278 38/279/279
f 37/280/280 57/281/281 38/282/282
f 40/283/283 57/284/284 41/285/285
f 57/286/286 37/287/287 42/288/288
f 57/289/289 42/290/290 58/291/291
f 58/292/292 42/293/293 43/294/294
f 41/295/295 59/296/296 44/297/297
f 57/298/298 59/299/299 41/300/300
f 60/301/301 61/302/302 58/303/303
f 61/304/304 62/305/305 59/306/306
f 61/307/307 59/308/308 57/309/309
f 58/310/310 61/311/311 57/312/312
f 63/313/313 62/314/314 64/315/315
f 60/316/316 63/317/317 64/318/318
f 61/319/319 60/320/320 64/321/321
f 62/322/322 61/323/323 64/324/324
f 65/325/325 33/326/326 44/327/327
f 44/328/328 33/329/329 32/330/330
f 66/331/331 67/332/332 68/333/333
f 60/334/334 58/335/335 66/336/336
f 43/337/337 67/338/338 58/339/339
f 67/340/340 66/341/341 58/342/342
f 59/343/343 62/344/344 69/345/345
f 70/346/346 65/347/347 44/348/348
f 70/349/349 44/350/350 59/351/351
f 70/352/352 69/353/353 71/354/354
f 72/355/355 71/356/356 69/357/357
f 69/358/358 70/359/359 59/360/360
f 63/361/361 60/362/362 73/363/363
f 73/364/364 60/365/365 66/366/366
f 74/367/367 63/368/368 75/369/369
f 75/370/370 63/371/371 73/372/372
f 62/373/373 63/374/374 76/375/375
f 62/376/376 76/377/377 69/378/378
f 76/379/379 63/380/380 77/381/381
f 77/382/382 63/383/383 74/384/384
f 78/385/385 79/386/386 80/387/387
f 75/388/388 81/389/389 82/390/390
f 81/391/391 75/392/392 73/393/393
f 83/394/394 84/395/395 85/396/396
f 84/397/397 83/398/398 68/399/399
f 68/400/400 83/401/401 66/402/402
f 72/403/403 86/404/404 71/405/405
f 77/406/406 87/407/407 76/408/408
f 87/409/409 77/410/410 80/411/411
f 86/412/412 72/413/413 88/414/414
f 86/415/415 89/416/416 71/417/417
f 89/418/418 70/419/419 71/420/420
f 72/421/421 90/422/422 88/423/423
f 91/424/424 88/425/425 90/426/426
f 90/427/427 72/428/428 69/429/429
f 88/430/430 89/431/431 86/432/432
f 90/433/433 76/434/434 87/435/435
f 76/436/436 90/437/437 69/438/438
f 88/439/439 91/440/440 89/441/441
f 92/442/442 79/443/443 82/444/444
f 93/445/445 79/446/446 92/447/447
f 79/448/448 93/449/449 80/450/450
f 82/451/451 81/452/452 92/453/453
f 67/454/454 94/455/455 68/456/456
f 84/457/457 68/458/458 94/459/459
f 95/460/460 83/461/461 85/462/462
f 83/463/463 95/464/464 66/465/465
f 94/466/466 85/467/467 84/468/468
f 85/469/469 96/470/470 95/471/471
f 73/472/472 95/473/473 81/474/474
f 95/475/475 73/476/476 66/477/477
f 81/478/478 97/479/479 92/480/480
f 95/481/481 97/482/482 81/483/483
f 97/484/484 96/485/485 98/486/486
f 96/487/487 85/488/488 94/489/489
f 98/490/490 94/491/491 99/492/492
f 87/493/493 80/494/494 93/495/495
f 100/496/496 87/497/497 93/498/498
f 100/499/499 90/500/500 87/501/501
f 100/502/502 97/503/503 101/504/504
f 101/505/505 97/506/506 98/507/507
f 97/508/508 100/509/509 92/510/510
f 92/511/511 100/512/512 93/513/513
f 100/514/514 91/515/515 90/516/516
f 91/517/517 100/518/518 101/519/519
f 94/520/520 98/521/521 96/522/522
f 96/523/523 97/524/524 95/525/525
f 102/526/526 99/527/527 94/528/528
f 103/529/529 43/530/530 25/531/531
f 25/532/532 43/533/533 18/534/534
f 103/535/535 67/536/536 43/537/537
f 103/538/538 104/539/539 67/540/540
f 94/541/541 67/542/542 104/543/543
f 105/544/544 106/545/545 99/546/546
f 102/547/547 104/548/548 105/549/549
f 99/550/550 102/551/551 105/552/552
f 106/553/553 107/554/554 89/555/555
f 98/556/556 99/557/557 101/558/558
f 101/559/559 99/560/560 106/561/561
f 101/562/562 89/563/563 91/564/564
f 89/565/565 101/566/566 106/567/567
f 107/568/568 106/569/569 105/570/570
f 104/571/571 102/572/572 94/573/573
f 33/574/574 108/575/575 34/576/576
f 30/577/577 108/578/578 31/579/579
f 108/580/580 21/581/581 20/582/582
f 108/583/583 20/584/584 31/585/585
f 21/586/586 108/587/587 24/588/588
f 108/589/589 25/590/590 24/591/591
f 108/592/592 29/593/593 34/594/594
f 29/595/595 108/596/596 30/597/597
f 65/598/598 108/599/599 33/600/600
f 65/601/601 109/602/602 108/603/603
f 25/604/604 108/605/605 103/606/606
f 103/607/607 108/608/608 110/609/609
f 108/610/610 109/611/611 110/612/612
f 111/613/613 65/614/614 70/615/615
f 65/616/616 111/617/617 109/618/618
f 70/619/619 89/620/620 111/621/621
f 107/622/622 111/623/623 89/624/624
f 104/625/625 103/626/626 110/627/627
f 109/628/628 112/629/629 110/630/630
f 105/631/631 112/632/632 111/633/633
f 111/634/634 107/635/635 105/636/636
f 112/637/637 105/638/638 104/639/639
f 110/640/640 112/641/641 104/642/642
f 112/643/643 109/644/644 111/645/645
f 113/646/646 114/647/647 115/648/648
f 116/649/649 115/650/650 114/651/651
f 117/652/652 118/653/653 119/654/654
f 119/655/655 118/656/656 120/657/657
f 118/658/658 113/659/659 120/660/660
f 121/661/661 122/662/662 123/663/663
f 123/664/664 122/665/665 124/666/666
f 124/667/667 122/668/668 114/669/669
f 114/670/670 122/671/671 116/672/672
f 124/673/673 113/674/674 123/675/675
f 123/676/676 113/677/677 118/678/678
f 124/679/679 114/680/680 113/681/681
f 123/682/682 118/683/683 121/684/684
f 121/685/685 118/686/686 117/687/687
f 119/688/688 120/689/689 125/690/690
f 125/691/691 120/692/692 126/693/693
f 120/694/694 113/695/695 126/696/696
f 126/697/697 113/698/698 127/699/699
f 127/700/700 113/701/701 128/702/702
f 129/703/703 130/704/704 113/705/705
f 113/706/706 130/707/707 128/708/708
f 122/709/709 121/710/710 129/711/711
f 121/712/712 117/713/713 129/714/714
f 122/715/715 129/716/716 116/717/717
f 129/718/718 115/719/719 116/720/720
f 130/721/721 129/722/722 131/723/723
f 129/724/724 125/725/725 131/726/726
f 125/727/727 129/728/728 119/729/729
f 119/730/730 129/731/731 117/732/732
f 131/733/733 125/734/734 127/735/735
f 127/736/736 125/737/737 126/738/738
f 127/739/739 128/740/740 131/741/741
f 131/742/742 128/743/743 130/744/744
f 132/745/745 133/746/746 134/747/747
f 135/748/748 134/749/749 133/750/750
f 136/751/751 137/752/752 138/753/753
f 138/754/754 137/755/755 139/756/756
f 138/757/757 139/758/758 132/759/759
f 140/760/760 141/761/761 142/762/762
f 142/763/763 141/764/764 143/765/765
f 143/766/766 134/767/767 142/768/768
f 142/769/769 134/770/770 135/771/771
f 143/772/772 141/773/773 132/774/774
f 141/775/775 138/776/776 132/777/777
f 143/778/778 132/779/779 134/780/780
f 141/781/781 140/782/782 138/783/783
f 138/784/784 140/785/785 136/786/786
f 137/787/787 144/788/788 139/789/789
f 139/790/790 144/791/791 145/792/792
f 139/793/793 145/794/794 132/795/795
f 145/796/796 146/797/797 132/798/798
f 146/799/799 147/800/800 132/801/801
f 147/802/802 148/803/803 132/804/804
f 132/805/805 148/806/806 149/807/807
f 142/808/808 149/809/809 140/810/810
f 140/811/811 149/812/812 136/813/813
f 142/814/814 135/815/815 149/816/816
f 149/817/817 135/818/818 133/819/819
f 148/820/820 150/821/821 149/822/822
f 149/823/823 150/824/824 144/825/825
f 144/826/826 137/827/827 149/828/828
f 137/829/829 136/830/830 149/831/831
f 150/832/832 146/833/833 144/834/834
f 144/835/835 146/836/836 145/837/837
f 146/838/838 150/839/839 147/840/840
f 147/841/841 150/842/842 148/843/843
f 82/844/844 151/845/845 75/846/846
f 151/847/847 74/848/848 75/849/849
f 152/850/850 80/851/851 77/852/852
f 74/853/853 152/854/854 77/855/855
f 80/856/856 152/857/857 78/858/858
f 79/859/859 78/860/860 153/861/861
f 79/862/862 153/863/863 82/864/864
f 151/865/865 82/866/866 153/867/867
f 151/868/868 154/869/869 74/870/870
f 154/871/871 152/872/872 74/873/873
f 78/874/874 155/875/875 156/876/876
f 155/877/877 78/878/878 152/879/879
f 155/880/880 154/881/881 157/882/882
f 152/883/883 154/884/884 155/885/885
f 158/886/886 157/887/887 159/888/888
f 78/889/889 156/890/890 153/891/891
f 153/892/892 156/893/893 160/894/894
f 156/895/895 161/896/896 160/897/897
f 162/898/898 156/899/899 155/900/900
f 163/901/901 153/902/902 160/903/903
f 153/904/904 163/905/905 151/906/906
f 163/907/907 154/908/908 151/909/909
f 154/910/910 163/911/911 157/912/912
f 163/913/913 160/914/914 164/915/915
f 157/916/916 158/917/917 165/918/918
f 159/919/919 157/920/920 166/921/921
f 159/922/922 166/923/923 158/924/924
f 158/925/925 166/926/926 165/927/927
f 165/928/928 155/929/929 157/930/930
f 161/931/931 156/932/932 167/933/933
f 156/934/934 162/935/935 167/936/936
f 160/937/937 168/938/938 164/939/939
f 160/940/940 161/941/941 168/942/942
f 166/943/943 163/944/944 164/945/945
f 163/946/946 166/947/947 157/948/948
f 155/949/949 165/950/950 162/951/951
f 165/952/952 166/953/953 162/954/954
f 162/955/955 166/956/956 164/957/957
f 167/958/958 168/959/959 161/960/960
f 162/961/961 164/962/962 167/963/963
f 167/964/964 164/965/965 168/966/966
