# Blender v2.83.1 OBJ File: ''
# www.blender.org
mtllib Gafas3.mtl
o Gafas3
v -1.264191 0.025309 0.000000
v -1.209963 0.022324 0.000000
v -1.264191 -0.108419 -0.000000
v -1.209963 -0.210770 -0.000000
v -1.308419 0.025309 0.110492
v -1.308419 -0.108419 0.110492
v -1.264191 0.025309 0.110492
v -1.264191 -0.108419 0.110492
v -1.209963 0.022324 0.046781
v -1.209963 -0.210770 0.110492
v -1.308419 -0.108419 -0.000000
v -1.264191 -0.108419 -1.388191
v -1.308419 -0.108419 -1.388191
v -1.301421 -0.295282 -1.725784
v -1.271190 -0.295282 -1.725784
v -1.271497 -0.292559 -1.737527
v -1.301113 -0.292559 -1.737527
v -1.271497 -0.272607 -1.749346
v -1.301113 -0.272607 -1.749346
v -1.271228 -0.262239 -1.745443
v -1.301382 -0.262239 -1.745443
v -1.308419 0.025309 -1.388191
v -1.264191 0.025309 -1.388191
v -1.308419 0.025309 0.000000
v 1.195098 -0.194526 -0.000000
v 1.195098 0.030580 0.000000
v 1.264191 -0.108419 -0.000000
v 1.264191 0.025309 0.000000
v 1.308419 0.025309 0.110492
v 1.264191 0.025309 0.110492
v 1.308419 -0.108419 0.110492
v 1.264191 -0.108419 0.110492
v 1.195098 0.030580 0.110492
v 1.195098 -0.194526 0.110492
v 1.308419 -0.108419 -0.000000
v 1.264191 -0.108419 -1.388191
v 1.308420 -0.108419 -1.388191
v 1.301421 -0.295282 -1.725784
v 1.271190 -0.295282 -1.725784
v 1.271498 -0.292559 -1.737527
v 1.301113 -0.292559 -1.737527
v 1.271498 -0.272607 -1.749346
v 1.301113 -0.272607 -1.749346
v 1.271228 -0.262239 -1.745443
v 1.301382 -0.262239 -1.745443
v 1.308420 0.025309 -1.388191
v 1.264191 0.025309 -1.388191
v 1.308419 0.025309 0.000000
v -1.228521 0.032664 0.113252
v -1.074072 0.045604 0.113252
v -1.228521 0.032664 -0.010218
v -1.074072 0.045604 -0.010218
v -0.879354 0.053993 0.113252
v -0.879354 0.053993 -0.010218
v -0.610726 0.057320 -0.010218
v -0.610726 0.057320 0.113252
v -0.342098 0.053993 -0.010218
v -0.342098 0.053993 0.113252
v -0.147380 0.045604 0.113252
v -0.147380 0.045604 -0.010218
v 0.000000 0.029592 0.113252
v 0.000000 0.029592 -0.010218
v -0.610726 -0.834727 0.113252
v -0.889604 -0.797947 0.113252
v -0.610726 -0.834727 -0.010218
v -0.889604 -0.797947 -0.010218
v -1.074072 -0.692848 0.113252
v -1.074072 -0.692848 -0.010218
v -1.204771 -0.451458 -0.010218
v -1.204771 -0.451458 0.113252
v -1.230534 -0.218609 0.113252
v -1.230534 -0.218609 -0.010218
v -0.331848 -0.797947 -0.010218
v -0.331848 -0.797947 0.113252
v -0.147380 -0.692848 0.113252
v -0.147380 -0.692848 -0.010218
v -0.016681 -0.451458 -0.010218
v -0.016681 -0.451458 0.113252
v 0.000000 -0.300694 -0.010218
v 0.000000 -0.300693 0.113252
v -1.142988 -0.048856 0.113252
v -1.144311 -0.213972 0.113252
v -1.068753 -0.042637 0.113252
v -1.048995 -0.218609 0.113252
v -1.121077 -0.423965 0.113252
v -0.877024 -0.034377 0.113252
v -1.010687 -0.627847 0.113252
v -0.864721 -0.218609 0.113252
v -0.862210 -0.712440 0.113252
v -0.610726 -0.031078 0.113252
v -0.610726 -0.218609 0.113252
v -0.610726 -0.745607 0.113252
v -0.359242 -0.712440 0.113252
v -0.356731 -0.218609 0.113252
v -0.344428 -0.034377 0.113252
v -0.210766 -0.627847 0.113252
v -0.172457 -0.218609 0.113252
v -0.100375 -0.423965 0.113252
v -0.152699 -0.042637 0.113252
v -0.077141 -0.213972 0.113252
v -0.078464 -0.048856 0.113252
v -0.078464 -0.048856 -0.010218
v -0.077141 -0.213972 -0.010218
v -0.152699 -0.042637 -0.010218
v -0.172457 -0.218609 -0.010218
v -0.100375 -0.423965 -0.010218
v -0.344428 -0.034377 -0.010218
v -0.210766 -0.627847 -0.010218
v -0.356731 -0.218609 -0.010218
v -0.359242 -0.712440 -0.010218
v -0.610726 -0.031078 -0.010218
v -0.610726 -0.218609 -0.010218
v -0.610726 -0.745607 -0.010218
v -0.862210 -0.712440 -0.010218
v -0.864721 -0.218609 -0.010218
v -0.877024 -0.034377 -0.010218
v -1.010687 -0.627847 -0.010218
v -1.048995 -0.218609 -0.010218
v -1.121077 -0.423965 -0.010218
v -1.068753 -0.042637 -0.010218
v -1.144311 -0.213972 -0.010218
v -1.142988 -0.048856 -0.010218
v 1.228521 0.032664 0.113252
v 1.228521 0.032664 -0.010218
v 1.074072 0.045604 0.113252
v 1.074072 0.045604 -0.010218
v 0.879354 0.053993 0.113252
v 0.879354 0.053993 -0.010218
v 0.610726 0.057320 -0.010218
v 0.610726 0.057320 0.113252
v 0.342099 0.053993 -0.010218
v 0.342099 0.053993 0.113252
v 0.147380 0.045604 0.113252
v 0.147380 0.045604 -0.010218
v 0.610726 -0.834727 0.113252
v 0.610726 -0.834727 -0.010218
v 0.889604 -0.797947 0.113252
v 0.889604 -0.797947 -0.010218
v 1.074072 -0.692848 0.113252
v 1.074072 -0.692848 -0.010218
v 1.204771 -0.451458 -0.010218
v 1.204771 -0.451458 0.113252
v 1.230534 -0.218609 0.113252
v 1.230534 -0.218609 -0.010218
v 0.331848 -0.797947 -0.010218
v 0.331848 -0.797947 0.113252
v 0.147380 -0.692848 0.113252
v 0.147380 -0.692848 -0.010218
v 0.016681 -0.451458 -0.010218
v 0.016681 -0.451458 0.113252
v 1.142988 -0.048856 0.113252
v 1.068753 -0.042637 0.113252
v 1.144311 -0.213972 0.113252
v 1.048995 -0.218609 0.113252
v 1.121077 -0.423965 0.113252
v 0.877024 -0.034377 0.113252
v 1.010687 -0.627847 0.113252
v 0.864721 -0.218609 0.113252
v 0.862210 -0.712440 0.113252
v 0.610726 -0.031078 0.113252
v 0.610726 -0.218609 0.113252
v 0.610726 -0.745607 0.113252
v 0.359242 -0.712440 0.113252
v 0.356731 -0.218609 0.113252
v 0.344428 -0.034377 0.113252
v 0.210765 -0.627847 0.113252
v 0.172457 -0.218609 0.113252
v 0.100375 -0.423965 0.113252
v 0.152699 -0.042637 0.113252
v 0.077141 -0.213972 0.113252
v 0.078464 -0.048856 0.113252
v 0.078464 -0.048856 -0.010218
v 0.152699 -0.042637 -0.010218
v 0.077141 -0.213972 -0.010218
v 0.172457 -0.218609 -0.010218
v 0.100375 -0.423965 -0.010218
v 0.344428 -0.034377 -0.010218
v 0.210765 -0.627847 -0.010218
v 0.356731 -0.218609 -0.010218
v 0.359242 -0.712440 -0.010218
v 0.610726 -0.031078 -0.010218
v 0.610726 -0.218609 -0.010218
v 0.610726 -0.745607 -0.010218
v 0.862210 -0.712440 -0.010218
v 0.864721 -0.218609 -0.010218
v 0.877024 -0.034377 -0.010218
v 1.010687 -0.627847 -0.010218
v 1.048995 -0.218609 -0.010218
v 1.121077 -0.423965 -0.010218
v 1.068753 -0.042637 -0.010218
v 1.144311 -0.213972 -0.010218
v 1.142988 -0.048856 -0.010218
v 1.312743 -0.149077 0.159958
v 1.312326 -0.043485 0.159958
v 1.219859 -0.098853 0.159958
v 1.138626 -0.028021 0.159958
v 1.119563 -0.131880 0.159958
v 1.180889 0.071124 0.159958
v 1.076223 0.057159 0.159958
v 1.288241 0.061567 0.159958
v 1.388795 0.029334 0.159958
v 1.242617 0.156795 0.159958
v 1.119563 -0.131880 0.111309
v 1.138626 -0.028021 0.111309
v 1.219859 -0.098853 0.111309
v 1.312326 -0.043485 0.111309
v 1.312743 -0.149077 0.111309
v 1.288241 0.061567 0.111309
v 1.388795 0.029334 0.111309
v 1.180889 0.071124 0.111309
v 1.076223 0.057159 0.111309
v 1.242617 0.156795 0.111309
v -1.119430 -0.132223 0.159958
v -1.138176 -0.028307 0.159958
v -1.219624 -0.098891 0.159958
v -1.311923 -0.043241 0.159958
v -1.312661 -0.148832 0.159958
v -1.287518 0.061736 0.159958
v -1.388169 0.029809 0.159958
v -1.180137 0.070966 0.159958
v -1.075514 0.056684 0.159958
v -1.241604 0.156825 0.159958
v -1.312661 -0.148832 0.111309
v -1.311923 -0.043241 0.111309
v -1.219624 -0.098891 0.111309
v -1.138176 -0.028307 0.111309
v -1.119430 -0.132223 0.111309
v -1.180137 0.070966 0.111309
v -1.075514 0.056684 0.111309
v -1.287518 0.061736 0.111309
v -1.388169 0.029809 0.111309
v -1.241604 0.156825 0.111309
v 0.000000 -0.218121 0.113252
v 0.000000 -0.218121 -0.010218
vt 0.509766 0.521973
vt 0.509277 0.522461
vt 0.509277 0.521973
vt 0.509277 0.522461
vt 0.544434 0.582031
vt 0.547363 0.582031
vt 0.543945 0.582520
vt 0.547363 0.582520
vt 0.543945 0.585938
vt 0.546875 0.585938
vt 0.508789 0.521973
vt 0.508789 0.521973
vt 0.508789 0.521973
vt 0.509277 0.518066
vt 0.509277 0.518066
vt 0.509277 0.517578
vt 0.509277 0.517578
vt 0.509277 0.517578
vt 0.509277 0.517090
vt 0.509277 0.517578
vt 0.509277 0.517090
vt 0.509277 0.517578
vt 0.509277 0.517090
vt 0.509766 0.518066
vt 0.509766 0.518066
vt 0.509766 0.521973
vt 0.509766 0.521973
vt 0.509766 0.521973
vt 0.509277 0.522461
vt 0.509277 0.522461
vt 0.538086 0.594238
vt 0.538086 0.593262
vt 0.541016 0.594238
vt 0.541016 0.593262
vt 0.541504 0.573730
vt 0.538574 0.573730
vt 0.545410 0.568848
vt 0.544922 0.568848
vt 0.545898 0.568848
vt 0.545898 0.568848
vt 0.511719 0.522461
vt 0.511719 0.522461
vt 0.512207 0.521973
vt 0.511230 0.521973
vt 0.547363 0.582520
vt 0.547363 0.583008
vt 0.543945 0.582520
vt 0.543945 0.583008
vt 0.546875 0.586426
vt 0.543945 0.586426
vt 0.512207 0.521973
vt 0.512207 0.521973
vt 0.512207 0.521973
vt 0.512207 0.522461
vt 0.511719 0.518066
vt 0.512207 0.518066
vt 0.512207 0.517578
vt 0.512207 0.517578
vt 0.512207 0.517578
vt 0.512207 0.517578
vt 0.511719 0.517578
vt 0.511719 0.517578
vt 0.511719 0.517578
vt 0.511719 0.517578
vt 0.511230 0.518555
vt 0.511719 0.518555
vt 0.511230 0.521973
vt 0.511230 0.521973
vt 0.511230 0.521973
vt 0.511719 0.522461
vt 0.541016 0.594727
vt 0.538086 0.594727
vt 0.541016 0.593750
vt 0.538086 0.593750
vt 0.538574 0.574219
vt 0.541504 0.574219
vt 0.534668 0.569336
vt 0.535156 0.569336
vt 0.534180 0.569336
vt 0.534668 0.569336
vt 0.516602 0.522461
vt 0.516602 0.522949
vt 0.522461 0.522461
vt 0.522461 0.522949
vt 0.516602 0.522949
vt 0.522461 0.522949
vt 0.522461 0.522949
vt 0.516602 0.522949
vt 0.522461 0.522949
vt 0.516602 0.522949
vt 0.516602 0.522949
vt 0.522461 0.522949
vt 0.516602 0.522461
vt 0.522461 0.522461
vt 0.516602 0.506836
vt 0.516602 0.507324
vt 0.522461 0.506836
vt 0.522461 0.507324
vt 0.516602 0.509277
vt 0.522461 0.509277
vt 0.522461 0.513672
vt 0.516602 0.513672
vt 0.516602 0.518066
vt 0.522461 0.518066
vt 0.522461 0.507324
vt 0.516602 0.507324
vt 0.516602 0.509277
vt 0.522461 0.509277
vt 0.522461 0.513672
vt 0.516602 0.513672
vt 0.522461 0.516602
vt 0.516602 0.516602
vt 0.642578 0.566895
vt 0.642090 0.558105
vt 0.645020 0.567383
vt 0.645508 0.558105
vt 0.643066 0.547363
vt 0.651855 0.567871
vt 0.646973 0.536133
vt 0.652344 0.558105
vt 0.652344 0.531738
vt 0.661621 0.567871
vt 0.661621 0.558105
vt 0.661621 0.530273
vt 0.670898 0.531738
vt 0.670898 0.558105
vt 0.671387 0.567871
vt 0.676270 0.536133
vt 0.677246 0.558105
vt 0.680176 0.547363
vt 0.678223 0.567383
vt 0.680664 0.558105
vt 0.680664 0.566895
vt 0.680664 0.566895
vt 0.680664 0.558105
vt 0.678223 0.567383
vt 0.677246 0.558105
vt 0.680176 0.547363
vt 0.671387 0.567871
vt 0.676270 0.536133
vt 0.670898 0.558105
vt 0.670898 0.531738
vt 0.661621 0.567871
vt 0.661621 0.558105
vt 0.661621 0.530273
vt 0.652344 0.531738
vt 0.652344 0.558105
vt 0.651855 0.567871
vt 0.646973 0.536133
vt 0.645508 0.558105
vt 0.643066 0.547363
vt 0.645020 0.567383
vt 0.642090 0.558105
vt 0.642578 0.566895
vt 0.516602 0.522461
vt 0.522461 0.522461
vt 0.516602 0.522949
vt 0.522461 0.522949
vt 0.516602 0.522949
vt 0.522461 0.522949
vt 0.522461 0.522949
vt 0.516602 0.522949
vt 0.522461 0.522949
vt 0.516602 0.522949
vt 0.516602 0.522949
vt 0.522461 0.522949
vt 0.516602 0.506836
vt 0.522461 0.506836
vt 0.516602 0.507324
vt 0.522461 0.507324
vt 0.516602 0.509277
vt 0.522461 0.509277
vt 0.522461 0.513672
vt 0.516602 0.513672
vt 0.516602 0.518066
vt 0.522461 0.518066
vt 0.522461 0.507324
vt 0.516602 0.507324
vt 0.516602 0.509277
vt 0.522461 0.509277
vt 0.522461 0.513672
vt 0.516602 0.513672
vt 0.725098 0.566895
vt 0.722168 0.567383
vt 0.725098 0.558105
vt 0.721680 0.558105
vt 0.724121 0.547363
vt 0.715332 0.567871
vt 0.720215 0.536133
vt 0.714844 0.558105
vt 0.714844 0.531738
vt 0.705566 0.567871
vt 0.705566 0.558105
vt 0.705566 0.530273
vt 0.696777 0.531738
vt 0.696777 0.558105
vt 0.696289 0.567871
vt 0.691406 0.536133
vt 0.689941 0.558105
vt 0.687500 0.547363
vt 0.688965 0.567383
vt 0.686523 0.558105
vt 0.686523 0.566895
vt 0.686523 0.566895
vt 0.688965 0.567383
vt 0.686523 0.558105
vt 0.689941 0.558105
vt 0.687500 0.547363
vt 0.696289 0.567871
vt 0.691406 0.536133
vt 0.696777 0.558105
vt 0.696777 0.531738
vt 0.705566 0.567871
vt 0.705566 0.558105
vt 0.705566 0.530273
vt 0.714844 0.531738
vt 0.714844 0.558105
vt 0.715332 0.567871
vt 0.720215 0.536133
vt 0.721680 0.558105
vt 0.724121 0.547363
vt 0.722168 0.567383
vt 0.725098 0.558105
vt 0.725098 0.566895
vt 0.639648 0.727539
vt 0.639160 0.729980
vt 0.638184 0.728027
vt 0.636719 0.728516
vt 0.637207 0.728027
vt 0.636719 0.731445
vt 0.635254 0.729980
vt 0.638184 0.732422
vt 0.639648 0.732422
vt 0.636719 0.733887
vt 0.637207 0.726074
vt 0.638184 0.728027
vt 0.636719 0.728516
vt 0.636719 0.731445
vt 0.635254 0.729980
vt 0.638184 0.732422
vt 0.636719 0.733887
vt 0.639160 0.730469
vt 0.639648 0.728027
vt 0.639648 0.732910
vt 0.654297 0.637695
vt 0.654297 0.633301
vt 0.650391 0.637695
vt 0.650391 0.633301
vt 0.654297 0.627930
vt 0.650391 0.627930
vt 0.650391 0.638672
vt 0.654297 0.638672
vt 0.650391 0.643555
vt 0.654297 0.643555
vt 0.650391 0.638672
vt 0.654297 0.638672
vt 0.650391 0.637695
vt 0.654297 0.637695
vt 0.650391 0.633301
vt 0.654297 0.633301
vt 0.650391 0.627930
vt 0.654297 0.627930
vt 0.650391 0.629883
vt 0.654297 0.629883
vt 0.639648 0.727539
vt 0.639160 0.729980
vt 0.638184 0.728027
vt 0.636719 0.728516
vt 0.637207 0.728027
vt 0.636719 0.731445
vt 0.635254 0.729980
vt 0.638184 0.732422
vt 0.639648 0.732422
vt 0.636719 0.733887
vt 0.637207 0.726074
vt 0.638184 0.728027
vt 0.636719 0.728516
vt 0.636719 0.731445
vt 0.635254 0.729980
vt 0.638184 0.732422
vt 0.636719 0.733887
vt 0.639160 0.730469
vt 0.639648 0.728027
vt 0.639648 0.732910
vt 0.654297 0.637695
vt 0.654297 0.633301
vt 0.650391 0.637695
vt 0.650391 0.633301
vt 0.654297 0.627930
vt 0.650391 0.627930
vt 0.650391 0.638672
vt 0.654297 0.638672
vt 0.650391 0.643555
vt 0.654297 0.643555
vt 0.650391 0.638672
vt 0.654297 0.638672
vt 0.650391 0.637695
vt 0.654297 0.637695
vt 0.650391 0.633301
vt 0.654297 0.633301
vt 0.650391 0.627930
vt 0.654297 0.627930
vt 0.650391 0.629883
vt 0.654297 0.629883
vt 0.572754 0.592285
vt 0.572754 0.594727
vt 0.568848 0.592285
vt 0.574219 0.592285
vt 0.568848 0.595215
vt 0.563477 0.592773
vt 0.563477 0.595215
vt 0.558594 0.592285
vt 0.558594 0.595215
vt 0.554688 0.592285
vt 0.554688 0.594727
vt 0.553223 0.592285
vt 0.551758 0.594238
vt 0.553223 0.587402
vt 0.551270 0.587402
vt 0.553711 0.581543
vt 0.551758 0.580566
vt 0.555664 0.575684
vt 0.554688 0.573730
vt 0.558594 0.573242
vt 0.558105 0.570801
vt 0.563477 0.572266
vt 0.563477 0.569824
vt 0.568848 0.573242
vt 0.569336 0.570801
vt 0.571777 0.575684
vt 0.572754 0.573730
vt 0.573730 0.581543
vt 0.575195 0.580566
vt 0.574219 0.587402
vt 0.575684 0.584961
vt 0.575684 0.587402
vt 0.577148 0.587402
vt 0.576172 0.580566
vt 0.577637 0.581543
vt 0.578613 0.573730
vt 0.580078 0.575684
vt 0.582520 0.570801
vt 0.583008 0.573242
vt 0.587891 0.569824
vt 0.587891 0.572266
vt 0.593262 0.570801
vt 0.592773 0.573242
vt 0.597168 0.573730
vt 0.595703 0.575684
vt 0.599609 0.580566
vt 0.597656 0.581543
vt 0.600098 0.587402
vt 0.598145 0.587402
vt 0.600098 0.594238
vt 0.598145 0.592285
vt 0.597168 0.594727
vt 0.596680 0.592285
vt 0.593262 0.595215
vt 0.593262 0.592285
vt 0.587891 0.595215
vt 0.587891 0.592773
vt 0.582520 0.595215
vt 0.582520 0.592285
vt 0.578613 0.594727
vt 0.578613 0.592285
vt 0.577148 0.592285
vt 0.575684 0.594238
vt 0.574219 0.587402
vt 0.574219 0.592285
vt 0.575684 0.587402
vt 0.573730 0.581543
vt 0.575195 0.580566
vt 0.571777 0.575684
vt 0.572754 0.573730
vt 0.568848 0.573242
vt 0.569336 0.570801
vt 0.563477 0.572266
vt 0.563477 0.569824
vt 0.558594 0.573242
vt 0.558105 0.570801
vt 0.555664 0.575684
vt 0.554688 0.573730
vt 0.553711 0.581543
vt 0.551758 0.580566
vt 0.553223 0.587402
vt 0.551270 0.587402
vt 0.553223 0.592285
vt 0.551758 0.594238
vt 0.554688 0.592285
vt 0.554688 0.594727
vt 0.558594 0.592285
vt 0.558594 0.595215
vt 0.563477 0.592773
vt 0.563477 0.595215
vt 0.568848 0.592285
vt 0.568848 0.595215
vt 0.572754 0.592285
vt 0.572754 0.594727
vt 0.575684 0.594238
vt 0.577148 0.592285
vt 0.578613 0.594727
vt 0.578613 0.592285
vt 0.582520 0.595215
vt 0.582520 0.592285
vt 0.587891 0.595215
vt 0.587891 0.592773
vt 0.593262 0.595215
vt 0.593262 0.592285
vt 0.597168 0.594727
vt 0.596680 0.592285
vt 0.600098 0.594238
vt 0.598145 0.592285
vt 0.600098 0.587402
vt 0.598145 0.587402
vt 0.599609 0.580566
vt 0.597656 0.581543
vt 0.597168 0.573730
vt 0.595703 0.575684
vt 0.593262 0.570801
vt 0.592773 0.573242
vt 0.587891 0.569824
vt 0.587891 0.572266
vt 0.582520 0.570801
vt 0.583008 0.573242
vt 0.578613 0.573730
vt 0.580078 0.575684
vt 0.576172 0.580566
vt 0.577637 0.581543
vt 0.577148 0.587402
vt 0.575684 0.584961
vn 0.3176 0.9026 -0.2905
vn 0.5915 0.5598 -0.5803
vn 0.0389 -0.8245 -0.5645
vn 0.2029 -0.8163 -0.5408
vn -0.5773 0.5773 0.5773
vn -0.5773 -0.5773 0.5773
vn 0.3322 0.6258 0.7056
vn 0.0050 -0.4231 0.9061
vn 0.7335 0.6304 0.2541
vn 0.2049 -0.7700 0.6043
vn -0.7071 -0.7071 0.0000
vn 0.7708 -0.6192 0.1497
vn -0.7707 -0.6192 0.1501
vn -0.6338 -0.7673 0.0975
vn 0.6385 -0.7636 0.0958
vn 0.6207 -0.6300 -0.4666
vn -0.6152 -0.6326 -0.4704
vn 0.6099 -0.0745 -0.7889
vn -0.6136 -0.0719 -0.7863
vn 0.6520 0.4369 -0.6197
vn -0.6587 0.4323 -0.6157
vn -0.6405 0.7233 -0.2582
vn 0.6405 0.7232 -0.2582
vn -0.7071 0.7071 0.0000
vn -0.2782 -0.7913 -0.5443
vn -0.5568 0.6009 -0.5734
vn -0.0717 -0.8561 -0.5117
vn -0.2794 0.9063 -0.3170
vn 0.5773 0.5773 0.5773
vn 0.0266 0.6978 0.7158
vn 0.5773 -0.5773 0.5773
vn 0.2485 -0.5179 0.8185
vn -0.5568 0.6009 0.5734
vn -0.2782 -0.7913 0.5443
vn 0.7071 -0.7071 0.0000
vn -0.7708 -0.6192 0.1497
vn 0.7707 -0.6192 0.1501
vn 0.6338 -0.7673 0.0975
vn -0.6386 -0.7635 0.0958
vn -0.6207 -0.6300 -0.4666
vn 0.6152 -0.6326 -0.4704
vn -0.6099 -0.0745 -0.7890
vn 0.6136 -0.0719 -0.7863
vn -0.6520 0.4368 -0.6197
vn 0.6587 0.4323 -0.6157
vn 0.6405 0.7233 -0.2582
vn -0.6405 0.7232 -0.2582
vn 0.7071 0.7071 0.0000
vn -0.5961 0.5527 0.5823
vn -0.0450 0.7102 0.7026
vn -0.5961 0.5527 -0.5823
vn -0.0450 0.7102 -0.7026
vn -0.0197 0.7102 0.7037
vn -0.0197 0.7102 -0.7037
vn 0.0000 0.7099 -0.7043
vn 0.0000 0.7099 0.7043
vn 0.0197 0.7102 -0.7037
vn 0.0197 0.7102 0.7037
vn 0.0540 0.7122 0.6998
vn 0.0540 0.7122 -0.6998
vn 0.0000 0.6810 0.7322
vn 0.0000 0.6810 -0.7322
vn 0.0000 -0.7343 0.6788
vn -0.2377 -0.7067 0.6663
vn 0.0000 -0.7343 -0.6788
vn -0.2377 -0.7067 -0.6663
vn -0.5430 -0.5314 0.6502
vn -0.5430 -0.5314 -0.6502
vn -0.7116 -0.2226 -0.6663
vn -0.7116 -0.2226 0.6663
vn -0.7190 -0.0367 0.6940
vn -0.7190 -0.0367 -0.6940
vn 0.2377 -0.7067 -0.6663
vn 0.2377 -0.7067 0.6663
vn 0.5430 -0.5314 0.6502
vn 0.5430 -0.5314 -0.6502
vn 0.7116 -0.2226 -0.6663
vn 0.7116 -0.2226 0.6663
vn 0.0000 -0.0569 -0.9984
vn 0.0000 -0.0569 0.9984
vn 0.0000 0.0000 1.0000
vn 0.0000 0.0000 -1.0000
vn 0.5961 0.5527 0.5823
vn 0.5961 0.5527 -0.5823
vn 0.0450 0.7102 0.7026
vn 0.0450 0.7102 -0.7026
vn -0.0540 0.7122 0.6998
vn -0.0540 0.7122 -0.6998
vn 0.7190 -0.0367 0.6940
vn 0.7190 -0.0367 -0.6940
vn 0.4271 -0.7134 0.5555
vn 0.5421 -0.2311 0.8079
vn -0.0522 -0.5870 0.8079
vn -0.5744 -0.1317 0.8079
vn -0.5465 -0.6267 0.5555
vn -0.3027 0.5056 0.8079
vn -0.7649 0.3260 0.5555
vn 0.3873 0.4441 0.8079
vn 0.8104 0.1858 0.5555
vn 0.0737 0.8282 0.5555
vn -0.5465 -0.6267 -0.5555
vn -0.5744 -0.1317 -0.8079
vn -0.0522 -0.5870 -0.8079
vn 0.5421 -0.2311 -0.8079
vn 0.4271 -0.7134 -0.5555
vn 0.3873 0.4441 -0.8079
vn 0.8104 0.1858 -0.5555
vn -0.3027 0.5056 -0.8079
vn -0.7649 0.3260 -0.5555
vn 0.0737 0.8282 -0.5555
vn 0.5445 -0.6283 0.5555
vn 0.5740 -0.1334 0.8079
vn 0.0504 -0.5871 0.8079
vn -0.5428 -0.2294 0.8079
vn -0.4293 -0.7121 0.5555
vn -0.3859 0.4453 0.8079
vn -0.8099 0.1883 0.5555
vn 0.3043 0.5047 0.8079
vn 0.7659 0.3237 0.5555
vn -0.0712 0.8284 0.5555
vn -0.4293 -0.7121 -0.5555
vn -0.5428 -0.2294 -0.8079
vn 0.0504 -0.5871 -0.8079
vn 0.5740 -0.1334 -0.8079
vn 0.5445 -0.6283 -0.5555
vn 0.3043 0.5047 -0.8079
vn 0.7659 0.3237 -0.5555
vn -0.3859 0.4453 -0.8079
vn -0.8099 0.1883 -0.5555
vn -0.0712 0.8284 -0.5555
usemtl MENU_TROPICAL_1.002
s 1
f 1/1/1 2/2/2 3/3/3
f 4/4/4 3/3/3 2/2/2
f 5/5/5 6/6/6 7/7/7
f 8/8/8 7/7/7 6/6/6
f 7/7/7 8/8/8 9/9/9
f 10/10/10 9/9/9 8/8/8
f 6/11/6 11/12/11 8/13/8
f 3/3/3 8/13/8 11/12/11
f 3/3/3 11/12/11 12/14/12
f 13/15/13 12/14/12 11/12/11
f 13/15/13 14/16/14 12/14/12
f 15/17/15 12/14/12 14/16/14
f 15/17/15 14/16/14 16/18/16
f 17/19/17 16/18/16 14/16/14
f 16/18/16 17/19/17 18/20/18
f 19/21/19 18/20/18 17/19/17
f 18/20/18 19/21/19 20/22/20
f 21/23/21 20/22/20 19/21/19
f 21/23/21 22/24/22 20/22/20
f 23/25/23 20/22/20 22/24/22
f 23/25/23 22/24/22 1/1/1
f 24/26/24 1/1/1 22/24/22
f 24/26/24 5/27/5 1/1/1
f 7/28/7 1/1/1 5/27/5
f 1/1/1 7/28/7 2/2/2
f 9/29/9 2/2/2 7/28/7
f 4/4/4 10/30/10 3/3/3
f 8/13/8 3/3/3 10/30/10
f 2/2/2 9/29/9 4/4/4
f 10/30/10 4/4/4 9/29/9
f 5/31/5 24/32/24 6/33/6
f 11/34/11 6/33/6 24/32/24
f 11/34/11 24/32/24 13/35/13
f 22/36/22 13/35/13 24/32/24
f 19/37/19 13/35/13 22/36/22
f 21/38/21 19/37/19 22/36/22
f 14/39/14 13/35/13 19/37/19
f 17/40/17 14/39/14 19/37/19
f 1/1/1 3/3/3 23/25/23
f 12/14/12 23/25/23 3/3/3
f 16/18/16 23/25/23 12/14/12
f 15/17/15 16/18/16 12/14/12
f 20/22/20 23/25/23 16/18/16
f 18/20/18 20/22/20 16/18/16
f 25/41/25 26/42/26 27/43/27
f 28/44/28 27/43/27 26/42/26
f 29/45/29 30/46/30 31/47/31
f 32/48/32 31/47/31 30/46/30
f 30/46/30 33/49/33 32/48/32
f 34/50/34 32/48/32 33/49/33
f 31/51/31 32/52/32 35/53/35
f 27/43/27 35/53/35 32/52/32
f 32/52/32 34/54/34 27/43/27
f 25/41/25 27/43/27 34/54/34
f 27/43/27 36/55/36 35/53/35
f 37/56/37 35/53/35 36/55/36
f 37/56/37 36/55/36 38/57/38
f 39/58/39 38/57/38 36/55/36
f 39/58/39 40/59/40 38/57/38
f 41/60/41 38/57/38 40/59/40
f 40/59/40 42/61/42 41/60/41
f 43/62/43 41/60/41 42/61/42
f 42/61/42 44/63/44 43/62/43
f 45/64/45 43/62/43 44/63/44
f 45/64/45 44/63/44 46/65/46
f 47/66/47 46/65/46 44/63/44
f 47/66/47 28/44/28 46/65/46
f 48/67/48 46/65/46 28/44/28
f 48/67/48 28/44/28 29/68/29
f 30/69/30 29/68/29 28/44/28
f 28/44/28 26/42/26 30/69/30
f 33/70/33 30/69/30 26/42/26
f 34/54/34 33/70/33 25/41/25
f 26/42/26 25/41/25 33/70/33
f 29/71/29 31/72/31 48/73/48
f 35/74/35 48/73/48 31/72/31
f 35/74/35 37/75/37 48/73/48
f 46/76/46 48/73/48 37/75/37
f 37/75/37 43/77/43 46/76/46
f 43/77/43 45/78/45 46/76/46
f 38/79/38 43/77/43 37/75/37
f 41/80/41 43/77/43 38/79/38
f 28/44/28 47/66/47 27/43/27
f 36/55/36 27/43/27 47/66/47
f 47/66/47 40/59/40 36/55/36
f 40/59/40 39/58/39 36/55/36
f 44/63/44 40/59/40 47/66/47
f 42/61/42 40/59/40 44/63/44
f 49/81/49 50/82/50 51/83/51
f 52/84/52 51/83/51 50/82/50
f 50/82/50 53/85/53 52/84/52
f 54/86/54 52/84/52 53/85/53
f 54/86/54 53/85/53 55/87/55
f 56/88/56 55/87/55 53/85/53
f 55/87/55 56/88/56 57/89/57
f 58/90/58 57/89/57 56/88/56
f 58/90/58 59/91/59 57/89/57
f 60/92/60 57/89/57 59/91/59
f 59/91/59 61/93/61 60/92/60
f 62/94/62 60/92/60 61/93/61
f 63/95/63 64/96/64 65/97/65
f 66/98/66 65/97/65 64/96/64
f 64/96/64 67/99/67 66/98/66
f 68/100/68 66/98/66 67/99/67
f 68/100/68 67/99/67 69/101/69
f 70/102/70 69/101/69 67/99/67
f 70/102/70 71/103/71 69/101/69
f 72/104/72 69/101/69 71/103/71
f 71/103/71 49/81/49 72/104/72
f 51/83/51 72/104/72 49/81/49
f 65/97/65 73/105/73 63/95/63
f 74/106/74 63/95/63 73/105/73
f 74/106/74 73/105/73 75/107/75
f 76/108/76 75/107/75 73/105/73
f 76/108/76 77/109/77 75/107/75
f 78/110/78 75/107/75 77/109/77
f 77/109/77 79/111/79 78/110/78
f 80/112/80 78/110/78 79/111/79
f 81/113/81 82/114/81 83/115/81
f 84/116/81 83/115/81 82/114/81
f 82/114/81 85/117/81 84/116/81
f 83/115/81 84/116/81 86/118/81
f 87/119/81 84/116/81 85/117/81
f 88/120/81 86/118/81 84/116/81
f 84/116/81 87/119/81 88/120/81
f 89/121/81 88/120/81 87/119/81
f 86/118/81 88/120/81 90/122/81
f 88/120/81 89/121/81 91/123/81
f 91/123/81 90/122/81 88/120/81
f 92/124/81 91/123/81 89/121/81
f 92/124/81 93/125/81 91/123/81
f 91/123/81 94/126/81 90/122/81
f 94/126/81 91/123/81 93/125/81
f 95/127/81 90/122/81 94/126/81
f 93/125/81 96/128/81 94/126/81
f 94/126/81 97/129/81 95/127/81
f 97/129/81 94/126/81 96/128/81
f 96/128/81 98/130/81 97/129/81
f 99/131/81 95/127/81 97/129/81
f 100/132/81 97/129/81 98/130/81
f 97/129/81 100/132/81 99/131/81
f 101/133/81 99/131/81 100/132/81
f 102/134/82 103/135/82 104/136/82
f 105/137/82 104/136/82 103/135/82
f 103/135/82 106/138/82 105/137/82
f 104/136/82 105/137/82 107/139/82
f 108/140/82 105/137/82 106/138/82
f 109/141/82 107/139/82 105/137/82
f 105/137/82 108/140/82 109/141/82
f 110/142/82 109/141/82 108/140/82
f 107/139/82 109/141/82 111/143/82
f 109/141/82 110/142/82 112/144/82
f 112/144/82 111/143/82 109/141/82
f 113/145/82 112/144/82 110/142/82
f 113/145/82 114/146/82 112/144/82
f 112/144/82 115/147/82 111/143/82
f 115/147/82 112/144/82 114/146/82
f 116/148/82 111/143/82 115/147/82
f 114/146/82 117/149/82 115/147/82
f 115/147/82 118/150/82 116/148/82
f 118/150/82 115/147/82 117/149/82
f 117/149/82 119/151/82 118/150/82
f 120/152/82 116/148/82 118/150/82
f 121/153/82 118/150/82 119/151/82
f 118/150/82 121/153/82 120/152/82
f 122/154/82 120/152/82 121/153/82
f 123/155/83 124/156/84 125/157/85
f 126/158/86 125/157/85 124/156/84
f 125/157/85 126/158/86 127/159/58
f 128/160/57 127/159/58 126/158/86
f 128/160/57 129/161/55 127/159/58
f 130/162/56 127/159/58 129/161/55
f 129/161/55 131/163/54 130/162/56
f 132/164/53 130/162/56 131/163/54
f 132/164/53 131/163/54 133/165/87
f 134/166/88 133/165/87 131/163/54
f 133/165/87 134/166/88 61/93/61
f 62/94/62 61/93/61 134/166/88
f 135/167/63 136/168/65 137/169/74
f 138/170/73 137/169/74 136/168/65
f 137/169/74 138/170/73 139/171/75
f 140/172/76 139/171/75 138/170/73
f 140/172/76 141/173/77 139/171/75
f 142/174/78 139/171/75 141/173/77
f 142/174/78 141/173/77 143/175/89
f 144/176/90 143/175/89 141/173/77
f 143/175/89 144/176/90 123/155/83
f 124/156/84 123/155/83 144/176/90
f 136/168/65 135/167/63 145/177/66
f 146/178/64 145/177/66 135/167/63
f 146/178/64 147/179/67 145/177/66
f 148/180/68 145/177/66 147/179/67
f 148/180/68 147/179/67 149/181/69
f 150/182/70 149/181/69 147/179/67
f 149/181/69 150/182/70 79/111/79
f 80/112/80 79/111/79 150/182/70
f 151/183/81 152/184/81 153/185/81
f 154/186/81 153/185/81 152/184/81
f 153/185/81 154/186/81 155/187/81
f 152/184/81 156/188/81 154/186/81
f 157/189/81 155/187/81 154/186/81
f 158/190/81 154/186/81 156/188/81
f 154/186/81 158/190/81 157/189/81
f 159/191/81 157/189/81 158/190/81
f 156/188/81 160/192/81 158/190/81
f 158/190/81 161/193/81 159/191/81
f 161/193/81 158/190/81 160/192/81
f 162/194/81 159/191/81 161/193/81
f 162/194/81 161/193/81 163/195/81
f 161/193/81 160/192/81 164/196/81
f 164/196/81 163/195/81 161/193/81
f 165/197/81 164/196/81 160/192/81
f 163/195/81 164/196/81 166/198/81
f 164/196/81 165/197/81 167/199/81
f 167/199/81 166/198/81 164/196/81
f 166/198/81 167/199/81 168/200/81
f 169/201/81 167/199/81 165/197/81
f 170/202/81 168/200/81 167/199/81
f 167/199/81 169/201/81 170/202/81
f 171/203/81 170/202/81 169/201/81
f 172/204/82 173/205/82 174/206/82
f 175/207/82 174/206/82 173/205/82
f 174/206/82 175/207/82 176/208/82
f 173/205/82 177/209/82 175/207/82
f 178/210/82 176/208/82 175/207/82
f 179/211/82 175/207/82 177/209/82
f 175/207/82 179/211/82 178/210/82
f 180/212/82 178/210/82 179/211/82
f 177/209/82 181/213/82 179/211/82
f 179/211/82 182/214/82 180/212/82
f 182/214/82 179/211/82 181/213/82
f 183/215/82 180/212/82 182/214/82
f 183/215/82 182/214/82 184/216/82
f 182/214/82 181/213/82 185/217/82
f 185/217/82 184/216/82 182/214/82
f 186/218/82 185/217/82 181/213/82
f 184/216/82 185/217/82 187/219/82
f 185/217/82 186/218/82 188/220/82
f 188/220/82 187/219/82 185/217/82
f 187/219/82 188/220/82 189/221/82
f 190/222/82 188/220/82 186/218/82
f 191/223/82 189/221/82 188/220/82
f 188/220/82 190/222/82 191/223/82
f 192/224/82 191/223/82 190/222/82
f 193/225/91 194/226/92 195/227/93
f 194/226/92 196/228/94 195/227/93
f 196/228/94 197/229/95 195/227/93
f 198/230/96 196/228/94 194/226/92
f 199/231/97 196/228/94 198/230/96
f 200/232/98 198/230/96 194/226/92
f 201/233/99 200/232/98 194/226/92
f 202/234/100 198/230/96 200/232/98
f 203/235/101 204/236/102 205/237/103
f 204/236/102 206/238/104 205/237/103
f 206/238/104 207/239/105 205/237/103
f 208/240/106 206/238/104 204/236/102
f 209/241/107 206/238/104 208/240/106
f 210/242/108 208/240/106 204/236/102
f 211/243/109 210/242/108 204/236/102
f 212/244/110 208/240/106 210/242/108
f 211/245/109 204/246/102 199/247/97
f 196/248/94 199/247/97 204/246/102
f 204/246/102 203/249/101 196/248/94
f 197/250/95 196/248/94 203/249/101
f 199/247/97 198/251/96 211/245/109
f 210/252/108 211/245/109 198/251/96
f 198/251/96 202/253/100 210/252/108
f 212/254/110 210/252/108 202/253/100
f 202/253/100 200/255/98 212/254/110
f 208/256/106 212/254/110 200/255/98
f 200/255/98 201/257/99 208/256/106
f 209/258/107 208/256/106 201/257/99
f 201/257/99 194/259/92 209/258/107
f 206/260/104 209/258/107 194/259/92
f 194/259/92 193/261/91 206/260/104
f 207/262/105 206/260/104 193/261/91
f 193/261/91 195/263/93 207/262/105
f 205/264/103 207/262/105 195/263/93
f 195/263/93 197/250/95 205/264/103
f 203/249/101 205/264/103 197/250/95
f 213/265/111 214/266/112 215/267/113
f 214/266/112 216/268/114 215/267/113
f 216/268/114 217/269/115 215/267/113
f 218/270/116 216/268/114 214/266/112
f 219/271/117 216/268/114 218/270/116
f 220/272/118 218/270/116 214/266/112
f 221/273/119 220/272/118 214/266/112
f 222/274/120 218/270/116 220/272/118
f 223/275/121 224/276/122 225/277/123
f 224/276/122 226/278/124 225/277/123
f 226/278/124 227/279/125 225/277/123
f 228/280/126 226/278/124 224/276/122
f 229/281/127 226/278/124 228/280/126
f 230/282/128 228/280/126 224/276/122
f 231/283/129 230/282/128 224/276/122
f 232/284/130 228/280/126 230/282/128
f 231/285/129 224/286/122 219/287/117
f 216/288/114 219/287/117 224/286/122
f 224/286/122 223/289/121 216/288/114
f 217/290/115 216/288/114 223/289/121
f 219/287/117 218/291/116 231/285/129
f 230/292/128 231/285/129 218/291/116
f 218/291/116 222/293/120 230/292/128
f 232/294/130 230/292/128 222/293/120
f 222/293/120 220/295/118 232/294/130
f 228/296/126 232/294/130 220/295/118
f 220/295/118 221/297/119 228/296/126
f 229/298/127 228/296/126 221/297/119
f 221/297/119 214/299/112 229/298/127
f 226/300/124 229/298/127 214/299/112
f 214/299/112 213/301/111 226/300/124
f 227/302/125 226/300/124 213/301/111
f 213/301/111 215/303/113 227/302/125
f 225/304/123 227/302/125 215/303/113
f 215/303/113 217/290/115 225/304/123
f 223/289/121 225/304/123 217/290/115
f 99/305/81 59/306/59 95/307/81
f 99/305/81 101/308/81 59/306/59
f 58/309/58 95/307/81 59/306/59
f 95/307/81 58/309/58 90/310/81
f 56/311/56 90/310/81 58/309/58
f 90/310/81 56/311/56 86/312/81
f 53/313/53 86/312/81 56/311/56
f 86/312/81 53/313/53 83/314/81
f 50/315/50 83/314/81 53/313/53
f 83/314/81 50/315/50 81/316/81
f 49/317/49 81/316/81 50/315/50
f 81/316/81 49/317/49 82/318/81
f 71/319/71 82/318/81 49/317/49
f 82/318/81 71/319/71 85/320/81
f 70/321/70 85/320/81 71/319/71
f 85/320/81 70/321/70 87/322/81
f 67/323/67 87/322/81 70/321/70
f 87/322/81 67/323/67 89/324/81
f 64/325/64 89/324/81 67/323/67
f 89/324/81 64/325/64 92/326/81
f 63/327/63 92/326/81 64/325/64
f 92/326/81 63/327/63 93/328/81
f 74/329/74 93/328/81 63/327/63
f 93/328/81 74/329/74 96/330/81
f 75/331/75 96/330/81 74/329/74
f 96/330/81 75/331/75 98/332/81
f 78/333/78 98/332/81 75/331/75
f 100/334/81 98/332/81 78/333/78
f 80/335/80 100/334/81 78/333/78
f 233/336/81 100/334/81 80/335/80
f 100/334/81 233/336/81 101/308/81
f 233/336/81 80/335/80 170/337/81
f 170/337/81 80/335/80 150/338/70
f 168/339/81 170/337/81 150/338/70
f 150/338/70 147/340/67 168/339/81
f 166/341/81 168/339/81 147/340/67
f 147/340/67 146/342/64 166/341/81
f 163/343/81 166/341/81 146/342/64
f 146/342/64 135/344/63 163/343/81
f 162/345/81 163/343/81 135/344/63
f 135/344/63 137/346/74 162/345/81
f 159/347/81 162/345/81 137/346/74
f 137/346/74 139/348/75 159/347/81
f 157/349/81 159/347/81 139/348/75
f 139/348/75 142/350/78 157/349/81
f 155/351/81 157/349/81 142/350/78
f 142/350/78 143/352/89 155/351/81
f 153/353/81 155/351/81 143/352/89
f 143/352/89 123/354/83 153/353/81
f 151/355/81 153/353/81 123/354/83
f 123/354/83 125/356/85 151/355/81
f 152/357/81 151/355/81 125/356/85
f 125/356/85 127/358/58 152/357/81
f 156/359/81 152/357/81 127/358/58
f 127/358/58 130/360/56 156/359/81
f 160/361/81 156/359/81 130/360/56
f 130/360/56 132/362/53 160/361/81
f 165/363/81 160/361/81 132/362/53
f 132/362/53 133/364/87 165/363/81
f 169/365/81 165/363/81 133/364/87
f 169/365/81 133/364/87 171/366/81
f 61/367/61 171/366/81 133/364/87
f 61/367/61 233/336/81 171/366/81
f 170/337/81 171/366/81 233/336/81
f 61/367/61 101/308/81 233/336/81
f 61/367/61 59/306/59 101/308/81
f 103/368/82 102/369/82 234/370/82
f 103/368/82 234/370/82 106/371/82
f 106/371/82 234/370/82 77/372/77
f 106/371/82 77/372/77 108/373/82
f 76/374/76 108/373/82 77/372/77
f 108/373/82 76/374/76 110/375/82
f 73/376/73 110/375/82 76/374/76
f 110/375/82 73/376/73 113/377/82
f 65/378/65 113/377/82 73/376/73
f 113/377/82 65/378/65 114/379/82
f 66/380/66 114/379/82 65/378/65
f 114/379/82 66/380/66 117/381/82
f 68/382/68 117/381/82 66/380/66
f 117/381/82 68/382/68 119/383/82
f 69/384/69 119/383/82 68/382/68
f 119/383/82 69/384/69 121/385/82
f 72/386/72 121/385/82 69/384/69
f 121/385/82 72/386/72 122/387/82
f 51/388/51 122/387/82 72/386/72
f 122/387/82 51/388/51 120/389/82
f 52/390/52 120/389/82 51/388/51
f 120/389/82 52/390/52 116/391/82
f 54/392/54 116/391/82 52/390/52
f 116/391/82 54/392/54 111/393/82
f 55/394/55 111/393/82 54/392/54
f 111/393/82 55/394/55 107/395/82
f 57/396/57 107/395/82 55/394/55
f 107/395/82 57/396/57 104/397/82
f 60/398/60 104/397/82 57/396/57
f 104/397/82 60/398/60 102/369/82
f 62/399/62 102/369/82 60/398/60
f 62/399/62 234/370/82 102/369/82
f 62/399/62 172/400/82 234/370/82
f 62/399/62 134/401/88 172/400/82
f 173/402/82 172/400/82 134/401/88
f 134/401/88 131/403/54 173/402/82
f 177/404/82 173/402/82 131/403/54
f 131/403/54 129/405/55 177/404/82
f 181/406/82 177/404/82 129/405/55
f 129/405/55 128/407/57 181/406/82
f 186/408/82 181/406/82 128/407/57
f 128/407/57 126/409/86 186/408/82
f 190/410/82 186/408/82 126/409/86
f 126/409/86 124/411/84 190/410/82
f 192/412/82 190/410/82 124/411/84
f 124/411/84 144/413/90 192/412/82
f 191/414/82 192/412/82 144/413/90
f 144/413/90 141/415/77 191/414/82
f 189/416/82 191/414/82 141/415/77
f 141/415/77 140/417/76 189/416/82
f 187/418/82 189/416/82 140/417/76
f 140/417/76 138/419/73 187/418/82
f 184/420/82 187/418/82 138/419/73
f 138/419/73 136/421/65 184/420/82
f 183/422/82 184/420/82 136/421/65
f 136/421/65 145/423/66 183/422/82
f 180/424/82 183/422/82 145/423/66
f 145/423/66 148/425/68 180/424/82
f 178/426/82 180/424/82 148/425/68
f 148/425/68 149/427/69 178/426/82
f 176/428/82 178/426/82 149/427/69
f 176/428/82 149/427/69 234/370/82
f 174/429/82 176/428/82 234/370/82
f 174/429/82 234/370/82 172/400/82
f 234/370/82 149/427/69 79/430/79
f 77/372/77 234/370/82 79/430/79
