# Blender v2.83.1 OBJ File: ''
# www.blender.org
mtllib Accesorios 22.mtl
o m_SharkHat01
v -0.597634 -0.250885 -0.579033
v -0.761612 -0.492281 -0.286944
v -0.826433 -0.243673 0.014246
v -0.779654 -0.456772 0.340581
v 0.234037 1.415654 -2.008260
v 0.322763 1.390011 -2.027895
v 0.346070 1.442317 -1.985492
v 0.273396 1.448890 -1.938160
v 0.462965 1.434108 -1.944045
v 0.230119 1.411574 -1.894858
v 0.514037 1.389223 -1.901010
v 0.556187 1.355758 -1.957190
v 0.383398 1.442857 -1.915753
v 0.391073 1.408405 -1.876796
v 0.215093 1.348442 -1.855905
v 0.094407 1.268894 -1.870749
v 0.515639 1.317475 -1.856968
v 0.563583 1.279380 -1.917484
v 0.386345 1.344141 -1.834215
v 0.201937 1.285708 -1.818688
v 0.071430 1.198787 -1.827019
v 0.508569 1.236151 -1.807896
v 0.557476 1.188615 -1.868078
v 0.376648 1.274108 -1.790756
v 0.172691 1.213653 -1.775719
v 0.044447 1.114438 -1.767163
v 0.459132 1.145296 -1.752644
v 0.500783 1.091197 -1.805937
v 0.335669 1.193841 -1.742935
v 0.117650 1.126772 -1.719801
v 0.000001 1.054828 -1.662295
v 0.233962 1.104805 -1.683938
v 0.329590 1.053650 -1.691602
v 0.354662 1.001803 -1.735504
v 0.110583 1.024267 -1.610971
v 0.194283 0.975033 -1.627995
v 0.139275 0.864179 -1.620157
v 0.137657 0.910668 -1.574140
v -0.117647 1.126772 -1.719802
v -0.172688 1.213652 -1.775722
v -0.094406 1.268893 -1.870751
v -0.201935 1.285707 -1.818691
v -0.215091 1.348441 -1.855908
v -0.133691 1.392600 -1.940281
v -0.230116 1.411573 -1.894861
v -0.189989 1.429731 -1.964891
v -0.273395 1.448888 -1.938164
v -0.234038 1.415653 -2.008263
v -0.346071 1.442315 -1.985496
v -0.322766 1.390009 -2.027900
v -0.462964 1.434105 -1.944051
v -0.383396 1.442855 -1.915759
v -0.514035 1.389220 -1.901018
v -0.391069 1.408402 -1.876801
v -0.515637 1.317472 -1.856975
v -0.386342 1.344138 -1.834221
v -0.508566 1.236148 -1.807902
v -0.376644 1.274106 -1.790761
v -0.459129 1.145293 -1.752651
v -0.354661 1.001801 -1.735508
v -0.335665 1.193839 -1.742940
v -0.329588 1.053648 -1.691606
v -0.205504 0.928164 -1.668180
v -0.233958 1.104804 -1.683942
v -0.194282 0.975032 -1.627997
v -0.110581 1.024267 -1.610973
v -0.137656 0.910667 -1.574140
v -0.139274 0.864178 -1.620157
v 0.000001 1.021601 -1.613160
v -0.090974 0.962669 -1.543191
v -0.143548 0.852519 -1.519984
v 0.090975 0.962669 -1.543191
v 0.000001 0.981965 -1.529262
v -0.102825 0.925624 -1.479564
v 0.143548 0.852519 -1.519983
v 0.102826 0.925625 -1.479564
v 0.000000 0.954475 -1.460030
v -0.139843 0.674204 -1.501431
v -0.187302 0.798415 -1.443012
v -0.137218 0.913055 -1.397610
v 0.000000 0.956527 -1.372779
v 0.137219 0.913055 -1.397610
v 0.187302 0.798415 -1.443013
v -0.000000 0.627175 -1.520351
v -0.000000 0.499138 -1.385865
v -0.201025 0.569962 -1.364940
v -0.271389 0.760676 -1.302902
v -0.279489 0.479297 -1.139302
v -0.000000 0.269837 -0.939681
v -0.196924 0.947728 -1.245451
v -0.000000 1.014658 -1.221323
v -0.386911 0.748099 -1.064498
v -0.363492 0.384480 -0.903102
v -0.287214 1.024677 -0.990029
v 0.196924 0.947728 -1.245451
v -0.456510 0.252054 -0.750679
v -0.520300 0.719067 -0.778568
v -0.393960 1.079823 -0.640847
v -0.000000 1.126192 -0.959123
v -0.540173 0.102317 -0.671146
v -0.663015 0.625619 -0.511998
v -0.594053 -0.037367 -0.628067
v -0.784971 0.458058 -0.288174
v -0.638921 -0.151486 -0.628739
v 0.000000 -0.244484 -0.864612
v -0.505980 1.035367 -0.241592
v -0.856707 0.227062 -0.121492
v -0.914379 -0.010621 -0.022042
v -0.600144 0.850282 0.141612
v -0.945818 -0.209633 0.014607
v -0.651974 0.520559 0.436436
v -0.687316 0.154919 0.630157
v -0.251351 0.935454 0.239044
v -0.171240 0.797408 0.411970
v -0.000000 0.852658 0.444112
v -0.000000 0.629909 0.652462
v 0.651974 0.520559 0.436436
v 0.282770 0.927782 0.230268
v 0.000000 1.214112 -0.584179
v 0.000000 0.215211 0.886858
v 0.393960 1.079823 -0.640847
v 0.163836 1.146302 -0.389617
v 0.287214 1.024677 -0.990029
v 0.271389 0.760676 -1.302902
v 0.687316 0.154919 0.630157
v 0.505980 1.035367 -0.241592
v 0.386911 0.748098 -1.064498
v 0.139843 0.674204 -1.501431
v 0.201025 0.569962 -1.364940
v 0.279489 0.479297 -1.139302
v -0.000000 0.382840 -1.162837
v 0.520300 0.719067 -0.778568
v 0.363492 0.384480 -0.903102
v 0.663015 0.625619 -0.511998
v 0.456510 0.252054 -0.750679
v -0.000000 0.123077 -0.824816
v 0.600144 0.850282 0.141612
v 0.784971 0.458058 -0.288174
v 0.540174 0.102317 -0.671146
v 0.000000 -0.023177 -0.798393
v 0.856707 0.227062 -0.121493
v 0.594053 -0.037367 -0.628067
v -0.000000 -0.132510 -0.803981
v 0.914379 -0.010621 -0.022042
v 0.638921 -0.151486 -0.628739
v -0.000000 -0.200834 -0.845609
v 0.945818 -0.209633 0.014607
v 0.761612 -0.492281 -0.286944
v 0.000000 -0.204992 0.866316
v -0.000000 -0.316268 0.014579
v 0.634146 -0.200106 0.642733
v 0.000001 1.053380 -1.712073
v 0.000000 1.020390 -1.765274
v 0.055725 1.067528 -1.810939
v 0.100133 1.148621 -1.879236
v 0.130709 1.224068 -1.929427
v 0.110531 1.330735 -1.905339
v 0.148882 1.293936 -1.964972
v 0.133691 1.392600 -1.940280
v 0.168839 1.362684 -1.997731
v 0.189989 1.429733 -1.964888
v 0.309901 1.340150 -2.021087
v 0.297092 1.266814 -1.989172
v 0.279623 1.185393 -1.949172
v 0.232938 1.098766 -1.892430
v 0.135637 1.010528 -1.820989
v 0.472918 1.339607 -2.005022
v 0.431890 1.400557 -2.014682
v 0.471901 1.261513 -1.968166
v 0.510608 1.403184 -1.978459
v 0.461017 1.171671 -1.922391
v 0.404558 1.076656 -1.860610
v 0.266870 0.987804 -1.788466
v 0.205505 0.928165 -1.668178
v 0.142645 0.913767 -1.715512
v -0.000000 0.916528 -1.745539
v 0.107749 0.863682 -1.663549
v -0.135638 1.010527 -1.820991
v 0.108676 0.778536 -1.588081
v 0.056893 0.834390 -1.660561
v 0.000000 0.805075 -1.642454
v 0.000000 0.737479 -1.593663
v -0.108676 0.778535 -1.588081
v -0.056892 0.834390 -1.660561
v -0.107748 0.863682 -1.663549
v -0.142645 0.913767 -1.715513
v -0.266871 0.987803 -1.788470
v -0.500783 1.091194 -1.805943
v -0.404561 1.076654 -1.860616
v -0.557477 1.188612 -1.868086
v -0.461020 1.171668 -1.922399
v -0.563584 1.279377 -1.917491
v -0.232942 1.098764 -1.892434
v -0.471904 1.261510 -1.968172
v -0.556188 1.355755 -1.957198
v -0.055726 1.067527 -1.810940
v -0.044446 1.114438 -1.767163
v -0.100135 1.148620 -1.879238
v -0.071430 1.198787 -1.827021
v -0.279627 1.185391 -1.949176
v -0.130711 1.224067 -1.929429
v -0.472921 1.339604 -2.005029
v -0.510609 1.403181 -1.978466
v -0.431892 1.400555 -2.014688
v -0.297096 1.266812 -1.989177
v -0.148884 1.293935 -1.964974
v -0.110530 1.330734 -1.905341
v -0.309905 1.340148 -2.021092
v -0.168841 1.362683 -1.997733
v 0.045388 1.556819 0.313138
v 0.002173 1.567372 0.328137
v 0.035773 1.586463 0.235082
v -0.023998 1.536894 0.347641
v 0.002173 1.596607 0.243952
v 0.027212 1.590216 0.195429
v 0.002173 1.598967 0.193176
v -0.036241 1.557992 0.314804
v -0.031427 1.586463 0.235082
v -0.022866 1.590216 0.195429
v -0.125640 1.354106 0.027143
v -0.163836 1.146302 -0.389617
v -0.219853 1.121749 -0.180795
v -0.143796 1.246723 0.276924
v -0.097619 1.167151 0.379806
v 0.002173 1.545338 0.353745
v 0.001086 1.198998 0.398928
v 0.028343 1.536894 0.347641
v 0.099792 1.167151 0.379806
v 0.171240 0.797408 0.411970
v 0.164079 1.242301 0.271703
v 0.127813 1.354106 0.027143
v 0.219853 1.121749 -0.180795
v 0.095524 1.368259 -0.097094
v 0.001086 1.401265 -0.104153
v 0.000000 1.203563 -0.401482
v -0.093351 1.368259 -0.097094
v -0.698067 -0.145811 0.704195
v -0.325894 -0.427790 0.806830
v -0.634146 -0.200106 0.642733
v 0.000000 -0.135772 0.992566
v 0.325894 -0.427790 0.806830
v 0.698067 -0.145811 0.704195
v -0.652427 -0.237570 -0.632322
v 0.652427 -0.237570 -0.632322
v 0.597634 -0.250885 -0.579033
v -0.000000 -0.253892 -0.763499
v 0.308127 -0.504171 -0.713265
v -0.308127 -0.504171 -0.713265
v 0.826433 -0.243673 0.014246
v 0.779654 -0.456772 0.340581
vt 0.845703 0.702148
vt 0.913086 0.737793
vt 0.902832 0.816406
vt 0.729980 0.647949
vt 0.808105 0.635742
vt 0.845215 0.927734
vt 0.812012 0.995605
vt 0.735352 0.978516
vt 0.913086 0.896484
vt 0.629395 0.924316
vt 0.558594 0.895996
vt 0.572266 0.819824
vt 0.659180 0.994141
vt 0.620117 0.708496
vt 0.649902 0.640137
vt 0.553223 0.743652
vt 0.573730 0.010567
vt 0.592285 0.021545
vt 0.599121 0.039124
vt 0.581055 0.027420
vt 0.596680 0.051880
vt 0.556641 0.008492
vt 0.583496 0.042175
vt 0.598145 0.066162
vt 0.561523 0.019638
vt 0.581543 0.054382
vt 0.591797 0.079285
vt 0.548828 0.020340
vt 0.542480 0.007519
vt 0.568359 0.031464
vt 0.561523 0.036224
vt 0.574219 0.065857
vt 0.584473 0.091187
vt 0.536621 0.027740
vt 0.527344 0.014793
vt 0.551758 0.045166
vt 0.565918 0.077148
vt 0.576172 0.105469
vt 0.523926 0.038330
vt 0.511719 0.026932
vt 0.541504 0.055573
vt 0.558105 0.092590
vt 0.567383 0.123901
vt 0.513184 0.056335
vt 0.498779 0.048187
vt 0.532227 0.072083
vt 0.549805 0.116577
vt 0.568359 0.144897
vt 0.558105 0.156006
vt 0.589355 0.144409
vt 0.525879 0.101929
vt 0.507324 0.088501
vt 0.493408 0.083862
vt 0.521484 0.144653
vt 0.500977 0.126343
vt 0.488281 0.120300
vt 0.473877 0.135742
vt 0.484131 0.149414
vt 0.454834 0.132690
vt 0.598145 0.161133
vt 0.606934 0.133789
vt 0.621094 0.151123
vt 0.620605 0.124634
vt 0.636230 0.141724
vt 0.631836 0.116455
vt 0.646484 0.132812
vt 0.644531 0.109131
vt 0.657715 0.124695
vt 0.658691 0.109192
vt 0.669434 0.121887
vt 0.671387 0.105713
vt 0.684570 0.123108
vt 0.689453 0.111023
vt 0.701660 0.128662
vt 0.693848 0.141602
vt 0.705078 0.145752
vt 0.707520 0.159790
vt 0.681152 0.135864
vt 0.693848 0.154663
vt 0.701172 0.175415
vt 0.677246 0.143311
vt 0.687500 0.167358
vt 0.690430 0.192139
vt 0.668945 0.153687
vt 0.678223 0.181030
vt 0.669922 0.206543
vt 0.659668 0.164795
vt 0.661133 0.192993
vt 0.634766 0.214722
vt 0.643555 0.175293
vt 0.629395 0.201050
vt 0.599121 0.222778
vt 0.614258 0.183594
vt 0.592285 0.210693
vt 0.572266 0.191528
vt 0.570312 0.229004
vt 0.584961 0.238159
vt 0.545410 0.169434
vt 0.550781 0.213379
vt 0.562500 0.251953
vt 0.589355 0.257080
vt 0.501465 0.167603
vt 0.524414 0.192627
vt 0.537109 0.235840
vt 0.462158 0.158813
vt 0.479980 0.183228
vt 0.505859 0.212402
vt 0.590332 0.288086
vt 0.554688 0.279541
vt 0.521484 0.260742
vt 0.486816 0.233032
vt 0.456299 0.200684
vt 0.435059 0.169067
vt 0.623047 0.284668
vt 0.614746 0.256836
vt 0.632324 0.323730
vt 0.586426 0.327881
vt 0.640137 0.377197
vt 0.539551 0.318604
vt 0.575684 0.382324
vt 0.648926 0.430176
vt 0.494629 0.298340
vt 0.455566 0.266602
vt 0.512695 0.370361
vt 0.564453 0.442871
vt 0.662109 0.467041
vt 0.458008 0.346680
vt 0.421143 0.230225
vt 0.559082 0.493896
vt 0.677246 0.494385
vt 0.483398 0.425781
vt 0.420410 0.396729
vt 0.414062 0.311768
vt 0.560059 0.536133
vt 0.689941 0.514160
vt 0.459717 0.478027
vt 0.564941 0.569824
vt 0.700684 0.526855
vt 0.443604 0.528320
vt 0.572266 0.595215
vt 0.707520 0.534668
vt 0.385254 0.446533
vt 0.435303 0.580078
vt 0.580078 0.612305
vt 0.674805 0.621582
vt 0.433105 0.631836
vt 0.354492 0.497314
vt 0.437744 0.674805
vt 0.534180 0.697266
vt 0.326172 0.554199
vt 0.298828 0.617188
vt 0.279785 0.676270
vt 0.365234 0.735840
vt 0.314697 0.468262
vt 0.287354 0.485107
vt 0.353027 0.421143
vt 0.269775 0.467529
vt 0.368896 0.395752
vt 0.240601 0.499268
vt 0.250977 0.451416
vt 0.179199 0.418213
vt 0.262695 0.419434
vt 0.370850 0.358398
vt 0.353271 0.377197
vt 0.189087 0.554688
vt 0.328613 0.312012
vt 0.333740 0.363281
vt 0.375732 0.270508
vt 0.142578 0.604980
vt 0.183594 0.693359
vt 0.397461 0.187012
vt 0.118225 0.450195
vt 0.281738 0.350830
vt 0.309570 0.380859
vt 0.347656 0.217773
vt 0.423828 0.134277
vt 0.453125 0.107300
vt 0.424805 0.101379
vt 0.384521 0.141235
vt 0.385010 0.095032
vt 0.330811 0.156006
vt 0.331055 0.091187
vt 0.294678 0.251465
vt 0.271729 0.171875
vt 0.277588 0.086487
vt 0.244507 0.279053
vt 0.221191 0.181030
vt 0.239868 0.076294
vt 0.233521 0.385498
vt 0.195557 0.299072
vt 0.178955 0.183594
vt 0.211426 0.063538
vt 0.144775 0.311523
vt 0.144775 0.181152
vt 0.190796 0.052338
vt 0.093567 0.317627
vt 0.119019 0.176147
vt 0.177124 0.042511
vt 0.061157 0.473877
vt 0.051422 0.571289
vt 0.049988 0.316162
vt -0.005142 0.393311
vt 0.101379 0.169678
vt 0.020035 0.222046
vt 0.168701 0.036621
vt 0.084717 0.075745
vt 0.732422 0.818359
vt 0.801270 0.133911
vt 0.807617 0.123779
vt 0.820801 0.135620
vt 0.813477 0.145874
vt 0.839355 0.144531
vt 0.832520 0.157593
vt 0.854492 0.150879
vt 0.848633 0.165161
vt 0.867188 0.155884
vt 0.862793 0.169922
vt 0.879883 0.162476
vt 0.875488 0.174805
vt 0.889160 0.173096
vt 0.886230 0.185181
vt 0.873047 0.200073
vt 0.881836 0.202759
vt 0.858398 0.196899
vt 0.841797 0.192749
vt 0.823730 0.182861
vt 0.803223 0.162720
vt 0.869629 0.229736
vt 0.882324 0.223877
vt 0.854004 0.228638
vt 0.868164 0.247925
vt 0.879395 0.240479
vt 0.851562 0.248657
vt 0.831543 0.246094
vt 0.835449 0.225586
vt 0.809570 0.234497
vt 0.815430 0.214233
vt 0.787598 0.206665
vt 0.794434 0.188110
vt 0.768066 0.178223
vt 0.774414 0.163574
vt 0.779785 0.133911
vt 0.759277 0.156738
vt 0.803223 0.104980
vt 0.752930 0.164917
vt 0.736328 0.155884
vt 0.754883 0.145630
vt 0.748047 0.133911
vt 0.731445 0.133911
vt 0.736328 0.111816
vt 0.754883 0.122131
vt 0.759277 0.111023
vt 0.752930 0.102905
vt 0.768066 0.089600
vt 0.774414 0.104248
vt 0.787598 0.061035
vt 0.794434 0.079651
vt 0.809570 0.033295
vt 0.815430 0.053497
vt 0.831543 0.021698
vt 0.835449 0.042206
vt 0.851562 0.019180
vt 0.823730 0.084900
vt 0.854004 0.039062
vt 0.868164 0.019806
vt 0.813477 0.121948
vt 0.807617 0.143921
vt 0.820801 0.132080
vt 0.832520 0.110168
vt 0.839355 0.123291
vt 0.841797 0.075012
vt 0.848633 0.102539
vt 0.854492 0.116821
vt 0.869629 0.038055
vt 0.879395 0.027283
vt 0.882324 0.043945
vt 0.858398 0.070862
vt 0.862793 0.097900
vt 0.867188 0.111877
vt 0.873047 0.067749
vt 0.881836 0.065063
vt 0.875488 0.092896
vt 0.879883 0.105347
vt 0.886230 0.082581
vt 0.889160 0.094604
vt 0.822754 0.357422
vt 0.822754 0.351807
vt 0.831055 0.349121
vt 0.828613 0.357422
vt 0.846680 0.352783
vt 0.822754 0.363281
vt 0.844238 0.359131
vt 0.854004 0.355713
vt 0.853516 0.361084
vt 0.830078 0.364502
vt 0.844238 0.365479
vt 0.851562 0.365967
vt 0.889160 0.425781
vt 0.864746 0.421875
vt 0.925293 0.488525
vt 0.883789 0.481445
vt 0.811523 0.422607
vt 0.793945 0.483398
vt 0.785645 0.424316
vt 0.819824 0.358643
vt 0.749023 0.486328
vt 0.775391 0.407227
vt 0.814941 0.356201
vt 0.730469 0.456543
vt 0.757324 0.398438
vt 0.813477 0.348145
vt 0.699707 0.440918
vt 0.753906 0.370850
vt 0.812012 0.332275
vt 0.693848 0.393799
vt 0.751953 0.319580
vt 0.809570 0.324951
vt 0.691406 0.306885
vt 0.745117 0.295898
vt 0.812988 0.321289
vt 0.680664 0.267090
vt 0.757812 0.281982
vt 0.815430 0.316895
vt 0.702637 0.242676
vt 0.766602 0.265137
vt 0.718262 0.213623
vt 0.068481 0.819824
vt 0.109741 0.887207
vt 0.048767 0.820312
vt 0.109741 0.750977
vt 0.197876 0.820801
vt 0.255371 0.750977
vt 0.225220 0.820801
vt 0.255371 0.890137
vt 0.123352 0.818359
vt 0.184326 0.750977
vt 0.143066 0.818848
vt 0.184326 0.887207
vt 0.457520 0.823730
vt 0.484375 0.897461
vt 0.442871 0.824219
vt 0.484375 0.750977
vt 0.269043 0.823730
vt 0.314941 0.750977
vt 0.292725 0.822754
vt 0.314941 0.894043
vt 0.402588 0.824707
vt 0.429199 0.897461
vt 0.387695 0.824219
vt 0.429199 0.750977
vt 0.498047 0.825684
vt 0.531250 0.750977
vt 0.517090 0.825684
vt 0.531250 0.900391
vt 0.328369 0.821289
vt 0.374268 0.750977
vt 0.352051 0.822266
vt 0.374268 0.894043
vn -0.0031 -0.9893 0.1457
vn -0.0440 -0.9988 0.0190
vn -0.1109 -0.9795 0.1679
vn 0.1235 -0.9759 0.1799
vn 0.0440 -0.9988 0.0190
vn 0.0336 -0.9972 0.0662
vn -0.0074 -0.9996 -0.0253
vn 0.0331 -0.9957 0.0865
vn 0.0059 -0.9954 0.0959
vn 0.0061 -0.9872 0.1592
vn 0.0408 -0.9991 0.0032
vn -0.0563 -0.9922 0.1108
vn -0.0408 -0.9991 0.0032
vn -0.0361 -0.9977 0.0576
vn -0.0059 -0.9954 0.0959
vn 0.0074 -0.9996 -0.0253
vn 0.2295 0.4212 -0.8775
vn -0.0188 0.2482 -0.9685
vn -0.2290 0.5303 -0.8163
vn 0.0497 0.8889 -0.4553
vn -0.4635 0.8683 -0.1765
vn 0.5984 0.5879 -0.5442
vn -0.1323 0.9764 0.1708
vn -0.8159 0.5781 -0.0018
vn 0.3230 0.9449 0.0527
vn -0.2609 0.7095 0.6546
vn -0.9206 0.3661 0.1356
vn 0.5789 0.6325 0.5146
vn 0.9163 0.2072 -0.3426
vn 0.0976 0.9316 0.3500
vn 0.1028 0.6599 0.7443
vn -0.2673 0.5428 0.7961
vn -0.9187 0.3671 0.1454
vn 0.5858 0.4093 0.6995
vn 0.9750 -0.0959 -0.2005
vn 0.0802 0.5302 0.8441
vn -0.2617 0.5504 0.7928
vn -0.8999 0.4143 0.1359
vn 0.5870 0.2777 0.7605
vn 0.9437 -0.3222 -0.0744
vn 0.0872 0.4953 0.8643
vn -0.2657 0.5953 0.7583
vn -0.8181 0.5661 0.1010
vn 0.5092 0.0758 0.8573
vn 0.7736 -0.6212 0.1252
vn 0.0784 0.4731 0.8775
vn -0.2741 0.7128 0.6456
vn 0.1229 0.9805 -0.1533
vn 0.0233 0.8781 0.4778
vn 0.8409 0.5411 0.0025
vn 0.0824 0.5254 0.8468
vn 0.4442 -0.0349 0.8952
vn 0.5723 -0.7827 0.2446
vn 0.1574 0.6240 0.7653
vn 0.5416 -0.0477 0.8393
vn 0.6314 -0.7500 0.1970
vn 0.8585 -0.5118 -0.0315
vn 0.8950 0.0913 0.4365
vn 0.6358 -0.4484 -0.6282
vn 0.2549 0.7144 0.6517
vn 0.9106 0.3980 0.1110
vn 0.2614 0.6052 0.7519
vn 0.9221 0.3614 0.1382
vn 0.2622 0.5510 0.7922
vn 0.9219 0.3620 0.1380
vn 0.2713 0.5444 0.7937
vn 0.8109 0.5851 -0.0056
vn 0.2574 0.7056 0.6602
vn 0.4793 0.8469 -0.2301
vn 0.1302 0.9784 0.1604
vn 0.2419 0.5645 -0.7891
vn -0.0474 0.8898 -0.4538
vn -0.0032 0.2240 -0.9745
vn -0.2198 0.4262 -0.8775
vn -0.3407 0.9399 0.0204
vn -0.6151 0.6334 -0.4694
vn -0.9154 0.2147 -0.3405
vn -0.0762 0.9260 0.3697
vn -0.5843 0.6422 0.4962
vn -0.9746 -0.0992 -0.2007
vn -0.0923 0.6560 0.7490
vn -0.5842 0.4072 0.7020
vn -0.9438 -0.3224 -0.0730
vn -0.0844 0.5303 0.8436
vn -0.5893 0.2770 0.7589
vn -0.7748 -0.6196 0.1257
vn -0.0887 0.4952 0.8642
vn -0.5070 0.0698 0.8591
vn -0.5741 -0.7774 0.2570
vn -0.0841 0.4631 0.8823
vn -0.4374 -0.0347 0.8986
vn -0.6449 -0.7388 0.1957
vn -0.0951 0.4935 0.8645
vn -0.5967 0.0062 0.8024
vn -0.1739 0.6760 0.7160
vn -0.9045 0.0823 0.4183
vn -0.8531 -0.5019 -0.1427
vn 0.0360 0.8497 0.5260
vn -0.4935 0.6702 0.5543
vn -0.9772 0.1639 -0.1351
vn -0.6362 -0.4677 -0.6136
vn 0.5161 0.6954 0.5000
vn 0.0498 0.8961 0.4409
vn -0.6330 0.7647 0.1204
vn 0.9500 0.2094 -0.2315
vn 0.6222 0.7807 0.0572
vn 0.0019 0.9847 0.1741
vn -0.6273 -0.4145 -0.6592
vn -0.8820 0.1794 -0.4357
vn -0.6036 0.7463 -0.2806
vn -0.0116 0.9779 -0.2087
vn 0.5952 0.7552 -0.2745
vn 0.8853 0.1793 -0.4289
vn 0.0019 -0.6537 -0.7567
vn 0.0083 -0.5721 -0.8201
vn -0.0030 -0.8173 -0.5762
vn -0.6476 -0.5317 -0.5458
vn -0.0044 -0.8876 -0.4606
vn -0.8851 0.1229 -0.4488
vn -0.6601 -0.5857 -0.4703
vn 0.0040 -0.7631 -0.6463
vn -0.5780 0.7105 -0.4013
vn -0.0061 0.9285 -0.3713
vn -0.9008 0.0959 -0.4234
vn -0.6248 -0.4830 -0.6135
vn 0.0199 -0.3946 -0.9186
vn -0.5995 0.7155 -0.3586
vn 0.5728 0.7152 -0.4005
vn -0.5760 -0.2447 -0.7799
vn 0.0255 -0.0669 -0.9974
vn -0.8944 0.1404 -0.4247
vn -0.6180 0.7628 -0.1900
vn 0.0021 0.9533 -0.3019
vn -0.5835 -0.0726 -0.8089
vn 0.0335 0.3096 -0.9503
vn -0.9045 0.2125 -0.3697
vn -0.5991 0.1182 -0.7918
vn 0.0233 0.4370 -0.8992
vn -0.9487 0.2115 -0.2348
vn -0.6439 0.1687 -0.7462
vn 0.0106 -0.2325 -0.9725
vn -0.6422 0.7642 0.0591
vn -0.9728 0.1903 -0.1315
vn -0.6411 -0.3388 -0.6886
vn -0.9838 0.1652 -0.0699
vn -0.6774 0.6470 0.3500
vn -0.9507 -0.3095 -0.0161
vn -0.6942 0.4678 0.5470
vn -0.6997 0.2948 0.6508
vn -0.6890 -0.1983 0.6970
vn -0.6568 0.5651 0.4992
vn -0.4117 0.5219 0.7470
vn -0.6728 0.7374 0.0595
vn 0.0002 0.3885 0.9214
vn -0.4124 0.9053 -0.1013
vn 0.0005 0.5887 0.8083
vn 0.4080 0.5109 0.7566
vn 0.7038 0.4625 0.5391
vn 0.6220 0.5873 0.5179
vn 0.0019 0.9972 -0.0743
vn 0.0002 0.9639 -0.2663
vn -0.0026 0.3869 0.9221
vn 0.6313 0.7523 -0.1881
vn 0.4092 0.9064 -0.1047
vn 0.6045 0.7169 -0.3472
vn -0.0029 -0.1736 0.9848
vn 0.8846 0.1253 -0.4492
vn 0.7094 0.2962 0.6395
vn 0.6599 0.7497 0.0492
vn 0.6734 0.7379 0.0442
vn 0.9048 0.1011 -0.4137
vn 0.6120 -0.4224 -0.6685
vn 0.6420 -0.5363 -0.5479
vn 0.6587 -0.5880 -0.4694
vn 0.9032 0.1409 -0.4054
vn 0.6364 -0.4899 -0.5958
vn 0.9077 0.2110 -0.3626
vn 0.5969 -0.2432 -0.7646
vn 0.6909 0.6377 0.3404
vn 0.9473 0.2145 -0.2380
vn 0.6022 -0.0600 -0.7961
vn 0.9729 0.1888 -0.1337
vn 0.6207 0.1228 -0.7744
vn 0.9822 0.1753 -0.0669
vn 0.6487 0.1906 -0.7367
vn 0.6956 -0.1983 0.6905
vn 0.9534 -0.3014 -0.0107
vn 0.6434 -0.3322 -0.6896
vn 0.0030 -0.9996 0.0278
vn -0.0981 0.1442 -0.9846
vn -0.6610 -0.0950 -0.7443
vn -0.6189 -0.2451 -0.7462
vn -0.5833 -0.2575 -0.7703
vn -0.5854 -0.2201 -0.7803
vn -0.5379 0.0490 -0.8416
vn -0.0620 -0.2519 -0.9658
vn -0.0581 -0.4117 -0.9095
vn -0.0582 -0.4798 -0.8754
vn -0.0761 -0.5574 -0.8267
vn -0.1205 -0.5719 -0.8114
vn 0.3395 -0.1725 -0.9246
vn 0.3086 -0.4343 -0.8462
vn 0.3067 -0.5519 -0.7754
vn 0.2546 -0.7328 -0.6310
vn 0.2045 -0.8200 -0.5345
vn 0.2617 -0.7989 -0.5415
vn 0.0015 -0.5940 -0.8044
vn 0.4035 -0.6872 -0.6041
vn 0.1474 -0.5223 -0.8399
vn 0.2195 -0.6561 -0.7220
vn 0.0000 -0.6657 -0.7462
vn -0.2195 -0.6561 -0.7220
vn -0.4035 -0.6872 -0.6041
vn -0.2611 -0.8177 -0.5129
vn -0.2108 -0.8119 -0.5444
vn -0.2566 -0.7291 -0.6345
vn -0.3084 -0.5539 -0.7733
vn 0.0917 -0.5522 -0.8286
vn -0.3124 -0.4328 -0.8456
vn 0.6732 -0.1079 -0.7315
vn 0.6261 -0.2712 -0.7310
vn 0.0621 -0.4808 -0.8746
vn 0.5865 -0.2615 -0.7666
vn -0.3289 -0.1917 -0.9247
vn 0.0616 -0.4111 -0.9095
vn 0.5854 -0.2252 -0.7788
vn 0.0499 -0.2589 -0.9646
vn 0.5386 0.0665 -0.8399
vn 0.0035 0.5069 0.8620
vn 0.5304 0.3771 0.7592
vn 0.7130 0.6001 0.3625
vn 0.0027 0.8589 0.5121
vn 0.6700 0.7387 0.0732
vn -0.5510 0.3800 0.7430
vn 0.0040 0.9796 0.2006
vn 0.5762 0.7858 -0.2250
vn 0.0031 0.9633 -0.2685
vn -0.7083 0.6070 0.3602
vn -0.6830 0.7256 0.0837
vn -0.5812 0.7804 -0.2304
vn -0.6266 0.6862 -0.3693
vn -0.9098 0.4121 -0.0496
vn -0.9106 0.2746 0.3089
vn -0.5624 0.1837 0.8062
vn 0.0007 0.1306 0.9914
vn 0.5305 0.1755 0.8293
vn 0.8972 0.2939 0.3295
vn 0.9038 0.4216 -0.0729
vn 0.6276 0.6841 -0.3716
vn -0.0003 0.8329 -0.5535
usemtl mat_SharkHat01
s 1
f 149/1/1 238/2/2 239/3/3
f 151/4/4 241/5/5 149/1/1
f 3/6/6 2/7/7 1/8/8
f 239/3/3 4/9/9 3/6/6
f 246/10/10 247/11/11 245/12/12
f 1/8/8 248/13/13 246/10/10
f 249/14/14 250/15/15 151/4/4
f 245/12/12 148/16/16 249/14/14
f 168/17/17 6/18/18 5/19/19
f 7/20/20 168/17/17 5/19/19
f 7/20/20 5/19/19 161/21/21
f 170/22/22 168/17/17 7/20/20
f 8/23/23 7/20/20 161/21/21
f 161/21/21 159/24/24 8/23/23
f 9/25/25 170/22/22 7/20/20
f 9/25/25 7/20/20 8/23/23
f 159/24/24 10/26/26 8/23/23
f 159/24/24 157/27/27 10/26/26
f 9/25/25 11/28/28 170/22/22
f 11/28/28 12/29/29 170/22/22
f 13/30/30 9/25/25 8/23/23
f 8/23/23 10/26/26 13/30/30
f 13/30/30 14/31/31 9/25/25
f 10/26/26 14/31/31 13/30/30
f 14/31/31 11/28/28 9/25/25
f 157/27/27 15/32/32 10/26/26
f 10/26/26 15/32/32 14/31/31
f 157/27/27 16/33/33 15/32/32
f 11/28/28 17/34/34 12/29/29
f 17/34/34 18/35/35 12/29/29
f 14/31/31 19/36/36 11/28/28
f 15/32/32 19/36/36 14/31/31
f 19/36/36 17/34/34 11/28/28
f 16/33/33 20/37/37 15/32/32
f 15/32/32 20/37/37 19/36/36
f 16/33/33 21/38/38 20/37/37
f 17/34/34 22/39/39 18/35/35
f 22/39/39 23/40/40 18/35/35
f 19/36/36 24/41/41 17/34/34
f 20/37/37 24/41/41 19/36/36
f 24/41/41 22/39/39 17/34/34
f 21/38/38 25/42/42 20/37/37
f 20/37/37 25/42/42 24/41/41
f 21/38/38 26/43/43 25/42/42
f 22/39/39 27/44/44 23/40/40
f 27/44/44 28/45/45 23/40/40
f 24/41/41 29/46/46 22/39/39
f 25/42/42 29/46/46 24/41/41
f 29/46/46 27/44/44 22/39/39
f 26/43/43 30/47/47 25/42/42
f 25/42/42 30/47/47 29/46/46
f 26/43/43 152/48/48 30/47/47
f 152/48/48 31/49/49 30/47/47
f 31/49/49 152/48/48 197/50/50
f 30/47/47 32/51/51 29/46/46
f 29/46/46 32/51/51 27/44/44
f 30/47/47 31/49/49 32/51/51
f 27/44/44 33/52/52 28/45/45
f 32/51/51 33/52/52 27/44/44
f 33/52/52 34/53/53 28/45/45
f 32/51/51 35/54/54 33/52/52
f 31/49/49 35/54/54 32/51/51
f 33/52/52 36/55/55 34/53/53
f 35/54/54 36/55/55 33/52/52
f 36/55/55 174/56/56 34/53/53
f 37/57/57 174/56/56 36/55/55
f 38/58/58 37/57/57 36/55/55
f 38/58/58 36/55/55 35/54/54
f 179/59/59 37/57/57 38/58/58
f 39/60/60 31/49/49 197/50/50
f 39/60/60 197/50/50 199/61/61
f 40/62/62 39/60/60 199/61/61
f 40/62/62 199/61/61 41/63/63
f 42/64/64 40/62/62 41/63/63
f 42/64/64 41/63/63 207/65/65
f 43/66/66 42/64/64 207/65/65
f 43/66/66 207/65/65 44/67/67
f 45/68/68 43/66/66 44/67/67
f 45/68/68 44/67/67 46/69/69
f 47/70/70 45/68/68 46/69/69
f 46/69/69 48/71/71 47/70/70
f 48/71/71 49/72/72 47/70/70
f 48/71/71 50/73/73 49/72/72
f 50/73/73 204/74/74 49/72/72
f 49/72/72 204/74/74 51/75/75
f 204/74/74 203/76/76 51/75/75
f 203/76/76 195/77/77 51/75/75
f 47/70/70 49/72/72 52/78/78
f 49/72/72 51/75/75 52/78/78
f 195/77/77 53/79/79 51/75/75
f 51/75/75 53/79/79 52/78/78
f 195/77/77 192/80/80 53/79/79
f 52/78/78 54/81/81 47/70/70
f 54/81/81 45/68/68 47/70/70
f 53/79/79 54/81/81 52/78/78
f 192/80/80 55/82/82 53/79/79
f 53/79/79 55/82/82 54/81/81
f 192/80/80 190/83/83 55/82/82
f 54/81/81 56/84/84 45/68/68
f 55/82/82 56/84/84 54/81/81
f 56/84/84 43/66/66 45/68/68
f 190/83/83 57/85/85 55/82/82
f 55/82/82 57/85/85 56/84/84
f 190/83/83 188/86/86 57/85/85
f 56/84/84 58/87/87 43/66/66
f 57/85/85 58/87/87 56/84/84
f 58/87/87 42/64/64 43/66/66
f 188/86/86 59/88/88 57/85/85
f 57/85/85 59/88/88 58/87/87
f 188/86/86 60/89/89 59/88/88
f 58/87/87 61/90/90 42/64/64
f 59/88/88 61/90/90 58/87/87
f 61/90/90 40/62/62 42/64/64
f 60/89/89 62/91/91 59/88/88
f 59/88/88 62/91/91 61/90/90
f 60/89/89 63/92/92 62/91/91
f 61/90/90 64/93/93 40/62/62
f 62/91/91 64/93/93 61/90/90
f 64/93/93 39/60/60 40/62/62
f 63/92/92 65/94/94 62/91/91
f 62/91/91 65/94/94 64/93/93
f 64/93/93 66/95/95 39/60/60
f 65/94/94 66/95/95 64/93/93
f 66/95/95 31/49/49 39/60/60
f 65/94/94 63/92/92 67/96/96
f 63/92/92 68/97/97 67/96/96
f 69/98/98 31/49/49 66/95/95
f 31/49/49 69/98/98 35/54/54
f 66/95/95 65/94/94 70/99/99
f 65/94/94 67/96/96 70/99/99
f 67/96/96 68/97/97 71/100/100
f 68/97/97 183/101/101 71/100/100
f 35/54/54 69/98/98 72/102/102
f 72/102/102 38/58/58 35/54/54
f 69/98/98 66/95/95 73/103/103
f 66/95/95 70/99/99 73/103/103
f 69/98/98 73/103/103 72/102/102
f 70/99/99 67/96/96 74/104/104
f 67/96/96 71/100/100 74/104/104
f 75/105/105 38/58/58 72/102/102
f 75/105/105 179/59/59 38/58/58
f 72/102/102 73/103/103 76/106/106
f 76/106/106 75/105/105 72/102/102
f 73/103/103 70/99/99 77/107/107
f 70/99/99 74/104/104 77/107/107
f 73/103/103 77/107/107 76/106/106
f 183/101/101 78/108/108 71/100/100
f 71/100/100 79/109/109 74/104/104
f 78/108/108 79/109/109 71/100/100
f 74/104/104 80/110/110 77/107/107
f 79/109/109 80/110/110 74/104/104
f 77/107/107 81/111/111 76/106/106
f 80/110/110 81/111/111 77/107/107
f 76/106/106 82/112/112 75/105/105
f 81/111/111 82/112/112 76/106/106
f 75/105/105 83/113/113 179/59/59
f 82/112/112 83/113/113 75/105/105
f 84/114/114 78/108/108 183/101/101
f 182/115/115 84/114/114 183/101/101
f 84/114/114 85/116/116 78/108/108
f 85/116/116 86/117/117 78/108/108
f 78/108/108 86/117/117 79/109/109
f 85/116/116 131/118/118 86/117/117
f 79/109/109 87/119/119 80/110/110
f 86/117/117 87/119/119 79/109/109
f 131/118/118 88/120/120 86/117/117
f 86/117/117 88/120/120 87/119/119
f 131/118/118 89/121/121 88/120/120
f 87/119/119 90/122/122 80/110/110
f 80/110/110 90/122/122 81/111/111
f 81/111/111 91/123/123 82/112/112
f 90/122/122 91/123/123 81/111/111
f 88/120/120 92/124/124 87/119/119
f 87/119/119 92/124/124 90/122/122
f 89/121/121 93/125/125 88/120/120
f 88/120/120 93/125/125 92/124/124
f 89/121/121 136/126/126 93/125/125
f 92/124/124 94/127/127 90/122/122
f 90/122/122 94/127/127 91/123/123
f 91/123/123 95/128/128 82/112/112
f 82/112/112 95/128/128 83/113/113
f 136/126/126 96/129/129 93/125/125
f 136/126/126 140/130/130 96/129/129
f 93/125/125 97/131/131 92/124/124
f 92/124/124 97/131/131 94/127/127
f 93/125/125 96/129/129 97/131/131
f 97/131/131 98/132/132 94/127/127
f 94/127/127 99/133/133 91/123/123
f 91/123/123 99/133/133 95/128/128
f 94/127/127 98/132/132 99/133/133
f 140/130/130 100/134/134 96/129/129
f 140/130/130 143/135/135 100/134/134
f 96/129/129 101/136/136 97/131/131
f 97/131/131 101/136/136 98/132/132
f 96/129/129 100/134/134 101/136/136
f 143/135/135 102/137/137 100/134/134
f 143/135/135 146/138/138 102/137/137
f 100/134/134 103/139/139 101/136/136
f 100/134/134 102/137/137 103/139/139
f 146/138/138 104/140/140 102/137/137
f 146/138/138 105/141/141 104/140/140
f 101/136/136 106/142/142 98/132/132
f 101/136/136 103/139/139 106/142/142
f 102/137/137 107/143/143 103/139/139
f 102/137/137 104/140/140 107/143/143
f 105/141/141 243/144/144 104/140/140
f 105/141/141 248/145/13 243/144/144
f 104/140/140 243/144/144 108/146/145
f 104/140/140 108/146/145 107/143/143
f 103/139/139 107/143/143 109/147/146
f 103/139/139 109/147/146 106/142/142
f 243/144/144 110/148/147 108/146/145
f 243/144/144 2/149/7 110/148/147
f 107/143/143 108/146/145 111/150/148
f 107/143/143 111/150/148 109/147/146
f 108/146/145 110/148/147 112/151/149
f 108/146/145 112/151/149 111/150/148
f 110/148/147 237/152/150 112/151/149
f 110/148/147 4/153/9 237/152/150
f 106/142/142 109/147/146 113/154/151
f 113/154/151 109/147/146 114/155/152
f 109/147/146 111/150/148 114/155/152
f 222/156/153 106/142/142 113/154/151
f 98/132/132 106/142/142 222/156/153
f 114/155/152 111/150/148 115/157/154
f 221/158/155 98/132/132 222/156/153
f 111/150/148 116/159/156 115/157/154
f 111/150/148 112/151/149 116/159/156
f 115/157/154 116/159/156 229/160/157
f 116/159/156 117/161/158 229/160/157
f 229/160/157 117/161/158 118/162/159
f 119/163/160 98/132/132 221/158/155
f 235/164/161 119/163/160 221/158/155
f 98/132/132 119/163/160 99/133/133
f 112/151/149 120/165/162 116/159/156
f 116/159/156 120/165/162 117/161/158
f 112/151/149 237/152/150 120/165/162
f 121/166/163 119/163/160 235/164/161
f 122/167/164 121/166/163 235/164/161
f 99/133/133 119/163/160 123/168/165
f 119/163/160 121/166/163 123/168/165
f 99/133/133 123/168/165 95/128/128
f 237/152/150 240/169/166 120/165/162
f 237/152/150 238/170/2 240/169/166
f 95/128/128 123/168/165 124/171/167
f 95/128/128 124/171/167 83/113/113
f 120/165/162 240/169/166 125/172/168
f 120/165/162 125/172/168 117/161/158
f 126/173/169 121/166/163 122/167/164
f 232/174/170 126/173/169 122/167/164
f 123/168/165 121/166/163 127/175/171
f 123/168/165 127/175/171 124/171/167
f 83/113/113 124/171/167 128/176/172
f 83/113/113 128/176/172 179/59/59
f 179/59/59 128/176/172 182/177/115
f 128/176/172 84/178/114 182/177/115
f 124/171/167 129/179/173 128/176/172
f 128/176/172 129/179/173 84/178/114
f 124/171/167 127/175/171 129/179/173
f 129/179/173 85/180/116 84/178/114
f 129/179/173 130/181/174 85/180/116
f 127/175/171 130/181/174 129/179/173
f 130/181/174 131/182/118 85/180/116
f 121/166/163 132/183/175 127/175/171
f 127/175/171 132/183/175 130/181/174
f 121/166/163 126/173/169 132/183/175
f 130/181/174 133/184/176 131/182/118
f 132/183/175 133/184/176 130/181/174
f 133/184/176 89/185/121 131/182/118
f 126/173/169 134/186/177 132/183/175
f 132/183/175 134/186/177 133/184/176
f 133/184/176 135/187/178 89/185/121
f 134/186/177 135/187/178 133/184/176
f 135/187/178 136/188/126 89/185/121
f 126/173/169 137/189/179 134/186/177
f 137/189/179 126/173/169 232/174/170
f 118/162/159 137/189/179 232/174/170
f 117/161/158 137/189/179 118/162/159
f 137/189/179 138/190/180 134/186/177
f 134/186/177 138/190/180 135/187/178
f 137/189/179 117/161/158 138/190/180
f 135/187/178 139/191/181 136/188/126
f 138/190/180 139/191/181 135/187/178
f 139/191/181 140/192/130 136/188/126
f 117/161/158 141/193/182 138/190/180
f 138/190/180 141/193/182 139/191/181
f 117/161/158 125/172/168 141/193/182
f 139/191/181 142/194/183 140/192/130
f 141/193/182 142/194/183 139/191/181
f 142/194/183 143/195/135 140/192/130
f 125/172/168 144/196/184 141/193/182
f 141/193/182 144/196/184 142/194/183
f 142/194/183 145/197/185 143/195/135
f 144/196/184 145/197/185 142/194/183
f 145/197/185 146/198/138 143/195/135
f 125/172/168 242/199/186 144/196/184
f 240/169/166 242/199/186 125/172/168
f 240/169/166 241/200/5 242/199/186
f 242/199/186 147/201/187 144/196/184
f 144/196/184 147/201/187 145/197/185
f 242/199/186 250/202/15 147/201/187
f 145/197/185 244/203/188 146/198/138
f 147/201/187 244/203/188 145/197/185
f 147/201/187 148/204/16 244/203/188
f 244/203/188 105/205/141 146/198/138
f 244/203/188 247/206/11 105/205/141
f 239/3/3 3/6/6 149/1/1
f 3/6/6 150/207/189 149/1/1
f 149/1/1 150/207/189 151/4/4
f 3/6/6 1/8/8 150/207/189
f 150/207/189 249/14/14 151/4/4
f 1/8/8 246/10/10 150/207/189
f 150/207/189 246/10/10 249/14/14
f 246/10/10 245/12/12 249/14/14
f 153/208/190 152/209/48 26/210/43
f 154/211/191 153/208/190 26/210/43
f 154/211/191 26/210/43 21/212/38
f 155/213/192 154/211/191 21/212/38
f 155/213/192 21/212/38 16/214/33
f 156/215/193 155/213/192 16/214/33
f 156/215/193 16/214/33 157/216/27
f 158/217/194 156/215/193 157/216/27
f 158/217/194 157/216/27 159/218/24
f 160/219/195 158/217/194 159/218/24
f 160/219/195 159/218/24 161/220/21
f 5/221/19 160/219/195 161/220/21
f 162/222/196 160/219/195 5/221/19
f 6/223/18 162/222/196 5/221/19
f 163/224/197 158/217/194 160/219/195
f 162/222/196 163/224/197 160/219/195
f 164/225/198 156/215/193 158/217/194
f 163/224/197 164/225/198 158/217/194
f 165/226/199 155/213/192 156/215/193
f 164/225/198 165/226/199 156/215/193
f 166/227/200 154/211/191 155/213/192
f 165/226/199 166/227/200 155/213/192
f 167/228/201 162/222/196 6/223/18
f 168/229/17 167/228/201 6/223/18
f 169/230/202 163/224/197 162/222/196
f 167/228/201 169/230/202 162/222/196
f 12/231/29 167/228/201 168/229/17
f 170/232/22 12/231/29 168/229/17
f 12/231/29 18/233/35 167/228/201
f 18/233/35 169/230/202 167/228/201
f 18/233/35 23/234/40 169/230/202
f 169/230/202 171/235/203 163/224/197
f 23/234/40 171/235/203 169/230/202
f 171/235/203 164/225/198 163/224/197
f 23/234/40 28/236/45 171/235/203
f 171/235/203 172/237/204 164/225/198
f 28/236/45 172/237/204 171/235/203
f 172/237/204 165/226/199 164/225/198
f 28/236/45 34/238/53 172/237/204
f 172/237/204 173/239/205 165/226/199
f 34/238/53 173/239/205 172/237/204
f 173/239/205 166/227/200 165/226/199
f 34/238/53 174/240/56 173/239/205
f 173/239/205 175/241/206 166/227/200
f 174/240/56 175/241/206 173/239/205
f 175/241/206 176/242/207 166/227/200
f 166/227/200 176/242/207 154/211/191
f 176/242/207 153/208/190 154/211/191
f 175/241/206 177/243/208 176/242/207
f 177/243/208 175/241/206 174/240/56
f 153/208/190 176/242/207 178/244/209
f 37/245/57 177/243/208 174/240/56
f 177/243/208 37/245/57 179/246/59
f 180/247/210 177/243/208 179/246/59
f 177/243/208 180/247/210 176/242/207
f 181/248/211 180/247/210 179/246/59
f 180/247/210 181/248/211 176/242/207
f 182/249/115 181/248/211 179/246/59
f 181/248/211 182/249/115 183/250/101
f 184/251/212 181/248/211 183/250/101
f 181/248/211 184/251/212 176/242/207
f 185/252/213 184/251/212 183/250/101
f 184/251/212 185/252/213 176/242/207
f 68/253/97 185/252/213 183/250/101
f 185/252/213 68/253/97 63/254/92
f 186/255/214 185/252/213 63/254/92
f 185/252/213 186/255/214 176/242/207
f 186/255/214 63/254/92 60/256/89
f 176/242/207 186/255/214 187/257/215
f 187/257/215 186/255/214 60/256/89
f 187/257/215 60/256/89 188/258/86
f 178/244/209 176/242/207 187/257/215
f 189/259/216 187/257/215 188/258/86
f 178/244/209 187/257/215 189/259/216
f 189/259/216 188/258/86 190/260/83
f 191/261/217 189/259/216 190/260/83
f 191/261/217 190/260/83 192/262/80
f 193/263/218 178/244/209 189/259/216
f 193/263/218 189/259/216 191/261/217
f 194/264/219 191/261/217 192/262/80
f 194/264/219 192/262/80 195/265/77
f 196/266/220 178/244/209 193/263/218
f 196/266/220 153/208/190 178/244/209
f 152/267/48 153/208/190 196/266/220
f 197/268/50 152/267/48 196/266/220
f 197/268/50 196/266/220 198/269/221
f 198/269/221 196/266/220 193/263/218
f 199/270/61 197/268/50 198/269/221
f 200/271/222 193/263/218 191/261/217
f 198/269/221 193/263/218 200/271/222
f 200/271/222 191/261/217 194/264/219
f 199/270/61 198/269/221 201/272/223
f 201/272/223 198/269/221 200/271/222
f 41/273/63 199/270/61 201/272/223
f 202/274/224 194/264/219 195/265/77
f 202/274/224 195/265/77 203/275/76
f 204/276/74 202/274/224 203/275/76
f 205/277/225 200/271/222 194/264/219
f 201/272/223 200/271/222 205/277/225
f 205/277/225 194/264/219 202/274/224
f 41/273/63 201/272/223 206/278/226
f 206/278/226 201/272/223 205/277/225
f 207/279/65 41/273/63 206/278/226
f 208/280/227 202/274/224 204/276/74
f 208/280/227 205/277/225 202/274/224
f 206/278/226 205/277/225 208/280/227
f 50/281/73 208/280/227 204/276/74
f 207/279/65 206/278/226 209/282/228
f 209/282/228 206/278/226 208/280/227
f 209/282/228 208/280/227 50/281/73
f 44/283/67 207/279/65 209/282/228
f 48/284/71 209/282/228 50/281/73
f 44/283/67 209/282/228 48/284/71
f 46/285/69 44/283/67 48/284/71
f 225/286/229 227/287/230 210/288/231
f 211/289/232 225/286/229 210/288/231
f 211/289/232 210/288/231 212/290/233
f 213/291/234 225/286/229 211/289/232
f 214/292/235 211/289/232 212/290/233
f 214/292/235 212/290/233 215/293/236
f 216/294/237 214/292/235 215/293/236
f 217/295/238 211/289/232 214/292/235
f 217/295/238 213/291/234 211/289/232
f 218/296/239 214/292/235 216/294/237
f 218/296/239 217/295/238 214/292/235
f 219/297/240 218/296/239 216/294/237
f 218/296/239 219/297/240 236/298/241
f 220/299/242 218/296/239 236/298/241
f 217/295/238 218/296/239 220/299/242
f 220/299/242 236/298/241 221/300/155
f 222/301/153 220/299/242 221/300/155
f 223/302/243 217/295/238 220/299/242
f 223/302/243 220/299/242 222/301/153
f 213/291/234 217/295/238 223/302/243
f 113/303/151 223/302/243 222/301/153
f 224/304/244 213/291/234 223/302/243
f 224/304/244 223/302/243 113/303/151
f 225/305/229 213/291/234 224/304/244
f 114/306/152 224/304/244 113/303/151
f 226/307/245 225/305/229 224/304/244
f 226/307/245 224/304/244 114/306/152
f 227/308/230 225/305/229 226/307/245
f 115/309/154 226/307/245 114/306/152
f 228/310/246 227/308/230 226/307/245
f 228/310/246 226/307/245 115/309/154
f 210/311/231 227/308/230 228/310/246
f 229/312/157 228/310/246 115/309/154
f 230/313/247 210/311/231 228/310/246
f 230/313/247 228/310/246 229/312/157
f 212/314/233 210/311/231 230/313/247
f 118/315/159 230/313/247 229/312/157
f 231/316/248 212/314/233 230/313/247
f 231/316/248 230/313/247 118/315/159
f 215/317/236 212/314/233 231/316/248
f 232/318/170 231/316/248 118/315/159
f 233/319/249 215/317/236 231/316/248
f 233/319/249 231/316/248 232/318/170
f 216/320/237 215/317/236 233/319/249
f 122/321/164 233/319/249 232/318/170
f 234/322/250 216/320/237 233/319/249
f 234/322/250 233/319/249 122/321/164
f 219/323/240 216/320/237 234/322/250
f 235/324/161 234/322/250 122/321/164
f 236/325/241 219/323/240 234/322/250
f 236/325/241 234/322/250 235/324/161
f 221/326/155 236/325/241 235/324/161
f 239/327/3 238/328/2 237/329/150
f 237/329/150 4/330/9 239/327/3
f 240/331/166 238/332/2 149/333/1
f 149/333/1 241/334/5 240/331/166
f 242/335/186 241/336/5 151/337/4
f 151/337/4 250/338/15 242/335/186
f 1/339/8 2/340/7 243/341/144
f 243/341/144 248/342/13 1/339/8
f 110/343/147 2/344/7 3/345/6
f 3/345/6 4/346/9 110/343/147
f 245/347/12 247/348/11 244/349/188
f 244/349/188 148/350/16 245/347/12
f 105/351/141 247/352/11 246/353/10
f 246/353/10 248/354/13 105/351/141
f 147/355/187 250/356/15 249/357/14
f 249/357/14 148/358/16 147/355/187
