# 3ds Max Wavefront OBJ Exporter v0.99 - (c)2007 guruware
# File Created: 07.12.2023 23:42:49

mtllib c1.mtl

#
# object Object001
#

v  0.0000 1.0000 -0.0000
v  -0.1257 0.7487 0.1257
v  0.1497 0.7005 0.1497
v  0.1177 0.7647 -0.1177
v  -0.0881 0.8238 -0.0881
# 5 vertices

vn 0.0000 0.4472 0.8944
vn 0.8944 0.4472 -0.0000
vn 0.0000 0.4472 -0.8944
vn -0.8944 0.4472 -0.0000
vn -0.3051 -0.8804 -0.3629
vn -0.1501 -0.9653 -0.2135
# 6 vertex normals

vt 0.5000 1.0000 0.0000
vt 0.3743 0.7487 0.0000
vt 0.6497 0.7005 0.0000
vt 0.3503 0.7005 0.0000
vt 0.6177 0.7647 0.0000
vt 0.3823 0.7647 0.0000
vt 0.5881 0.8238 0.0000
vt 0.4119 0.8238 0.0000
vt 0.6257 0.7487 0.0000
# 9 texture coords

o Object001
g Object001
usemtl wire_213154229
s 4
f 1/1/1 2/2/1 3/3/1 
s 2
f 1/1/2 3/4/2 4/5/2 
s 16
f 1/1/3 4/6/3 5/7/3 
s 32
f 1/1/4 5/8/4 2/9/4 
s off
f 5/8/5 4/6/5 2/2/5 
f 4/6/6 3/4/6 2/2/6 
# 6 faces

