# 3ds Max Wavefront OBJ Exporter v0.99 - (c)2007 guruware
# File Created: 07.12.2023 23:44:16

mtllib c10.mtl

#
# object Pyramid001
#

v  -0.1312 0.0000 -0.5000
v  0.5000 0.0000 -0.5000
v  0.5000 0.0000 0.0511
v  0.3466 0.3068 -0.3466
v  0.3499 0.3002 -0.0295
v  -0.0741 0.2785 -0.3607
v  -0.0517 0.3034 0.0826
v  -0.1102 0.0000 0.1102
v  0.4990 0.0019 0.0514
# 9 vertices

vn 0.0000 -1.0000 -0.0000
vn 0.8944 0.4472 0.0000
vn -0.0000 0.4472 -0.8944
vn 0.0000 0.4472 -0.8944
vn -0.0076 0.9984 -0.0556
vn -0.0676 0.9975 0.0213
vn -0.9822 0.1846 0.0339
vn -0.9805 0.1927 0.0388
vn 0.2525 0.3687 0.8946
vn 0.0958 -0.1221 0.9879
vn 0.0956 0.0720 0.9928
# 11 vertex normals

vt 0.2869 0.0000 0.0000
vt 1.0000 0.0000 0.0000
vt 1.0000 0.5511 0.0000
vt 0.3005 0.2969 0.0000
vt 0.5295 0.3002 0.0000
vt 0.0000 0.0000 0.0000
vt 0.5741 0.2785 0.0000
vt 0.8423 0.7655 0.6649
vt 0.6757 0.6757 0.0000
vt 0.4486 0.0019 0.0000
vt 0.4489 0.0000 0.0000
# 11 texture coords

o Pyramid001
g Pyramid001
usemtl wire_213154229
s 8
f 1/1/1 2/2/1 3/3/1 
s 2
f 2/2/2 4/4/2 5/5/2 
s 16
f 4/4/3 2/6/4 1/1/3 
s off
f 6/7/5 7/8/5 5/5/5 
f 5/5/6 4/4/6 6/7/6 
s 16
f 6/7/3 4/4/3 1/1/3 
s off
f 6/7/7 1/1/7 8/9/7 
f 7/8/8 6/7/8 8/9/8 
s 8
f 8/9/1 1/1/1 3/3/1 
s off
f 7/8/9 9/10/9 5/5/9 
f 8/9/10 3/3/10 9/10/10 
f 9/10/11 7/8/11 8/9/11 
s 2
f 5/5/2 9/10/2 3/11/2 
f 3/11/2 2/2/2 5/5/2 
# 14 faces

