# 3ds Max Wavefront OBJ Exporter v0.99 - (c)2007 guruware
# File Created: 07.12.2023 23:44:27

mtllib c11.mtl

#
# object Object005
#

v  -0.5000 0.0000 -0.5000
v  -0.3707 0.2587 -0.3707
v  -0.0741 0.2785 -0.3607
v  -0.3542 0.2917 -0.0755
v  -0.5000 0.0000 0.0662
v  -0.1312 0.0000 -0.5000
v  -0.2540 0.3050 0.1390
v  -0.1102 0.0000 0.1102
# 8 vertices

vn 0.0000 0.4472 -0.8944
vn -0.8944 0.4472 -0.0000
vn 0.0000 -1.0000 -0.0000
vn -0.0112 0.9983 -0.0569
vn -0.0629 0.9922 -0.1074
vn 0.8748 0.3846 0.2946
vn -0.7723 0.5449 0.3267
vn 0.9822 -0.1846 -0.0339
vn -0.1110 -0.1452 0.9832
vn -0.1229 -0.1356 0.9831
# 10 vertex normals

vt 1.0000 0.0000 0.0000
vt 0.8707 0.2587 0.0000
vt 0.5741 0.2785 0.0000
vt 0.4245 0.2917 0.0000
vt 0.1293 0.2587 0.0000
vt 0.5662 0.0000 0.0000
vt 0.0000 0.5662 0.0000
vt 0.0000 0.0000 0.0000
vt 0.3688 0.0000 0.0000
vt 1.0000 1.0000 1.0000
vt 0.2957 0.7043 0.0000
vt 0.6312 0.0000 0.0000
# 12 texture coords

o Object005
g Object005
usemtl wire_213154229
s 16
f 1/1/1 2/2/1 3/3/1 
s 32
f 4/4/2 2/5/2 5/6/2 
s 8
f 5/7/3 1/8/3 6/9/3 
f 6/9/3 5/7/3 5/7/3 
s off
f 7/10/4 3/3/4 4/4/4 
f 3/3/5 2/2/5 4/4/5 
f 8/11/6 3/3/6 7/10/6 
f 7/10/7 4/4/7 5/6/7 
f 8/11/8 6/9/8 3/3/8 
f 5/6/9 8/11/9 7/10/9 
f 7/10/10 5/6/10 5/6/10 
s 32
f 2/5/2 1/8/2 5/6/2 
s 16
f 3/3/1 6/12/1 1/1/1 
s 8
f 6/9/3 8/11/3 5/7/3 
# 14 faces

