# 3ds Max Wavefront OBJ Exporter v0.99 - (c)2007 guruware
# File Created: 07.12.2023 23:42:55

mtllib c2.mtl

#
# object Object002
#

v  -0.0881 0.8238 -0.0881
v  -0.2384 0.5233 0.2384
v  -0.1257 0.7487 0.1257
v  0.2026 0.5947 0.2026
v  0.1497 0.7005 0.1497
v  0.2026 0.5948 -0.2026
v  0.1177 0.7647 -0.1177
v  -0.1762 0.6477 -0.1762
v  -0.2183 0.5634 0.1046
v  0.2026 0.5948 -0.0695
# 10 vertices

vn -0.8944 0.4472 -0.0000
vn 0.0000 0.4472 0.8944
vn -0.0000 0.4472 0.8944
vn 0.8944 0.4472 0.0000
vn 0.8944 0.4472 -0.0000
vn 0.0000 0.4472 -0.8944
vn 0.3051 0.8804 0.3629
vn 0.1501 0.9653 0.2135
vn 0.1330 -0.9546 -0.2665
vn -0.0505 -0.9545 -0.2940
vn 0.0742 -0.9972 -0.0004
vn -0.1382 -0.9904 -0.0003
# 12 vertex normals

vt 0.4119 0.8238 0.0000
vt 0.7384 0.5233 0.0000
vt 0.6257 0.7487 0.0000
vt 0.3743 0.7487 0.0000
vt 0.7026 0.5947 0.0000
vt 0.6497 0.7005 0.0000
vt 0.3503 0.7005 0.0000
vt 0.7026 0.5948 0.0000
vt 0.6177 0.7647 0.0000
vt 0.3823 0.7647 0.0000
vt 0.6762 0.6477 0.0000
vt 0.5881 0.8238 0.0000
vt 0.2616 0.5233 0.0000
vt 0.6046 0.5634 0.0000
vt 0.2974 0.5947 0.0000
vt 0.3238 0.6477 0.0000
vt 0.5695 0.5948 0.0000
vt 0.2974 0.5948 0.0000
# 18 texture coords

o Object002
g Object002
usemtl wire_213154229
s 32
f 1/1/1 2/2/1 3/3/1 
s 4
f 3/4/2 4/5/2 5/6/3 
s 2
f 5/7/4 6/8/4 7/9/5 
s 16
f 7/10/6 8/11/6 1/12/6 
s off
f 3/3/7 7/9/7 1/12/7 
f 3/3/8 5/6/8 7/9/8 
f 2/13/9 9/14/9 4/15/9 
f 9/14/10 8/16/10 10/17/10 
f 9/14/11 10/17/11 4/15/11 
f 8/16/12 6/18/12 10/17/12 
s 4
f 3/4/2 2/13/2 4/5/2 
s 2
f 5/7/4 4/15/5 10/17/4 
f 5/7/4 10/17/4 6/8/4 
s 16
f 7/10/6 6/18/6 8/11/6 
s 32
f 1/1/1 9/14/1 2/2/1 
f 1/1/1 8/16/1 9/14/1 
# 16 faces

