# 3ds Max Wavefront OBJ Exporter v0.99 - (c)2007 guruware
# File Created: 07.12.2023 23:43:04

mtllib c3.mtl

#
# object Object004
#

v  -0.1762 0.6477 -0.1762
v  -0.3707 0.2587 -0.3707
v  -0.3445 0.3110 0.0978
v  -0.0741 0.2785 -0.3607
v  -0.2540 0.3050 0.1390
v  -0.2183 0.5634 0.1046
# 6 vertices

vn -0.8944 0.4472 -0.0000
vn 0.0000 0.4472 -0.8944
vn 0.9863 -0.1215 0.1116
vn 0.9384 0.0930 0.3329
vn -0.3985 0.1748 0.9004
vn 0.0629 -0.9922 0.1074
vn -0.8944 0.4472 0.0000
vn -0.0778 -0.9967 0.0248
# 8 vertex normals

vt 0.3238 0.6477 0.0000
vt 0.1293 0.2587 0.0000
vt 0.4245 0.2917 0.0000
vt 0.5741 0.2785 0.0000
vt 0.8707 0.2587 0.0000
vt 0.6762 0.6477 0.0000
vt 0.5941 0.3059 0.0000
vt 0.6046 0.5634 0.0000
# 8 texture coords

o Object004
g Object004
usemtl wire_213154229
s 32
f 1/1/1 2/2/1 3/3/1 
s 16
f 4/4/2 2/5/2 1/6/2 
s off
f 5/7/3 1/1/3 6/8/3 
f 5/7/4 4/4/4 1/1/4 
f 5/7/5 6/8/5 3/3/5 
f 3/3/6 2/2/6 4/4/6 
s 32
f 3/3/1 6/8/7 1/1/1 
s off
f 3/3/8 4/4/8 5/7/8 
# 8 faces

