# 3ds Max Wavefront OBJ Exporter v0.99 - (c)2007 guruware
# File Created: 07.12.2023 23:43:11

mtllib c4.mtl

#
# object Object006
#

v  0.1279 0.3071 0.3465
v  0.3539 0.2923 0.3539
v  0.2026 0.5947 0.2026
v  -0.3314 0.3372 0.3314
v  -0.2384 0.5233 0.2384
v  -0.2183 0.5634 0.1046
v  -0.3445 0.3110 0.0978
v  -0.2540 0.3050 0.1390
# 8 vertices

vn 0.0000 0.4472 0.8944
vn -0.8944 0.4472 0.0000
vn -0.8944 0.4472 -0.0000
vn -0.1330 0.9546 0.2665
vn 0.3985 -0.1748 -0.9004
vn -0.1191 -0.9860 0.1169
vn 0.2372 -0.3370 -0.9111
vn -0.0692 -0.9881 0.1373
vn 0.3253 -0.1687 -0.9304
vn -0.0000 0.4472 0.8944
# 10 vertex normals

vt 0.6279 0.3071 0.0000
vt 0.8539 0.2923 0.0000
vt 0.7026 0.5947 0.0000
vt 0.8314 0.3372 0.0000
vt 0.7384 0.5233 0.0000
vt 0.6046 0.5634 0.0000
vt 0.5978 0.3110 0.0000
vt 1.0000 1.0000 1.0000
vt 0.1686 0.3372 0.0000
vt 0.2616 0.5233 0.0000
# 10 texture coords

o Object006
g Object006
usemtl wire_213154229
s 4
f 1/1/1 2/2/1 2/2/1 
f 2/2/1 3/3/1 1/1/1 
s 32
f 4/4/2 5/5/3 6/6/2 
s off
f 3/3/4 6/6/4 5/5/4 
f 7/7/5 6/6/5 8/8/5 
f 4/9/6 7/7/6 8/8/6 
f 6/6/7 3/3/7 2/2/7 
f 8/8/8 2/2/8 1/1/8 
f 6/6/7 2/2/7 2/2/7 
f 2/2/9 8/8/9 6/6/9 
f 1/1/8 4/9/8 8/8/8 
s 4
f 3/3/1 5/10/10 1/1/1 
f 5/10/10 4/9/10 1/1/1 
s 32
f 6/6/2 7/7/2 4/4/2 
# 14 faces

