# 3ds Max Wavefront OBJ Exporter v0.99 - (c)2007 guruware
# File Created: 07.12.2023 23:43:20

mtllib c5.mtl

#
# object Object007
#

v  0.2026 0.5947 0.2026
v  0.2026 0.5948 -0.0695
v  -0.2183 0.5634 0.1046
v  -0.2540 0.3050 0.1390
v  0.3499 0.3002 -0.0295
v  0.3539 0.2923 0.3539
# 6 vertices

vn -0.0742 0.9972 0.0004
vn -0.3768 -0.0708 -0.9236
vn -0.2616 -0.2571 -0.9303
vn -0.2372 0.3370 0.9111
vn -0.3253 0.1687 0.9304
vn 0.8944 0.4472 -0.0000
vn -0.0137 -0.9997 -0.0205
# 7 vertex normals

vt 0.7026 0.5947 0.0000
vt 0.5695 0.5948 0.0000
vt 0.6046 0.5634 0.0000
vt 1.0000 1.0000 1.0000
vt 0.3978 0.2975 0.0000
vt 0.2974 0.5947 0.0000
vt 0.8539 0.2923 0.0000
vt 0.1461 0.2923 0.0000
# 8 texture coords

o Object007
g Object007
usemtl wire_213154229
s off
f 1/1/1 2/2/1 3/3/1 
f 2/2/2 4/4/2 3/3/2 
f 2/2/3 5/5/3 4/4/3 
f 1/6/4 3/3/4 6/7/4 
f 3/3/5 4/4/5 6/7/5 
s 2
f 5/5/6 2/2/6 1/6/6 
f 1/6/6 6/8/6 5/5/6 
s off
f 5/5/7 6/8/7 4/4/7 
# 8 faces

