# 3ds Max Wavefront OBJ Exporter v0.99 - (c)2007 guruware
# File Created: 07.12.2023 23:43:27

mtllib c6.mtl

#
# object Object003
#

v  0.3466 0.3068 -0.3466
v  0.2026 0.5948 -0.2026
v  0.2026 0.5948 -0.0695
v  -0.1762 0.6477 -0.1762
v  -0.2183 0.5634 0.1046
v  -0.2537 0.3050 0.1390
v  0.3499 0.3002 -0.0295
v  -0.0741 0.2785 -0.3607
# 8 vertices

vn 0.8944 0.4472 0.0000
vn 0.0505 0.9545 0.2940
vn 0.1382 0.9904 0.0003
vn 0.3767 0.0712 0.9236
vn -0.9864 0.1203 -0.1119
vn 0.0076 -0.9984 0.0556
vn -0.9385 -0.0933 -0.3324
vn 0.2617 0.2571 0.9303
vn 0.0676 -0.9975 -0.0213
vn -0.0000 0.4472 -0.8944
vn 0.0000 0.4472 -0.8944
# 11 vertex normals

vt 0.8466 0.3068 0.0000
vt 0.7026 0.5948 0.0000
vt 0.5695 0.5948 0.0000
vt 0.6762 0.6477 0.0000
vt 0.6046 0.5634 0.0000
vt 1.0000 1.0000 1.0000
vt 0.5295 0.3002 0.0000
vt 0.5741 0.2785 0.0000
vt 0.1534 0.3068 0.0000
vt 0.2974 0.5948 0.0000
# 10 texture coords

o Object003
g Object003
usemtl wire_213154229
s 2
f 1/1/1 2/2/1 3/3/1 
s off
f 3/3/2 4/4/2 5/5/2 
f 3/3/3 2/2/3 4/4/3 
f 5/5/4 6/6/4 3/3/4 
f 6/6/5 5/5/5 4/4/5 
f 7/7/6 6/6/6 8/8/6 
f 4/4/7 8/8/7 6/6/7 
f 6/6/8 7/7/8 3/3/8 
f 8/8/9 1/9/9 7/7/9 
s 16
f 1/9/10 8/8/10 4/4/10 
f 1/9/10 4/4/10 2/10/11 
s 2
f 3/3/1 7/7/1 1/1/1 
# 12 faces

