# 3ds Max Wavefront OBJ Exporter v0.99 - (c)2007 guruware
# File Created: 07.12.2023 23:43:47

mtllib c7.mtl

#
# object Object008
#

v  -0.5000 0.0000 0.0662
v  -0.3542 0.2917 -0.0755
v  -0.2540 0.3050 0.1390
v  -0.3314 0.3372 0.3314
v  -0.5000 0.0000 0.5000
# 5 vertices

vn 0.7723 -0.5449 -0.3267
vn 0.1191 0.9860 -0.1169
vn -0.8944 0.4472 0.0000
vn -0.8944 0.4472 -0.0000
vn 0.8849 -0.2440 0.3968
vn 0.7784 -0.6278 -0.0000
# 6 vertex normals

vt 0.0000 0.5662 0.0000
vt 0.5978 0.3110 0.0000
vt 1.0000 1.0000 1.0000
vt 0.8314 0.3372 0.0000
vt 1.0000 0.0000 0.0000
vt 0.5662 0.0000 0.0000
# 6 texture coords

o Object008
g Object008
usemtl wire_213154229
s off
f 1/1/1 2/2/1 3/3/1 
f 3/3/2 2/2/2 4/4/2 
s 32
f 5/5/3 4/4/3 2/2/3 
f 2/2/3 1/6/4 5/5/3 
s off
f 5/5/5 3/3/5 4/4/5 
f 5/5/6 1/6/6 3/3/6 
# 6 faces

