# 3ds Max Wavefront OBJ Exporter v0.99 - (c)2007 guruware
# File Created: 07.12.2023 23:43:57

mtllib c8.mtl

#
# object Object009
#

v  -0.1102 0.0000 0.1102
v  -0.5000 0.0000 0.5000
v  -0.5000 0.0000 0.0662
v  -0.0347 0.3170 0.3400
v  -0.3314 0.3372 0.3314
v  0.1281 0.0000 0.5000
v  -0.2540 0.3050 0.1390
# 7 vertices

vn 0.0000 -1.0000 -0.0000
vn 0.0050 0.4526 0.8917
vn 0.0016 0.4489 0.8936
vn 0.0020 0.4494 0.8933
vn 0.1110 0.1452 -0.9832
vn 0.0711 0.9881 -0.1366
vn -0.8849 0.2440 -0.3968
vn -0.7784 0.6278 -0.0000
vn 0.6201 0.3583 -0.6980
vn 0.8405 0.1722 -0.5137
vn 0.0000 0.4472 0.8944
# 11 vertex normals

vt 0.2957 0.7043 0.0000
vt 0.0000 1.0000 0.0000
vt 0.0000 0.5662 0.0000
vt 0.6279 0.3071 0.0000
vt 0.1686 0.3372 0.0000
vt 0.6281 0.0000 0.0000
vt 1.0000 1.0000 1.0000
vt 0.8314 0.3372 0.0000
vt 0.6281 1.0000 0.0000
vt 0.0000 0.0000 0.0000
# 10 texture coords

o Object009
g Object009
usemtl wire_213154229
s 8
f 1/1/1 2/2/1 3/3/1 
s 4
f 4/4/2 5/5/3 6/6/4 
s off
f 1/1/5 3/3/5 7/7/5 
f 7/7/6 5/8/6 4/4/6 
f 5/5/7 7/7/7 2/2/7 
f 7/7/8 3/3/8 2/2/8 
s 8
f 6/9/1 2/2/1 1/1/1 
s off
f 1/1/9 7/7/9 4/4/9 
f 4/4/10 6/6/10 1/1/10 
s 4
f 5/5/3 2/10/11 6/6/4 
# 10 faces

