# 3ds Max Wavefront OBJ Exporter v0.99 - (c)2007 guruware
# File Created: 07.12.2023 23:44:08

mtllib c9.mtl

#
# object Object011
#

v  0.5000 0.0000 0.5000
v  0.1281 0.0000 0.5000
v  -0.1102 0.0000 0.1102
v  0.3539 0.2923 0.3539
v  -0.0347 0.3170 0.3400
v  0.5000 0.0000 0.0511
v  0.4990 0.0019 0.0514
v  -0.0517 0.3034 0.0826
v  0.3499 0.3002 -0.0295
# 9 vertices

vn 0.0000 -1.0000 -0.0000
vn -0.0018 0.4482 0.8939
vn -0.0036 0.4458 0.8951
vn -0.0017 0.4483 0.8939
vn 0.8944 0.4472 -0.0000
vn 0.0654 0.9962 -0.0570
vn 0.0137 0.9997 0.0205
vn -0.8405 -0.1722 0.5137
vn -0.9795 0.1939 0.0543
vn -0.2688 -0.0358 -0.9625
vn -0.0958 0.1221 -0.9879
vn -0.0906 -0.3025 -0.9488
vn 0.0000 0.4506 0.8927
# 13 vertex normals

vt 1.0000 1.0000 0.0000
vt 0.6281 1.0000 0.0000
vt 0.2957 0.7043 0.0000
vt 1.0000 0.0000 0.0000
vt 0.3978 0.2975 0.0000
vt 0.9490 0.7528 0.6507
vt 0.0000 0.0000 0.0000
vt 0.4489 0.0000 0.0000
vt 0.4486 0.0019 0.0000
vt 1.0000 0.5511 0.0000
vt 0.8423 0.7655 0.6649
vt 0.5295 0.3002 0.0000
vt 0.6281 0.0000 0.0000
# 13 texture coords

o Object011
g Object011
usemtl wire_213154229
s 8
f 1/1/1 2/2/1 3/3/1 
s 4
f 1/4/2 4/5/3 5/6/4 
s 2
f 4/5/5 1/7/5 6/8/5 
f 6/8/5 7/9/5 4/5/5 
s 8
f 6/10/1 1/1/1 3/3/1 
s off
f 4/5/6 8/11/6 5/6/6 
f 4/5/7 9/12/7 8/11/7 
f 5/6/8 3/3/8 2/2/8 
f 5/6/9 8/11/9 3/3/9 
s 2
f 9/12/5 4/5/5 7/9/5 
s off
f 9/12/10 3/3/10 8/11/10 
f 7/9/11 6/8/11 3/3/11 
f 3/3/12 9/12/12 7/9/12 
s 4
f 5/6/4 2/13/13 1/4/2 
# 14 faces

