# 3ds Max Wavefront OBJ Exporter v0.99 - (c)2007 guruware
# File Created: 07.12.2023 23:54:12

mtllib Clink.mtl

#
# object mesh_id42
#

v  0.1808 -0.0342 0.2575
v  0.1925 -0.0301 0.2575
v  0.1889 -0.0289 0.2575
v  0.2005 -0.0394 0.2575
v  0.1963 -0.0336 0.2575
v  0.1951 -0.0524 0.2575
v  0.1991 -0.0471 0.2575
v  0.1842 -0.0455 0.2575
v  0.1884 -0.0553 0.2575
v  0.1816 -0.0385 0.2575
v  0.2369 0.0913 0.2575
v  0.2436 0.0901 0.2575
v  0.2403 0.0913 0.2575
v  0.2513 0.0806 0.2575
v  0.2472 0.0865 0.2575
v  0.2187 0.0010 0.2575
v  0.2329 0.0333 0.2575
v  0.2010 -0.0161 0.2575
v  0.2088 -0.0161 0.2575
v  0.1942 -0.0102 0.2575
v  0.1970 -0.0146 0.2575
v  0.1985 0.0153 0.2575
v  0.1924 -0.0028 0.2575
v  0.2134 0.0466 0.2575
v  0.0754 0.0883 0.2575
v  0.0863 0.0913 0.2575
v  0.0813 0.0913 0.2575
v  0.0975 0.0697 0.2575
v  0.0931 0.0859 0.2575
v  0.0996 0.0428 0.2575
v  0.1460 0.0654 0.2575
v  0.1277 0.0569 0.2575
v  0.1544 0.0682 0.2575
v  0.1577 0.0468 0.2575
v  0.1621 0.0553 0.2575
v  0.1228 0.0261 0.2575
v  0.1446 0.0370 0.2575
v  0.1228 0.0235 0.2575
v  0.1638 -0.0089 0.2575
v  0.1485 0.0068 0.2575
v  0.1690 -0.0236 0.2575
v  0.1677 -0.0307 0.2575
v  0.1690 -0.0260 0.2575
v  0.1577 -0.0346 0.2575
v  0.1640 -0.0336 0.2575
v  0.1457 -0.0269 0.2575
v  0.1514 -0.0317 0.2575
v  0.1020 0.0071 0.2575
v  0.1043 -0.0305 0.2575
v  0.1043 -0.0028 0.2575
v  0.1034 -0.0334 0.2575
v  0.1005 -0.0363 0.2575
v  0.0958 -0.0391 0.2575
v  0.0870 -0.0357 0.2575
v  0.0801 -0.0283 0.2575
v  0.0818 -0.0321 0.2575
v  0.0760 0.0679 0.2575
v  0.0775 0.0290 0.2575
v  0.1174 -0.0030 0.2575
v  0.1405 -0.0201 0.2575
v  0.1302 -0.0121 0.2575
v  -0.0187 0.0495 0.2575
v  -0.0088 0.0505 0.2575
v  -0.0184 0.0520 0.2575
v  -0.0011 0.0383 0.2575
v  -0.0030 0.0459 0.2575
v  -0.0010 0.0381 0.2575
v  0.0042 0.0433 0.2575
v  0.0098 0.0464 0.2575
v  0.0156 0.0474 0.2575
v  0.0465 0.0323 0.2575
v  0.0252 0.0474 0.2575
v  0.0636 -0.0260 0.2575
v  0.0594 0.0078 0.2575
v  0.0503 -0.0438 0.2575
v  0.0610 -0.0438 0.2575
v  0.0421 -0.0359 0.2575
v  0.0457 -0.0418 0.2575
v  0.0396 -0.0238 0.2575
v  0.0394 -0.0262 0.2575
v  0.0417 -0.0219 0.2575
v  0.0404 -0.0224 0.2575
v  0.0035 -0.0189 0.2575
v  0.0028 -0.0389 0.2575
v  0.0059 -0.0329 0.2575
v  -0.0027 -0.0426 0.2575
v  0.0072 -0.0015 0.2575
v  -0.0107 -0.0438 0.2575
v  0.0123 0.0118 0.2575
v  -0.0176 -0.0316 0.2575
v  -0.0150 -0.0376 0.2575
v  -0.0187 -0.0136 0.2575
v  -0.0184 -0.0260 0.2575
v  -0.0195 0.0096 0.2575
v  -0.0195 0.0467 0.2575
v  -0.0207 0.0438 0.2575
v  -0.0013 0.0381 0.2575
v  0.0187 0.0209 0.2575
v  0.0315 0.0161 0.2575
v  0.0391 0.0019 0.2575
v  -0.0555 0.0330 0.2575
v  -0.0407 0.0259 0.2575
v  -0.0509 0.0358 0.2575
v  -0.0325 -0.0540 0.2575
v  -0.0346 -0.0041 0.2575
v  -0.0346 -0.0597 0.2575
v  -0.0412 -0.0623 0.2575
v  -0.0349 -0.0623 0.2575
v  -0.0339 -0.0569 0.2575
v  -0.0551 -0.0523 0.2575
v  -0.0499 -0.0598 0.2575
v  -0.0581 -0.0232 0.2575
v  -0.0569 -0.0400 0.2575
v  -0.0591 0.0134 0.2575
v  -0.0589 -0.0054 0.2575
v  -0.0582 0.0301 0.2575
v  -0.0591 0.0272 0.2575
v  -0.0553 0.0815 0.2575
v  -0.0444 0.0804 0.2575
v  -0.0506 0.0844 0.2575
v  -0.0395 0.0665 0.2575
v  -0.0407 0.0745 0.2575
v  -0.0423 0.0609 0.2575
v  -0.0402 0.0630 0.2575
v  -0.0528 0.0602 0.2575
v  -0.0459 0.0602 0.2575
v  -0.0584 0.0630 0.2575
v  -0.0563 0.0609 0.2575
v  -0.0591 0.0758 0.2575
v  -0.0591 0.0665 0.2575
v  -0.0582 0.0786 0.2575
v  -0.0911 0.0818 0.2575
v  -0.0796 0.0959 0.2575
v  -0.0843 0.0959 0.2575
v  -0.0737 0.0911 0.2575
v  -0.0766 0.0947 0.2575
v  -0.0735 0.0383 0.2575
v  -0.0710 0.0852 0.2575
v  -0.0756 -0.0282 0.2575
v  -0.0760 -0.0506 0.2575
v  -0.0732 -0.0446 0.2575
v  -0.0789 -0.0541 0.2575
v  -0.0819 -0.0553 0.2575
v  -0.0941 -0.0526 0.2575
v  -0.0889 -0.0553 0.2575
v  -0.0998 -0.0306 0.2575
v  -0.0978 -0.0443 0.2575
v  -0.0963 0.0397 0.2575
v  -0.0751 0.0005 0.2575
v  -0.1822 0.0891 0.2575
v  -0.1321 0.0855 0.2575
v  -0.1547 0.0960 0.2575
v  -0.1139 0.0619 0.2575
v  -0.1185 0.0742 0.2575
v  -0.1147 0.0561 0.2575
v  -0.1139 0.0596 0.2575
v  -0.1208 0.0533 0.2575
v  -0.1170 0.0540 0.2575
v  -0.1404 0.0662 0.2575
v  -0.1331 0.0608 0.2575
v  -0.1505 -0.0219 0.2575
v  -0.1385 -0.0189 0.2575
v  -0.1460 -0.0204 0.2575
v  -0.1279 -0.0173 0.2575
v  -0.1279 -0.0196 0.2575
v  -0.1176 -0.0209 0.2575
v  -0.1251 -0.0173 0.2575
v  -0.1131 -0.0261 0.2575
v  -0.1116 -0.0329 0.2575
v  -0.1160 -0.0400 0.2575
v  -0.1289 -0.0460 0.2575
v  -0.1848 -0.0308 0.2575
v  -0.1506 -0.0508 0.2575
v  -0.2122 0.0344 0.2575
v  -0.2053 -0.0024 0.2575
v  -0.2014 0.0686 0.2575
v  -0.1429 0.0694 0.2575
v  -0.1713 -0.0116 0.2575
v  -0.1838 0.0040 0.2575
v  -0.1880 0.0249 0.2575
v  -0.1850 0.0426 0.2575
v  -0.1762 0.0574 0.2575
v  -0.1615 0.0694 0.2575
v  0.1889 -0.0289 0.2425
v  0.1925 -0.0301 0.2425
v  0.1808 -0.0342 0.2425
v  0.1963 -0.0336 0.2425
v  0.2005 -0.0394 0.2425
v  0.1991 -0.0471 0.2425
v  0.1951 -0.0524 0.2425
v  0.1884 -0.0553 0.2425
v  0.1842 -0.0455 0.2425
v  0.1816 -0.0385 0.2425
v  0.2403 0.0913 0.2425
v  0.2436 0.0901 0.2425
v  0.2369 0.0913 0.2425
v  0.2472 0.0865 0.2425
v  0.2513 0.0806 0.2425
v  0.2329 0.0333 0.2425
v  0.2187 0.0010 0.2425
v  0.2088 -0.0161 0.2425
v  0.2010 -0.0161 0.2425
v  0.1970 -0.0146 0.2425
v  0.1942 -0.0102 0.2425
v  0.1924 -0.0028 0.2425
v  0.1985 0.0153 0.2425
v  0.2134 0.0466 0.2425
v  0.0813 0.0913 0.2425
v  0.0863 0.0913 0.2425
v  0.0754 0.0883 0.2425
v  0.0931 0.0859 0.2425
v  0.0975 0.0697 0.2425
v  0.1277 0.0569 0.2425
v  0.1460 0.0654 0.2425
v  0.0996 0.0428 0.2425
v  0.1544 0.0682 0.2425
v  0.1621 0.0553 0.2425
v  0.1577 0.0468 0.2425
v  0.1446 0.0370 0.2425
v  0.1228 0.0261 0.2425
v  0.1485 0.0068 0.2425
v  0.1638 -0.0089 0.2425
v  0.1228 0.0235 0.2425
v  0.1690 -0.0236 0.2425
v  0.1690 -0.0260 0.2425
v  0.1677 -0.0307 0.2425
v  0.1640 -0.0336 0.2425
v  0.1577 -0.0346 0.2425
v  0.1514 -0.0317 0.2425
v  0.1457 -0.0269 0.2425
v  0.1043 -0.0028 0.2425
v  0.1043 -0.0305 0.2425
v  0.1020 0.0071 0.2425
v  0.1034 -0.0334 0.2425
v  0.1005 -0.0363 0.2425
v  0.0958 -0.0391 0.2425
v  0.0870 -0.0357 0.2425
v  0.0818 -0.0321 0.2425
v  0.0801 -0.0283 0.2425
v  0.0775 0.0290 0.2425
v  0.0760 0.0679 0.2425
v  0.1174 -0.0030 0.2425
v  0.1405 -0.0201 0.2425
v  0.1302 -0.0121 0.2425
v  -0.0184 0.0520 0.2425
v  -0.0088 0.0505 0.2425
v  -0.0187 0.0495 0.2425
v  -0.0030 0.0459 0.2425
v  -0.0011 0.0383 0.2425
v  0.0042 0.0433 0.2425
v  -0.0010 0.0381 0.2425
v  0.0098 0.0464 0.2425
v  0.0156 0.0474 0.2425
v  0.0252 0.0474 0.2425
v  0.0465 0.0323 0.2425
v  0.0594 0.0078 0.2425
v  0.0636 -0.0260 0.2425
v  0.0610 -0.0438 0.2425
v  0.0503 -0.0438 0.2425
v  0.0457 -0.0418 0.2425
v  0.0421 -0.0359 0.2425
v  0.0394 -0.0262 0.2425
v  0.0396 -0.0238 0.2425
v  0.0404 -0.0224 0.2425
v  0.0417 -0.0219 0.2425
v  0.0059 -0.0329 0.2425
v  0.0028 -0.0389 0.2425
v  0.0035 -0.0189 0.2425
v  -0.0027 -0.0426 0.2425
v  0.0072 -0.0015 0.2425
v  -0.0107 -0.0438 0.2425
v  0.0123 0.0118 0.2425
v  -0.0150 -0.0376 0.2425
v  -0.0176 -0.0316 0.2425
v  -0.0184 -0.0260 0.2425
v  -0.0187 -0.0136 0.2425
v  -0.0207 0.0438 0.2425
v  -0.0195 0.0467 0.2425
v  -0.0195 0.0096 0.2425
v  -0.0013 0.0381 0.2425
v  0.0187 0.0209 0.2425
v  0.0315 0.0161 0.2425
v  0.0391 0.0019 0.2425
v  -0.0509 0.0358 0.2425
v  -0.0407 0.0259 0.2425
v  -0.0555 0.0330 0.2425
v  -0.0346 -0.0041 0.2425
v  -0.0325 -0.0540 0.2425
v  -0.0349 -0.0623 0.2425
v  -0.0412 -0.0623 0.2425
v  -0.0346 -0.0597 0.2425
v  -0.0339 -0.0569 0.2425
v  -0.0499 -0.0598 0.2425
v  -0.0551 -0.0523 0.2425
v  -0.0569 -0.0400 0.2425
v  -0.0581 -0.0232 0.2425
v  -0.0589 -0.0054 0.2425
v  -0.0591 0.0134 0.2425
v  -0.0591 0.0272 0.2425
v  -0.0582 0.0301 0.2425
v  -0.0506 0.0844 0.2425
v  -0.0444 0.0804 0.2425
v  -0.0553 0.0815 0.2425
v  -0.0407 0.0745 0.2425
v  -0.0395 0.0665 0.2425
v  -0.0402 0.0630 0.2425
v  -0.0423 0.0609 0.2425
v  -0.0459 0.0602 0.2425
v  -0.0528 0.0602 0.2425
v  -0.0563 0.0609 0.2425
v  -0.0584 0.0630 0.2425
v  -0.0591 0.0665 0.2425
v  -0.0591 0.0758 0.2425
v  -0.0582 0.0786 0.2425
v  -0.0843 0.0959 0.2425
v  -0.0796 0.0959 0.2425
v  -0.0911 0.0818 0.2425
v  -0.0766 0.0947 0.2425
v  -0.0737 0.0911 0.2425
v  -0.0710 0.0852 0.2425
v  -0.0735 0.0383 0.2425
v  -0.0732 -0.0446 0.2425
v  -0.0760 -0.0506 0.2425
v  -0.0756 -0.0282 0.2425
v  -0.0789 -0.0541 0.2425
v  -0.0819 -0.0553 0.2425
v  -0.0889 -0.0553 0.2425
v  -0.0941 -0.0526 0.2425
v  -0.0978 -0.0443 0.2425
v  -0.0998 -0.0306 0.2425
v  -0.0963 0.0397 0.2425
v  -0.0751 0.0005 0.2425
v  -0.1547 0.0960 0.2425
v  -0.1321 0.0855 0.2425
v  -0.1822 0.0891 0.2425
v  -0.1185 0.0742 0.2425
v  -0.1139 0.0619 0.2425
v  -0.1139 0.0596 0.2425
v  -0.1147 0.0561 0.2425
v  -0.1170 0.0540 0.2425
v  -0.1208 0.0533 0.2425
v  -0.1331 0.0608 0.2425
v  -0.1404 0.0662 0.2425
v  -0.1460 -0.0204 0.2425
v  -0.1385 -0.0189 0.2425
v  -0.1505 -0.0219 0.2425
v  -0.1279 -0.0173 0.2425
v  -0.1279 -0.0196 0.2425
v  -0.1251 -0.0173 0.2425
v  -0.1176 -0.0209 0.2425
v  -0.1131 -0.0261 0.2425
v  -0.1116 -0.0329 0.2425
v  -0.1160 -0.0400 0.2425
v  -0.1289 -0.0460 0.2425
v  -0.1506 -0.0508 0.2425
v  -0.1848 -0.0308 0.2425
v  -0.2053 -0.0024 0.2425
v  -0.2122 0.0344 0.2425
v  -0.2014 0.0686 0.2425
v  -0.1429 0.0694 0.2425
v  -0.1713 -0.0116 0.2425
v  -0.1838 0.0040 0.2425
v  -0.1880 0.0249 0.2425
v  -0.1850 0.0426 0.2425
v  -0.1762 0.0574 0.2425
v  -0.1615 0.0694 0.2425
# 366 vertices

vn 0.0000 0.0000 0.0010
vn -0.0000 0.0000 -0.0010
vn -0.0001 0.0010 0.0000
vn 0.0005 0.0009 -0.0000
vn 0.0007 0.0007 -0.0000
vn 0.0010 0.0002 -0.0000
vn 0.0009 -0.0004 -0.0000
vn 0.0006 -0.0008 -0.0000
vn 0.0004 -0.0009 -0.0000
vn -0.0009 -0.0004 0.0000
vn -0.0010 -0.0003 0.0000
vn -0.0010 -0.0002 0.0000
vn -0.0006 0.0008 0.0000
vn 0.0002 0.0010 -0.0000
vn 0.0005 0.0008 -0.0000
vn 0.0008 0.0006 -0.0000
vn 0.0010 0.0001 -0.0000
vn 0.0009 -0.0005 -0.0000
vn 0.0005 -0.0009 -0.0000
vn -0.0002 -0.0010 0.0000
vn -0.0006 -0.0008 0.0000
vn -0.0010 0.0000 0.0000
vn -0.0009 0.0004 0.0000
vn -0.0009 0.0005 0.0000
vn 0.0000 0.0010 -0.0000
vn -0.0002 0.0010 0.0000
vn 0.0003 0.0009 -0.0000
vn 0.0008 0.0005 -0.0000
vn -0.0004 0.0009 0.0000
vn -0.0003 0.0009 0.0000
vn 0.0009 0.0005 -0.0000
vn 0.0010 0.0000 -0.0000
vn 0.0008 -0.0006 -0.0000
vn 0.0010 -0.0000 -0.0000
vn 0.0006 0.0008 -0.0000
vn 0.0010 -0.0001 -0.0000
vn -0.0001 -0.0010 0.0000
vn -0.0005 -0.0008 0.0000
vn -0.0007 -0.0007 0.0000
vn 0.0010 -0.0002 -0.0000
vn 0.0001 -0.0010 -0.0000
vn -0.0005 -0.0009 0.0000
vn -0.0008 -0.0006 0.0000
vn -0.0010 -0.0000 0.0000
vn -0.0005 0.0009 0.0000
vn 0.0004 0.0009 -0.0000
vn 0.0007 -0.0007 -0.0000
vn -0.0007 0.0007 0.0000
vn 0.0003 0.0010 -0.0000
vn 0.0008 0.0007 -0.0000
vn 0.0010 0.0003 -0.0000
vn -0.0000 -0.0010 0.0000
vn -0.0007 -0.0008 0.0000
vn -0.0010 -0.0001 0.0000
vn -0.0010 0.0003 0.0000
vn -0.0007 0.0008 0.0000
vn -0.0003 -0.0009 0.0000
vn 0.0010 -0.0003 -0.0000
vn 0.0002 -0.0010 -0.0000
vn -0.0009 -0.0005 0.0000
vn -0.0010 0.0002 0.0000
vn -0.0009 0.0003 0.0000
vn -0.0010 0.0001 0.0000
vn 0.0009 -0.0003 -0.0000
vn -0.0005 0.0008 0.0000
vn 0.0009 0.0003 -0.0000
vn 0.0008 -0.0005 -0.0000
vn 0.0001 0.0010 -0.0000
vn -0.0004 -0.0009 0.0000
vn 0.0003 -0.0009 -0.0000
vn 0.0008 -0.0007 -0.0000
vn 0.0009 0.0004 -0.0000
vn -0.0003 0.0010 0.0000
# 73 vertex normals

vt 0.0000 0.0000 0.0000
# 1 texture coords

o mesh_id42
g mesh_id42
usemtl 49
f 1/1/1 2/1/1 3/1/1 
f 2/1/1 4/1/1 5/1/1 
f 4/1/1 6/1/1 7/1/1 
f 6/1/1 8/1/1 9/1/1 
f 8/1/1 1/1/1 10/1/1 
f 1/1/1 4/1/1 2/1/1 
f 4/1/1 8/1/1 6/1/1 
f 4/1/1 1/1/1 8/1/1 
f 11/1/1 12/1/1 13/1/1 
f 12/1/1 14/1/1 15/1/1 
f 14/1/1 16/1/1 17/1/1 
f 16/1/1 18/1/1 19/1/1 
f 18/1/1 20/1/1 21/1/1 
f 20/1/1 22/1/1 23/1/1 
f 22/1/1 11/1/1 24/1/1 
f 11/1/1 14/1/1 12/1/1 
f 14/1/1 18/1/1 16/1/1 
f 18/1/1 22/1/1 20/1/1 
f 22/1/1 14/1/1 11/1/1 
f 22/1/1 18/1/1 14/1/1 
f 25/1/1 26/1/1 27/1/1 
f 26/1/1 28/1/1 29/1/1 
f 30/1/1 31/1/1 32/1/1 
f 30/1/1 33/1/1 31/1/1 
f 33/1/1 34/1/1 35/1/1 
f 34/1/1 36/1/1 37/1/1 
f 38/1/1 39/1/1 40/1/1 
f 38/1/1 41/1/1 39/1/1 
f 41/1/1 42/1/1 43/1/1 
f 42/1/1 44/1/1 45/1/1 
f 44/1/1 46/1/1 47/1/1 
f 48/1/1 49/1/1 50/1/1 
f 48/1/1 51/1/1 49/1/1 
f 48/1/1 52/1/1 51/1/1 
f 48/1/1 53/1/1 52/1/1 
f 48/1/1 54/1/1 53/1/1 
f 54/1/1 55/1/1 56/1/1 
f 55/1/1 57/1/1 58/1/1 
f 57/1/1 26/1/1 25/1/1 
f 26/1/1 30/1/1 28/1/1 
f 30/1/1 34/1/1 33/1/1 
f 38/1/1 42/1/1 41/1/1 
f 38/1/1 44/1/1 42/1/1 
f 38/1/1 46/1/1 44/1/1 
f 48/1/1 55/1/1 54/1/1 
f 48/1/1 57/1/1 55/1/1 
f 59/1/1 57/1/1 48/1/1 
f 57/1/1 30/1/1 26/1/1 
f 30/1/1 36/1/1 34/1/1 
f 30/1/1 38/1/1 36/1/1 
f 38/1/1 60/1/1 46/1/1 
f 61/1/1 57/1/1 59/1/1 
f 61/1/1 30/1/1 57/1/1 
f 30/1/1 60/1/1 38/1/1 
f 30/1/1 61/1/1 60/1/1 
f 62/1/1 63/1/1 64/1/1 
f 63/1/1 65/1/1 66/1/1 
f 67/1/1 68/1/1 65/1/1 
f 67/1/1 69/1/1 68/1/1 
f 67/1/1 70/1/1 69/1/1 
f 70/1/1 71/1/1 72/1/1 
f 71/1/1 73/1/1 74/1/1 
f 73/1/1 75/1/1 76/1/1 
f 75/1/1 77/1/1 78/1/1 
f 77/1/1 79/1/1 80/1/1 
f 79/1/1 81/1/1 82/1/1 
f 83/1/1 84/1/1 85/1/1 
f 83/1/1 86/1/1 84/1/1 
f 87/1/1 86/1/1 83/1/1 
f 87/1/1 88/1/1 86/1/1 
f 89/1/1 88/1/1 87/1/1 
f 88/1/1 90/1/1 91/1/1 
f 90/1/1 92/1/1 93/1/1 
f 94/1/1 95/1/1 96/1/1 
f 94/1/1 62/1/1 95/1/1 
f 62/1/1 65/1/1 63/1/1 
f 67/1/1 71/1/1 70/1/1 
f 97/1/1 71/1/1 67/1/1 
f 71/1/1 75/1/1 73/1/1 
f 75/1/1 79/1/1 77/1/1 
f 89/1/1 90/1/1 88/1/1 
f 89/1/1 92/1/1 90/1/1 
f 98/1/1 92/1/1 89/1/1 
f 98/1/1 94/1/1 92/1/1 
f 98/1/1 62/1/1 94/1/1 
f 62/1/1 97/1/1 65/1/1 
f 75/1/1 81/1/1 79/1/1 
f 71/1/1 81/1/1 75/1/1 
f 99/1/1 62/1/1 98/1/1 
f 99/1/1 97/1/1 62/1/1 
f 99/1/1 71/1/1 97/1/1 
f 71/1/1 100/1/1 81/1/1 
f 71/1/1 99/1/1 100/1/1 
f 101/1/1 102/1/1 103/1/1 
f 102/1/1 104/1/1 105/1/1 
f 106/1/1 107/1/1 108/1/1 
f 109/1/1 107/1/1 106/1/1 
f 107/1/1 110/1/1 111/1/1 
f 110/1/1 112/1/1 113/1/1 
f 112/1/1 114/1/1 115/1/1 
f 114/1/1 116/1/1 117/1/1 
f 116/1/1 102/1/1 101/1/1 
f 102/1/1 109/1/1 104/1/1 
f 109/1/1 110/1/1 107/1/1 
f 110/1/1 114/1/1 112/1/1 
f 114/1/1 102/1/1 116/1/1 
f 102/1/1 110/1/1 109/1/1 
f 102/1/1 114/1/1 110/1/1 
f 118/1/1 119/1/1 120/1/1 
f 119/1/1 121/1/1 122/1/1 
f 121/1/1 123/1/1 124/1/1 
f 123/1/1 125/1/1 126/1/1 
f 125/1/1 127/1/1 128/1/1 
f 127/1/1 129/1/1 130/1/1 
f 129/1/1 118/1/1 131/1/1 
f 118/1/1 121/1/1 119/1/1 
f 121/1/1 125/1/1 123/1/1 
f 125/1/1 129/1/1 127/1/1 
f 129/1/1 121/1/1 118/1/1 
f 129/1/1 125/1/1 121/1/1 
f 132/1/1 133/1/1 134/1/1 
f 133/1/1 135/1/1 136/1/1 
f 135/1/1 137/1/1 138/1/1 
f 139/1/1 140/1/1 141/1/1 
f 139/1/1 142/1/1 140/1/1 
f 139/1/1 143/1/1 142/1/1 
f 143/1/1 144/1/1 145/1/1 
f 144/1/1 146/1/1 147/1/1 
f 146/1/1 132/1/1 148/1/1 
f 132/1/1 135/1/1 133/1/1 
f 135/1/1 149/1/1 137/1/1 
f 149/1/1 143/1/1 139/1/1 
f 143/1/1 146/1/1 144/1/1 
f 146/1/1 135/1/1 132/1/1 
f 135/1/1 143/1/1 149/1/1 
f 135/1/1 146/1/1 143/1/1 
f 150/1/1 151/1/1 152/1/1 
f 151/1/1 153/1/1 154/1/1 
f 153/1/1 155/1/1 156/1/1 
f 155/1/1 157/1/1 158/1/1 
f 157/1/1 159/1/1 160/1/1 
f 161/1/1 162/1/1 163/1/1 
f 161/1/1 164/1/1 162/1/1 
f 161/1/1 165/1/1 164/1/1 
f 165/1/1 166/1/1 167/1/1 
f 161/1/1 166/1/1 165/1/1 
f 161/1/1 168/1/1 166/1/1 
f 161/1/1 169/1/1 168/1/1 
f 161/1/1 170/1/1 169/1/1 
f 161/1/1 171/1/1 170/1/1 
f 171/1/1 172/1/1 173/1/1 
f 172/1/1 174/1/1 175/1/1 
f 174/1/1 150/1/1 176/1/1 
f 150/1/1 153/1/1 151/1/1 
f 153/1/1 157/1/1 155/1/1 
f 157/1/1 177/1/1 159/1/1 
f 178/1/1 171/1/1 161/1/1 
f 178/1/1 172/1/1 171/1/1 
f 179/1/1 172/1/1 178/1/1 
f 180/1/1 172/1/1 179/1/1 
f 180/1/1 174/1/1 172/1/1 
f 153/1/1 177/1/1 157/1/1 
f 150/1/1 177/1/1 153/1/1 
f 181/1/1 174/1/1 180/1/1 
f 182/1/1 174/1/1 181/1/1 
f 182/1/1 150/1/1 174/1/1 
f 150/1/1 183/1/1 177/1/1 
f 150/1/1 182/1/1 183/1/1 
f 184/1/2 185/1/2 186/1/2 
f 187/1/2 188/1/2 185/1/2 
f 189/1/2 190/1/2 188/1/2 
f 191/1/2 192/1/2 190/1/2 
f 193/1/2 186/1/2 192/1/2 
f 185/1/2 188/1/2 186/1/2 
f 190/1/2 192/1/2 188/1/2 
f 192/1/2 186/1/2 188/1/2 
f 194/1/2 195/1/2 196/1/2 
f 197/1/2 198/1/2 195/1/2 
f 199/1/2 200/1/2 198/1/2 
f 201/1/2 202/1/2 200/1/2 
f 203/1/2 204/1/2 202/1/2 
f 205/1/2 206/1/2 204/1/2 
f 207/1/2 196/1/2 206/1/2 
f 195/1/2 198/1/2 196/1/2 
f 200/1/2 202/1/2 198/1/2 
f 204/1/2 206/1/2 202/1/2 
f 196/1/2 198/1/2 206/1/2 
f 198/1/2 202/1/2 206/1/2 
f 208/1/2 209/1/2 210/1/2 
f 211/1/2 212/1/2 209/1/2 
f 213/1/2 214/1/2 215/1/2 
f 214/1/2 216/1/2 215/1/2 
f 217/1/2 218/1/2 216/1/2 
f 219/1/2 220/1/2 218/1/2 
f 221/1/2 222/1/2 223/1/2 
f 222/1/2 224/1/2 223/1/2 
f 225/1/2 226/1/2 224/1/2 
f 227/1/2 228/1/2 226/1/2 
f 229/1/2 230/1/2 228/1/2 
f 231/1/2 232/1/2 233/1/2 
f 232/1/2 234/1/2 233/1/2 
f 234/1/2 235/1/2 233/1/2 
f 235/1/2 236/1/2 233/1/2 
f 236/1/2 237/1/2 233/1/2 
f 238/1/2 239/1/2 237/1/2 
f 240/1/2 241/1/2 239/1/2 
f 210/1/2 209/1/2 241/1/2 
f 212/1/2 215/1/2 209/1/2 
f 216/1/2 218/1/2 215/1/2 
f 224/1/2 226/1/2 223/1/2 
f 226/1/2 228/1/2 223/1/2 
f 228/1/2 230/1/2 223/1/2 
f 237/1/2 239/1/2 233/1/2 
f 239/1/2 241/1/2 233/1/2 
f 233/1/2 241/1/2 242/1/2 
f 209/1/2 215/1/2 241/1/2 
f 218/1/2 220/1/2 215/1/2 
f 220/1/2 223/1/2 215/1/2 
f 230/1/2 243/1/2 223/1/2 
f 242/1/2 241/1/2 244/1/2 
f 241/1/2 215/1/2 244/1/2 
f 223/1/2 243/1/2 215/1/2 
f 243/1/2 244/1/2 215/1/2 
f 245/1/2 246/1/2 247/1/2 
f 248/1/2 249/1/2 246/1/2 
f 249/1/2 250/1/2 251/1/2 
f 250/1/2 252/1/2 251/1/2 
f 252/1/2 253/1/2 251/1/2 
f 254/1/2 255/1/2 253/1/2 
f 256/1/2 257/1/2 255/1/2 
f 258/1/2 259/1/2 257/1/2 
f 260/1/2 261/1/2 259/1/2 
f 262/1/2 263/1/2 261/1/2 
f 264/1/2 265/1/2 263/1/2 
f 266/1/2 267/1/2 268/1/2 
f 267/1/2 269/1/2 268/1/2 
f 268/1/2 269/1/2 270/1/2 
f 269/1/2 271/1/2 270/1/2 
f 270/1/2 271/1/2 272/1/2 
f 273/1/2 274/1/2 271/1/2 
f 275/1/2 276/1/2 274/1/2 
f 277/1/2 278/1/2 279/1/2 
f 278/1/2 247/1/2 279/1/2 
f 246/1/2 249/1/2 247/1/2 
f 253/1/2 255/1/2 251/1/2 
f 251/1/2 255/1/2 280/1/2 
f 257/1/2 259/1/2 255/1/2 
f 261/1/2 263/1/2 259/1/2 
f 271/1/2 274/1/2 272/1/2 
f 274/1/2 276/1/2 272/1/2 
f 272/1/2 276/1/2 281/1/2 
f 276/1/2 279/1/2 281/1/2 
f 279/1/2 247/1/2 281/1/2 
f 249/1/2 280/1/2 247/1/2 
f 263/1/2 265/1/2 259/1/2 
f 259/1/2 265/1/2 255/1/2 
f 281/1/2 247/1/2 282/1/2 
f 247/1/2 280/1/2 282/1/2 
f 280/1/2 255/1/2 282/1/2 
f 265/1/2 283/1/2 255/1/2 
f 283/1/2 282/1/2 255/1/2 
f 284/1/2 285/1/2 286/1/2 
f 287/1/2 288/1/2 285/1/2 
f 289/1/2 290/1/2 291/1/2 
f 291/1/2 290/1/2 292/1/2 
f 293/1/2 294/1/2 290/1/2 
f 295/1/2 296/1/2 294/1/2 
f 297/1/2 298/1/2 296/1/2 
f 299/1/2 300/1/2 298/1/2 
f 286/1/2 285/1/2 300/1/2 
f 288/1/2 292/1/2 285/1/2 
f 290/1/2 294/1/2 292/1/2 
f 296/1/2 298/1/2 294/1/2 
f 300/1/2 285/1/2 298/1/2 
f 292/1/2 294/1/2 285/1/2 
f 294/1/2 298/1/2 285/1/2 
f 301/1/2 302/1/2 303/1/2 
f 304/1/2 305/1/2 302/1/2 
f 306/1/2 307/1/2 305/1/2 
f 308/1/2 309/1/2 307/1/2 
f 310/1/2 311/1/2 309/1/2 
f 312/1/2 313/1/2 311/1/2 
f 314/1/2 303/1/2 313/1/2 
f 302/1/2 305/1/2 303/1/2 
f 307/1/2 309/1/2 305/1/2 
f 311/1/2 313/1/2 309/1/2 
f 303/1/2 305/1/2 313/1/2 
f 305/1/2 309/1/2 313/1/2 
f 315/1/2 316/1/2 317/1/2 
f 318/1/2 319/1/2 316/1/2 
f 320/1/2 321/1/2 319/1/2 
f 322/1/2 323/1/2 324/1/2 
f 323/1/2 325/1/2 324/1/2 
f 325/1/2 326/1/2 324/1/2 
f 327/1/2 328/1/2 326/1/2 
f 329/1/2 330/1/2 328/1/2 
f 331/1/2 317/1/2 330/1/2 
f 316/1/2 319/1/2 317/1/2 
f 321/1/2 332/1/2 319/1/2 
f 324/1/2 326/1/2 332/1/2 
f 328/1/2 330/1/2 326/1/2 
f 317/1/2 319/1/2 330/1/2 
f 332/1/2 326/1/2 319/1/2 
f 326/1/2 330/1/2 319/1/2 
f 333/1/2 334/1/2 335/1/2 
f 336/1/2 337/1/2 334/1/2 
f 338/1/2 339/1/2 337/1/2 
f 340/1/2 341/1/2 339/1/2 
f 342/1/2 343/1/2 341/1/2 
f 344/1/2 345/1/2 346/1/2 
f 345/1/2 347/1/2 346/1/2 
f 347/1/2 348/1/2 346/1/2 
f 349/1/2 350/1/2 348/1/2 
f 348/1/2 350/1/2 346/1/2 
f 350/1/2 351/1/2 346/1/2 
f 351/1/2 352/1/2 346/1/2 
f 352/1/2 353/1/2 346/1/2 
f 353/1/2 354/1/2 346/1/2 
f 355/1/2 356/1/2 354/1/2 
f 357/1/2 358/1/2 356/1/2 
f 359/1/2 335/1/2 358/1/2 
f 334/1/2 337/1/2 335/1/2 
f 339/1/2 341/1/2 337/1/2 
f 343/1/2 360/1/2 341/1/2 
f 346/1/2 354/1/2 361/1/2 
f 354/1/2 356/1/2 361/1/2 
f 361/1/2 356/1/2 362/1/2 
f 362/1/2 356/1/2 363/1/2 
f 356/1/2 358/1/2 363/1/2 
f 341/1/2 360/1/2 337/1/2 
f 337/1/2 360/1/2 335/1/2 
f 363/1/2 358/1/2 364/1/2 
f 364/1/2 358/1/2 365/1/2 
f 358/1/2 335/1/2 365/1/2 
f 360/1/2 366/1/2 335/1/2 
f 366/1/2 365/1/2 335/1/2 
f 3/1/3 185/1/4 184/1/3 
f 3/1/3 2/1/4 185/1/4 
f 2/1/4 187/1/5 185/1/4 
f 2/1/4 5/1/5 187/1/5 
f 5/1/5 188/1/6 187/1/5 
f 5/1/5 4/1/6 188/1/6 
f 4/1/6 189/1/7 188/1/6 
f 4/1/6 7/1/7 189/1/7 
f 7/1/7 190/1/8 189/1/7 
f 7/1/7 6/1/8 190/1/8 
f 6/1/8 191/1/9 190/1/8 
f 6/1/8 9/1/9 191/1/9 
f 9/1/10 192/1/10 191/1/10 
f 9/1/10 8/1/10 192/1/10 
f 8/1/10 193/1/11 192/1/10 
f 8/1/10 10/1/11 193/1/11 
f 10/1/11 186/1/12 193/1/11 
f 10/1/11 1/1/12 186/1/12 
f 1/1/13 184/1/3 186/1/13 
f 1/1/13 3/1/3 184/1/3 
f 13/1/14 195/1/15 194/1/14 
f 13/1/14 12/1/15 195/1/15 
f 12/1/15 197/1/16 195/1/15 
f 12/1/15 15/1/16 197/1/16 
f 15/1/16 198/1/17 197/1/16 
f 15/1/16 14/1/17 198/1/17 
f 14/1/17 199/1/7 198/1/17 
f 14/1/17 17/1/7 199/1/7 
f 17/1/7 200/1/18 199/1/7 
f 17/1/7 16/1/18 200/1/18 
f 16/1/18 201/1/19 200/1/18 
f 16/1/18 19/1/19 201/1/19 
f 19/1/19 202/1/20 201/1/19 
f 19/1/19 18/1/20 202/1/20 
f 18/1/20 203/1/21 202/1/20 
f 18/1/20 21/1/21 203/1/21 
f 21/1/21 204/1/10 203/1/21 
f 21/1/21 20/1/10 204/1/10 
f 20/1/10 205/1/22 204/1/10 
f 20/1/10 23/1/22 205/1/22 
f 23/1/22 206/1/23 205/1/22 
f 23/1/22 22/1/23 206/1/23 
f 22/1/23 207/1/23 206/1/23 
f 22/1/23 24/1/23 207/1/23 
f 24/1/23 196/1/24 207/1/23 
f 24/1/23 11/1/24 196/1/24 
f 11/1/25 194/1/14 196/1/25 
f 11/1/25 13/1/14 194/1/14 
f 27/1/26 209/1/27 208/1/26 
f 27/1/26 26/1/27 209/1/27 
f 26/1/27 211/1/28 209/1/27 
f 26/1/27 29/1/28 211/1/28 
f 29/1/28 212/1/6 211/1/28 
f 29/1/28 28/1/6 212/1/6 
f 28/1/6 215/1/17 212/1/6 
f 28/1/6 30/1/17 215/1/17 
f 30/1/29 213/1/29 215/1/29 
f 30/1/29 32/1/29 213/1/29 
f 32/1/29 214/1/29 213/1/29 
f 32/1/29 31/1/29 214/1/29 
f 31/1/29 216/1/30 214/1/29 
f 31/1/29 33/1/30 216/1/30 
f 33/1/31 217/1/32 216/1/31 
f 33/1/31 35/1/32 217/1/32 
f 35/1/32 218/1/33 217/1/32 
f 35/1/32 34/1/33 218/1/33 
f 34/1/33 219/1/19 218/1/33 
f 34/1/33 37/1/19 219/1/19 
f 37/1/19 220/1/9 219/1/19 
f 37/1/19 36/1/9 220/1/9 
f 36/1/34 223/1/31 220/1/34 
f 36/1/34 38/1/31 223/1/31 
f 38/1/31 221/1/35 223/1/31 
f 38/1/31 40/1/35 221/1/35 
f 40/1/35 222/1/28 221/1/35 
f 40/1/35 39/1/28 222/1/28 
f 39/1/28 224/1/6 222/1/28 
f 39/1/28 41/1/6 224/1/6 
f 41/1/6 225/1/36 224/1/6 
f 41/1/6 43/1/36 225/1/36 
f 43/1/36 226/1/33 225/1/36 
f 43/1/36 42/1/33 226/1/33 
f 42/1/33 227/1/9 226/1/33 
f 42/1/33 45/1/9 227/1/9 
f 45/1/9 228/1/37 227/1/9 
f 45/1/9 44/1/37 228/1/37 
f 44/1/37 229/1/38 228/1/37 
f 44/1/37 47/1/38 229/1/38 
f 47/1/38 230/1/39 229/1/38 
f 47/1/38 46/1/39 230/1/39 
f 46/1/39 243/1/39 230/1/39 
f 46/1/39 60/1/39 243/1/39 
f 60/1/39 244/1/21 243/1/39 
f 60/1/39 61/1/21 244/1/21 
f 61/1/21 242/1/21 244/1/21 
f 61/1/21 59/1/21 242/1/21 
f 59/1/21 233/1/38 242/1/21 
f 59/1/21 48/1/38 233/1/38 
f 48/1/6 231/1/17 233/1/6 
f 48/1/6 50/1/17 231/1/17 
f 50/1/17 232/1/40 231/1/17 
f 50/1/17 49/1/40 232/1/40 
f 49/1/40 234/1/18 232/1/40 
f 49/1/40 51/1/18 234/1/18 
f 51/1/18 235/1/8 234/1/18 
f 51/1/18 52/1/8 235/1/8 
f 52/1/8 236/1/41 235/1/8 
f 52/1/8 53/1/41 236/1/41 
f 53/1/41 237/1/42 236/1/41 
f 53/1/41 54/1/42 237/1/42 
f 54/1/42 238/1/43 237/1/42 
f 54/1/42 56/1/43 238/1/43 
f 56/1/43 239/1/12 238/1/43 
f 56/1/43 55/1/12 239/1/12 
f 55/1/12 240/1/44 239/1/12 
f 55/1/12 58/1/44 240/1/44 
f 58/1/44 241/1/44 240/1/44 
f 58/1/44 57/1/44 241/1/44 
f 57/1/44 210/1/44 241/1/44 
f 57/1/44 25/1/44 210/1/44 
f 25/1/45 208/1/26 210/1/45 
f 25/1/45 27/1/26 208/1/26 
f 64/1/14 246/1/46 245/1/14 
f 64/1/14 63/1/46 246/1/46 
f 63/1/46 248/1/28 246/1/46 
f 63/1/46 66/1/28 248/1/28 
f 66/1/28 249/1/6 248/1/28 
f 66/1/28 65/1/6 249/1/6 
f 65/1/47 280/1/47 249/1/47 
f 65/1/47 97/1/47 280/1/47 
f 97/1/25 251/1/25 280/1/25 
f 97/1/25 67/1/25 251/1/25 
f 67/1/12 249/1/12 251/1/12 
f 67/1/12 65/1/12 249/1/12 
f 65/1/48 250/1/13 249/1/48 
f 65/1/48 68/1/13 250/1/13 
f 68/1/13 252/1/30 250/1/13 
f 68/1/13 69/1/30 252/1/30 
f 69/1/30 253/1/3 252/1/30 
f 69/1/30 70/1/3 253/1/3 
f 70/1/3 254/1/49 253/1/3 
f 70/1/3 72/1/49 254/1/49 
f 72/1/49 255/1/50 254/1/49 
f 72/1/49 71/1/50 255/1/50 
f 71/1/50 256/1/51 255/1/50 
f 71/1/50 74/1/51 256/1/51 
f 74/1/51 257/1/34 256/1/51 
f 74/1/51 73/1/34 257/1/34 
f 73/1/34 258/1/36 257/1/34 
f 73/1/34 76/1/36 258/1/36 
f 76/1/52 259/1/20 258/1/52 
f 76/1/52 75/1/20 259/1/20 
f 75/1/20 260/1/53 259/1/20 
f 75/1/20 78/1/53 260/1/53 
f 78/1/53 261/1/10 260/1/53 
f 78/1/53 77/1/10 261/1/10 
f 77/1/10 262/1/54 261/1/10 
f 77/1/10 80/1/54 262/1/54 
f 80/1/54 263/1/55 262/1/54 
f 80/1/54 79/1/55 263/1/55 
f 79/1/55 264/1/56 263/1/55 
f 79/1/55 82/1/56 264/1/56 
f 82/1/56 265/1/30 264/1/56 
f 82/1/56 81/1/30 265/1/30 
f 81/1/54 283/1/11 265/1/54 
f 81/1/54 100/1/11 283/1/11 
f 100/1/11 282/1/53 283/1/11 
f 100/1/11 99/1/53 282/1/53 
f 99/1/53 281/1/57 282/1/53 
f 99/1/53 98/1/57 281/1/57 
f 98/1/33 272/1/18 281/1/33 
f 98/1/33 89/1/18 272/1/18 
f 89/1/18 270/1/58 272/1/18 
f 89/1/18 87/1/58 270/1/58 
f 87/1/58 268/1/34 270/1/58 
f 87/1/58 83/1/34 268/1/34 
f 83/1/34 266/1/40 268/1/34 
f 83/1/34 85/1/40 266/1/40 
f 85/1/40 267/1/47 266/1/40 
f 85/1/40 84/1/47 267/1/47 
f 84/1/47 269/1/9 267/1/47 
f 84/1/47 86/1/9 269/1/9 
f 86/1/9 271/1/59 269/1/9 
f 86/1/9 88/1/59 271/1/59 
f 88/1/43 273/1/60 271/1/43 
f 88/1/43 91/1/60 273/1/60 
f 91/1/60 274/1/11 273/1/60 
f 91/1/60 90/1/11 274/1/11 
f 90/1/11 275/1/54 274/1/11 
f 90/1/11 93/1/54 275/1/54 
f 93/1/54 276/1/44 275/1/54 
f 93/1/54 92/1/44 276/1/44 
f 92/1/44 279/1/44 276/1/44 
f 92/1/44 94/1/44 279/1/44 
f 94/1/44 277/1/61 279/1/44 
f 94/1/44 96/1/61 277/1/61 
f 96/1/61 278/1/62 277/1/61 
f 96/1/61 95/1/62 278/1/62 
f 95/1/62 247/1/61 278/1/62 
f 95/1/62 62/1/61 247/1/61 
f 62/1/61 245/1/63 247/1/61 
f 62/1/61 64/1/63 245/1/63 
f 103/1/5 285/1/31 284/1/5 
f 103/1/5 102/1/31 285/1/31 
f 102/1/31 287/1/17 285/1/31 
f 102/1/31 105/1/17 287/1/17 
f 105/1/17 288/1/40 287/1/17 
f 105/1/17 104/1/40 288/1/40 
f 104/1/40 292/1/64 288/1/40 
f 104/1/40 109/1/64 292/1/64 
f 109/1/64 291/1/40 292/1/64 
f 109/1/64 106/1/40 291/1/40 
f 106/1/40 289/1/36 291/1/40 
f 106/1/40 108/1/36 289/1/36 
f 108/1/52 290/1/37 289/1/52 
f 108/1/52 107/1/37 290/1/37 
f 107/1/37 293/1/21 290/1/37 
f 107/1/37 111/1/21 293/1/21 
f 111/1/21 294/1/10 293/1/21 
f 111/1/21 110/1/10 294/1/10 
f 110/1/10 295/1/54 294/1/10 
f 110/1/10 113/1/54 295/1/54 
f 113/1/54 296/1/54 295/1/54 
f 113/1/54 112/1/54 296/1/54 
f 112/1/54 297/1/44 296/1/54 
f 112/1/54 115/1/44 297/1/44 
f 115/1/44 298/1/44 297/1/44 
f 115/1/44 114/1/44 298/1/44 
f 114/1/44 299/1/61 298/1/44 
f 114/1/44 117/1/61 299/1/61 
f 117/1/61 300/1/24 299/1/61 
f 117/1/61 116/1/24 300/1/24 
f 116/1/24 286/1/13 300/1/24 
f 116/1/24 101/1/13 286/1/13 
f 101/1/13 284/1/65 286/1/13 
f 101/1/13 103/1/65 284/1/65 
f 120/1/15 302/1/5 301/1/15 
f 120/1/15 119/1/5 302/1/5 
f 119/1/5 304/1/66 302/1/5 
f 119/1/5 122/1/66 304/1/66 
f 122/1/66 305/1/34 304/1/66 
f 122/1/66 121/1/34 305/1/34 
f 121/1/34 306/1/18 305/1/34 
f 121/1/34 124/1/18 306/1/18 
f 124/1/18 307/1/19 306/1/18 
f 124/1/18 123/1/19 307/1/19 
f 123/1/19 308/1/41 307/1/19 
f 123/1/19 126/1/41 308/1/41 
f 126/1/41 309/1/37 308/1/41 
f 126/1/41 125/1/37 309/1/37 
f 125/1/37 310/1/42 309/1/37 
f 125/1/37 128/1/42 310/1/42 
f 128/1/42 311/1/60 310/1/42 
f 128/1/42 127/1/60 311/1/60 
f 127/1/60 312/1/54 311/1/60 
f 127/1/60 130/1/54 312/1/54 
f 130/1/54 313/1/61 312/1/54 
f 130/1/54 129/1/61 313/1/61 
f 129/1/61 314/1/24 313/1/61 
f 129/1/61 131/1/24 314/1/24 
f 131/1/24 303/1/13 314/1/24 
f 131/1/24 118/1/13 303/1/13 
f 118/1/13 301/1/45 303/1/13 
f 118/1/13 120/1/45 301/1/45 
f 134/1/25 316/1/14 315/1/25 
f 134/1/25 133/1/14 316/1/14 
f 133/1/14 318/1/35 316/1/14 
f 133/1/14 136/1/35 318/1/35 
f 136/1/35 319/1/28 318/1/35 
f 136/1/35 135/1/28 319/1/28 
f 135/1/28 320/1/6 319/1/28 
f 135/1/28 138/1/6 320/1/6 
f 138/1/6 321/1/34 320/1/6 
f 138/1/6 137/1/34 321/1/34 
f 137/1/34 332/1/34 321/1/34 
f 137/1/34 149/1/34 332/1/34 
f 149/1/34 324/1/17 332/1/34 
f 149/1/34 139/1/17 324/1/17 
f 139/1/17 322/1/36 324/1/17 
f 139/1/17 141/1/36 322/1/36 
f 141/1/36 323/1/67 322/1/36 
f 141/1/36 140/1/67 323/1/67 
f 140/1/67 325/1/8 323/1/67 
f 140/1/67 142/1/8 325/1/8 
f 142/1/8 326/1/59 325/1/8 
f 142/1/8 143/1/59 326/1/59 
f 143/1/59 327/1/20 326/1/59 
f 143/1/59 145/1/20 327/1/20 
f 145/1/20 328/1/39 327/1/20 
f 145/1/20 144/1/39 328/1/39 
f 144/1/39 329/1/11 328/1/39 
f 144/1/39 147/1/11 329/1/11 
f 147/1/11 330/1/44 329/1/11 
f 147/1/11 146/1/44 330/1/44 
f 146/1/44 331/1/63 330/1/44 
f 146/1/44 148/1/63 331/1/63 
f 148/1/63 317/1/55 331/1/63 
f 148/1/63 132/1/55 317/1/55 
f 132/1/55 315/1/23 317/1/55 
f 132/1/55 134/1/23 315/1/23 
f 152/1/68 334/1/15 333/1/68 
f 152/1/68 151/1/15 334/1/15 
f 151/1/15 336/1/16 334/1/15 
f 151/1/15 154/1/16 336/1/16 
f 154/1/16 337/1/6 336/1/16 
f 154/1/16 153/1/6 337/1/6 
f 153/1/6 338/1/36 337/1/6 
f 153/1/6 156/1/36 338/1/36 
f 156/1/36 339/1/18 338/1/36 
f 156/1/36 155/1/18 339/1/18 
f 155/1/18 340/1/9 339/1/18 
f 155/1/18 158/1/9 340/1/9 
f 158/1/9 341/1/20 340/1/9 
f 158/1/9 157/1/20 341/1/20 
f 157/1/20 342/1/21 341/1/20 
f 157/1/20 160/1/21 342/1/21 
f 160/1/21 343/1/39 342/1/21 
f 160/1/21 159/1/39 343/1/39 
f 159/1/39 360/1/69 343/1/39 
f 159/1/39 177/1/69 360/1/69 
f 177/1/69 366/1/70 360/1/69 
f 177/1/69 183/1/70 366/1/70 
f 183/1/70 365/1/71 366/1/70 
f 183/1/70 182/1/71 365/1/71 
f 182/1/71 364/1/64 365/1/71 
f 182/1/71 181/1/64 364/1/64 
f 181/1/64 363/1/32 364/1/64 
f 181/1/64 180/1/32 363/1/32 
f 180/1/32 362/1/72 363/1/32 
f 180/1/32 179/1/72 362/1/72 
f 179/1/72 361/1/35 362/1/72 
f 179/1/72 178/1/35 361/1/35 
f 178/1/35 346/1/68 361/1/35 
f 178/1/35 161/1/68 346/1/68 
f 161/1/68 344/1/73 346/1/68 
f 161/1/68 163/1/73 344/1/73 
f 163/1/73 345/1/26 344/1/73 
f 163/1/73 162/1/26 345/1/26 
f 162/1/26 347/1/3 345/1/26 
f 162/1/26 164/1/3 347/1/3 
f 164/1/34 348/1/34 347/1/34 
f 164/1/34 165/1/34 348/1/34 
f 165/1/13 349/1/13 348/1/13 
f 165/1/13 167/1/13 349/1/13 
f 167/1/46 350/1/35 349/1/46 
f 167/1/46 166/1/35 350/1/35 
f 166/1/35 351/1/31 350/1/35 
f 166/1/35 168/1/31 351/1/31 
f 168/1/31 352/1/40 351/1/31 
f 168/1/31 169/1/40 352/1/40 
f 169/1/40 353/1/47 352/1/40 
f 169/1/40 170/1/47 353/1/47 
f 170/1/47 354/1/70 353/1/47 
f 170/1/47 171/1/70 354/1/70 
f 171/1/70 355/1/20 354/1/70 
f 171/1/70 173/1/20 355/1/20 
f 173/1/20 356/1/39 355/1/20 
f 173/1/20 172/1/39 356/1/39 
f 172/1/39 357/1/10 356/1/39 
f 172/1/39 175/1/10 357/1/10 
f 175/1/10 358/1/63 357/1/10 
f 175/1/10 174/1/63 358/1/63 
f 174/1/63 359/1/24 358/1/63 
f 174/1/63 176/1/24 359/1/24 
f 176/1/24 335/1/45 359/1/24 
f 176/1/24 150/1/45 335/1/45 
f 150/1/45 333/1/68 335/1/45 
f 150/1/45 152/1/68 333/1/68 
# 704 faces

