# 3ds Max Wavefront OBJ Exporter v0.99 - (c)2007 guruware
# File Created: 07.12.2023 19:53:10

mtllib crystal8.mtl

#
# object Object001
#

v  -0.0931 0.4542 0.2729
v  0.5000 0.0000 0.5000
v  0.1934 0.6131 0.1934
v  0.5000 0.0000 -0.0478
v  -0.5000 0.0000 0.5000
# 5 vertices

vn 0.0000 0.4472 0.8944
vn 0.8944 0.4472 -0.0000
vn 0.0000 -1.0000 -0.0000
vn -0.4804 -0.0082 -0.8770
vn -0.3554 0.1829 -0.9166
# 5 vertex normals

vt 0.4069 0.4542 0.0000
vt 1.0000 0.0000 0.0000
vt 0.6934 0.6131 0.0000
vt 0.3066 0.6131 0.0000
vt 0.0000 0.0000 0.0000
vt 0.5478 0.0000 0.0000
vt 1.0000 0.4522 0.0000
vt 1.0000 1.0000 0.0000
vt 0.6461 0.6461 0.0000
# 9 texture coords

o Object001
g Object001
usemtl wire_228153184
s 4
f 1/1/1 2/2/1 3/3/1 
s 2
f 3/4/2 2/5/2 4/6/2 
s 8
f 4/7/3 2/8/3 5/9/3 
s off
f 1/1/4 4/6/4 5/9/4 
f 1/1/5 3/3/5 4/6/5 
s 4
f 1/1/1 5/5/1 2/2/1 
# 6 faces

