# 3ds Max Wavefront OBJ Exporter v0.99 - (c)2007 guruware
# File Created: 07.12.2023 19:50:56

mtllib crystal2.mtl

#
# object Object004
#

v  -0.2237 0.5527 0.2237
v  -0.1106 0.7787 -0.1106
v  -0.5000 0.0000 -0.0007
v  -0.0931 0.4542 0.2729
v  -0.0683 0.0000 -0.0210
# 5 vertices

vn -0.8944 0.4472 -0.0000
vn -0.4402 -0.1400 0.8869
vn 0.3232 0.7297 0.6026
vn 0.0395 -0.5413 0.8399
vn -0.0467 -0.1167 -0.9921
vn 0.9985 0.0543 0.0004
# 6 vertex normals

vt 0.7237 0.5527 0.0000
vt 0.3894 0.7787 0.0000
vt 0.4993 0.0000 0.0000
vt 0.4069 0.4542 0.0000
vt 0.2763 0.5527 0.0000
vt 0.6106 0.7787 0.0000
vt 0.7155 0.1952 0.0000
# 7 texture coords

o Object004
g Object004
usemtl wire_228153184
s 32
f 1/1/1 2/2/1 3/3/1 
s off
f 4/4/2 1/5/2 3/3/2 
f 2/6/3 1/1/3 4/4/3 
f 4/4/4 3/3/4 5/7/4 
f 5/7/5 3/3/5 2/2/5 
f 2/2/6 4/4/6 5/7/6 
# 6 faces

