# 3ds Max Wavefront OBJ Exporter v0.99 - (c)2007 guruware
# File Created: 07.12.2023 05:34:25

mtllib crystal3.mtl

#
# object Object003
#

v  -0.0931 0.4542 0.2729
v  0.1934 0.6131 0.1934
v  0.0000 1.0000 -0.0000
v  -0.2237 0.5527 0.2237
v  -0.1106 0.7787 -0.1106
v  0.1467 0.7066 -0.1467
# 6 vertices

vn 0.0000 0.4472 0.8944
vn -0.8944 0.4472 -0.0000
vn 0.0000 0.4472 -0.8944
vn 0.8944 0.4472 -0.0000
vn -0.3232 -0.7297 -0.6026
vn 0.3999 -0.8683 -0.2936
vn -0.2920 -0.7367 -0.6100
# 7 vertex normals

vt 0.4069 0.4542 0.0000
vt 0.6934 0.6131 0.0000
vt 0.5000 1.0000 0.0000
vt 0.7237 0.5527 0.0000
vt 0.3894 0.7787 0.0000
vt 0.6106 0.7787 0.0000
vt 0.3533 0.7066 0.0000
vt 0.6467 0.7066 0.0000
vt 0.3066 0.6131 0.0000
vt 0.2763 0.5527 0.0000
# 10 texture coords

o Object003
g Object003
usemtl wire_228153184
s 4
f 1/1/1 2/2/1 3/3/1 
s 32
f 4/4/2 3/3/2 5/5/2 
s 16
f 5/6/3 3/3/3 6/7/3 
s 2
f 6/8/4 3/3/4 2/9/4 
s off
f 1/1/5 4/10/5 5/5/5 
f 1/1/6 6/7/6 2/9/6 
f 5/5/7 6/7/7 1/1/7 
s 4
f 3/3/1 4/10/1 1/1/1 
# 8 faces

