# 3ds Max Wavefront OBJ Exporter v0.99 - (c)2007 guruware
# File Created: 07.12.2023 19:52:49

mtllib crystal6.mtl

#
# object Object005
#

v  -0.0258 0.0000 -0.5000
v  -0.5000 0.0000 -0.5000
v  -0.1106 0.7787 -0.1106
v  -0.5000 0.0000 -0.0007
v  -0.0683 0.0000 -0.0210
# 5 vertices

vn 0.0000 0.4472 -0.8944
vn 0.0000 -1.0000 -0.0000
vn -0.8944 0.4472 -0.0000
vn 0.0467 0.1167 0.9921
vn 0.9940 0.0642 0.0882
# 5 vertex normals

vt 0.5258 0.0000 0.0000
vt 1.0000 0.0000 0.0000
vt 0.6106 0.7787 0.0000
vt 0.5729 0.5729 0.0000
vt 0.7371 0.2629 0.0000
vt 0.7573 0.5208 0.0000
vt 0.3894 0.7787 0.0000
vt 0.0000 0.0000 0.0000
vt 0.4993 0.0000 0.0000
vt 0.5000 0.5000 0.0000
# 10 texture coords

o Object005
g Object005
usemtl wire_228153184
s 16
f 1/1/1 2/2/1 3/3/1 
s 8
f 4/4/2 1/5/2 5/6/2 
s 32
f 3/7/3 2/8/3 4/9/3 
s off
f 3/3/4 4/9/4 5/6/4 
f 5/6/5 1/5/5 3/3/5 
s 8
f 4/4/2 2/10/2 1/5/2 
# 6 faces

