# 3ds Max Wavefront OBJ Exporter v0.99 - (c)2007 guruware
# File Created: 07.12.2023 05:35:29

mtllib crystal7.mtl

#
# object Object007
#

v  0.1934 0.6131 0.1934
v  -0.0931 0.4542 0.2729
v  0.1428 0.2735 0.1453
v  -0.0683 0.0000 -0.0210
v  0.1467 0.7066 -0.1467
v  -0.1106 0.7787 -0.1106
# 6 vertices

vn 0.3554 -0.1829 0.9166
vn 0.0395 -0.5413 0.8399
vn 0.2915 0.9319 0.2161
vn -0.2328 0.7372 0.6343
vn -0.9985 -0.0543 -0.0004
vn -0.1712 -0.1218 -0.9777
vn 0.9782 -0.1220 -0.1680
vn 0.8105 -0.3324 -0.4823
# 8 vertex normals

vt 0.3066 0.6131 0.0000
vt 0.4069 0.4542 0.0000
vt 0.6428 0.4534 0.0000
vt 0.7155 0.1952 0.0000
vt 0.6467 0.7066 0.0000
vt 0.6106 0.7787 0.0000
vt 0.7573 0.5208 0.0000
# 7 texture coords

o Object007
g Object007
usemtl wire_228153184
s off
f 1/1/1 2/2/1 3/3/1 
f 2/2/2 4/4/2 3/3/2 
f 1/1/3 5/5/3 6/6/3 
f 6/6/4 2/2/4 1/1/4 
f 6/6/5 4/7/5 2/2/5 
f 4/7/6 6/6/6 5/5/6 
f 1/1/7 3/3/7 5/5/7 
f 3/3/8 4/4/8 5/5/8 
# 8 faces

