# 3ds Max Wavefront OBJ Exporter v0.99 - (c)2007 guruware
# File Created: 18.12.2023 01:02:18

mtllib GameOver.mtl

#
# object obj_29167432
#

v  248.2635 44.5830 -0.0000
v  255.6046 54.3790 -0.0000
v  249.6415 54.3790 -0.0000
v  258.7186 50.3890 -0.0000
v  256.8956 53.3810 -0.0000
v  261.0756 45.4010 -0.0000
v  264.8506 47.9730 -0.0000
v  262.0186 46.6980 -0.0000
v  269.5696 49.2270 -0.0000
v  295.5596 43.6600 -0.0000
v  285.8135 47.3820 -0.0000
v  298.8086 35.8630 -0.0000
v  298.8086 38.0600 -0.0000
v  296.2496 34.1590 -0.0000
v  289.8876 32.1690 -0.0000
v  294.5035 32.0290 -0.0000
v  297.6846 35.4370 -0.0000
v  272.4996 33.2910 -0.0000
v  282.5526 32.5900 -0.0000
v  263.5536 7.8560 -0.0000
v  263.2006 0.9900 -0.0000
v  264.2546 3.4940 -0.0000
v  263.1326 11.7100 -0.0000
v  262.9926 15.0560 -0.0000
v  260.7906 -1.0160 -0.0000
v  257.0245 -2.5240 -0.0000
v  250.6805 11.3770 -0.0000
v  253.1796 0.9500 -0.0000
v  250.8356 28.7560 -0.0000
v  249.5266 28.7560 -0.0000
v  248.5496 38.5710 -0.0000
v  249.4066 33.2950 -0.0000
v  262.9926 20.1520 -0.0000
v  264.0486 24.9910 -0.0000
v  267.2176 29.3710 -0.0000
v  207.4445 59.4750 -0.0000
v  202.0206 42.3230 -0.0000
v  211.6526 59.4750 -0.0000
v  214.9956 38.9960 -0.0000
v  221.4886 41.2810 -0.0000
v  218.7686 40.4240 -0.0000
v  223.1546 41.5670 -0.0000
v  203.0656 43.4680 -0.0000
v  206.2016 44.7280 -0.0000
v  211.4286 46.1030 -0.0000
v  217.9436 45.5990 -0.0000
v  223.0266 56.8140 -0.0000
v  235.3116 36.5560 -0.0000
v  230.9126 49.1740 -0.0000
v  224.0546 27.9600 -0.0000
v  229.9306 31.1830 -0.0000
v  208.9256 27.5970 -0.0000
v  217.6836 26.8850 -0.0000
v  196.9476 33.1860 -0.0000
v  201.9636 29.7320 -0.0000
v  196.7946 33.2910 -0.0000
v  198.6826 25.7190 -0.0000
v  225.2856 16.3860 -0.0000
v  241.7176 11.3860 -0.0000
v  237.3936 18.5160 -0.0000
v  217.0726 15.1070 -0.0000
v  212.7546 14.6810 -0.0000
v  240.3526 7.7630 -0.0000
v  236.2586 4.4040 -0.0000
v  220.2556 1.3090 -0.0000
v  229.4346 1.3090 -0.0000
v  189.8316 16.5000 -0.0000
v  201.2406 5.1060 -0.0000
v  186.0286 38.1630 -0.0000
v  186.0286 35.4890 -0.0000
v  197.4496 57.1070 -0.0000
v  190.3116 50.0030 -0.0000
v  221.8516 44.0870 -0.0000
v  196.9236 33.2910 -0.0000
v  203.9596 19.5160 -0.0000
v  208.7996 40.0470 -0.0000
v  204.4746 41.1570 -0.0000
v  130.2006 49.7230 -0.0000
v  137.7026 55.6410 -0.0000
v  131.6536 55.6410 -0.0000
v  146.1126 42.6260 -0.0000
v  140.8466 52.0080 -0.0000
v  157.2446 35.2520 -0.0000
v  165.5296 50.8900 -0.0000
v  161.0396 44.9510 -0.0000
v  154.7306 29.4330 -0.0000
v  168.7776 54.4530 -0.0000
v  173.3576 55.6410 -0.0000
v  170.7856 55.6410 -0.0000
v  177.2186 53.0420 -0.0000
v  175.1776 54.9910 -0.0000
v  179.4826 44.1510 -0.0000
v  179.4826 49.7930 -0.0000
v  162.8376 13.4190 -0.0000
v  163.9596 12.3100 -0.0000
v  163.5386 13.1420 -0.0000
v  164.0996 10.9230 -0.0000
v  161.1816 7.0110 -0.0000
v  158.2986 4.6630 -0.0000
v  152.3266 6.0620 -0.0000
v  155.4496 3.8800 -0.0000
v  143.1226 23.5180 -0.0000
v  148.2176 12.6080 -0.0000
v  131.6366 43.5070 -0.0000
v  135.9436 34.7720 -0.0000
v  153.4986 27.4930 -0.0000
v  171.1076 32.6680 -0.0000
v  165.5586 22.4240 -0.0000
v  84.2836 78.6930 -0.0000
v  101.7276 58.0030 -0.0000
v  110.0016 48.5780 -0.0000
v  87.9366 65.3200 -0.0000
v  111.4976 31.6550 -0.0000
v  112.0586 35.4470 -0.0000
v  111.6376 33.6510 -0.0000
v  112.7596 37.0430 -0.0000
v  86.8086 78.6930 -0.0000
v  95.6156 76.3650 -0.0000
v  106.1416 69.3820 -0.0000
v  118.3876 57.7420 -0.0000
v  121.3136 48.4280 -0.0000
v  109.0376 22.8210 -0.0000
v  123.0686 41.8670 -0.0000
v  123.6546 31.6550 -0.0000
v  123.6546 38.0600 -0.0000
v  105.4966 2.3950 -0.0000
v  119.1146 13.3670 -0.0000
v  73.3476 2.5710 -0.0000
v  82.7996 -1.2620 -0.0000
v  61.7505 11.9030 -0.0000
v  66.3316 6.9600 -0.0000
v  52.4786 28.6510 -0.0000
v  55.9556 19.9320 -0.0000
v  51.3195 50.8720 -0.0000
v  51.3195 38.0600 -0.0000
v  55.3096 61.2460 -0.0000
v  52.3176 56.0500 -0.0000
v  60.2976 66.4600 -0.0000
v  66.0996 74.3640 -0.0000
v  58.9876 68.9530 -0.0000
v  74.5316 77.6110 -0.0000
v  101.6586 16.7420 -0.0000
v  89.3606 13.4190 -0.0000
v  82.9746 13.4190 -0.0000
v  73.7886 16.1620 -0.0000
v  85.7456 65.3200 -0.0000
v  66.8676 24.3910 -0.0000
v  62.2146 38.1070 -0.0000
v  64.8286 49.9070 -0.0000
v  72.6726 58.9780 -0.0000
v  -24.7084 59.4750 -0.0000
v  -30.1324 42.3230 -0.0000
v  -20.5004 59.4750 -0.0000
v  -17.1574 38.9960 -0.0000
v  -10.6634 41.2810 -0.0000
v  -13.3834 40.4240 -0.0000
v  -8.9974 41.5670 -0.0000
v  -29.0874 43.4680 -0.0000
v  -25.9504 44.7280 -0.0000
v  -20.7234 46.1030 -0.0000
v  -14.2094 45.5990 -0.0000
v  -9.1264 56.8140 -0.0000
v  3.1596 36.5560 -0.0000
v  -1.2394 49.1740 -0.0000
v  -8.0974 27.9600 -0.0000
v  -2.2214 31.1830 -0.0000
v  -23.2264 27.5970 -0.0000
v  -14.4684 26.8850 -0.0000
v  -35.2044 33.1860 -0.0000
v  -30.1894 29.7320 -0.0000
v  -35.3574 33.2910 -0.0000
v  -33.4704 25.7190 -0.0000
v  -6.8674 16.3860 -0.0000
v  9.5646 11.3860 -0.0000
v  5.2406 18.5160 -0.0000
v  -15.0804 15.1070 -0.0000
v  -19.3974 14.6810 -0.0000
v  8.2006 7.7630 -0.0000
v  4.1056 4.4040 -0.0000
v  -11.8964 1.3090 -0.0000
v  -2.7174 1.3090 -0.0000
v  -42.3204 16.5000 -0.0000
v  -30.9114 5.1060 -0.0000
v  -46.1234 38.1630 -0.0000
v  -46.1234 35.4890 -0.0000
v  -34.7024 57.1070 -0.0000
v  -41.8414 50.0030 -0.0000
v  -10.3004 44.0870 -0.0000
v  -35.2294 33.2910 -0.0000
v  -28.1924 19.5160 -0.0000
v  -23.3524 40.0470 -0.0000
v  -27.6784 41.1570 -0.0000
v  -117.4294 50.3970 -0.0000
v  -113.5604 51.8070 -0.0000
v  -117.2884 51.8070 -0.0000
v  -108.0584 46.7250 -0.0000
v  -110.4464 49.6240 -0.0000
v  -107.0954 41.6330 -0.0000
v  -106.3944 43.1120 -0.0000
v  -107.6564 40.2580 -0.0000
v  -101.5904 44.8300 -0.0000
v  -104.1704 43.1150 -0.0000
v  -99.9164 45.4010 -0.0000
v  -94.1564 44.1790 -0.0000
v  -83.2554 36.4240 -0.0000
v  -88.6024 41.1870 -0.0000
v  -76.2194 43.2820 -0.0000
v  -80.1184 40.7100 -0.0000
v  -68.6324 44.1390 -0.0000
v  -71.5594 44.1390 -0.0000
v  -54.4434 22.8490 -0.0000
v  -59.7644 34.2580 -0.0000
v  -52.6694 3.5060 -0.0000
v  -52.6694 9.9120 -0.0000
v  -54.2284 0.3890 -0.0000
v  -53.0594 1.5580 -0.0000
v  -60.0574 0.0000 -0.0000
v  -56.1764 0.0000 -0.0000
v  -63.2434 2.0330 -0.0000
v  -61.6534 0.5080 -0.0000
v  -64.8264 12.4840 -0.0000
v  -64.8264 4.5740 -0.0000
v  -78.5504 13.9670 -0.0000
v  -84.0704 -1.2620 -0.0000
v  -80.8974 0.3230 -0.0000
v  -75.7704 23.2580 -0.0000
v  -87.6884 0.2230 -0.0000
v  -90.2204 4.6800 -0.0000
v  -90.4034 12.1100 -0.0000
v  -91.6654 12.1100 -0.0000
v  -91.6654 27.8200 -0.0000
v  -91.6654 13.5010 -0.0000
v  -105.1314 7.4890 -0.0000
v  -103.9684 4.1050 -0.0000
v  -104.4044 5.9220 -0.0000
v  -103.8224 2.0380 -0.0000
v  -104.5504 0.4290 -0.0000
v  -104.9864 -1.0910 -0.0000
v  -105.1314 -2.5240 -0.0000
v  -112.5194 -2.5240 -0.0000
v  -102.4184 18.5950 -0.0000
v  -116.4204 0.0840 -0.0000
v  -114.8324 -1.8720 -0.0000
v  -118.5514 47.2750 -0.0000
v  -117.2854 3.3450 -0.0000
v  -117.8504 48.8860 -0.0000
v  -107.5164 40.6820 -0.0000
v  -65.6854 20.5140 -0.0000
v  -72.5574 28.1940 -0.0000
v  -100.0374 26.3380 -0.0000
v  -97.9914 30.7190 -0.0000
v  -92.3684 28.9260 -0.0000
v  -94.4774 29.8920 -0.0000
v  -68.2624 25.7510 -0.0000
v  -156.4694 58.2130 -0.0000
v  -157.4234 34.9990 -0.0000
v  -156.4724 32.8880 -0.0000
v  -158.2544 38.9840 -0.0000
v  -168.6294 23.6590 -0.0000
v  -166.9874 23.0720 -0.0000
v  -168.0194 23.5120 -0.0000
v  -165.5324 22.3390 -0.0000
v  -152.9124 54.4250 -0.0000
v  -149.7304 48.6930 -0.0000
v  -146.9234 41.0180 -0.0000
v  -160.3764 27.0430 -0.0000
v  -163.3974 23.5270 -0.0000
v  -125.0974 12.6780 -0.0000
v  -126.4764 15.4380 -0.0000
v  -125.0974 8.6030 -0.0000
v  -125.4924 6.6810 -0.0000
v  -128.6514 5.1430 -0.0000
v  -126.6764 5.5270 -0.0000
v  -134.7244 6.6060 -0.0000
v  -129.9134 5.1430 -0.0000
v  -143.4954 18.3150 -0.0000
v  -139.2514 10.9970 -0.0000
v  -148.4724 24.3140 -0.0000
v  -156.0844 10.6810 -0.0000
v  -151.1734 15.7930 -0.0000
v  -163.2054 8.9770 -0.0000
v  -175.9304 13.8170 -0.0000
v  -169.8614 8.9770 -0.0000
v  -180.7864 30.3920 -0.0000
v  -179.5724 20.9560 -0.0000
v  -176.2174 47.0560 -0.0000
v  -180.7864 33.1100 -0.0000
v  -168.1114 55.4240 -0.0000
v  -158.9644 44.8400 -0.0000
v  -159.0564 44.8400 -0.0000
v  -168.6294 31.6550 -0.0000
v  -164.3744 40.5770 -0.0000
v  -167.5654 36.1820 -0.0000
v  -229.8434 -1.2040 -0.0000
v  -229.6014 -1.2620 -0.0000
v  -229.6104 -1.1670 -0.0000
v  -230.2094 -1.1160 -0.0000
v  -230.2094 -1.2620 -0.0000
v  -233.1764 73.5960 -0.0000
v  -221.7894 72.8000 -0.0000
v  -228.0114 73.5960 -0.0000
v  -214.2174 66.4310 -0.0000
v  -217.1914 70.4120 -0.0000
v  -216.2784 62.9690 -0.0000
v  -214.2174 64.9460 -0.0000
v  -232.7634 58.9460 -0.0000
v  -222.4604 60.9680 -0.0000
v  -231.9134 13.4190 -0.0000
v  -220.8064 15.6630 -0.0000
v  -225.2094 14.8220 -0.0000
v  -218.7064 15.9440 -0.0000
v  -222.9554 23.0510 -0.0000
v  -232.8114 28.5260 -0.0000
v  -229.1154 24.7570 -0.0000
v  -220.5954 22.2610 -0.0000
v  -234.0434 34.3580 -0.0000
v  -233.4404 36.2330 -0.0000
v  -232.2874 37.3580 -0.0000
v  -230.5834 37.7330 -0.0000
v  -227.8274 37.5880 -0.0000
v  -224.8134 37.1510 -0.0000
v  -221.5424 36.4230 -0.0000
v  -203.8404 37.5880 -0.0000
v  -212.3604 37.1510 -0.0000
v  -195.9824 37.7330 -0.0000
v  -190.5394 37.2240 -0.0000
v  -192.1484 37.7330 -0.0000
v  -187.3324 33.1530 -0.0000
v  -188.9344 35.6970 -0.0000
v  -188.2924 26.0020 -0.0000
v  -187.3324 27.8200 -0.0000
v  -195.9754 23.0510 -0.0000
v  -191.1734 24.4120 -0.0000
v  -207.2514 16.8310 -0.0000
v  -206.6894 11.2330 -0.0000
v  -206.5494 12.4760 -0.0000
v  -207.6714 20.6680 -0.0000
v  -207.1104 10.4880 -0.0000
v  -207.8124 10.2390 -0.0000
v  -206.5494 -3.9480 -0.0000
v  -206.5494 4.7870 -0.0000
v  -206.6824 -7.8130 -0.0000
v  -205.2404 -7.6680 -0.0000
v  -208.2204 -8.2500 -0.0000
v  -214.0454 -7.6940 -0.0000
v  -209.8554 -8.9770 -0.0000
v  -217.3974 2.5710 -0.0000
v  -216.5594 -3.8440 -0.0000
v  -227.5214 -0.8360 -0.0000
v  -223.2504 0.4410 -0.0000
v  -229.6684 -0.5610 -0.0000
v  -230.2094 0.0000 -0.0000
v  -244.1934 2.2380 -0.0000
v  -254.2154 12.7410 -0.0000
v  -259.6664 30.2470 -0.0000
v  -256.7234 53.0240 -0.0000
v  -259.6664 32.9640 -0.0000
v  -247.8934 66.5680 -0.0000
v  -219.1784 19.8920 -0.0000
v  -203.8584 24.3140 -0.0000
v  -207.8124 24.3140 -0.0000
v  -207.8124 23.9860 -0.0000
v  -229.8714 -0.1400 -0.0000
v  -240.9554 51.8470 -0.0000
v  -239.6104 15.4420 -0.0000
v  -244.8094 21.5120 -0.0000
v  -245.8714 42.7410 -0.0000
v  -247.5094 31.6280 -0.0000
v  249.6415 54.3790 -15.0000
v  255.6046 54.3790 -15.0000
v  248.2635 44.5830 -15.0000
v  256.8956 53.3810 -15.0000
v  258.7186 50.3890 -15.0000
v  262.0186 46.6980 -15.0000
v  264.8506 47.9730 -15.0000
v  261.0756 45.4010 -15.0000
v  269.5696 49.2270 -15.0000
v  285.8135 47.3820 -15.0000
v  295.5596 43.6600 -15.0000
v  298.8086 38.0600 -15.0000
v  298.8086 35.8630 -15.0000
v  294.5035 32.0290 -15.0000
v  289.8876 32.1690 -15.0000
v  296.2496 34.1590 -15.0000
v  297.6846 35.4370 -15.0000
v  282.5526 32.5900 -15.0000
v  272.4996 33.2910 -15.0000
v  264.2546 3.4940 -15.0000
v  263.2006 0.9900 -15.0000
v  263.5536 7.8560 -15.0000
v  263.1326 11.7100 -15.0000
v  262.9926 15.0560 -15.0000
v  260.7906 -1.0160 -15.0000
v  257.0245 -2.5240 -15.0000
v  253.1796 0.9500 -15.0000
v  250.6805 11.3770 -15.0000
v  249.5266 28.7560 -15.0000
v  250.8356 28.7560 -15.0000
v  249.4066 33.2950 -15.0000
v  248.5496 38.5710 -15.0000
v  262.9926 20.1520 -15.0000
v  264.0486 24.9910 -15.0000
v  267.2176 29.3710 -15.0000
v  211.6526 59.4750 -15.0000
v  202.0206 42.3230 -15.0000
v  207.4445 59.4750 -15.0000
v  218.7686 40.4240 -15.0000
v  221.4886 41.2810 -15.0000
v  214.9956 38.9960 -15.0000
v  223.1546 41.5670 -15.0000
v  203.0656 43.4680 -15.0000
v  206.2016 44.7280 -15.0000
v  211.4286 46.1030 -15.0000
v  217.9436 45.5990 -15.0000
v  223.0266 56.8140 -15.0000
v  230.9126 49.1740 -15.0000
v  235.3116 36.5560 -15.0000
v  229.9306 31.1830 -15.0000
v  224.0546 27.9600 -15.0000
v  217.6836 26.8850 -15.0000
v  208.9256 27.5970 -15.0000
v  201.9636 29.7320 -15.0000
v  196.9476 33.1860 -15.0000
v  198.6826 25.7190 -15.0000
v  196.7946 33.2910 -15.0000
v  237.3936 18.5160 -15.0000
v  241.7176 11.3860 -15.0000
v  225.2856 16.3860 -15.0000
v  217.0726 15.1070 -15.0000
v  212.7546 14.6810 -15.0000
v  240.3526 7.7630 -15.0000
v  236.2586 4.4040 -15.0000
v  229.4346 1.3090 -15.0000
v  220.2556 1.3090 -15.0000
v  201.2406 5.1060 -15.0000
v  189.8316 16.5000 -15.0000
v  186.0286 35.4890 -15.0000
v  186.0286 38.1630 -15.0000
v  190.3116 50.0030 -15.0000
v  197.4496 57.1070 -15.0000
v  221.8516 44.0870 -15.0000
v  196.9236 33.2910 -15.0000
v  203.9596 19.5160 -15.0000
v  208.7996 40.0470 -15.0000
v  204.4746 41.1570 -15.0000
v  131.6536 55.6410 -15.0000
v  137.7026 55.6410 -15.0000
v  130.2006 49.7230 -15.0000
v  140.8466 52.0080 -15.0000
v  146.1126 42.6260 -15.0000
v  161.0396 44.9510 -15.0000
v  165.5296 50.8900 -15.0000
v  157.2446 35.2520 -15.0000
v  154.7306 29.4330 -15.0000
v  168.7776 54.4530 -15.0000
v  170.7856 55.6410 -15.0000
v  173.3576 55.6410 -15.0000
v  175.1776 54.9910 -15.0000
v  177.2186 53.0420 -15.0000
v  179.4826 49.7930 -15.0000
v  179.4826 44.1510 -15.0000
v  163.5386 13.1420 -15.0000
v  163.9596 12.3100 -15.0000
v  162.8376 13.4190 -15.0000
v  164.0996 10.9230 -15.0000
v  161.1816 7.0110 -15.0000
v  158.2986 4.6630 -15.0000
v  155.4496 3.8800 -15.0000
v  152.3266 6.0620 -15.0000
v  148.2176 12.6080 -15.0000
v  143.1226 23.5180 -15.0000
v  135.9436 34.7720 -15.0000
v  131.6366 43.5070 -15.0000
v  153.4986 27.4930 -15.0000
v  171.1076 32.6680 -15.0000
v  165.5586 22.4240 -15.0000
v  110.0016 48.5780 -15.0000
v  101.7276 58.0030 -15.0000
v  84.2836 78.6930 -15.0000
v  87.9366 65.3200 -15.0000
v  111.6376 33.6510 -15.0000
v  112.0586 35.4470 -15.0000
v  111.4976 31.6550 -15.0000
v  112.7596 37.0430 -15.0000
v  86.8086 78.6930 -15.0000
v  95.6156 76.3650 -15.0000
v  106.1416 69.3820 -15.0000
v  118.3876 57.7420 -15.0000
v  121.3136 48.4280 -15.0000
v  109.0376 22.8210 -15.0000
v  123.0686 41.8670 -15.0000
v  123.6546 38.0600 -15.0000
v  123.6546 31.6550 -15.0000
v  119.1146 13.3670 -15.0000
v  105.4966 2.3950 -15.0000
v  82.7996 -1.2620 -15.0000
v  73.3476 2.5710 -15.0000
v  66.3316 6.9600 -15.0000
v  61.7505 11.9030 -15.0000
v  55.9556 19.9320 -15.0000
v  52.4786 28.6510 -15.0000
v  51.3195 38.0600 -15.0000
v  51.3195 50.8720 -15.0000
v  52.3176 56.0500 -15.0000
v  55.3096 61.2460 -15.0000
v  58.9876 68.9530 -15.0000
v  66.0996 74.3640 -15.0000
v  60.2976 66.4600 -15.0000
v  74.5316 77.6110 -15.0000
v  101.6586 16.7420 -15.0000
v  89.3606 13.4190 -15.0000
v  82.9746 13.4190 -15.0000
v  73.7886 16.1620 -15.0000
v  85.7456 65.3200 -15.0000
v  66.8676 24.3910 -15.0000
v  62.2146 38.1070 -15.0000
v  64.8286 49.9070 -15.0000
v  72.6726 58.9780 -15.0000
v  -20.5004 59.4750 -15.0000
v  -30.1324 42.3230 -15.0000
v  -24.7084 59.4750 -15.0000
v  -13.3834 40.4240 -15.0000
v  -10.6634 41.2810 -15.0000
v  -17.1574 38.9960 -15.0000
v  -8.9974 41.5670 -15.0000
v  -29.0874 43.4680 -15.0000
v  -25.9504 44.7280 -15.0000
v  -20.7234 46.1030 -15.0000
v  -14.2094 45.5990 -15.0000
v  -9.1264 56.8140 -15.0000
v  -1.2394 49.1740 -15.0000
v  3.1596 36.5560 -15.0000
v  -2.2214 31.1830 -15.0000
v  -8.0974 27.9600 -15.0000
v  -14.4684 26.8850 -15.0000
v  -23.2264 27.5970 -15.0000
v  -30.1894 29.7320 -15.0000
v  -35.2044 33.1860 -15.0000
v  -33.4704 25.7190 -15.0000
v  -35.3574 33.2910 -15.0000
v  5.2406 18.5160 -15.0000
v  9.5646 11.3860 -15.0000
v  -6.8674 16.3860 -15.0000
v  -15.0804 15.1070 -15.0000
v  -19.3974 14.6810 -15.0000
v  8.2006 7.7630 -15.0000
v  4.1056 4.4040 -15.0000
v  -2.7174 1.3090 -15.0000
v  -11.8964 1.3090 -15.0000
v  -30.9114 5.1060 -15.0000
v  -42.3204 16.5000 -15.0000
v  -46.1234 35.4890 -15.0000
v  -46.1234 38.1630 -15.0000
v  -41.8414 50.0030 -15.0000
v  -34.7024 57.1070 -15.0000
v  -10.3004 44.0870 -15.0000
v  -35.2294 33.2910 -15.0000
v  -28.1924 19.5160 -15.0000
v  -23.3524 40.0470 -15.0000
v  -27.6784 41.1570 -15.0000
v  -117.2884 51.8070 -15.0000
v  -113.5604 51.8070 -15.0000
v  -117.4294 50.3970 -15.0000
v  -110.4464 49.6240 -15.0000
v  -108.0584 46.7250 -15.0000
v  -106.3944 43.1120 -15.0000
v  -107.0954 41.6330 -15.0000
v  -104.1704 43.1150 -15.0000
v  -101.5904 44.8300 -15.0000
v  -107.6564 40.2580 -15.0000
v  -99.9164 45.4010 -15.0000
v  -94.1564 44.1790 -15.0000
v  -88.6024 41.1870 -15.0000
v  -83.2554 36.4240 -15.0000
v  -80.1184 40.7100 -15.0000
v  -76.2194 43.2820 -15.0000
v  -71.5594 44.1390 -15.0000
v  -68.6324 44.1390 -15.0000
v  -59.7644 34.2580 -15.0000
v  -54.4434 22.8490 -15.0000
v  -52.6694 9.9120 -15.0000
v  -52.6694 3.5060 -15.0000
v  -53.0594 1.5580 -15.0000
v  -54.2284 0.3890 -15.0000
v  -56.1764 0.0000 -15.0000
v  -60.0574 0.0000 -15.0000
v  -61.6534 0.5080 -15.0000
v  -63.2434 2.0330 -15.0000
v  -64.8264 4.5740 -15.0000
v  -64.8264 12.4840 -15.0000
v  -80.8974 0.3230 -15.0000
v  -84.0704 -1.2620 -15.0000
v  -78.5504 13.9670 -15.0000
v  -75.7704 23.2580 -15.0000
v  -87.6884 0.2230 -15.0000
v  -90.2204 4.6800 -15.0000
v  -91.6654 12.1100 -15.0000
v  -90.4034 12.1100 -15.0000
v  -91.6654 13.5010 -15.0000
v  -91.6654 27.8200 -15.0000
v  -104.4044 5.9220 -15.0000
v  -103.9684 4.1050 -15.0000
v  -105.1314 7.4890 -15.0000
v  -103.8224 2.0380 -15.0000
v  -104.5504 0.4290 -15.0000
v  -104.9864 -1.0910 -15.0000
v  -105.1314 -2.5240 -15.0000
v  -112.5194 -2.5240 -15.0000
v  -102.4184 18.5950 -15.0000
v  -114.8324 -1.8720 -15.0000
v  -116.4204 0.0840 -15.0000
v  -117.2854 3.3450 -15.0000
v  -118.5514 47.2750 -15.0000
v  -117.8504 48.8860 -15.0000
v  -107.5164 40.6820 -15.0000
v  -65.6854 20.5140 -15.0000
v  -72.5574 28.1940 -15.0000
v  -100.0374 26.3380 -15.0000
v  -97.9914 30.7190 -15.0000
v  -92.3684 28.9260 -15.0000
v  -94.4774 29.8920 -15.0000
v  -68.2624 25.7510 -15.0000
v  -156.4724 32.8880 -15.0000
v  -157.4234 34.9990 -15.0000
v  -156.4694 58.2130 -15.0000
v  -158.2544 38.9840 -15.0000
v  -168.0194 23.5120 -15.0000
v  -166.9874 23.0720 -15.0000
v  -168.6294 23.6590 -15.0000
v  -165.5324 22.3390 -15.0000
v  -152.9124 54.4250 -15.0000
v  -149.7304 48.6930 -15.0000
v  -146.9234 41.0180 -15.0000
v  -160.3764 27.0430 -15.0000
v  -163.3974 23.5270 -15.0000
v  -126.4764 15.4380 -15.0000
v  -125.0974 12.6780 -15.0000
v  -125.0974 8.6030 -15.0000
v  -125.4924 6.6810 -15.0000
v  -126.6764 5.5270 -15.0000
v  -128.6514 5.1430 -15.0000
v  -129.9134 5.1430 -15.0000
v  -134.7244 6.6060 -15.0000
v  -139.2514 10.9970 -15.0000
v  -143.4954 18.3150 -15.0000
v  -151.1734 15.7930 -15.0000
v  -156.0844 10.6810 -15.0000
v  -148.4724 24.3140 -15.0000
v  -163.2054 8.9770 -15.0000
v  -169.8614 8.9770 -15.0000
v  -175.9304 13.8170 -15.0000
v  -179.5724 20.9560 -15.0000
v  -180.7864 30.3920 -15.0000
v  -180.7864 33.1100 -15.0000
v  -176.2174 47.0560 -15.0000
v  -168.1114 55.4240 -15.0000
v  -158.9644 44.8400 -15.0000
v  -159.0564 44.8400 -15.0000
v  -168.6294 31.6550 -15.0000
v  -164.3744 40.5770 -15.0000
v  -167.5654 36.1820 -15.0000
v  -229.6104 -1.1670 -15.0000
v  -229.6014 -1.2620 -15.0000
v  -229.8434 -1.2040 -15.0000
v  -230.2094 -1.2620 -15.0000
v  -230.2094 -1.1160 -15.0000
v  -228.0114 73.5960 -15.0000
v  -221.7894 72.8000 -15.0000
v  -233.1764 73.5960 -15.0000
v  -217.1914 70.4120 -15.0000
v  -214.2174 66.4310 -15.0000
v  -214.2174 64.9460 -15.0000
v  -216.2784 62.9690 -15.0000
v  -222.4604 60.9680 -15.0000
v  -232.7634 58.9460 -15.0000
v  -225.2094 14.8220 -15.0000
v  -220.8064 15.6630 -15.0000
v  -231.9134 13.4190 -15.0000
v  -218.7064 15.9440 -15.0000
v  -229.1154 24.7570 -15.0000
v  -232.8114 28.5260 -15.0000
v  -222.9554 23.0510 -15.0000
v  -220.5954 22.2610 -15.0000
v  -234.0434 34.3580 -15.0000
v  -233.4404 36.2330 -15.0000
v  -232.2874 37.3580 -15.0000
v  -230.5834 37.7330 -15.0000
v  -227.8274 37.5880 -15.0000
v  -224.8134 37.1510 -15.0000
v  -212.3604 37.1510 -15.0000
v  -203.8404 37.5880 -15.0000
v  -221.5424 36.4230 -15.0000
v  -195.9824 37.7330 -15.0000
v  -192.1484 37.7330 -15.0000
v  -190.5394 37.2240 -15.0000
v  -188.9344 35.6970 -15.0000
v  -187.3324 33.1530 -15.0000
v  -187.3324 27.8200 -15.0000
v  -188.2924 26.0020 -15.0000
v  -191.1734 24.4120 -15.0000
v  -195.9754 23.0510 -15.0000
v  -206.5494 12.4760 -15.0000
v  -206.6894 11.2330 -15.0000
v  -207.2514 16.8310 -15.0000
v  -207.6714 20.6680 -15.0000
v  -207.1104 10.4880 -15.0000
v  -207.8124 10.2390 -15.0000
v  -206.5494 4.7870 -15.0000
v  -206.5494 -3.9480 -15.0000
v  -205.2404 -7.6680 -15.0000
v  -206.6824 -7.8130 -15.0000
v  -208.2204 -8.2500 -15.0000
v  -209.8554 -8.9770 -15.0000
v  -214.0454 -7.6940 -15.0000
v  -216.5594 -3.8440 -15.0000
v  -217.3974 2.5710 -15.0000
v  -223.2504 0.4410 -15.0000
v  -227.5214 -0.8360 -15.0000
v  -229.6684 -0.5610 -15.0000
v  -244.1934 2.2380 -15.0000
v  -230.2094 0.0000 -15.0000
v  -254.2154 12.7410 -15.0000
v  -259.6664 30.2470 -15.0000
v  -259.6664 32.9640 -15.0000
v  -256.7234 53.0240 -15.0000
v  -247.8934 66.5680 -15.0000
v  -219.1784 19.8920 -15.0000
v  -203.8584 24.3140 -15.0000
v  -207.8124 24.3140 -15.0000
v  -207.8124 23.9860 -15.0000
v  -229.8714 -0.1400 -15.0000
v  -240.9554 51.8470 -15.0000
v  -239.6104 15.4420 -15.0000
v  -244.8094 21.5120 -15.0000
v  -245.8714 42.7410 -15.0000
v  -247.5094 31.6280 -15.0000
# 736 vertices

vn -0.7262 0.0335 0.6867
vn 0.2480 0.7263 0.6411
vn -0.5320 0.6121 0.5851
vn 0.6326 0.3409 0.6954
vn 0.5543 0.4960 0.6684
vn 0.0275 0.2924 0.9559
vn -0.2426 0.6828 0.6892
vn -0.4774 0.5872 0.6536
vn -0.0545 0.7425 0.6677
vn 0.4984 0.5858 0.6392
vn 0.1736 0.7125 0.6799
vn 0.6591 -0.4550 0.5988
vn 0.7313 0.1968 0.6530
vn 0.4968 -0.4768 0.7251
vn -0.0311 -0.7094 0.7041
vn 0.3249 -0.7142 0.6199
vn 0.3426 -0.5653 0.7504
vn 0.1706 -0.5834 0.7941
vn -0.0449 -0.7071 0.7057
vn 0.6950 0.0938 0.7128
vn 0.6055 -0.4485 0.6575
vn 0.7544 -0.0906 0.6501
vn 0.6974 0.0526 0.7147
vn 0.7022 0.0147 0.7118
vn 0.3784 -0.6349 0.6736
vn -0.1401 -0.7837 0.6051
vn -0.7169 -0.1089 0.6886
vn -0.6563 -0.3895 0.6462
vn -0.2800 0.2054 0.9378
vn -0.5979 0.5595 0.5739
vn -0.7155 -0.0749 0.6946
vn -0.7031 -0.1669 0.6913
vn 0.6773 -0.0730 0.7321
vn 0.5974 -0.2672 0.7561
vn 0.4761 -0.4703 0.7431
vn -0.0849 0.7265 0.6819
vn 0.3431 0.0673 0.9369
vn 0.0838 0.7264 0.6822
vn -0.0616 0.6338 0.7711
vn -0.1699 0.7014 0.6922
vn -0.2335 0.6741 0.7008
vn -0.3104 0.1545 0.9380
vn 0.3699 -0.5332 0.7608
vn 0.2176 -0.6574 0.7214
vn 0.0598 -0.6626 0.7466
vn -0.1485 -0.6545 0.7414
vn 0.3634 0.6657 0.6517
vn 0.7763 -0.1780 0.6047
vn 0.6342 0.4050 0.6587
vn 0.2432 -0.7000 0.6715
vn 0.4416 -0.5891 0.6767
vn -0.1374 -0.7168 0.6836
vn 0.0315 -0.7323 0.6803
vn -0.0007 0.0014 1.0000
vn -0.3214 -0.6648 0.6744
vn 0.1544 -0.0479 0.9869
vn 0.5759 0.2901 0.7643
vn -0.1153 0.6954 0.7093
vn 0.7808 0.0724 0.6206
vn 0.3306 0.7290 0.5994
vn -0.0883 0.6951 0.7135
vn 0.1256 0.6128 0.7802
vn 0.6153 -0.4412 0.6532
vn 0.3878 -0.6234 0.6789
vn -0.0716 -0.7244 0.6856
vn 0.1583 -0.7322 0.6625
vn -0.6719 -0.3600 0.6473
vn -0.3593 -0.6722 0.6474
vn -0.7310 0.1282 0.6702
vn -0.7245 -0.0718 0.6856
vn -0.3692 0.6635 0.6508
vn -0.6327 0.4033 0.6611
vn -0.4041 -0.4503 0.7962
vn -0.2993 -0.3755 0.8772
vn 0.4180 0.5124 0.7501
vn 0.1451 0.6822 0.7166
vn 0.2329 0.6433 0.7294
vn -0.7526 0.0052 0.6585
vn 0.3247 0.7104 0.6244
vn -0.4977 0.6347 0.5911
vn 0.6319 0.3312 0.7007
vn 0.5961 0.4187 0.6851
vn -0.6502 0.2676 0.7111
vn -0.5516 0.4583 0.6969
vn -0.6418 0.3591 0.6776
vn -0.6085 0.3220 0.7253
vn -0.4655 0.5722 0.6752
vn 0.1266 0.7309 0.6706
vn -0.2001 0.7311 0.6522
vn 0.5530 0.4739 0.6853
vn 0.3929 0.6371 0.6631
vn 0.7277 -0.2372 0.6436
vn 0.7287 0.2288 0.6455
vn 0.4021 0.1945 0.8947
vn 0.7141 0.2088 0.6682
vn 0.5204 0.5707 0.6352
vn 0.7453 -0.2064 0.6339
vn 0.5291 -0.5070 0.6805
vn 0.3427 -0.6650 0.6635
vn -0.5410 -0.5149 0.6650
vn -0.1330 -0.7710 0.6228
vn -0.6063 -0.3331 0.7221
vn -0.6327 -0.3446 0.6935
vn -0.6888 -0.2456 0.6821
vn -0.6265 -0.3529 0.6950
vn 0.0156 0.2793 0.9601
vn 0.5846 -0.3692 0.7225
vn 0.6302 -0.2627 0.7306
vn -0.0397 0.7180 0.6949
vn -0.4102 -0.5188 0.7500
vn -0.5715 -0.2958 0.7655
vn -0.1553 -0.6241 0.7657
vn -0.6730 0.1161 0.7305
vn -0.6893 0.2300 0.6870
vn -0.7161 0.1083 0.6895
vn -0.6153 0.0553 0.7863
vn 0.0946 0.7278 0.6792
vn 0.3033 0.6754 0.6722
vn 0.4523 0.5675 0.6880
vn 0.6413 0.3999 0.6548
vn 0.6836 0.1987 0.7023
vn -0.5232 0.3403 0.7814
vn 0.7036 0.1478 0.6951
vn 0.7271 -0.0889 0.6808
vn 0.7214 0.0552 0.6903
vn 0.3079 -0.6913 0.6537
vn 0.6464 -0.4125 0.6419
vn -0.3300 -0.6462 0.6881
vn -0.0854 -0.7540 0.6512
vn -0.5573 -0.4565 0.6936
vn -0.4682 -0.5659 0.6786
vn -0.7108 -0.1823 0.6794
vn -0.6422 -0.3528 0.6805
vn -0.7240 0.0691 0.6863
vn -0.7190 -0.0441 0.6936
vn -0.5861 0.4390 0.6810
vn -0.6942 0.2585 0.6717
vn -0.4976 0.0700 0.8646
vn -0.3588 0.6429 0.6767
vn -0.7906 0.1754 0.5866
vn -0.1737 0.7129 0.6794
vn -0.2993 0.5798 0.7578
vn -0.0888 0.6690 0.7380
vn 0.0971 0.6643 0.7411
vn 0.3450 0.5256 0.7777
vn 0.1452 -0.6321 0.7612
vn 0.5750 0.3240 0.7512
vn 0.6335 0.0346 0.7730
vn 0.5738 -0.2882 0.7666
vn 0.3990 -0.5197 0.7554
vn -0.1485 -0.6545 0.7413
vn 0.6341 0.4050 0.6587
vn -0.0000 -0.0014 1.0000
vn 0.7807 0.0725 0.6207
vn 0.6154 -0.4411 0.6532
vn -0.7310 0.1281 0.6702
vn -0.6328 0.4033 0.6610
vn -0.2989 -0.3784 0.8761
vn 0.4180 0.5125 0.7501
vn 0.2329 0.6432 0.7294
vn -0.6749 0.1268 0.7270
vn 0.2299 0.7286 0.6452
vn -0.5453 0.6025 0.5828
vn 0.6216 0.3900 0.6793
vn 0.4992 0.5395 0.6780
vn 0.6402 -0.2933 0.7100
vn 0.7821 -0.0043 0.6231
vn 0.0857 0.1249 0.9885
vn -0.3243 0.6584 0.6793
vn -0.4268 0.5774 0.6960
vn -0.0453 0.7569 0.6519
vn 0.2536 0.6914 0.6765
vn -0.0424 0.4000 0.9155
vn 0.4196 0.5992 0.6818
vn -0.2788 0.6930 0.6649
vn -0.5124 0.5380 0.6694
vn 0.3178 0.7122 0.6259
vn -0.0660 0.7234 0.6872
vn 0.7078 0.2084 0.6750
vn 0.6152 0.4065 0.6755
vn 0.7245 -0.0718 0.6856
vn 0.7201 0.0491 0.6921
vn 0.3596 -0.6721 0.6473
vn 0.6720 -0.3597 0.6473
vn -0.1134 -0.7299 0.6741
vn 0.0716 -0.7244 0.6856
vn -0.5692 -0.4619 0.6802
vn -0.3841 -0.6461 0.6596
vn -0.6937 -0.0370 0.7193
vn -0.7305 -0.2089 0.6501
vn 0.6747 -0.1584 0.7209
vn 0.0288 -0.7803 0.6248
vn 0.6310 -0.4687 0.6182
vn 0.6096 -0.2825 0.7407
vn -0.5074 -0.5764 0.6405
vn -0.6941 -0.2568 0.6725
vn -0.2079 0.0921 0.9738
vn -0.6351 0.5235 0.5679
vn -0.6060 -0.1763 0.7757
vn -0.7212 -0.2784 0.6343
vn 0.6107 0.0597 0.7896
vn 0.7163 0.1105 0.6890
vn 0.6877 0.2394 0.6854
vn 0.7431 -0.1331 0.6559
vn 0.6476 -0.2380 0.7238
vn 0.6735 -0.1296 0.7277
vn 0.5449 -0.6028 0.5828
vn -0.1007 -0.7286 0.6775
vn 0.6752 -0.1861 0.7138
vn -0.6674 -0.3395 0.6628
vn -0.4200 -0.6385 0.6450
vn -0.7366 0.1423 0.6612
vn -0.7237 -0.1050 0.6821
vn -0.6510 0.2311 0.7230
vn 0.6492 -0.2502 0.7183
vn -0.6369 -0.1845 0.7486
vn 0.1041 -0.4287 0.8974
vn 0.6447 -0.2483 0.7230
vn 0.2075 -0.4281 0.8796
vn -0.4138 -0.4746 0.7768
vn -0.2216 -0.6464 0.7301
vn -0.4559 -0.4294 0.7796
vn 0.2273 0.7594 0.6097
vn -0.6942 -0.2258 0.6835
vn -0.5498 0.0456 0.8340
vn -0.7069 -0.1163 0.6977
vn 0.3793 0.2988 0.8757
vn 0.3008 0.6477 0.7000
vn 0.2279 0.6882 0.6889
vn -0.0115 0.5590 0.8291
vn 0.5920 0.4320 0.6804
vn 0.6583 0.3009 0.6900
vn 0.5811 0.3270 0.7452
vn -0.5519 0.4190 0.7210
vn -0.4190 0.5135 0.7489
vn 0.7321 0.1727 0.6589
vn 0.6145 0.3929 0.6842
vn 0.7248 -0.0737 0.6850
vn 0.6692 -0.3660 0.6466
vn 0.0697 -0.7241 0.6862
vn 0.3533 -0.6748 0.6480
vn -0.3825 -0.6488 0.6578
vn -0.1084 -0.7294 0.6755
vn -0.5637 -0.3932 0.7264
vn -0.5797 -0.4528 0.6775
vn 0.0525 -0.2689 0.9617
vn 0.3782 -0.6602 0.6489
vn 0.6463 -0.3841 0.6594
vn 0.0857 -0.7266 0.6817
vn -0.5803 -0.4737 0.6625
vn -0.2538 -0.7254 0.6398
vn -0.7195 -0.0461 0.6930
vn -0.7088 -0.2191 0.6706
vn -0.6433 0.3883 0.6599
vn -0.7301 0.1166 0.6733
vn -0.3767 0.6607 0.6493
vn -0.3023 -0.3411 0.8901
vn 0.2033 -0.5786 0.7899
vn 0.6747 -0.0782 0.7340
vn 0.4881 -0.4654 0.7383
vn 0.5969 -0.2733 0.7543
vn 0.0008 -0.0004 1.0000
vn 0.5423 -0.6246 0.5620
vn -0.0001 -0.0005 1.0000
vn 0.0003 -0.0001 1.0000
vn -0.5338 -0.6251 0.5695
vn -0.1659 0.7322 0.6606
vn 0.2217 0.7087 0.6698
vn 0.0458 0.7194 0.6931
vn 0.7272 0.2416 0.6425
vn 0.4862 0.5725 0.6602
vn 0.3855 -0.6448 0.6600
vn 0.7154 -0.3051 0.6286
vn 0.2799 -0.5736 0.7698
vn 0.1805 -0.6970 0.6939
vn 0.0164 0.6466 0.7626
vn -0.1143 0.7041 0.7009
vn -0.1391 0.6953 0.7051
vn -0.3398 0.2634 0.9029
vn -0.2049 -0.6704 0.7131
vn -0.6704 -0.3592 0.6492
vn -0.3846 -0.6524 0.6531
vn -0.3809 -0.4735 0.7942
vn -0.7558 0.0389 0.6536
vn -0.6412 0.3970 0.6567
vn -0.3608 0.6686 0.6502
vn -0.0602 0.7325 0.6781
vn 0.0704 0.7136 0.6970
vn 0.1291 0.7036 0.6988
vn 0.0468 0.6686 0.7421
vn -0.0248 0.7103 0.7034
vn -0.0463 0.7087 0.7040
vn -0.0065 0.7091 0.7050
vn 0.3821 0.6471 0.6598
vn 0.1127 0.7298 0.6743
vn 0.7304 0.2108 0.6497
vn 0.5671 0.4644 0.6803
vn 0.5435 -0.5336 0.6480
vn 0.7320 -0.1814 0.6568
vn 0.0440 -0.7486 0.6616
vn 0.2781 -0.6761 0.6824
vn 0.6950 0.0940 0.7129
vn 0.7107 -0.2302 0.6648
vn 0.7350 0.0175 0.6778
vn 0.6975 0.0529 0.7147
vn 0.4963 -0.5908 0.6361
vn 0.3982 -0.2181 0.8910
vn 0.6553 0.1119 0.7470
vn 0.7262 0.0830 0.6824
vn 0.1286 -0.6739 0.7275
vn 0.6959 -0.4422 0.5659
vn 0.2352 -0.6492 0.7234
vn -0.4628 -0.6155 0.6379
vn 0.0468 -0.7702 0.6361
vn -0.1922 -0.3164 0.9290
vn -0.7044 -0.2605 0.6603
vn 0.1602 -0.7035 0.6924
vn 0.2243 -0.6774 0.7006
vn -0.6382 -0.1782 0.7490
vn 0.1797 -0.2690 0.9462
vn -0.3796 -0.6597 0.6486
vn -0.6481 -0.3814 0.6592
vn -0.7296 -0.1110 0.6748
vn -0.7011 0.2653 0.6619
vn -0.7209 0.0526 0.6911
vn -0.5001 0.5710 0.6510
vn -0.6182 -0.2111 0.7572
vn -0.0546 -0.6861 0.7254
vn 0.3015 -0.3015 0.9045
vn 0.7021 0.0149 0.7119
vn -0.4150 -0.4392 0.7968
vn 0.5161 -0.4138 0.7499
vn 0.3318 0.5295 0.7808
vn 0.5745 0.3024 0.7606
vn 0.6295 -0.2091 0.7483
vn 0.6540 0.0375 0.7556
vn -0.5320 0.6121 -0.5851
vn 0.2480 0.7263 -0.6411
vn -0.7262 0.0335 -0.6867
vn 0.5543 0.4960 -0.6684
vn 0.6326 0.3409 -0.6954
vn -0.4774 0.5872 -0.6536
vn -0.2426 0.6828 -0.6892
vn 0.0275 0.2924 -0.9559
vn -0.0545 0.7425 -0.6677
vn 0.1736 0.7125 -0.6799
vn 0.4984 0.5858 -0.6392
vn 0.7313 0.1968 -0.6530
vn 0.6591 -0.4550 -0.5988
vn 0.3249 -0.7142 -0.6199
vn -0.0311 -0.7094 -0.7041
vn 0.4968 -0.4768 -0.7251
vn 0.3426 -0.5653 -0.7504
vn -0.0449 -0.7071 -0.7057
vn 0.1706 -0.5834 -0.7941
vn 0.7544 -0.0906 -0.6501
vn 0.6055 -0.4485 -0.6575
vn 0.6950 0.0938 -0.7128
vn 0.6974 0.0526 -0.7147
vn 0.7022 0.0147 -0.7118
vn 0.3784 -0.6349 -0.6736
vn -0.1401 -0.7837 -0.6051
vn -0.6563 -0.3895 -0.6462
vn -0.7169 -0.1089 -0.6886
vn -0.5979 0.5595 -0.5739
vn -0.2800 0.2054 -0.9378
vn -0.7031 -0.1669 -0.6913
vn -0.7155 -0.0749 -0.6946
vn 0.6773 -0.0730 -0.7321
vn 0.5974 -0.2672 -0.7561
vn 0.4761 -0.4703 -0.7431
vn 0.0838 0.7264 -0.6822
vn 0.3431 0.0673 -0.9369
vn -0.0849 0.7265 -0.6819
vn -0.2335 0.6741 -0.7008
vn -0.1699 0.7014 -0.6922
vn -0.0616 0.6338 -0.7711
vn -0.3104 0.1545 -0.9380
vn 0.3699 -0.5332 -0.7608
vn 0.2176 -0.6574 -0.7214
vn 0.0598 -0.6626 -0.7466
vn -0.1485 -0.6545 -0.7414
vn 0.3634 0.6657 -0.6517
vn 0.6342 0.4050 -0.6587
vn 0.7763 -0.1780 -0.6047
vn 0.4416 -0.5891 -0.6767
vn 0.2432 -0.7000 -0.6715
vn 0.0315 -0.7323 -0.6803
vn -0.1374 -0.7168 -0.6836
vn -0.3214 -0.6648 -0.6744
vn -0.0007 0.0014 -1.0000
vn 0.5759 0.2901 -0.7643
vn 0.1544 -0.0479 -0.9869
vn 0.3306 0.7290 -0.5994
vn 0.7808 0.0724 -0.6206
vn -0.1153 0.6954 -0.7093
vn -0.0883 0.6951 -0.7135
vn 0.1256 0.6128 -0.7802
vn 0.6153 -0.4412 -0.6532
vn 0.3878 -0.6234 -0.6789
vn 0.1583 -0.7322 -0.6625
vn -0.0716 -0.7244 -0.6856
vn -0.3593 -0.6722 -0.6474
vn -0.6719 -0.3600 -0.6473
vn -0.7245 -0.0718 -0.6856
vn -0.7310 0.1282 -0.6702
vn -0.6327 0.4033 -0.6611
vn -0.3692 0.6635 -0.6508
vn -0.4041 -0.4503 -0.7962
vn -0.2993 -0.3755 -0.8772
vn 0.4180 0.5124 -0.7501
vn 0.1451 0.6822 -0.7166
vn 0.2329 0.6433 -0.7294
vn -0.4977 0.6347 -0.5911
vn 0.3247 0.7104 -0.6244
vn -0.7526 0.0052 -0.6585
vn 0.5961 0.4187 -0.6851
vn 0.6319 0.3312 -0.7007
vn -0.6418 0.3591 -0.6776
vn -0.5516 0.4583 -0.6969
vn -0.6502 0.2676 -0.7111
vn -0.6085 0.3220 -0.7253
vn -0.4655 0.5722 -0.6752
vn -0.2001 0.7311 -0.6522
vn 0.1266 0.7309 -0.6706
vn 0.3929 0.6371 -0.6631
vn 0.5530 0.4739 -0.6853
vn 0.7287 0.2288 -0.6455
vn 0.7277 -0.2372 -0.6436
vn 0.5204 0.5707 -0.6352
vn 0.7141 0.2088 -0.6682
vn 0.4021 0.1945 -0.8947
vn 0.7453 -0.2064 -0.6339
vn 0.5291 -0.5070 -0.6805
vn 0.3427 -0.6650 -0.6635
vn -0.1330 -0.7710 -0.6228
vn -0.5410 -0.5149 -0.6650
vn -0.6327 -0.3446 -0.6935
vn -0.6063 -0.3331 -0.7221
vn -0.6265 -0.3529 -0.6950
vn -0.6888 -0.2456 -0.6821
vn 0.0156 0.2793 -0.9601
vn 0.5846 -0.3692 -0.7225
vn 0.6302 -0.2627 -0.7306
vn -0.5715 -0.2958 -0.7655
vn -0.4102 -0.5188 -0.7500
vn -0.0397 0.7180 -0.6949
vn -0.1553 -0.6241 -0.7657
vn -0.7161 0.1083 -0.6895
vn -0.6893 0.2300 -0.6870
vn -0.6730 0.1161 -0.7305
vn -0.6153 0.0553 -0.7863
vn 0.0946 0.7278 -0.6792
vn 0.3033 0.6754 -0.6722
vn 0.4523 0.5675 -0.6880
vn 0.6413 0.3999 -0.6548
vn 0.6836 0.1987 -0.7023
vn -0.5232 0.3403 -0.7814
vn 0.7036 0.1478 -0.6951
vn 0.7214 0.0552 -0.6903
vn 0.7271 -0.0889 -0.6808
vn 0.6464 -0.4125 -0.6419
vn 0.3079 -0.6913 -0.6537
vn -0.0854 -0.7540 -0.6512
vn -0.3300 -0.6462 -0.6881
vn -0.4682 -0.5659 -0.6786
vn -0.5573 -0.4565 -0.6936
vn -0.6422 -0.3528 -0.6805
vn -0.7108 -0.1823 -0.6794
vn -0.7190 -0.0441 -0.6936
vn -0.7240 0.0691 -0.6863
vn -0.6942 0.2585 -0.6717
vn -0.5861 0.4390 -0.6810
vn -0.7906 0.1754 -0.5866
vn -0.3588 0.6429 -0.6767
vn -0.4976 0.0700 -0.8646
vn -0.1737 0.7129 -0.6794
vn -0.2993 0.5798 -0.7578
vn -0.0888 0.6690 -0.7380
vn 0.0971 0.6643 -0.7411
vn 0.3450 0.5256 -0.7777
vn 0.1452 -0.6321 -0.7612
vn 0.5750 0.3240 -0.7512
vn 0.6335 0.0346 -0.7730
vn 0.5738 -0.2882 -0.7666
vn 0.3990 -0.5197 -0.7554
vn -0.1485 -0.6545 -0.7413
vn 0.6341 0.4050 -0.6587
vn -0.0000 -0.0014 -1.0000
vn 0.7807 0.0725 -0.6207
vn 0.6154 -0.4411 -0.6532
vn -0.7310 0.1281 -0.6702
vn -0.6328 0.4033 -0.6610
vn -0.2989 -0.3784 -0.8761
vn 0.4180 0.5125 -0.7501
vn 0.2329 0.6432 -0.7294
vn -0.5453 0.6025 -0.5828
vn 0.2299 0.7286 -0.6452
vn -0.6749 0.1268 -0.7270
vn 0.4992 0.5395 -0.6780
vn 0.6216 0.3900 -0.6793
vn 0.7821 -0.0043 -0.6231
vn 0.6402 -0.2933 -0.7100
vn -0.4268 0.5774 -0.6960
vn -0.3243 0.6584 -0.6793
vn 0.0857 0.1249 -0.9885
vn -0.0453 0.7569 -0.6519
vn 0.2536 0.6914 -0.6765
vn 0.4196 0.5992 -0.6818
vn -0.0424 0.4000 -0.9155
vn -0.5124 0.5380 -0.6694
vn -0.2788 0.6930 -0.6649
vn -0.0660 0.7234 -0.6872
vn 0.3178 0.7122 -0.6259
vn 0.6152 0.4065 -0.6755
vn 0.7078 0.2084 -0.6750
vn 0.7201 0.0491 -0.6921
vn 0.7245 -0.0718 -0.6856
vn 0.6720 -0.3597 -0.6473
vn 0.3596 -0.6721 -0.6473
vn 0.0716 -0.7244 -0.6856
vn -0.1134 -0.7299 -0.6741
vn -0.3841 -0.6461 -0.6596
vn -0.5692 -0.4619 -0.6802
vn -0.7305 -0.2089 -0.6501
vn -0.6937 -0.0370 -0.7193
vn 0.6310 -0.4687 -0.6182
vn 0.0288 -0.7803 -0.6248
vn 0.6747 -0.1584 -0.7209
vn 0.6096 -0.2825 -0.7407
vn -0.5074 -0.5764 -0.6405
vn -0.6941 -0.2568 -0.6725
vn -0.6351 0.5235 -0.5679
vn -0.2079 0.0921 -0.9738
vn -0.7212 -0.2784 -0.6343
vn -0.6060 -0.1763 -0.7757
vn 0.6877 0.2394 -0.6854
vn 0.7163 0.1105 -0.6890
vn 0.6107 0.0597 -0.7896
vn 0.7431 -0.1331 -0.6559
vn 0.6476 -0.2380 -0.7238
vn 0.6735 -0.1296 -0.7277
vn 0.5449 -0.6028 -0.5828
vn -0.1007 -0.7286 -0.6775
vn 0.6752 -0.1861 -0.7138
vn -0.4200 -0.6385 -0.6450
vn -0.6674 -0.3395 -0.6628
vn -0.7237 -0.1050 -0.6821
vn -0.7366 0.1423 -0.6612
vn -0.6510 0.2311 -0.7230
vn 0.6492 -0.2502 -0.7183
vn -0.6369 -0.1845 -0.7486
vn 0.1041 -0.4287 -0.8974
vn 0.6447 -0.2483 -0.7230
vn 0.2075 -0.4281 -0.8796
vn -0.4138 -0.4746 -0.7768
vn -0.2216 -0.6464 -0.7301
vn -0.4559 -0.4294 -0.7796
vn -0.5498 0.0456 -0.8340
vn -0.6942 -0.2258 -0.6835
vn 0.2273 0.7594 -0.6096
vn -0.7069 -0.1163 -0.6977
vn 0.2279 0.6882 -0.6889
vn 0.3008 0.6477 -0.7000
vn 0.3793 0.2988 -0.8757
vn -0.0115 0.5590 -0.8291
vn 0.5920 0.4320 -0.6804
vn 0.6583 0.3009 -0.6900
vn 0.5811 0.3270 -0.7452
vn -0.5519 0.4190 -0.7210
vn -0.4190 0.5135 -0.7489
vn 0.6145 0.3929 -0.6842
vn 0.7321 0.1727 -0.6589
vn 0.7248 -0.0737 -0.6850
vn 0.6692 -0.3660 -0.6466
vn 0.3533 -0.6748 -0.6480
vn 0.0697 -0.7241 -0.6862
vn -0.1084 -0.7294 -0.6755
vn -0.3825 -0.6488 -0.6578
vn -0.5797 -0.4528 -0.6775
vn -0.5637 -0.3932 -0.7264
vn 0.6463 -0.3841 -0.6594
vn 0.3782 -0.6602 -0.6489
vn 0.0525 -0.2689 -0.9617
vn 0.0857 -0.7266 -0.6817
vn -0.2538 -0.7254 -0.6398
vn -0.5803 -0.4737 -0.6625
vn -0.7088 -0.2191 -0.6706
vn -0.7195 -0.0461 -0.6930
vn -0.7301 0.1166 -0.6733
vn -0.6433 0.3883 -0.6599
vn -0.3767 0.6607 -0.6493
vn -0.3023 -0.3411 -0.8901
vn 0.2033 -0.5786 -0.7899
vn 0.6747 -0.0782 -0.7340
vn 0.4881 -0.4654 -0.7383
vn 0.5969 -0.2733 -0.7543
vn -0.0001 -0.0005 -1.0000
vn 0.5423 -0.6246 -0.5620
vn 0.0008 -0.0004 -1.0000
vn -0.5338 -0.6251 -0.5695
vn 0.0003 -0.0001 -1.0000
vn 0.0458 0.7194 -0.6931
vn 0.2217 0.7087 -0.6698
vn -0.1659 0.7322 -0.6606
vn 0.4862 0.5725 -0.6602
vn 0.7272 0.2416 -0.6425
vn 0.7154 -0.3051 -0.6286
vn 0.3855 -0.6448 -0.6600
vn 0.1805 -0.6970 -0.6939
vn 0.2799 -0.5736 -0.7698
vn -0.1391 0.6953 -0.7051
vn -0.1143 0.7041 -0.7009
vn 0.0164 0.6466 -0.7626
vn -0.3398 0.2634 -0.9029
vn -0.3846 -0.6524 -0.6531
vn -0.6704 -0.3592 -0.6492
vn -0.2049 -0.6704 -0.7131
vn -0.3809 -0.4735 -0.7942
vn -0.7558 0.0389 -0.6536
vn -0.6412 0.3970 -0.6567
vn -0.3608 0.6686 -0.6502
vn -0.0602 0.7325 -0.6781
vn 0.0704 0.7136 -0.6970
vn 0.1291 0.7036 -0.6988
vn -0.0463 0.7087 -0.7040
vn -0.0248 0.7103 -0.7034
vn 0.0468 0.6686 -0.7421
vn -0.0065 0.7091 -0.7050
vn 0.1127 0.7298 -0.6743
vn 0.3821 0.6471 -0.6598
vn 0.5671 0.4644 -0.6803
vn 0.7304 0.2108 -0.6497
vn 0.7320 -0.1814 -0.6568
vn 0.5435 -0.5336 -0.6480
vn 0.2781 -0.6761 -0.6824
vn 0.0440 -0.7486 -0.6616
vn 0.7350 0.0175 -0.6778
vn 0.7107 -0.2302 -0.6648
vn 0.6950 0.0940 -0.7129
vn 0.6975 0.0529 -0.7147
vn 0.4963 -0.5908 -0.6361
vn 0.3982 -0.2181 -0.8910
vn 0.7262 0.0830 -0.6824
vn 0.6553 0.1119 -0.7470
vn 0.6959 -0.4422 -0.5659
vn 0.1286 -0.6739 -0.7275
vn 0.2352 -0.6492 -0.7234
vn 0.0468 -0.7702 -0.6361
vn -0.4628 -0.6155 -0.6379
vn -0.7044 -0.2605 -0.6603
vn -0.1922 -0.3164 -0.9290
vn 0.2243 -0.6774 -0.7006
vn 0.1602 -0.7035 -0.6924
vn -0.6382 -0.1782 -0.7490
vn -0.3796 -0.6597 -0.6486
vn 0.1797 -0.2690 -0.9462
vn -0.6481 -0.3814 -0.6592
vn -0.7296 -0.1110 -0.6748
vn -0.7209 0.0526 -0.6911
vn -0.7011 0.2653 -0.6619
vn -0.5001 0.5710 -0.6510
vn -0.6182 -0.2111 -0.7572
vn -0.0546 -0.6861 -0.7254
vn 0.3015 -0.3015 -0.9045
vn 0.7021 0.0149 -0.7119
vn -0.4150 -0.4392 -0.7968
vn 0.5161 -0.4138 -0.7499
vn 0.3318 0.5295 -0.7808
vn 0.5745 0.3024 -0.7606
vn 0.6295 -0.2091 -0.7483
vn 0.6540 0.0375 -0.7556
# 672 vertex normals

vt 0.0000 0.0000 0.0000
# 1 texture coords

o obj_29167432
g obj_29167432
usemtl default
f 1/1/1 2/1/2 3/1/3 
f 2/1/2 4/1/4 5/1/5 
f 6/1/6 7/1/7 8/1/8 
f 6/1/6 9/1/9 7/1/7 
f 9/1/9 10/1/10 11/1/11 
f 10/1/10 12/1/12 13/1/13 
f 14/1/14 15/1/15 16/1/16 
f 17/1/17 15/1/15 14/1/14 
f 15/1/15 18/1/18 19/1/19 
f 20/1/20 21/1/21 22/1/22 
f 23/1/23 21/1/21 20/1/20 
f 24/1/24 21/1/21 23/1/23 
f 24/1/24 25/1/25 21/1/21 
f 24/1/24 26/1/26 25/1/25 
f 26/1/26 27/1/27 28/1/28 
f 27/1/27 29/1/29 30/1/30 
f 29/1/29 31/1/31 32/1/32 
f 31/1/31 2/1/2 1/1/1 
f 2/1/2 6/1/6 4/1/4 
f 6/1/6 10/1/10 9/1/9 
f 10/1/10 17/1/17 12/1/12 
f 17/1/17 18/1/18 15/1/15 
f 33/1/33 26/1/26 24/1/24 
f 34/1/34 26/1/26 33/1/33 
f 34/1/34 27/1/27 26/1/26 
f 29/1/29 2/1/2 31/1/31 
f 29/1/29 6/1/6 2/1/2 
f 6/1/6 17/1/17 10/1/10 
f 35/1/35 27/1/27 34/1/34 
f 35/1/35 29/1/29 27/1/27 
f 35/1/35 6/1/6 29/1/29 
f 6/1/6 18/1/18 17/1/17 
f 6/1/6 35/1/35 18/1/18 
f 36/1/36 37/1/37 38/1/38 
f 39/1/39 40/1/40 41/1/41 
f 39/1/39 42/1/42 40/1/40 
f 43/1/43 38/1/38 37/1/37 
f 44/1/44 38/1/38 43/1/43 
f 45/1/45 38/1/38 44/1/44 
f 46/1/46 38/1/38 45/1/45 
f 46/1/46 47/1/47 38/1/38 
f 47/1/47 48/1/48 49/1/49 
f 48/1/48 50/1/50 51/1/51 
f 50/1/50 52/1/52 53/1/53 
f 52/1/52 54/1/54 55/1/55 
f 56/1/56 57/1/57 54/1/54 
f 58/1/58 59/1/59 60/1/60 
f 61/1/61 59/1/59 58/1/58 
f 62/1/62 59/1/59 61/1/61 
f 62/1/62 63/1/63 59/1/59 
f 62/1/62 64/1/64 63/1/63 
f 64/1/64 65/1/65 66/1/66 
f 65/1/65 67/1/67 68/1/68 
f 67/1/67 69/1/69 70/1/70 
f 69/1/69 71/1/71 72/1/72 
f 71/1/71 37/1/37 36/1/36 
f 73/1/73 47/1/47 46/1/46 
f 42/1/42 47/1/47 73/1/73 
f 42/1/42 48/1/48 47/1/47 
f 39/1/39 48/1/48 42/1/42 
f 48/1/48 52/1/52 50/1/50 
f 52/1/52 74/1/74 54/1/54 
f 62/1/62 65/1/65 64/1/64 
f 75/1/75 65/1/65 62/1/62 
f 75/1/75 67/1/67 65/1/65 
f 75/1/75 69/1/69 67/1/67 
f 69/1/69 37/1/37 71/1/71 
f 39/1/39 52/1/52 48/1/48 
f 76/1/76 52/1/52 39/1/39 
f 76/1/76 74/1/74 52/1/52 
f 57/1/57 69/1/69 75/1/75 
f 56/1/56 69/1/69 57/1/57 
f 69/1/69 77/1/77 37/1/37 
f 77/1/77 74/1/74 76/1/76 
f 74/1/74 69/1/69 56/1/56 
f 74/1/74 77/1/77 69/1/69 
f 78/1/78 79/1/79 80/1/80 
f 79/1/79 81/1/81 82/1/82 
f 83/1/83 84/1/84 85/1/85 
f 86/1/86 84/1/84 83/1/83 
f 86/1/86 87/1/87 84/1/84 
f 87/1/87 88/1/88 89/1/89 
f 88/1/88 90/1/90 91/1/91 
f 90/1/90 92/1/92 93/1/93 
f 94/1/94 95/1/95 96/1/96 
f 94/1/94 97/1/97 95/1/95 
f 94/1/94 98/1/98 97/1/97 
f 94/1/94 99/1/99 98/1/98 
f 99/1/99 100/1/100 101/1/101 
f 100/1/100 102/1/102 103/1/103 
f 102/1/102 104/1/104 105/1/105 
f 104/1/104 79/1/79 78/1/78 
f 79/1/79 106/1/106 81/1/81 
f 86/1/86 88/1/88 87/1/87 
f 86/1/86 90/1/90 88/1/88 
f 90/1/90 107/1/107 92/1/92 
f 108/1/108 99/1/99 94/1/94 
f 108/1/108 100/1/100 99/1/99 
f 102/1/102 79/1/79 104/1/104 
f 102/1/102 106/1/106 79/1/79 
f 106/1/106 90/1/90 86/1/86 
f 90/1/90 108/1/108 107/1/107 
f 108/1/108 102/1/102 100/1/100 
f 106/1/106 108/1/108 90/1/90 
f 102/1/102 108/1/108 106/1/106 
f 109/1/109 110/1/110 111/1/111 
f 109/1/109 112/1/112 110/1/110 
f 113/1/113 114/1/114 115/1/115 
f 113/1/113 116/1/116 114/1/114 
f 111/1/111 117/1/117 109/1/109 
f 111/1/111 118/1/118 117/1/117 
f 111/1/111 119/1/119 118/1/118 
f 116/1/116 119/1/119 111/1/111 
f 116/1/116 120/1/120 119/1/119 
f 113/1/113 120/1/120 116/1/116 
f 113/1/113 121/1/121 120/1/120 
f 122/1/122 121/1/121 113/1/113 
f 122/1/122 123/1/123 121/1/121 
f 123/1/123 124/1/124 125/1/125 
f 124/1/124 126/1/126 127/1/127 
f 126/1/126 128/1/128 129/1/129 
f 128/1/128 130/1/130 131/1/131 
f 130/1/130 132/1/132 133/1/133 
f 132/1/132 134/1/134 135/1/135 
f 134/1/134 136/1/136 137/1/137 
f 138/1/138 139/1/139 140/1/140 
f 138/1/138 141/1/141 139/1/139 
f 141/1/141 112/1/112 109/1/109 
f 122/1/122 124/1/124 123/1/123 
f 142/1/142 124/1/124 122/1/122 
f 142/1/142 126/1/126 124/1/124 
f 143/1/143 126/1/126 142/1/142 
f 144/1/144 126/1/126 143/1/143 
f 145/1/145 126/1/126 144/1/144 
f 145/1/145 128/1/128 126/1/126 
f 128/1/128 132/1/132 130/1/130 
f 132/1/132 136/1/136 134/1/134 
f 136/1/136 141/1/141 138/1/138 
f 141/1/141 146/1/146 112/1/112 
f 147/1/147 128/1/128 145/1/145 
f 148/1/148 128/1/128 147/1/147 
f 148/1/148 132/1/132 128/1/128 
f 148/1/148 136/1/136 132/1/132 
f 136/1/136 146/1/146 141/1/141 
f 149/1/149 136/1/136 148/1/148 
f 150/1/150 136/1/136 149/1/149 
f 150/1/150 146/1/146 136/1/136 
f 151/1/36 152/1/37 153/1/38 
f 154/1/39 155/1/40 156/1/41 
f 154/1/39 157/1/42 155/1/40 
f 158/1/43 153/1/38 152/1/37 
f 159/1/44 153/1/38 158/1/43 
f 160/1/45 153/1/38 159/1/44 
f 161/1/151 153/1/38 160/1/45 
f 161/1/151 162/1/47 153/1/38 
f 162/1/47 163/1/48 164/1/152 
f 163/1/48 165/1/50 166/1/51 
f 165/1/50 167/1/52 168/1/53 
f 167/1/52 169/1/153 170/1/55 
f 171/1/56 172/1/57 169/1/153 
f 173/1/58 174/1/154 175/1/60 
f 176/1/61 174/1/154 173/1/58 
f 177/1/62 174/1/154 176/1/61 
f 177/1/62 178/1/155 174/1/154 
f 177/1/62 179/1/64 178/1/155 
f 179/1/64 180/1/65 181/1/66 
f 180/1/65 182/1/67 183/1/68 
f 182/1/67 184/1/156 185/1/70 
f 184/1/156 186/1/71 187/1/157 
f 186/1/71 152/1/37 151/1/36 
f 188/1/73 162/1/47 161/1/151 
f 157/1/42 162/1/47 188/1/73 
f 157/1/42 163/1/48 162/1/47 
f 154/1/39 163/1/48 157/1/42 
f 163/1/48 167/1/52 165/1/50 
f 167/1/52 189/1/158 169/1/153 
f 177/1/62 180/1/65 179/1/64 
f 190/1/159 180/1/65 177/1/62 
f 190/1/159 182/1/67 180/1/65 
f 190/1/159 184/1/156 182/1/67 
f 184/1/156 152/1/37 186/1/71 
f 154/1/39 167/1/52 163/1/48 
f 191/1/76 167/1/52 154/1/39 
f 191/1/76 189/1/158 167/1/52 
f 172/1/57 184/1/156 190/1/159 
f 171/1/56 184/1/156 172/1/57 
f 184/1/156 192/1/160 152/1/37 
f 192/1/160 189/1/158 191/1/76 
f 189/1/158 184/1/156 171/1/56 
f 189/1/158 192/1/160 184/1/156 
f 193/1/161 194/1/162 195/1/163 
f 194/1/162 196/1/164 197/1/165 
f 196/1/164 198/1/166 199/1/167 
f 200/1/168 201/1/169 202/1/170 
f 200/1/168 203/1/171 201/1/169 
f 200/1/168 204/1/172 203/1/171 
f 204/1/172 205/1/173 206/1/174 
f 205/1/173 207/1/175 208/1/176 
f 207/1/175 209/1/177 210/1/178 
f 209/1/177 211/1/179 212/1/180 
f 211/1/179 213/1/181 214/1/182 
f 213/1/181 215/1/183 216/1/184 
f 215/1/183 217/1/185 218/1/186 
f 217/1/185 219/1/187 220/1/188 
f 219/1/187 221/1/189 222/1/190 
f 223/1/191 224/1/192 225/1/193 
f 226/1/194 224/1/192 223/1/191 
f 226/1/194 227/1/195 224/1/192 
f 226/1/194 228/1/196 227/1/195 
f 228/1/196 229/1/197 230/1/198 
f 229/1/197 231/1/199 232/1/200 
f 233/1/201 234/1/202 235/1/203 
f 233/1/201 236/1/204 234/1/202 
f 233/1/201 237/1/205 236/1/204 
f 233/1/201 238/1/206 237/1/205 
f 233/1/201 239/1/207 238/1/206 
f 233/1/201 240/1/208 239/1/207 
f 241/1/209 240/1/208 233/1/201 
f 240/1/208 242/1/210 243/1/211 
f 242/1/210 244/1/212 245/1/213 
f 246/1/214 194/1/162 193/1/161 
f 246/1/214 196/1/164 194/1/162 
f 196/1/164 247/1/215 198/1/166 
f 200/1/168 205/1/173 204/1/172 
f 205/1/173 209/1/177 207/1/175 
f 205/1/173 211/1/179 209/1/177 
f 211/1/179 215/1/183 213/1/181 
f 215/1/183 219/1/187 217/1/185 
f 219/1/187 248/1/216 221/1/189 
f 249/1/217 228/1/196 226/1/194 
f 249/1/217 229/1/197 228/1/196 
f 249/1/217 231/1/199 229/1/197 
f 250/1/218 240/1/208 241/1/209 
f 250/1/218 242/1/210 240/1/208 
f 251/1/219 242/1/210 250/1/218 
f 251/1/219 244/1/212 242/1/210 
f 244/1/212 196/1/164 246/1/214 
f 196/1/164 200/1/168 247/1/215 
f 200/1/168 211/1/179 205/1/173 
f 211/1/179 219/1/187 215/1/183 
f 249/1/217 252/1/220 231/1/199 
f 249/1/217 253/1/221 252/1/220 
f 249/1/217 251/1/219 253/1/221 
f 244/1/212 200/1/168 196/1/164 
f 251/1/219 200/1/168 244/1/212 
f 211/1/179 248/1/216 219/1/187 
f 211/1/179 254/1/222 248/1/216 
f 249/1/217 200/1/168 251/1/219 
f 249/1/217 211/1/179 200/1/168 
f 249/1/217 254/1/222 211/1/179 
f 255/1/223 256/1/224 257/1/225 
f 255/1/223 258/1/226 256/1/224 
f 259/1/227 260/1/228 261/1/229 
f 259/1/227 262/1/230 260/1/228 
f 257/1/225 263/1/231 255/1/223 
f 257/1/225 264/1/232 263/1/231 
f 257/1/225 265/1/233 264/1/232 
f 266/1/234 265/1/233 257/1/225 
f 267/1/235 265/1/233 266/1/234 
f 265/1/233 268/1/236 269/1/237 
f 265/1/233 270/1/238 268/1/236 
f 265/1/233 271/1/239 270/1/238 
f 271/1/239 272/1/240 273/1/241 
f 272/1/240 274/1/242 275/1/243 
f 274/1/242 276/1/244 277/1/245 
f 278/1/246 279/1/247 280/1/248 
f 278/1/246 281/1/249 279/1/247 
f 281/1/249 282/1/250 283/1/251 
f 282/1/250 284/1/252 285/1/253 
f 284/1/252 286/1/254 287/1/255 
f 286/1/254 255/1/223 288/1/256 
f 255/1/223 289/1/257 258/1/226 
f 265/1/233 272/1/240 271/1/239 
f 265/1/233 274/1/242 272/1/240 
f 265/1/233 276/1/244 274/1/242 
f 265/1/233 278/1/246 276/1/244 
f 267/1/235 278/1/246 265/1/233 
f 262/1/230 278/1/246 267/1/235 
f 262/1/230 281/1/249 278/1/246 
f 281/1/249 284/1/252 282/1/250 
f 284/1/252 255/1/223 286/1/254 
f 255/1/223 290/1/258 289/1/257 
f 259/1/227 281/1/249 262/1/230 
f 259/1/227 284/1/252 281/1/249 
f 291/1/259 284/1/252 259/1/227 
f 284/1/252 290/1/258 255/1/223 
f 284/1/252 292/1/260 290/1/258 
f 293/1/261 284/1/252 291/1/259 
f 292/1/260 284/1/252 293/1/261 
f 294/1/262 295/1/263 296/1/264 
f 297/1/265 298/1/266 294/1/262 
f 299/1/267 300/1/268 301/1/269 
f 300/1/268 302/1/270 303/1/271 
f 302/1/270 304/1/272 305/1/273 
f 304/1/272 306/1/274 307/1/275 
f 308/1/276 309/1/277 310/1/278 
f 308/1/276 311/1/279 309/1/277 
f 312/1/280 313/1/281 314/1/282 
f 315/1/283 313/1/281 312/1/280 
f 315/1/283 316/1/284 313/1/281 
f 315/1/283 317/1/285 316/1/284 
f 315/1/283 318/1/286 317/1/285 
f 315/1/283 319/1/287 318/1/286 
f 315/1/283 320/1/288 319/1/287 
f 315/1/283 321/1/289 320/1/288 
f 322/1/290 323/1/291 324/1/292 
f 322/1/290 325/1/293 323/1/291 
f 325/1/293 326/1/294 327/1/295 
f 326/1/294 328/1/296 329/1/297 
f 328/1/296 330/1/298 331/1/299 
f 330/1/298 332/1/300 333/1/301 
f 334/1/302 335/1/303 336/1/304 
f 337/1/305 335/1/303 334/1/302 
f 337/1/305 338/1/306 335/1/303 
f 337/1/305 339/1/307 338/1/306 
f 339/1/307 340/1/308 341/1/309 
f 340/1/308 342/1/310 343/1/311 
f 340/1/308 344/1/312 342/1/310 
f 344/1/312 345/1/313 346/1/314 
f 345/1/313 347/1/315 348/1/316 
f 347/1/315 349/1/317 350/1/318 
f 349/1/317 351/1/319 296/1/264 
f 352/1/320 353/1/321 297/1/265 
f 352/1/320 354/1/322 353/1/321 
f 352/1/320 355/1/323 354/1/322 
f 355/1/323 356/1/324 357/1/325 
f 356/1/324 299/1/267 358/1/326 
f 299/1/267 302/1/270 300/1/268 
f 302/1/270 306/1/274 304/1/272 
f 359/1/327 321/1/289 315/1/283 
f 359/1/327 322/1/290 321/1/289 
f 359/1/327 325/1/293 322/1/290 
f 311/1/279 325/1/293 359/1/327 
f 325/1/293 328/1/296 326/1/294 
f 325/1/293 330/1/298 328/1/296 
f 325/1/293 332/1/300 330/1/298 
f 325/1/293 360/1/328 332/1/300 
f 325/1/293 361/1/329 360/1/328 
f 362/1/330 339/1/307 337/1/305 
f 339/1/307 344/1/312 340/1/308 
f 339/1/307 345/1/313 344/1/312 
f 347/1/315 351/1/319 349/1/317 
f 347/1/315 363/1/331 351/1/319 
f 363/1/331 355/1/323 352/1/320 
f 355/1/323 299/1/267 356/1/324 
f 299/1/267 306/1/274 302/1/270 
f 311/1/279 361/1/329 325/1/293 
f 311/1/279 362/1/330 361/1/329 
f 311/1/279 339/1/307 362/1/330 
f 308/1/276 339/1/307 311/1/279 
f 339/1/307 347/1/315 345/1/313 
f 308/1/276 347/1/315 339/1/307 
f 308/1/276 363/1/331 347/1/315 
f 299/1/267 364/1/332 306/1/274 
f 355/1/323 364/1/332 299/1/267 
f 365/1/333 363/1/331 308/1/276 
f 366/1/334 363/1/331 365/1/333 
f 366/1/334 355/1/323 363/1/331 
f 355/1/323 367/1/335 364/1/332 
f 355/1/323 368/1/336 367/1/335 
f 355/1/323 366/1/334 368/1/336 
f 369/1/337 370/1/338 371/1/339 
f 372/1/340 373/1/341 370/1/338 
f 374/1/342 375/1/343 376/1/344 
f 375/1/343 377/1/345 376/1/344 
f 378/1/346 379/1/347 377/1/345 
f 380/1/348 381/1/349 379/1/347 
f 382/1/350 383/1/351 384/1/352 
f 384/1/352 383/1/351 385/1/353 
f 386/1/354 387/1/355 383/1/351 
f 388/1/356 389/1/357 390/1/358 
f 390/1/358 389/1/357 391/1/359 
f 391/1/359 389/1/357 392/1/360 
f 389/1/357 393/1/361 392/1/360 
f 393/1/361 394/1/362 392/1/360 
f 395/1/363 396/1/364 394/1/362 
f 397/1/365 398/1/366 396/1/364 
f 399/1/367 400/1/368 398/1/366 
f 371/1/339 370/1/338 400/1/368 
f 373/1/341 376/1/344 370/1/338 
f 377/1/345 379/1/347 376/1/344 
f 381/1/349 385/1/353 379/1/347 
f 383/1/351 387/1/355 385/1/353 
f 392/1/360 394/1/362 401/1/369 
f 401/1/369 394/1/362 402/1/370 
f 394/1/362 396/1/364 402/1/370 
f 400/1/368 370/1/338 398/1/366 
f 370/1/338 376/1/344 398/1/366 
f 379/1/347 385/1/353 376/1/344 
f 402/1/370 396/1/364 403/1/371 
f 396/1/364 398/1/366 403/1/371 
f 398/1/366 376/1/344 403/1/371 
f 385/1/353 387/1/355 376/1/344 
f 387/1/355 403/1/371 376/1/344 
f 404/1/372 405/1/373 406/1/374 
f 407/1/375 408/1/376 409/1/377 
f 408/1/376 410/1/378 409/1/377 
f 405/1/373 404/1/372 411/1/379 
f 411/1/379 404/1/372 412/1/380 
f 412/1/380 404/1/372 413/1/381 
f 413/1/381 404/1/372 414/1/382 
f 404/1/372 415/1/383 414/1/382 
f 416/1/384 417/1/385 415/1/383 
f 418/1/386 419/1/387 417/1/385 
f 420/1/388 421/1/389 419/1/387 
f 422/1/390 423/1/391 421/1/389 
f 423/1/391 424/1/392 425/1/393 
f 426/1/394 427/1/395 428/1/396 
f 428/1/396 427/1/395 429/1/397 
f 429/1/397 427/1/395 430/1/398 
f 427/1/395 431/1/399 430/1/398 
f 431/1/399 432/1/400 430/1/398 
f 433/1/401 434/1/402 432/1/400 
f 435/1/403 436/1/404 434/1/402 
f 437/1/405 438/1/406 436/1/404 
f 439/1/407 440/1/408 438/1/406 
f 406/1/374 405/1/373 440/1/408 
f 414/1/382 415/1/383 441/1/409 
f 441/1/409 415/1/383 410/1/378 
f 415/1/383 417/1/385 410/1/378 
f 410/1/378 417/1/385 409/1/377 
f 419/1/387 421/1/389 417/1/385 
f 423/1/391 442/1/410 421/1/389 
f 432/1/400 434/1/402 430/1/398 
f 430/1/398 434/1/402 443/1/411 
f 434/1/402 436/1/404 443/1/411 
f 436/1/404 438/1/406 443/1/411 
f 440/1/408 405/1/373 438/1/406 
f 417/1/385 421/1/389 409/1/377 
f 409/1/377 421/1/389 444/1/412 
f 421/1/389 442/1/410 444/1/412 
f 443/1/411 438/1/406 424/1/392 
f 424/1/392 438/1/406 425/1/393 
f 405/1/373 445/1/413 438/1/406 
f 444/1/412 442/1/410 445/1/413 
f 425/1/393 438/1/406 442/1/410 
f 438/1/406 445/1/413 442/1/410 
f 446/1/414 447/1/415 448/1/416 
f 449/1/417 450/1/418 447/1/415 
f 451/1/419 452/1/420 453/1/421 
f 453/1/421 452/1/420 454/1/422 
f 452/1/420 455/1/423 454/1/422 
f 456/1/424 457/1/425 455/1/423 
f 458/1/426 459/1/427 457/1/425 
f 460/1/428 461/1/429 459/1/427 
f 462/1/430 463/1/431 464/1/432 
f 463/1/431 465/1/433 464/1/432 
f 465/1/433 466/1/434 464/1/432 
f 466/1/434 467/1/435 464/1/432 
f 468/1/436 469/1/437 467/1/435 
f 470/1/438 471/1/439 469/1/437 
f 472/1/440 473/1/441 471/1/439 
f 448/1/416 447/1/415 473/1/441 
f 450/1/418 474/1/442 447/1/415 
f 455/1/423 457/1/425 454/1/422 
f 457/1/425 459/1/427 454/1/422 
f 461/1/429 475/1/443 459/1/427 
f 464/1/432 467/1/435 476/1/444 
f 467/1/435 469/1/437 476/1/444 
f 473/1/441 447/1/415 471/1/439 
f 447/1/415 474/1/442 471/1/439 
f 454/1/422 459/1/427 474/1/442 
f 475/1/443 476/1/444 459/1/427 
f 469/1/437 471/1/439 476/1/444 
f 459/1/427 476/1/444 474/1/442 
f 474/1/442 476/1/444 471/1/439 
f 477/1/445 478/1/446 479/1/447 
f 478/1/446 480/1/448 479/1/447 
f 481/1/449 482/1/450 483/1/451 
f 482/1/450 484/1/452 483/1/451 
f 479/1/447 485/1/453 477/1/445 
f 485/1/453 486/1/454 477/1/445 
f 486/1/454 487/1/455 477/1/445 
f 477/1/445 487/1/455 484/1/452 
f 487/1/455 488/1/456 484/1/452 
f 484/1/452 488/1/456 483/1/451 
f 488/1/456 489/1/457 483/1/451 
f 483/1/451 489/1/457 490/1/458 
f 489/1/457 491/1/459 490/1/458 
f 492/1/460 493/1/461 491/1/459 
f 494/1/462 495/1/463 493/1/461 
f 496/1/464 497/1/465 495/1/463 
f 498/1/466 499/1/467 497/1/465 
f 500/1/468 501/1/469 499/1/467 
f 502/1/470 503/1/471 501/1/469 
f 504/1/472 505/1/473 503/1/471 
f 506/1/474 507/1/475 508/1/476 
f 507/1/475 509/1/477 508/1/476 
f 479/1/447 480/1/448 509/1/477 
f 491/1/459 493/1/461 490/1/458 
f 490/1/458 493/1/461 510/1/478 
f 493/1/461 495/1/463 510/1/478 
f 510/1/478 495/1/463 511/1/479 
f 511/1/479 495/1/463 512/1/480 
f 512/1/480 495/1/463 513/1/481 
f 495/1/463 497/1/465 513/1/481 
f 499/1/467 501/1/469 497/1/465 
f 503/1/471 505/1/473 501/1/469 
f 508/1/476 509/1/477 505/1/473 
f 480/1/448 514/1/482 509/1/477 
f 513/1/481 497/1/465 515/1/483 
f 515/1/483 497/1/465 516/1/484 
f 497/1/465 501/1/469 516/1/484 
f 501/1/469 505/1/473 516/1/484 
f 509/1/477 514/1/482 505/1/473 
f 516/1/484 505/1/473 517/1/485 
f 517/1/485 505/1/473 518/1/486 
f 505/1/473 514/1/482 518/1/486 
f 519/1/372 520/1/373 521/1/374 
f 522/1/375 523/1/376 524/1/377 
f 523/1/376 525/1/378 524/1/377 
f 520/1/373 519/1/372 526/1/379 
f 526/1/379 519/1/372 527/1/380 
f 527/1/380 519/1/372 528/1/381 
f 528/1/381 519/1/372 529/1/487 
f 519/1/372 530/1/383 529/1/487 
f 531/1/488 532/1/385 530/1/383 
f 533/1/386 534/1/387 532/1/385 
f 535/1/388 536/1/389 534/1/387 
f 537/1/390 538/1/489 536/1/389 
f 538/1/489 539/1/392 540/1/393 
f 541/1/394 542/1/490 543/1/396 
f 543/1/396 542/1/490 544/1/397 
f 544/1/397 542/1/490 545/1/398 
f 542/1/490 546/1/491 545/1/398 
f 546/1/491 547/1/400 545/1/398 
f 548/1/401 549/1/402 547/1/400 
f 550/1/403 551/1/404 549/1/402 
f 552/1/405 553/1/492 551/1/404 
f 554/1/493 555/1/408 553/1/492 
f 521/1/374 520/1/373 555/1/408 
f 529/1/487 530/1/383 556/1/409 
f 556/1/409 530/1/383 525/1/378 
f 530/1/383 532/1/385 525/1/378 
f 525/1/378 532/1/385 524/1/377 
f 534/1/387 536/1/389 532/1/385 
f 538/1/489 557/1/494 536/1/389 
f 547/1/400 549/1/402 545/1/398 
f 545/1/398 549/1/402 558/1/495 
f 549/1/402 551/1/404 558/1/495 
f 551/1/404 553/1/492 558/1/495 
f 555/1/408 520/1/373 553/1/492 
f 532/1/385 536/1/389 524/1/377 
f 524/1/377 536/1/389 559/1/412 
f 536/1/389 557/1/494 559/1/412 
f 558/1/495 553/1/492 539/1/392 
f 539/1/392 553/1/492 540/1/393 
f 520/1/373 560/1/496 553/1/492 
f 559/1/412 557/1/494 560/1/496 
f 540/1/393 553/1/492 557/1/494 
f 553/1/492 560/1/496 557/1/494 
f 561/1/497 562/1/498 563/1/499 
f 564/1/500 565/1/501 562/1/498 
f 566/1/502 567/1/503 565/1/501 
f 568/1/504 569/1/505 570/1/506 
f 569/1/505 571/1/507 570/1/506 
f 571/1/507 572/1/508 570/1/506 
f 573/1/509 574/1/510 572/1/508 
f 575/1/511 576/1/512 574/1/510 
f 577/1/513 578/1/514 576/1/512 
f 579/1/515 580/1/516 578/1/514 
f 581/1/517 582/1/518 580/1/516 
f 583/1/519 584/1/520 582/1/518 
f 585/1/521 586/1/522 584/1/520 
f 587/1/523 588/1/524 586/1/522 
f 589/1/525 590/1/526 588/1/524 
f 591/1/527 592/1/528 593/1/529 
f 593/1/529 592/1/528 594/1/530 
f 592/1/528 595/1/531 594/1/530 
f 595/1/531 596/1/532 594/1/530 
f 597/1/533 598/1/534 596/1/532 
f 599/1/535 600/1/536 598/1/534 
f 601/1/537 602/1/538 603/1/539 
f 602/1/538 604/1/540 603/1/539 
f 604/1/540 605/1/541 603/1/539 
f 605/1/541 606/1/542 603/1/539 
f 606/1/542 607/1/543 603/1/539 
f 607/1/543 608/1/544 603/1/539 
f 603/1/539 608/1/544 609/1/545 
f 610/1/546 611/1/547 608/1/544 
f 612/1/548 613/1/549 611/1/547 
f 563/1/499 562/1/498 614/1/550 
f 562/1/498 565/1/501 614/1/550 
f 567/1/503 615/1/551 565/1/501 
f 572/1/508 574/1/510 570/1/506 
f 576/1/512 578/1/514 574/1/510 
f 578/1/514 580/1/516 574/1/510 
f 582/1/518 584/1/520 580/1/516 
f 586/1/522 588/1/524 584/1/520 
f 590/1/526 616/1/552 588/1/524 
f 594/1/530 596/1/532 617/1/553 
f 596/1/532 598/1/534 617/1/553 
f 598/1/534 600/1/536 617/1/553 
f 609/1/545 608/1/544 618/1/554 
f 608/1/544 611/1/547 618/1/554 
f 618/1/554 611/1/547 619/1/555 
f 611/1/547 613/1/549 619/1/555 
f 614/1/550 565/1/501 613/1/549 
f 615/1/551 570/1/506 565/1/501 
f 574/1/510 580/1/516 570/1/506 
f 584/1/520 588/1/524 580/1/516 
f 600/1/536 620/1/556 617/1/553 
f 620/1/556 621/1/557 617/1/553 
f 621/1/557 619/1/555 617/1/553 
f 565/1/501 570/1/506 613/1/549 
f 613/1/549 570/1/506 619/1/555 
f 588/1/524 616/1/552 580/1/516 
f 616/1/552 622/1/558 580/1/516 
f 619/1/555 570/1/506 617/1/553 
f 570/1/506 580/1/516 617/1/553 
f 580/1/516 622/1/558 617/1/553 
f 623/1/559 624/1/560 625/1/561 
f 624/1/560 626/1/562 625/1/561 
f 627/1/563 628/1/564 629/1/565 
f 628/1/564 630/1/566 629/1/565 
f 625/1/561 631/1/567 623/1/559 
f 631/1/567 632/1/568 623/1/559 
f 632/1/568 633/1/569 623/1/559 
f 623/1/559 633/1/569 634/1/570 
f 634/1/570 633/1/569 635/1/571 
f 636/1/572 637/1/573 633/1/569 
f 637/1/573 638/1/574 633/1/569 
f 638/1/574 639/1/575 633/1/569 
f 640/1/576 641/1/577 639/1/575 
f 642/1/578 643/1/579 641/1/577 
f 644/1/580 645/1/581 643/1/579 
f 646/1/582 647/1/583 648/1/584 
f 647/1/583 649/1/585 648/1/584 
f 650/1/586 651/1/587 649/1/585 
f 652/1/588 653/1/589 651/1/587 
f 654/1/590 655/1/591 653/1/589 
f 656/1/592 625/1/561 655/1/591 
f 626/1/562 657/1/593 625/1/561 
f 639/1/575 641/1/577 633/1/569 
f 641/1/577 643/1/579 633/1/569 
f 643/1/579 645/1/581 633/1/569 
f 645/1/581 648/1/584 633/1/569 
f 633/1/569 648/1/584 635/1/571 
f 635/1/571 648/1/584 630/1/566 
f 648/1/584 649/1/585 630/1/566 
f 651/1/587 653/1/589 649/1/585 
f 655/1/591 625/1/561 653/1/589 
f 657/1/593 658/1/594 625/1/561 
f 630/1/566 649/1/585 629/1/565 
f 649/1/585 653/1/589 629/1/565 
f 629/1/565 653/1/589 659/1/595 
f 625/1/561 658/1/594 653/1/589 
f 658/1/594 660/1/596 653/1/589 
f 659/1/595 653/1/589 661/1/597 
f 661/1/597 653/1/589 660/1/596 
f 662/1/598 663/1/599 664/1/600 
f 664/1/600 665/1/601 666/1/602 
f 667/1/603 668/1/604 669/1/605 
f 670/1/606 671/1/607 668/1/604 
f 672/1/608 673/1/609 671/1/607 
f 674/1/610 675/1/611 673/1/609 
f 676/1/612 677/1/613 678/1/614 
f 677/1/613 679/1/615 678/1/614 
f 680/1/616 681/1/617 682/1/618 
f 682/1/618 681/1/617 683/1/619 
f 681/1/617 684/1/620 683/1/619 
f 684/1/620 685/1/621 683/1/619 
f 685/1/621 686/1/622 683/1/619 
f 686/1/622 687/1/623 683/1/619 
f 687/1/623 688/1/624 683/1/619 
f 688/1/624 689/1/625 683/1/619 
f 690/1/626 691/1/627 692/1/628 
f 691/1/627 693/1/629 692/1/628 
f 694/1/630 695/1/631 693/1/629 
f 696/1/632 697/1/633 695/1/631 
f 698/1/634 699/1/635 697/1/633 
f 700/1/636 701/1/637 699/1/635 
f 702/1/638 703/1/639 704/1/640 
f 704/1/640 703/1/639 705/1/641 
f 703/1/639 706/1/642 705/1/641 
f 706/1/642 707/1/643 705/1/641 
f 708/1/644 709/1/645 707/1/643 
f 710/1/646 711/1/647 709/1/645 
f 711/1/647 712/1/648 709/1/645 
f 713/1/649 714/1/650 712/1/648 
f 715/1/651 716/1/652 714/1/650 
f 717/1/653 718/1/654 716/1/652 
f 662/1/598 719/1/655 718/1/654 
f 666/1/602 720/1/656 721/1/657 
f 720/1/656 722/1/658 721/1/657 
f 722/1/658 723/1/659 721/1/657 
f 724/1/660 725/1/661 723/1/659 
f 726/1/662 669/1/605 725/1/661 
f 668/1/604 671/1/607 669/1/605 
f 673/1/609 675/1/611 671/1/607 
f 683/1/619 689/1/625 727/1/663 
f 689/1/625 692/1/628 727/1/663 
f 692/1/628 693/1/629 727/1/663 
f 727/1/663 693/1/629 679/1/615 
f 695/1/631 697/1/633 693/1/629 
f 697/1/633 699/1/635 693/1/629 
f 699/1/635 701/1/637 693/1/629 
f 701/1/637 728/1/664 693/1/629 
f 728/1/664 729/1/665 693/1/629 
f 705/1/641 707/1/643 730/1/666 
f 709/1/645 712/1/648 707/1/643 
f 712/1/648 714/1/650 707/1/643 
f 718/1/654 719/1/655 716/1/652 
f 719/1/655 731/1/667 716/1/652 
f 721/1/657 723/1/659 731/1/667 
f 725/1/661 669/1/605 723/1/659 
f 671/1/607 675/1/611 669/1/605 
f 693/1/629 729/1/665 679/1/615 
f 729/1/665 730/1/666 679/1/615 
f 730/1/666 707/1/643 679/1/615 
f 679/1/615 707/1/643 678/1/614 
f 714/1/650 716/1/652 707/1/643 
f 707/1/643 716/1/652 678/1/614 
f 716/1/652 731/1/667 678/1/614 
f 675/1/611 732/1/668 669/1/605 
f 669/1/605 732/1/668 723/1/659 
f 678/1/614 731/1/667 733/1/669 
f 733/1/669 731/1/667 734/1/670 
f 731/1/667 723/1/659 734/1/670 
f 732/1/668 735/1/671 723/1/659 
f 735/1/671 736/1/672 723/1/659 
f 736/1/672 734/1/670 723/1/659 
f 3/1/3 370/1/338 369/1/337 
f 3/1/3 2/1/2 370/1/338 
f 2/1/2 372/1/340 370/1/338 
f 2/1/2 5/1/5 372/1/340 
f 5/1/5 373/1/341 372/1/340 
f 5/1/5 4/1/4 373/1/341 
f 4/1/4 376/1/344 373/1/341 
f 4/1/4 6/1/6 376/1/344 
f 6/1/6 374/1/342 376/1/344 
f 6/1/6 8/1/8 374/1/342 
f 8/1/8 375/1/343 374/1/342 
f 8/1/8 7/1/7 375/1/343 
f 7/1/7 377/1/345 375/1/343 
f 7/1/7 9/1/9 377/1/345 
f 9/1/9 378/1/346 377/1/345 
f 9/1/9 11/1/11 378/1/346 
f 11/1/11 379/1/347 378/1/346 
f 11/1/11 10/1/10 379/1/347 
f 10/1/10 380/1/348 379/1/347 
f 10/1/10 13/1/13 380/1/348 
f 13/1/13 381/1/349 380/1/348 
f 13/1/13 12/1/12 381/1/349 
f 12/1/12 385/1/353 381/1/349 
f 12/1/12 17/1/17 385/1/353 
f 17/1/17 384/1/352 385/1/353 
f 17/1/17 14/1/14 384/1/352 
f 14/1/14 382/1/350 384/1/352 
f 14/1/14 16/1/16 382/1/350 
f 16/1/16 383/1/351 382/1/350 
f 16/1/16 15/1/15 383/1/351 
f 15/1/15 386/1/354 383/1/351 
f 15/1/15 19/1/19 386/1/354 
f 19/1/19 387/1/355 386/1/354 
f 19/1/19 18/1/18 387/1/355 
f 18/1/18 403/1/371 387/1/355 
f 18/1/18 35/1/35 403/1/371 
f 35/1/35 402/1/370 403/1/371 
f 35/1/35 34/1/34 402/1/370 
f 34/1/34 401/1/369 402/1/370 
f 34/1/34 33/1/33 401/1/369 
f 33/1/33 392/1/360 401/1/369 
f 33/1/33 24/1/24 392/1/360 
f 24/1/24 391/1/359 392/1/360 
f 24/1/24 23/1/23 391/1/359 
f 23/1/23 390/1/358 391/1/359 
f 23/1/23 20/1/20 390/1/358 
f 20/1/20 388/1/356 390/1/358 
f 20/1/20 22/1/22 388/1/356 
f 22/1/22 389/1/357 388/1/356 
f 22/1/22 21/1/21 389/1/357 
f 21/1/21 393/1/361 389/1/357 
f 21/1/21 25/1/25 393/1/361 
f 25/1/25 394/1/362 393/1/361 
f 25/1/25 26/1/26 394/1/362 
f 26/1/26 395/1/363 394/1/362 
f 26/1/26 28/1/28 395/1/363 
f 28/1/28 396/1/364 395/1/363 
f 28/1/28 27/1/27 396/1/364 
f 27/1/27 397/1/365 396/1/364 
f 27/1/27 30/1/30 397/1/365 
f 30/1/30 398/1/366 397/1/365 
f 30/1/30 29/1/29 398/1/366 
f 29/1/29 399/1/367 398/1/366 
f 29/1/29 32/1/32 399/1/367 
f 32/1/32 400/1/368 399/1/367 
f 32/1/32 31/1/31 400/1/368 
f 31/1/31 371/1/339 400/1/368 
f 31/1/31 1/1/1 371/1/339 
f 1/1/1 369/1/337 371/1/339 
f 1/1/1 3/1/3 369/1/337 
f 38/1/38 415/1/383 404/1/372 
f 38/1/38 47/1/47 415/1/383 
f 47/1/47 416/1/384 415/1/383 
f 47/1/47 49/1/49 416/1/384 
f 49/1/49 417/1/385 416/1/384 
f 49/1/49 48/1/48 417/1/385 
f 48/1/48 418/1/386 417/1/385 
f 48/1/48 51/1/51 418/1/386 
f 51/1/51 419/1/387 418/1/386 
f 51/1/51 50/1/50 419/1/387 
f 50/1/50 420/1/388 419/1/387 
f 50/1/50 53/1/53 420/1/388 
f 53/1/53 421/1/389 420/1/388 
f 53/1/53 52/1/52 421/1/389 
f 52/1/52 422/1/390 421/1/389 
f 52/1/52 55/1/55 422/1/390 
f 55/1/55 423/1/391 422/1/390 
f 55/1/55 54/1/54 423/1/391 
f 54/1/54 442/1/410 423/1/391 
f 54/1/54 74/1/74 442/1/410 
f 74/1/74 425/1/393 442/1/410 
f 74/1/74 56/1/56 425/1/393 
f 56/1/56 423/1/391 425/1/393 
f 56/1/56 54/1/54 423/1/391 
f 54/1/54 424/1/392 423/1/391 
f 54/1/54 57/1/57 424/1/392 
f 57/1/57 443/1/411 424/1/392 
f 57/1/57 75/1/75 443/1/411 
f 75/1/75 430/1/398 443/1/411 
f 75/1/75 62/1/62 430/1/398 
f 62/1/62 429/1/397 430/1/398 
f 62/1/62 61/1/61 429/1/397 
f 61/1/61 428/1/396 429/1/397 
f 61/1/61 58/1/58 428/1/396 
f 58/1/58 426/1/394 428/1/396 
f 58/1/58 60/1/60 426/1/394 
f 60/1/60 427/1/395 426/1/394 
f 60/1/60 59/1/59 427/1/395 
f 59/1/59 431/1/399 427/1/395 
f 59/1/59 63/1/63 431/1/399 
f 63/1/63 432/1/400 431/1/399 
f 63/1/63 64/1/64 432/1/400 
f 64/1/64 433/1/401 432/1/400 
f 64/1/64 66/1/66 433/1/401 
f 66/1/66 434/1/402 433/1/401 
f 66/1/66 65/1/65 434/1/402 
f 65/1/65 435/1/403 434/1/402 
f 65/1/65 68/1/68 435/1/403 
f 68/1/68 436/1/404 435/1/403 
f 68/1/68 67/1/67 436/1/404 
f 67/1/67 437/1/405 436/1/404 
f 67/1/67 70/1/70 437/1/405 
f 70/1/70 438/1/406 437/1/405 
f 70/1/70 69/1/69 438/1/406 
f 69/1/69 439/1/407 438/1/406 
f 69/1/69 72/1/72 439/1/407 
f 72/1/72 440/1/408 439/1/407 
f 72/1/72 71/1/71 440/1/408 
f 71/1/71 406/1/374 440/1/408 
f 71/1/71 36/1/36 406/1/374 
f 36/1/36 404/1/372 406/1/374 
f 36/1/36 38/1/38 404/1/372 
f 37/1/37 445/1/413 405/1/373 
f 37/1/37 77/1/77 445/1/413 
f 77/1/77 444/1/412 445/1/413 
f 77/1/77 76/1/76 444/1/412 
f 76/1/76 409/1/377 444/1/412 
f 76/1/76 39/1/39 409/1/377 
f 39/1/39 407/1/375 409/1/377 
f 39/1/39 41/1/41 407/1/375 
f 41/1/41 408/1/376 407/1/375 
f 41/1/41 40/1/40 408/1/376 
f 40/1/40 410/1/378 408/1/376 
f 40/1/40 42/1/42 410/1/378 
f 42/1/42 441/1/409 410/1/378 
f 42/1/42 73/1/73 441/1/409 
f 73/1/73 414/1/382 441/1/409 
f 73/1/73 46/1/46 414/1/382 
f 46/1/46 413/1/381 414/1/382 
f 46/1/46 45/1/45 413/1/381 
f 45/1/45 412/1/380 413/1/381 
f 45/1/45 44/1/44 412/1/380 
f 44/1/44 411/1/379 412/1/380 
f 44/1/44 43/1/43 411/1/379 
f 43/1/43 405/1/373 411/1/379 
f 43/1/43 37/1/37 405/1/373 
f 80/1/80 447/1/415 446/1/414 
f 80/1/80 79/1/79 447/1/415 
f 79/1/79 449/1/417 447/1/415 
f 79/1/79 82/1/82 449/1/417 
f 82/1/82 450/1/418 449/1/417 
f 82/1/82 81/1/81 450/1/418 
f 81/1/81 474/1/442 450/1/418 
f 81/1/81 106/1/106 474/1/442 
f 106/1/106 454/1/422 474/1/442 
f 106/1/106 86/1/86 454/1/422 
f 86/1/86 453/1/421 454/1/422 
f 86/1/86 83/1/83 453/1/421 
f 83/1/83 451/1/419 453/1/421 
f 83/1/83 85/1/85 451/1/419 
f 85/1/85 452/1/420 451/1/419 
f 85/1/85 84/1/84 452/1/420 
f 84/1/84 455/1/423 452/1/420 
f 84/1/84 87/1/87 455/1/423 
f 87/1/87 456/1/424 455/1/423 
f 87/1/87 89/1/89 456/1/424 
f 89/1/89 457/1/425 456/1/424 
f 89/1/89 88/1/88 457/1/425 
f 88/1/88 458/1/426 457/1/425 
f 88/1/88 91/1/91 458/1/426 
f 91/1/91 459/1/427 458/1/426 
f 91/1/91 90/1/90 459/1/427 
f 90/1/90 460/1/428 459/1/427 
f 90/1/90 93/1/93 460/1/428 
f 93/1/93 461/1/429 460/1/428 
f 93/1/93 92/1/92 461/1/429 
f 92/1/92 475/1/443 461/1/429 
f 92/1/92 107/1/107 475/1/443 
f 107/1/107 476/1/444 475/1/443 
f 107/1/107 108/1/108 476/1/444 
f 108/1/108 464/1/432 476/1/444 
f 108/1/108 94/1/94 464/1/432 
f 94/1/94 462/1/430 464/1/432 
f 94/1/94 96/1/96 462/1/430 
f 96/1/96 463/1/431 462/1/430 
f 96/1/96 95/1/95 463/1/431 
f 95/1/95 465/1/433 463/1/431 
f 95/1/95 97/1/97 465/1/433 
f 97/1/97 466/1/434 465/1/433 
f 97/1/97 98/1/98 466/1/434 
f 98/1/98 467/1/435 466/1/434 
f 98/1/98 99/1/99 467/1/435 
f 99/1/99 468/1/436 467/1/435 
f 99/1/99 101/1/101 468/1/436 
f 101/1/101 469/1/437 468/1/436 
f 101/1/101 100/1/100 469/1/437 
f 100/1/100 470/1/438 469/1/437 
f 100/1/100 103/1/103 470/1/438 
f 103/1/103 471/1/439 470/1/438 
f 103/1/103 102/1/102 471/1/439 
f 102/1/102 472/1/440 471/1/439 
f 102/1/102 105/1/105 472/1/440 
f 105/1/105 473/1/441 472/1/440 
f 105/1/105 104/1/104 473/1/441 
f 104/1/104 448/1/416 473/1/441 
f 104/1/104 78/1/78 448/1/416 
f 78/1/78 446/1/414 448/1/416 
f 78/1/78 80/1/80 446/1/414 
f 109/1/109 485/1/453 479/1/447 
f 109/1/109 117/1/117 485/1/453 
f 117/1/117 486/1/454 485/1/453 
f 117/1/117 118/1/118 486/1/454 
f 118/1/118 487/1/455 486/1/454 
f 118/1/118 119/1/119 487/1/455 
f 119/1/119 488/1/456 487/1/455 
f 119/1/119 120/1/120 488/1/456 
f 120/1/120 489/1/457 488/1/456 
f 120/1/120 121/1/121 489/1/457 
f 121/1/121 491/1/459 489/1/457 
f 121/1/121 123/1/123 491/1/459 
f 123/1/123 492/1/460 491/1/459 
f 123/1/123 125/1/125 492/1/460 
f 125/1/125 493/1/461 492/1/460 
f 125/1/125 124/1/124 493/1/461 
f 124/1/124 494/1/462 493/1/461 
f 124/1/124 127/1/127 494/1/462 
f 127/1/127 495/1/463 494/1/462 
f 127/1/127 126/1/126 495/1/463 
f 126/1/126 496/1/464 495/1/463 
f 126/1/126 129/1/129 496/1/464 
f 129/1/129 497/1/465 496/1/464 
f 129/1/129 128/1/128 497/1/465 
f 128/1/128 498/1/466 497/1/465 
f 128/1/128 131/1/131 498/1/466 
f 131/1/131 499/1/467 498/1/466 
f 131/1/131 130/1/130 499/1/467 
f 130/1/130 500/1/468 499/1/467 
f 130/1/130 133/1/133 500/1/468 
f 133/1/133 501/1/469 500/1/468 
f 133/1/133 132/1/132 501/1/469 
f 132/1/132 502/1/470 501/1/469 
f 132/1/132 135/1/135 502/1/470 
f 135/1/135 503/1/471 502/1/470 
f 135/1/135 134/1/134 503/1/471 
f 134/1/134 504/1/472 503/1/471 
f 134/1/134 137/1/137 504/1/472 
f 137/1/137 505/1/473 504/1/472 
f 137/1/137 136/1/136 505/1/473 
f 136/1/136 508/1/476 505/1/473 
f 136/1/136 138/1/138 508/1/476 
f 138/1/138 506/1/474 508/1/476 
f 138/1/138 140/1/140 506/1/474 
f 140/1/140 507/1/475 506/1/474 
f 140/1/140 139/1/139 507/1/475 
f 139/1/139 509/1/477 507/1/475 
f 139/1/139 141/1/141 509/1/477 
f 141/1/141 479/1/447 509/1/477 
f 141/1/141 109/1/109 479/1/447 
f 148/1/148 515/1/483 516/1/484 
f 148/1/148 147/1/147 515/1/483 
f 147/1/147 513/1/481 515/1/483 
f 147/1/147 145/1/145 513/1/481 
f 145/1/145 512/1/480 513/1/481 
f 145/1/145 144/1/144 512/1/480 
f 144/1/144 511/1/479 512/1/480 
f 144/1/144 143/1/143 511/1/479 
f 143/1/143 510/1/478 511/1/479 
f 143/1/143 142/1/142 510/1/478 
f 142/1/142 490/1/458 510/1/478 
f 142/1/142 122/1/122 490/1/458 
f 122/1/122 483/1/451 490/1/458 
f 122/1/122 113/1/113 483/1/451 
f 113/1/113 481/1/449 483/1/451 
f 113/1/113 115/1/115 481/1/449 
f 115/1/115 482/1/450 481/1/449 
f 115/1/115 114/1/114 482/1/450 
f 114/1/114 484/1/452 482/1/450 
f 114/1/114 116/1/116 484/1/452 
f 116/1/116 477/1/445 484/1/452 
f 116/1/116 111/1/111 477/1/445 
f 111/1/111 478/1/446 477/1/445 
f 111/1/111 110/1/110 478/1/446 
f 110/1/110 480/1/448 478/1/446 
f 110/1/110 112/1/112 480/1/448 
f 112/1/112 514/1/482 480/1/448 
f 112/1/112 146/1/146 514/1/482 
f 146/1/146 518/1/486 514/1/482 
f 146/1/146 150/1/150 518/1/486 
f 150/1/150 517/1/485 518/1/486 
f 150/1/150 149/1/149 517/1/485 
f 149/1/149 516/1/484 517/1/485 
f 149/1/149 148/1/148 516/1/484 
f 153/1/38 530/1/383 519/1/372 
f 153/1/38 162/1/47 530/1/383 
f 162/1/47 531/1/488 530/1/383 
f 162/1/47 164/1/152 531/1/488 
f 164/1/152 532/1/385 531/1/488 
f 164/1/152 163/1/48 532/1/385 
f 163/1/48 533/1/386 532/1/385 
f 163/1/48 166/1/51 533/1/386 
f 166/1/51 534/1/387 533/1/386 
f 166/1/51 165/1/50 534/1/387 
f 165/1/50 535/1/388 534/1/387 
f 165/1/50 168/1/53 535/1/388 
f 168/1/53 536/1/389 535/1/388 
f 168/1/53 167/1/52 536/1/389 
f 167/1/52 537/1/390 536/1/389 
f 167/1/52 170/1/55 537/1/390 
f 170/1/55 538/1/489 537/1/390 
f 170/1/55 169/1/153 538/1/489 
f 169/1/153 557/1/494 538/1/489 
f 169/1/153 189/1/158 557/1/494 
f 189/1/158 540/1/393 557/1/494 
f 189/1/158 171/1/56 540/1/393 
f 171/1/56 538/1/489 540/1/393 
f 171/1/56 169/1/153 538/1/489 
f 169/1/153 539/1/392 538/1/489 
f 169/1/153 172/1/57 539/1/392 
f 172/1/57 558/1/495 539/1/392 
f 172/1/57 190/1/159 558/1/495 
f 190/1/159 545/1/398 558/1/495 
f 190/1/159 177/1/62 545/1/398 
f 177/1/62 544/1/397 545/1/398 
f 177/1/62 176/1/61 544/1/397 
f 176/1/61 543/1/396 544/1/397 
f 176/1/61 173/1/58 543/1/396 
f 173/1/58 541/1/394 543/1/396 
f 173/1/58 175/1/60 541/1/394 
f 175/1/60 542/1/490 541/1/394 
f 175/1/60 174/1/154 542/1/490 
f 174/1/154 546/1/491 542/1/490 
f 174/1/154 178/1/155 546/1/491 
f 178/1/155 547/1/400 546/1/491 
f 178/1/155 179/1/64 547/1/400 
f 179/1/64 548/1/401 547/1/400 
f 179/1/64 181/1/66 548/1/401 
f 181/1/66 549/1/402 548/1/401 
f 181/1/66 180/1/65 549/1/402 
f 180/1/65 550/1/403 549/1/402 
f 180/1/65 183/1/68 550/1/403 
f 183/1/68 551/1/404 550/1/403 
f 183/1/68 182/1/67 551/1/404 
f 182/1/67 552/1/405 551/1/404 
f 182/1/67 185/1/70 552/1/405 
f 185/1/70 553/1/492 552/1/405 
f 185/1/70 184/1/156 553/1/492 
f 184/1/156 554/1/493 553/1/492 
f 184/1/156 187/1/157 554/1/493 
f 187/1/157 555/1/408 554/1/493 
f 187/1/157 186/1/71 555/1/408 
f 186/1/71 521/1/374 555/1/408 
f 186/1/71 151/1/36 521/1/374 
f 151/1/36 519/1/372 521/1/374 
f 151/1/36 153/1/38 519/1/372 
f 152/1/37 560/1/496 520/1/373 
f 152/1/37 192/1/160 560/1/496 
f 192/1/160 559/1/412 560/1/496 
f 192/1/160 191/1/76 559/1/412 
f 191/1/76 524/1/377 559/1/412 
f 191/1/76 154/1/39 524/1/377 
f 154/1/39 522/1/375 524/1/377 
f 154/1/39 156/1/41 522/1/375 
f 156/1/41 523/1/376 522/1/375 
f 156/1/41 155/1/40 523/1/376 
f 155/1/40 525/1/378 523/1/376 
f 155/1/40 157/1/42 525/1/378 
f 157/1/42 556/1/409 525/1/378 
f 157/1/42 188/1/73 556/1/409 
f 188/1/73 529/1/487 556/1/409 
f 188/1/73 161/1/151 529/1/487 
f 161/1/151 528/1/381 529/1/487 
f 161/1/151 160/1/45 528/1/381 
f 160/1/45 527/1/380 528/1/381 
f 160/1/45 159/1/44 527/1/380 
f 159/1/44 526/1/379 527/1/380 
f 159/1/44 158/1/43 526/1/379 
f 158/1/43 520/1/373 526/1/379 
f 158/1/43 152/1/37 520/1/373 
f 195/1/163 562/1/498 561/1/497 
f 195/1/163 194/1/162 562/1/498 
f 194/1/162 564/1/500 562/1/498 
f 194/1/162 197/1/165 564/1/500 
f 197/1/165 565/1/501 564/1/500 
f 197/1/165 196/1/164 565/1/501 
f 196/1/164 566/1/502 565/1/501 
f 196/1/164 199/1/167 566/1/502 
f 199/1/167 567/1/503 566/1/502 
f 199/1/167 198/1/166 567/1/503 
f 198/1/166 615/1/551 567/1/503 
f 198/1/166 247/1/215 615/1/551 
f 247/1/215 570/1/506 615/1/551 
f 247/1/215 200/1/168 570/1/506 
f 200/1/168 568/1/504 570/1/506 
f 200/1/168 202/1/170 568/1/504 
f 202/1/170 569/1/505 568/1/504 
f 202/1/170 201/1/169 569/1/505 
f 201/1/169 571/1/507 569/1/505 
f 201/1/169 203/1/171 571/1/507 
f 203/1/171 572/1/508 571/1/507 
f 203/1/171 204/1/172 572/1/508 
f 204/1/172 573/1/509 572/1/508 
f 204/1/172 206/1/174 573/1/509 
f 206/1/174 574/1/510 573/1/509 
f 206/1/174 205/1/173 574/1/510 
f 205/1/173 575/1/511 574/1/510 
f 205/1/173 208/1/176 575/1/511 
f 208/1/176 576/1/512 575/1/511 
f 208/1/176 207/1/175 576/1/512 
f 207/1/175 577/1/513 576/1/512 
f 207/1/175 210/1/178 577/1/513 
f 210/1/178 578/1/514 577/1/513 
f 210/1/178 209/1/177 578/1/514 
f 209/1/177 579/1/515 578/1/514 
f 209/1/177 212/1/180 579/1/515 
f 212/1/180 580/1/516 579/1/515 
f 212/1/180 211/1/179 580/1/516 
f 211/1/179 581/1/517 580/1/516 
f 211/1/179 214/1/182 581/1/517 
f 214/1/182 582/1/518 581/1/517 
f 214/1/182 213/1/181 582/1/518 
f 213/1/181 583/1/519 582/1/518 
f 213/1/181 216/1/184 583/1/519 
f 216/1/184 584/1/520 583/1/519 
f 216/1/184 215/1/183 584/1/520 
f 215/1/183 585/1/521 584/1/520 
f 215/1/183 218/1/186 585/1/521 
f 218/1/186 586/1/522 585/1/521 
f 218/1/186 217/1/185 586/1/522 
f 217/1/185 587/1/523 586/1/522 
f 217/1/185 220/1/188 587/1/523 
f 220/1/188 588/1/524 587/1/523 
f 220/1/188 219/1/187 588/1/524 
f 219/1/187 589/1/525 588/1/524 
f 219/1/187 222/1/190 589/1/525 
f 222/1/190 590/1/526 589/1/525 
f 222/1/190 221/1/189 590/1/526 
f 221/1/189 616/1/552 590/1/526 
f 221/1/189 248/1/216 616/1/552 
f 248/1/216 622/1/558 616/1/552 
f 248/1/216 254/1/222 622/1/558 
f 254/1/222 617/1/553 622/1/558 
f 254/1/222 249/1/217 617/1/553 
f 249/1/217 594/1/530 617/1/553 
f 249/1/217 226/1/194 594/1/530 
f 226/1/194 593/1/529 594/1/530 
f 226/1/194 223/1/191 593/1/529 
f 223/1/191 591/1/527 593/1/529 
f 223/1/191 225/1/193 591/1/527 
f 225/1/193 592/1/528 591/1/527 
f 225/1/193 224/1/192 592/1/528 
f 224/1/192 595/1/531 592/1/528 
f 224/1/192 227/1/195 595/1/531 
f 227/1/195 596/1/532 595/1/531 
f 227/1/195 228/1/196 596/1/532 
f 228/1/196 597/1/533 596/1/532 
f 228/1/196 230/1/198 597/1/533 
f 230/1/198 598/1/534 597/1/533 
f 230/1/198 229/1/197 598/1/534 
f 229/1/197 599/1/535 598/1/534 
f 229/1/197 232/1/200 599/1/535 
f 232/1/200 600/1/536 599/1/535 
f 232/1/200 231/1/199 600/1/536 
f 231/1/199 620/1/556 600/1/536 
f 231/1/199 252/1/220 620/1/556 
f 252/1/220 621/1/557 620/1/556 
f 252/1/220 253/1/221 621/1/557 
f 253/1/221 619/1/555 621/1/557 
f 253/1/221 251/1/219 619/1/555 
f 251/1/219 618/1/554 619/1/555 
f 251/1/219 250/1/218 618/1/554 
f 250/1/218 609/1/545 618/1/554 
f 250/1/218 241/1/209 609/1/545 
f 241/1/209 603/1/539 609/1/545 
f 241/1/209 233/1/201 603/1/539 
f 233/1/201 601/1/537 603/1/539 
f 233/1/201 235/1/203 601/1/537 
f 235/1/203 602/1/538 601/1/537 
f 235/1/203 234/1/202 602/1/538 
f 234/1/202 604/1/540 602/1/538 
f 234/1/202 236/1/204 604/1/540 
f 236/1/204 605/1/541 604/1/540 
f 236/1/204 237/1/205 605/1/541 
f 237/1/205 606/1/542 605/1/541 
f 237/1/205 238/1/206 606/1/542 
f 238/1/206 607/1/543 606/1/542 
f 238/1/206 239/1/207 607/1/543 
f 239/1/207 608/1/544 607/1/543 
f 239/1/207 240/1/208 608/1/544 
f 240/1/208 610/1/546 608/1/544 
f 240/1/208 243/1/211 610/1/546 
f 243/1/211 611/1/547 610/1/546 
f 243/1/211 242/1/210 611/1/547 
f 242/1/210 612/1/548 611/1/547 
f 242/1/210 245/1/213 612/1/548 
f 245/1/213 613/1/549 612/1/548 
f 245/1/213 244/1/212 613/1/549 
f 244/1/212 614/1/550 613/1/549 
f 244/1/212 246/1/214 614/1/550 
f 246/1/214 563/1/499 614/1/550 
f 246/1/214 193/1/161 563/1/499 
f 193/1/161 561/1/497 563/1/499 
f 193/1/161 195/1/163 561/1/497 
f 255/1/223 631/1/567 625/1/561 
f 255/1/223 263/1/231 631/1/567 
f 263/1/231 632/1/568 631/1/567 
f 263/1/231 264/1/232 632/1/568 
f 264/1/232 633/1/569 632/1/568 
f 264/1/232 265/1/233 633/1/569 
f 265/1/233 636/1/572 633/1/569 
f 265/1/233 269/1/237 636/1/572 
f 269/1/237 637/1/573 636/1/572 
f 269/1/237 268/1/236 637/1/573 
f 268/1/236 638/1/574 637/1/573 
f 268/1/236 270/1/238 638/1/574 
f 270/1/238 639/1/575 638/1/574 
f 270/1/238 271/1/239 639/1/575 
f 271/1/239 640/1/576 639/1/575 
f 271/1/239 273/1/241 640/1/576 
f 273/1/241 641/1/577 640/1/576 
f 273/1/241 272/1/240 641/1/577 
f 272/1/240 642/1/578 641/1/577 
f 272/1/240 275/1/243 642/1/578 
f 275/1/243 643/1/579 642/1/578 
f 275/1/243 274/1/242 643/1/579 
f 274/1/242 644/1/580 643/1/579 
f 274/1/242 277/1/245 644/1/580 
f 277/1/245 645/1/581 644/1/580 
f 277/1/245 276/1/244 645/1/581 
f 276/1/244 648/1/584 645/1/581 
f 276/1/244 278/1/246 648/1/584 
f 278/1/246 646/1/582 648/1/584 
f 278/1/246 280/1/248 646/1/582 
f 280/1/248 647/1/583 646/1/582 
f 280/1/248 279/1/247 647/1/583 
f 279/1/247 649/1/585 647/1/583 
f 279/1/247 281/1/249 649/1/585 
f 281/1/249 650/1/586 649/1/585 
f 281/1/249 283/1/251 650/1/586 
f 283/1/251 651/1/587 650/1/586 
f 283/1/251 282/1/250 651/1/587 
f 282/1/250 652/1/588 651/1/587 
f 282/1/250 285/1/253 652/1/588 
f 285/1/253 653/1/589 652/1/588 
f 285/1/253 284/1/252 653/1/589 
f 284/1/252 654/1/590 653/1/589 
f 284/1/252 287/1/255 654/1/590 
f 287/1/255 655/1/591 654/1/590 
f 287/1/255 286/1/254 655/1/591 
f 286/1/254 656/1/592 655/1/591 
f 286/1/254 288/1/256 656/1/592 
f 288/1/256 625/1/561 656/1/592 
f 288/1/256 255/1/223 625/1/561 
f 291/1/259 629/1/565 659/1/595 
f 291/1/259 259/1/227 629/1/565 
f 259/1/227 627/1/563 629/1/565 
f 259/1/227 261/1/229 627/1/563 
f 261/1/229 628/1/564 627/1/563 
f 261/1/229 260/1/228 628/1/564 
f 260/1/228 630/1/566 628/1/564 
f 260/1/228 262/1/230 630/1/566 
f 262/1/230 635/1/571 630/1/566 
f 262/1/230 267/1/235 635/1/571 
f 267/1/235 634/1/570 635/1/571 
f 267/1/235 266/1/234 634/1/570 
f 266/1/234 623/1/559 634/1/570 
f 266/1/234 257/1/225 623/1/559 
f 257/1/225 624/1/560 623/1/559 
f 257/1/225 256/1/224 624/1/560 
f 256/1/224 626/1/562 624/1/560 
f 256/1/224 258/1/226 626/1/562 
f 258/1/226 657/1/593 626/1/562 
f 258/1/226 289/1/257 657/1/593 
f 289/1/257 658/1/594 657/1/593 
f 289/1/257 290/1/258 658/1/594 
f 290/1/258 660/1/596 658/1/594 
f 290/1/258 292/1/260 660/1/596 
f 292/1/260 661/1/597 660/1/596 
f 292/1/260 293/1/261 661/1/597 
f 293/1/261 659/1/595 661/1/597 
f 293/1/261 291/1/259 659/1/595 
f 294/1/262 662/1/598 664/1/600 
f 294/1/262 296/1/264 662/1/598 
f 296/1/264 663/1/599 662/1/598 
f 296/1/264 295/1/263 663/1/599 
f 295/1/263 664/1/600 663/1/599 
f 295/1/263 294/1/262 664/1/600 
f 297/1/265 664/1/600 666/1/602 
f 297/1/265 294/1/262 664/1/600 
f 294/1/262 665/1/601 664/1/600 
f 294/1/262 298/1/266 665/1/601 
f 298/1/266 666/1/602 665/1/601 
f 298/1/266 297/1/265 666/1/602 
f 301/1/269 668/1/604 667/1/603 
f 301/1/269 300/1/268 668/1/604 
f 300/1/268 670/1/606 668/1/604 
f 300/1/268 303/1/271 670/1/606 
f 303/1/271 671/1/607 670/1/606 
f 303/1/271 302/1/270 671/1/607 
f 302/1/270 672/1/608 671/1/607 
f 302/1/270 305/1/273 672/1/608 
f 305/1/273 673/1/609 672/1/608 
f 305/1/273 304/1/272 673/1/609 
f 304/1/272 674/1/610 673/1/609 
f 304/1/272 307/1/275 674/1/610 
f 307/1/275 675/1/611 674/1/610 
f 307/1/275 306/1/274 675/1/611 
f 306/1/274 732/1/668 675/1/611 
f 306/1/274 364/1/332 732/1/668 
f 364/1/332 735/1/671 732/1/668 
f 364/1/332 367/1/335 735/1/671 
f 367/1/335 736/1/672 735/1/671 
f 367/1/335 368/1/336 736/1/672 
f 368/1/336 734/1/670 736/1/672 
f 368/1/336 366/1/334 734/1/670 
f 366/1/334 733/1/669 734/1/670 
f 366/1/334 365/1/333 733/1/669 
f 365/1/333 678/1/614 733/1/669 
f 365/1/333 308/1/276 678/1/614 
f 308/1/276 676/1/612 678/1/614 
f 308/1/276 310/1/278 676/1/612 
f 310/1/278 677/1/613 676/1/612 
f 310/1/278 309/1/277 677/1/613 
f 309/1/277 679/1/615 677/1/613 
f 309/1/277 311/1/279 679/1/615 
f 311/1/279 727/1/663 679/1/615 
f 311/1/279 359/1/327 727/1/663 
f 359/1/327 683/1/619 727/1/663 
f 359/1/327 315/1/283 683/1/619 
f 315/1/283 682/1/618 683/1/619 
f 315/1/283 312/1/280 682/1/618 
f 312/1/280 680/1/616 682/1/618 
f 312/1/280 314/1/282 680/1/616 
f 314/1/282 681/1/617 680/1/616 
f 314/1/282 313/1/281 681/1/617 
f 313/1/281 684/1/620 681/1/617 
f 313/1/281 316/1/284 684/1/620 
f 316/1/284 685/1/621 684/1/620 
f 316/1/284 317/1/285 685/1/621 
f 317/1/285 686/1/622 685/1/621 
f 317/1/285 318/1/286 686/1/622 
f 318/1/286 687/1/623 686/1/622 
f 318/1/286 319/1/287 687/1/623 
f 319/1/287 688/1/624 687/1/623 
f 319/1/287 320/1/288 688/1/624 
f 320/1/288 689/1/625 688/1/624 
f 320/1/288 321/1/289 689/1/625 
f 321/1/289 692/1/628 689/1/625 
f 321/1/289 322/1/290 692/1/628 
f 322/1/290 690/1/626 692/1/628 
f 322/1/290 324/1/292 690/1/626 
f 324/1/292 691/1/627 690/1/626 
f 324/1/292 323/1/291 691/1/627 
f 323/1/291 693/1/629 691/1/627 
f 323/1/291 325/1/293 693/1/629 
f 325/1/293 694/1/630 693/1/629 
f 325/1/293 327/1/295 694/1/630 
f 327/1/295 695/1/631 694/1/630 
f 327/1/295 326/1/294 695/1/631 
f 326/1/294 696/1/632 695/1/631 
f 326/1/294 329/1/297 696/1/632 
f 329/1/297 697/1/633 696/1/632 
f 329/1/297 328/1/296 697/1/633 
f 328/1/296 698/1/634 697/1/633 
f 328/1/296 331/1/299 698/1/634 
f 331/1/299 699/1/635 698/1/634 
f 331/1/299 330/1/298 699/1/635 
f 330/1/298 700/1/636 699/1/635 
f 330/1/298 333/1/301 700/1/636 
f 333/1/301 701/1/637 700/1/636 
f 333/1/301 332/1/300 701/1/637 
f 332/1/300 728/1/664 701/1/637 
f 332/1/300 360/1/328 728/1/664 
f 360/1/328 729/1/665 728/1/664 
f 360/1/328 361/1/329 729/1/665 
f 361/1/329 730/1/666 729/1/665 
f 361/1/329 362/1/330 730/1/666 
f 362/1/330 705/1/641 730/1/666 
f 362/1/330 337/1/305 705/1/641 
f 337/1/305 704/1/640 705/1/641 
f 337/1/305 334/1/302 704/1/640 
f 334/1/302 702/1/638 704/1/640 
f 334/1/302 336/1/304 702/1/638 
f 336/1/304 703/1/639 702/1/638 
f 336/1/304 335/1/303 703/1/639 
f 335/1/303 706/1/642 703/1/639 
f 335/1/303 338/1/306 706/1/642 
f 338/1/306 707/1/643 706/1/642 
f 338/1/306 339/1/307 707/1/643 
f 339/1/307 708/1/644 707/1/643 
f 339/1/307 341/1/309 708/1/644 
f 341/1/309 709/1/645 708/1/644 
f 341/1/309 340/1/308 709/1/645 
f 340/1/308 710/1/646 709/1/645 
f 340/1/308 343/1/311 710/1/646 
f 343/1/311 711/1/647 710/1/646 
f 343/1/311 342/1/310 711/1/647 
f 342/1/310 712/1/648 711/1/647 
f 342/1/310 344/1/312 712/1/648 
f 344/1/312 713/1/649 712/1/648 
f 344/1/312 346/1/314 713/1/649 
f 346/1/314 714/1/650 713/1/649 
f 346/1/314 345/1/313 714/1/650 
f 345/1/313 715/1/651 714/1/650 
f 345/1/313 348/1/316 715/1/651 
f 348/1/316 716/1/652 715/1/651 
f 348/1/316 347/1/315 716/1/652 
f 347/1/315 717/1/653 716/1/652 
f 347/1/315 350/1/318 717/1/653 
f 350/1/318 718/1/654 717/1/653 
f 350/1/318 349/1/317 718/1/654 
f 349/1/317 662/1/598 718/1/654 
f 349/1/317 296/1/264 662/1/598 
f 296/1/264 719/1/655 662/1/598 
f 296/1/264 351/1/319 719/1/655 
f 351/1/319 731/1/667 719/1/655 
f 351/1/319 363/1/331 731/1/667 
f 363/1/331 721/1/657 731/1/667 
f 363/1/331 352/1/320 721/1/657 
f 352/1/320 666/1/602 721/1/657 
f 352/1/320 297/1/265 666/1/602 
f 297/1/265 720/1/656 666/1/602 
f 297/1/265 353/1/321 720/1/656 
f 353/1/321 722/1/658 720/1/656 
f 353/1/321 354/1/322 722/1/658 
f 354/1/322 723/1/659 722/1/658 
f 354/1/322 355/1/323 723/1/659 
f 355/1/323 724/1/660 723/1/659 
f 355/1/323 357/1/325 724/1/660 
f 357/1/325 725/1/661 724/1/660 
f 357/1/325 356/1/324 725/1/661 
f 356/1/324 726/1/662 725/1/661 
f 356/1/324 358/1/326 726/1/662 
f 358/1/326 669/1/605 726/1/662 
f 358/1/326 299/1/267 669/1/605 
f 299/1/267 667/1/603 669/1/605 
f 299/1/267 301/1/269 667/1/603 
# 1468 faces

