#
#
#

mtllib heart.mtl


#
# Love 메시
#
g Love 메시


#
# Love 메시_wire_143224087
#
usemtl Love 메시_wire_143224087

v 2.168163 9.630241 1.781877
v -0.090237 8.218607 1.939783
v -0.070317 6.524551 2.843023
v 3.780543 3.758566 -1.862763
v 2.291328 1.796071 -1.307058
v 1.808313 2.712541 -2.309253
v -2.352387 3.179641 2.382868
v -0.431622 1.553836 1.957812
v -0.047682 3.217426 2.763448
v 3.931323 2.983141 0.915657
v 2.366883 1.356841 -0.286338
v 4.683813 3.668221 -0.231423
v -0.418632 0.244771 -0.654663
v -2.705982 2.385316 -1.689393
v -0.324177 0.566446 -1.267758
v 2.892303 7.303186 -2.773968
v -0.082617 6.691726 -2.768703
v 2.352978 8.948732 -2.298168
v 3.789723 8.042656 -2.467128
v 3.726723 6.332101 -2.654523
v 5.033343 7.846171 1.908927
v 5.191383 5.787931 1.746192
v 5.915253 7.317091 0.910557
v -4.183302 10.001057 0.306597
v -5.554842 8.635876 0.781377
v -3.690897 9.647087 1.655187
v -3.843447 5.971817 2.627892
v -1.485552 4.684726 2.958238
v -3.224592 7.892566 2.705173
v -1.051242 2.382406 -2.343723
v -2.468757 4.140451 -2.645088
v -0.878787 5.598766 -2.975147
v -3.182412 7.726696 -2.725698
v 2.222073 4.764976 -2.855883
v -0.040302 3.645721 -2.888673
v -1.934847 4.889987 -2.893608
v -5.033368 9.338970 -0.548133
v -6.019453 7.783007 -0.499833
v 4.886748 6.656537 -2.134413
v 5.659368 7.696547 -1.452228
v 1.940283 10.063066 1.049202
v 2.124723 10.289883 -0.210108
v 0.003603 8.991346 0.965187
v 1.221903 5.517466 -2.967273
v 0.924738 0.487681 -0.572823
v 0.532488 0.496756 1.098432
v 2.257758 1.639666 1.157308
v 4.061853 3.203776 -0.961308
v 5.481978 5.636041 -1.296843
v 6.030078 6.337621 -0.026898
v -2.836797 2.336146 1.450362
v -2.648247 1.520401 0.024627
v -0.682077 0.518251 1.018002
v 0.780618 0.899161 -1.380768
v 0.560973 1.866886 -2.141688
v 2.848668 4.158496 -2.521038
v 4.247448 5.332336 -2.317263
v -4.234422 5.618971 -2.477432
v -0.000432 9.018227 -0.949578
v -1.816872 10.164181 -0.471828
v -4.287912 3.272566 0.581952
v -4.221912 3.212461 -0.665688
v -5.928402 6.064681 -0.585513
v -5.536422 5.162641 0.600507
v 4.150668 10.100416 -0.317643
v 5.173668 8.974247 1.062882
v 5.764803 8.448227 -0.601638
v 1.227213 2.114716 2.155422
v 2.564343 3.949996 2.587317
v 1.662919 5.062383 2.962514
v 4.152483 5.993596 2.525652
v 3.500133 7.654111 2.665213
v -2.052537 8.954792 2.217417
v -1.864752 9.872957 1.371418
v -5.840637 6.800701 1.133142
v -5.010312 7.714996 1.991772
v -2.174427 9.509687 -1.978158
v -4.885258 8.269247 -1.889793
v 3.559833 10.077721 0.943122
v 2.078733 9.964306 -1.359468
v 0.057453 8.159281 -2.002353
v 3.836553 9.564497 -1.623273
v -4.838502 5.282686 1.892787
v -3.412527 10.152376 -0.922548
v -4.112892 9.306046 -1.683813
v -2.815797 10.318081 0.481902
v 3.665733 3.808396 1.945302
v 5.641683 5.534761 0.765507
v -4.929358 4.751941 -1.371093
v -5.399413 6.609962 -1.776018
v 3.618573 9.210257 1.929972
v 2.496753 8.421751 2.545542
vn -0.111031 0.663064 0.740283
vn 0.000235 0.663720 0.747981
vn -0.011498 0.270473 0.962659
vn 0.544463 -0.471713 -0.693575
vn 0.515679 -0.668168 -0.536308
vn 0.289298 -0.439333 -0.850467
vn -0.321036 -0.416697 0.850470
vn -0.081112 -0.544564 0.834788
vn 0.007616 -0.303789 0.952709
vn 0.711619 -0.604998 0.357177
vn 0.622616 -0.781187 -0.045774
vn 0.818808 -0.569916 -0.068906
vn -0.215711 -0.959379 -0.181827
vn -0.506937 -0.592854 -0.625731
vn -0.062750 -0.740792 -0.668798
vn 0.069792 0.140798 -0.987575
vn 0.003071 0.317849 -0.948136
vn -0.052766 0.479643 -0.875876
vn 0.324726 0.265546 -0.907766
vn 0.302668 -0.013440 -0.953001
vn 0.593085 0.215963 0.775635
vn 0.723684 -0.251589 0.642639
vn 0.923684 0.083977 0.373839
vn -0.462607 0.876604 0.132516
vn -0.789964 0.515510 0.331975
vn -0.285505 0.699422 0.655207
vn -0.357289 -0.102732 0.928327
vn -0.092705 -0.078576 0.992588
vn -0.153504 0.238119 0.959029
vn -0.175182 -0.445041 -0.878208
vn -0.255487 -0.298142 -0.919694
vn -0.020878 0.065844 -0.997612
vn -0.151924 0.214058 -0.964934
vn 0.183590 -0.146944 -0.971958
vn -0.002332 -0.216817 -0.976209
vn -0.136402 -0.088969 -0.986650
vn -0.676626 0.686629 -0.265928
vn -0.947193 0.236675 -0.216357
vn 0.554083 -0.027827 -0.831996
vn 0.770867 0.181416 -0.610616
vn -0.273235 0.878682 0.391484
vn -0.223401 0.974301 -0.028809
vn 0.000552 0.962037 0.272917
vn 0.043850 -0.004451 -0.999028
vn -0.020878 0.065844 -0.997612
vn 0.069792 0.140798 -0.987575
vn 0.361270 -0.890946 -0.275135
vn 0.250973 -0.864316 0.435857
vn 0.527939 -0.687103 0.499170
vn 0.691883 -0.607794 -0.389724
vn 0.795186 -0.333841 -0.506190
vn 0.983149 -0.168606 -0.070642
vn -0.565177 -0.624137 0.539469
vn -0.623989 -0.781416 0.005239
vn -0.327365 -0.801304 0.500744
vn 0.293744 -0.687304 -0.664325
vn -0.062750 -0.740792 -0.668798
vn 0.083789 -0.491668 -0.866742
vn 0.340114 -0.319402 -0.884480
vn 0.468499 -0.239951 -0.850254
vn -0.506937 -0.592854 -0.625731
vn 0.083789 -0.491668 -0.866742
vn -0.002332 -0.216817 -0.976209
vn 0.250973 -0.864315 0.435857
vn 0.770867 0.181416 -0.610616
vn -0.002332 -0.216817 -0.976209
vn -0.002332 -0.216817 -0.976209
vn -0.020878 0.065844 -0.997612
vn 0.554083 -0.027827 -0.831996
vn 0.691883 -0.607794 -0.389724
vn 0.544463 -0.471713 -0.693575
vn 0.083789 -0.491668 -0.866742
vn 0.289298 -0.439333 -0.850467
vn 0.083789 -0.491668 -0.866742
vn 0.361270 -0.890946 -0.275135
vn -0.062750 -0.740792 -0.668798
vn 0.293744 -0.687304 -0.664325
vn 0.554083 -0.027827 -0.831996
vn 0.302668 -0.013440 -0.953001
vn -0.436723 -0.171074 -0.883180
vn -0.255487 -0.298142 -0.919694
vn -0.002332 -0.216817 -0.976209
vn -0.255487 -0.298142 -0.919695
vn 0.515679 -0.668168 -0.536308
vn 0.515679 -0.668168 -0.536308
vn 0.183590 -0.146944 -0.971958
vn -0.002332 -0.216817 -0.976209
vn 0.544463 -0.471713 -0.693575
vn -0.006447 0.936303 -0.351134
vn 0.317563 0.940876 -0.117924
vn -0.746277 -0.611367 0.263251
vn -0.774171 -0.596798 -0.210929
vn -0.940971 -0.285147 -0.182386
vn -0.878688 -0.434861 0.196986
vn 0.393797 0.909385 -0.133950
vn 0.684151 0.598640 0.416616
vn 0.874868 0.453065 -0.171282
vn 0.258263 -0.507868 0.821810
vn 0.274654 -0.304224 0.912147
vn 0.092482 -0.055143 0.994186
vn 0.411377 -0.124734 0.902890
vn 0.205900 0.191060 0.959740
vn 0.135257 0.521442 0.842498
vn 0.000552 0.962037 0.272917
vn 0.267963 0.823289 0.500390
vn -0.921468 -0.043584 0.386003
vn -0.588801 0.186825 0.786390
vn -0.151924 0.214058 -0.964934
vn 0.141125 0.672019 -0.726962
vn -0.589912 0.320695 -0.741053
vn 0.216963 0.893589 0.392971
vn -0.160667 0.835415 -0.525613
vn -0.070060 0.626211 -0.776500
vn 0.372130 0.651354 -0.661254
vn -0.878688 -0.434861 0.196986
vn -0.655228 -0.333832 0.677667
vn -0.214539 0.922048 -0.322181
vn -0.369902 0.615097 -0.696296
vn -0.039242 0.984520 0.170823
vn 0.514748 -0.459213 0.723988
vn 0.882462 -0.370755 0.289485
vn -0.723318 -0.430496 -0.539893
vn -0.764747 -0.077319 -0.639675
vn -0.947193 0.236675 -0.216357
vn 0.293001 0.557131 0.777017
vn -0.011498 0.270473 0.962659
vn 0.007589 0.404544 0.914487
vn -0.011498 0.270473 0.962659
vn -0.223401 0.974301 -0.028809
vn 0.393797 0.909385 -0.133950
vn 0.393797 0.909385 -0.133950
vn 0.818808 -0.569916 -0.068906
vn 0.795186 -0.333841 -0.506190
vn -0.623989 -0.781416 0.005239
vn -0.623989 -0.781416 0.005239
vn -0.789964 0.515510 0.331975
vn -0.921468 -0.043584 0.386003
vn -0.947193 0.236675 -0.216357
vn -0.940971 -0.285147 -0.182386
vn 0.267963 0.823289 0.500390
vn 0.135257 0.521442 0.842498
vn -0.327365 -0.801304 0.500744
vn 0.527939 -0.687103 0.499170
vn -0.623989 -0.781416 0.005239
vn -0.774171 -0.596798 -0.210929
vn -0.436723 -0.171074 -0.883180
vn -0.921468 -0.043584 0.386003
vn -0.011498 0.270473 0.962659
vn -0.285505 0.699422 0.655207
vn -0.153504 0.238119 0.959029
vn -0.565177 -0.624137 0.539469
vn -0.111031 0.663064 0.740283
vn 0.684150 0.598640 0.416616
vn 0.293001 0.557131 0.777017
vn -0.462607 0.876604 0.132516
vn 0.092482 -0.055143 0.994186
vn -0.321036 -0.416697 0.850470
vn -0.436723 -0.171074 -0.883180
vn -0.764747 -0.077319 -0.639675
vn -0.436723 -0.171074 -0.883180
vn -0.589912 0.320695 -0.741053
vn -0.052766 0.479643 -0.875876
vn 0.324726 0.265546 -0.907766
vn 0.069792 0.140798 -0.987575
vn -0.160667 0.835415 -0.525613
vn 0.372130 0.651354 -0.661254
vn -0.052766 0.479643 -0.875876
vn 0.372130 0.651354 -0.661254
vn -0.327364 -0.801304 0.500744
vn -0.081112 -0.544564 0.834788
vn -0.215711 -0.959379 -0.181827
vn 0.000552 0.962037 0.272917
vn 0.000235 0.663720 0.747981
vn 0.593085 0.215963 0.775635
vn 0.723684 -0.251589 0.642639
vn 0.141125 0.672019 -0.726962
vn -0.070060 0.626211 -0.776500
vn 0.003071 0.317849 -0.948136
vn -0.052766 0.479643 -0.875876
vn 0.092482 -0.055143 0.994186
vn -0.092705 -0.078576 0.992588
vn -0.011498 0.270473 0.962659
vn 0.874868 0.453065 -0.171282
vn 0.007616 -0.303789 0.952709
vn -0.081112 -0.544564 0.834788
vn -0.039242 0.984520 0.170823
vn -0.223401 0.974301 -0.028809
vn -0.160667 0.835415 -0.525612
vn -0.006447 0.936303 -0.351134
vn 0.393797 0.909385 -0.133950
vn 0.007616 -0.303789 0.952709
vn 0.092482 -0.055143 0.994186
vn -0.092705 -0.078576 0.992588
vn 0.007616 -0.303789 0.952709
vn -0.092705 -0.078576 0.992588
vn 0.293002 0.557131 0.777017
vn 0.684151 0.598639 0.416616
vn 0.216963 0.893589 0.392971
vn 0.293001 0.557131 0.777017
vn -0.723318 -0.430496 -0.539893
vn -0.723318 -0.430496 -0.539893
vn -0.940971 -0.285147 -0.182386
vn -0.011498 0.270473 0.962659
vn 0.205900 0.191060 0.959740
vn 0.007589 0.404544 0.914487
vn 0.882462 -0.370755 0.289485
vn 0.818808 -0.569916 -0.068906
vn 0.983149 -0.168606 -0.070642
vn 0.882462 -0.370755 0.289485
vn -0.369902 0.615097 -0.696296
vn -0.589912 0.320695 -0.741053
vn 0.514748 -0.459213 0.723988
vn 0.527939 -0.687103 0.499170
vn 0.711619 -0.604998 0.357178
vn 0.514748 -0.459213 0.723988
vn 0.527939 -0.687103 0.499170
vn 0.216963 0.893589 0.392971
vn -0.273235 0.878682 0.391484
f 1//1 2//2 3//3
f 4//4 5//5 6//6
f 7//7 8//8 9//9
f 10//10 11//11 12//12
f 13//13 14//14 15//15
f 16//16 17//17 18//18
f 19//19 20//20 16//16
f 21//21 22//22 23//23
f 24//24 25//25 26//26
f 27//27 28//28 29//29
f 30//30 14//14 31//31
f 32//32 33//33 17//17
f 20//20 34//34 16//16
f 35//35 36//36 32//32
f 32//32 36//36 33//33
f 37//37 38//38 25//25
f 39//39 19//19 40//40
f 41//41 42//42 43//43
f 16//16 44//44 32//45
f 16//46 32//45 17//17
f 15//15 45//47 13//13
f 46//48 11//11 47//49
f 11//11 48//50 12//12
f 49//51 40//40 50//52
f 51//53 52//54 53//55
f 13//13 45//47 46//48
f 54//56 15//57 55//58
f 30//30 31//31 35//35
f 48//50 49//51 12//12
f 4//4 56//59 57//60
f 55//58 15//57 30//30
f 15//15 14//61 30//30
f 57//60 56//59 34//34
f 55//62 30//30 35//63
f 11//11 5//5 48//50
f 46//64 45//47 11//11
f 49//51 4//4 57//60
f 40//65 49//51 39//39
f 6//6 35//66 34//34
f 35//67 32//68 44//44
f 39//39 49//51 57//60
f 39//69 20//20 19//19
f 48//50 5//5 4//4
f 48//70 4//71 49//51
f 35//63 6//6 55//72
f 6//73 54//56 55//74
f 11//11 45//75 5//5
f 45//75 15//76 54//77
f 39//78 57//60 20//20
f 20//79 57//60 34//34
f 36//36 58//80 33//33
f 31//81 14//14 58//80
f 35//82 31//31 36//36
f 31//83 58//80 36//36
f 5//84 54//56 6//73
f 54//77 5//85 45//47
f 34//34 44//44 16//16
f 34//86 35//87 44//44
f 4//88 6//73 56//59
f 6//73 34//86 56//59
f 42//42 59//89 43//43
f 60//90 43//43 59//89
f 61//91 62//92 52//54
f 63//93 62//92 64//94
f 65//95 66//96 67//97
f 67//97 66//96 23//23
f 68//98 69//99 9//9
f 70//100 71//101 72//102
f 2//2 73//103 3//3
f 43//104 60//90 74//105
f 63//93 64//94 75//106
f 76//107 27//27 29//29
f 17//17 33//108 77//109
f 37//37 78//110 38//38
f 72//102 71//101 21//21
f 79//111 66//96 65//95
f 80//112 18//18 81//113
f 82//114 65//95 67//97
f 52//54 51//53 61//91
f 64//115 83//116 75//106
f 84//117 77//109 85//118
f 60//90 84//117 86//119
f 68//98 47//49 87//120
f 22//22 10//10 88//121
f 29//29 26//26 76//107
f 2//2 74//105 73//103
f 89//122 63//93 90//123
f 38//124 78//110 90//123
f 21//21 91//125 72//102
f 1//1 3//126 92//127
f 28//28 3//128 29//29
f 3//3 70//100 72//102
f 42//129 79//111 65//130
f 65//131 82//114 80//112
f 81//113 59//89 80//112
f 77//109 59//89 81//113
f 7//7 28//28 27//27
f 61//91 51//53 83//116
f 12//12 88//121 10//10
f 12//132 49//133 50//52
f 59//89 77//109 60//90
f 77//109 84//117 60//90
f 52//134 14//61 13//13
f 52//135 13//13 53//55
f 33//108 58//80 78//110
f 33//108 85//118 77//109
f 76//107 26//26 25//136
f 38//38 75//106 25//25
f 63//93 75//137 38//124
f 38//138 90//123 63//139
f 86//119 24//24 26//26
f 74//140 26//26 73//141
f 53//142 8//8 7//7
f 46//48 47//143 68//98
f 52//144 62//145 14//14
f 58//146 14//14 89//122
f 76//107 75//147 83//116
f 25//136 75//106 76//107
f 29//29 3//148 73//103
f 73//103 26//149 29//150
f 53//142 7//7 51//151
f 83//116 51//151 7//7
f 92//127 91//125 1//152
f 42//129 41//41 79//111
f 66//96 21//21 23//23
f 66//153 91//154 21//21
f 37//37 84//117 85//118
f 84//117 24//155 86//119
f 69//99 71//101 70//156
f 87//120 10//10 22//22
f 83//116 7//157 27//27
f 76//107 83//116 27//27
f 58//158 89//122 90//159
f 58//160 90//123 78//161
f 18//162 19//163 16//164
f 18//162 80//165 82//166
f 19//19 18//167 82//168
f 82//166 40//65 19//163
f 53//169 46//48 8//170
f 53//169 13//171 46//48
f 43//172 2//2 41//41
f 43//104 74//140 2//173
f 71//101 22//22 21//174
f 87//120 22//175 71//101
f 17//17 77//176 81//177
f 17//178 81//113 18//179
f 9//9 69//99 70//180
f 28//181 70//100 3//182
f 88//121 23//23 22//22
f 50//52 67//97 23//23
f 40//65 67//97 50//52
f 82//168 67//183 40//40
f 46//64 68//98 8//170
f 9//184 8//185 68//98
f 74//105 60//90 86//119
f 86//186 26//26 74//140
f 64//94 61//91 83//116
f 62//145 61//91 64//94
f 42//187 80//188 59//189
f 65//190 80//188 42//129
f 9//191 70//192 28//193
f 7//7 9//194 28//195
f 91//196 66//197 79//111
f 79//198 1//1 91//199
f 24//24 84//117 37//37
f 24//155 37//37 25//25
f 89//200 14//61 62//92
f 89//201 62//145 63//202
f 72//102 92//127 3//203
f 72//204 91//196 92//205
f 88//206 50//52 23//23
f 12//207 50//208 88//209
f 33//33 78//110 85//210
f 37//37 85//210 78//211
f 68//98 87//212 69//99
f 69//99 87//120 71//101
f 47//213 10//214 87//215
f 47//216 11//11 10//10
f 41//41 2//2 1//1
f 79//217 41//218 1//152
